<?xml version="1.0" encoding="utf-8"?>
<!-- Generator: Adobe Illustrator 19.2.1, SVG Export Plug-In . SVG Version: 6.00 Build 0)  -->
<svg version="1.1" id="Layer_2" xmlns="http://www.w3.org/2000/svg" xmlns:xlink="http://www.w3.org/1999/xlink" x="0px" y="0px"
	 viewBox="0 0 189 36" style="enable-background:new 0 0 189 36;" xml:space="preserve">
<style type="text/css">
	.st0{fill:#927239;}
</style>
<polygon class="st0" points="54,24.4 51.6,24.4 51.6,15.8 48.1,22.2 46.7,22.2 43.1,15.8 43.1,24.4 40.7,24.4 40.7,11.3 43.1,11.3 
	47.4,18.9 51.6,11.3 54,11.3 "/>
<g>
	<path class="st0" d="M68.4,24.1c-1.5,0.4-2.9,0.6-4.3,0.6c-2.2,0-4-0.7-5.4-2c-1.3-1.3-2-2.9-2-4.8c0-2,0.7-3.6,2.1-4.9
		c1.4-1.3,3.1-1.9,5.3-1.9c1.3,0,2.5,0.1,3.7,0.4l-0.3,2.1c-1.3-0.2-2.3-0.3-3.1-0.3c-1.6,0-2.9,0.4-3.8,1.2
		c-0.9,0.8-1.3,1.9-1.3,3.4c0,1.3,0.4,2.4,1.3,3.3c0.8,0.8,2,1.3,3.4,1.3c0.7,0,1.4-0.1,2.1-0.2v-4.4h2.3V24.1z"/>
</g>
<polygon class="st0" points="84.9,24.4 82.5,24.4 82.5,15.8 78.9,22.2 77.5,22.2 74,15.8 74,24.4 71.6,24.4 71.6,11.3 74,11.3 
	78.3,18.9 82.5,11.3 84.9,11.3 "/>
<g>
	<path class="st0" d="M101.8,15.4c0-0.6-0.2-1.1-0.6-1.5s-0.9-0.6-1.5-0.6h-3.9v4.1h3.9c0.6,0,1.1-0.2,1.5-0.6
		C101.6,16.5,101.8,16,101.8,15.4 M105.7,24.4h-3.1l-3.6-5h-3.2v5h-2.5V11.3h6.8c1.2,0,2.3,0.4,3.1,1.2c0.8,0.8,1.2,1.7,1.2,2.9
		c0,0.8-0.2,1.6-0.7,2.2c-0.5,0.7-1.1,1.2-1.9,1.5L105.7,24.4z"/>
</g>
<polygon class="st0" points="117.2,24.4 107.8,24.4 107.8,11.3 117.2,11.3 117.2,13.5 110.3,13.5 110.3,16.6 116.8,16.6 116.8,18.8 
	110.3,18.8 110.3,22.3 117.2,22.3 "/>
<g>
	<path class="st0" d="M130.2,20.9c0,1.2-0.5,2.1-1.5,2.8c-1,0.7-2.3,1-3.9,1c-2,0-3.8-0.4-5.4-1.1l0.6-2c1.7,0.6,3.4,0.9,4.8,0.9
		c2,0,2.9-0.5,2.9-1.6c0-0.4-0.2-0.8-0.7-1.1c-0.4-0.2-1.2-0.6-2.7-1.1c-1.7-0.6-2.8-1.2-3.4-1.7c-0.7-0.6-1-1.4-1-2.5
		c0-2.3,1.7-3.4,5.2-3.4c1.7,0,3.3,0.2,4.7,0.6l-0.4,2c-1.5-0.3-2.9-0.5-4.3-0.5c-1,0-1.7,0.1-2.2,0.3c-0.4,0.2-0.6,0.5-0.6,1
		s0.3,0.8,0.8,1.2c0.4,0.2,1.3,0.6,2.9,1.2c1.7,0.6,2.7,1.2,3.2,1.6C129.9,19,130.2,19.8,130.2,20.9"/>
	<path class="st0" d="M142.5,17.9c0-1.3-0.4-2.4-1.1-3.3c-0.7-0.9-1.7-1.3-3-1.3c-1.2,0-2.2,0.4-2.9,1.3c-0.7,0.9-1.1,1.9-1.1,3.3
		c0,1.3,0.4,2.4,1.1,3.2c0.7,0.9,1.7,1.3,3,1.3c1.2,0,2.2-0.4,3-1.3C142.2,20.3,142.5,19.2,142.5,17.9 M145,17.9
		c0,1.9-0.6,3.5-1.9,4.8c-1.3,1.3-2.8,2-4.7,2s-3.4-0.7-4.7-2s-1.9-2.9-1.9-4.8s0.6-3.5,1.9-4.8c1.3-1.3,2.8-2,4.7-2s3.4,0.7,4.7,2
		C144.4,14.4,145,16,145,17.9"/>
	<path class="st0" d="M156.2,15.4c0-0.6-0.2-1.1-0.6-1.5c-0.4-0.4-0.9-0.6-1.5-0.6h-3.9v4.1h3.9c0.6,0,1.1-0.2,1.5-0.6
		C156,16.5,156.2,16,156.2,15.4 M160.1,24.4H157l-3.6-5h-3.2v5h-2.5V11.3h6.8c1.2,0,2.3,0.4,3.1,1.2s1.2,1.7,1.2,2.9
		c0,0.8-0.2,1.6-0.7,2.2c-0.5,0.7-1.1,1.2-1.9,1.5L160.1,24.4z"/>
</g>
<polygon class="st0" points="171.8,13.5 167.5,13.5 167.5,24.4 165,24.4 165,13.5 160.6,13.5 160.6,11.3 171.8,11.3 "/>
<g>
	<path class="st0" d="M184,20.9c0,1.2-0.5,2.1-1.5,2.8c-1,0.7-2.3,1-3.9,1c-2,0-3.8-0.4-5.4-1.1l0.6-2c1.7,0.6,3.4,0.9,4.8,0.9
		c2,0,2.9-0.5,2.9-1.6c0-0.4-0.2-0.8-0.7-1.1c-0.4-0.2-1.2-0.6-2.7-1.1c-1.7-0.6-2.8-1.2-3.4-1.7c-0.7-0.6-1-1.4-1-2.5
		c0-2.3,1.7-3.4,5.2-3.4c1.7,0,3.3,0.2,4.7,0.6l-0.4,2c-1.5-0.3-2.9-0.5-4.3-0.5c-1,0-1.7,0.1-2.2,0.3c-0.4,0.2-0.6,0.5-0.6,1
		s0.3,0.8,0.8,1.2c0.4,0.2,1.3,0.6,2.9,1.2c1.7,0.6,2.7,1.2,3.2,1.6C183.7,19,184,19.8,184,20.9"/>
	<path class="st0" d="M186.9,12.7"/>
	<path class="st0" d="M2.3,14.9c0,3.1,0.5,6,2.1,8.4v-2.1c0-2.6,2.1-4.4,4.2-5.6C6.4,16.4,4,15.9,2.3,14.9"/>
	<path class="st0" d="M4.1,12.7H3.4c-0.1-0.4,1-1.1,1.3-0.6L4.1,12.7z M1.9,12.4c0.6,0.4,1.4,0.6,2.3,0.5C4.9,13.4,5.9,12,6.9,12
		c1.5-0.2,3.4-0.4,4.4,0.9l-0.5-1c-1.4-0.1-2.6-0.6-3.7-1.2C4.9,9.7,3.8,12.9,1.9,12.4"/>
	<path class="st0" d="M0.6,7.3C1.3,7.5,2,7.7,2.7,7.7C4.2,7.1,4.6,5.9,4,4.3C3.1,3,1.9,2.3,0.6,2V7.3z"/>
	<path class="st0" d="M10.6,35.7c0.2-0.2,0.5-0.5,0.7-0.8c4-5.2-3.8-8.2-3.6-13.2c0.2-2,1.3-3.5,2.6-5.1l-0.1-0.1
		c-1.2,1.2-1.7,2-2.5,3.2c-2.4,4.9,1,11.7-2.5,15.9L10.6,35.7z"/>
	<path class="st0" d="M26.8,18.1c0,7.2-3.4,13.5-8.7,17.6h17.6V0.5H18.1C23.4,4.5,26.8,10.9,26.8,18.1"/>
	<path class="st0" d="M0.6,35.7h3L4.3,35c4.1-5.6-0.8-9.5-3.8-13.9L0.6,35.7z"/>
	<path class="st0" d="M8.9,0.5H0.6v0.6C1.4,1.2,2.3,1.5,3,1.8c1.7,1,3,2.6,2.8,4.6L9.5,6c0.5-1.2,0.7-3.1,0.2-4.1
		C9.5,1.3,9.2,0.8,8.9,0.5"/>
	<path class="st0" d="M10.6,0.5c0.8,1.1,0.8,2.5,0.9,3.6C13,3,14.8,2.3,16.7,2.8c-1.3-1-2.2-1.8-3.8-2.4L10.6,0.5z"/>
	<path class="st0" d="M18,18.4l-0.3,0.8l-0.4-1c-0.9,0.2-1.8,0.5-2.3,1.5c-0.1,0.3,0.1,0.8-0.2,1c-0.6-0.1-0.3-1.1-0.3-1.7
		c0.7-0.7,2.6-2.2,3.3-1.6C18,17.5,18.1,18,18,18.4 M14,25.6c-0.5-0.4-0.3-1.1-0.3-1.6l0.3-0.3c0.5,1.6,1.8-0.3,2.8-0.1
		c0.5-0.2,0.3-0.9,0.8-0.8C18.4,25.3,15.4,24.8,14,25.6 M21.2,25.9c0.4-3.3,0.1-6.8-2.3-9.1c-0.5-0.1-1.2,0.2-1.6-0.3
		c-1.1,1-2.5,1.4-3.5,2.5c-1.1,0.3-2.2-0.4-3.3-0.6c0-0.2,0-0.3,0-0.4c-1.5,1-1.1,3-1.4,4.5c0.4,1.7,2.3,2.4,3.5,3.4
		c1.9,0.3,3.6-0.5,5.2-1.1c0.3,0.3,0.7,0.5,0.5,0.9c-1.3,1.8-3.2,2.6-5.4,2.4c1.3,2.5,0.4,5.4-1,7.6h1.3
		C17.2,33.9,20.9,31.1,21.2,25.9"/>
	<path class="st0" d="M24.1,12.4c-1.1-3.8-4.5-8.9-9-8.6c-1.7,0.1-3.4,1.4-4,2.4c1.2,0.7,2.5,1.7,3.6,2.7c-0.1,0.4,0.2,0.9-0.3,1.1
		c-0.6-0.5-1.1-1.7-1.9-1.3c0.6,1.3,2.2,1.4,3.4,1.7c0.5,0.5,0.3,1.3,1.3,0.9c0.5,0.1,0.7,0.7,0.8,1.1c-0.8,1.5-3,0.5-4.2,0.8
		c1,0.4,2.1,0.5,3,1.1s1.2-0.8,1.6-1.3c1.6,0.4,0.7,2.1,1.4,3c3.4,3.5,2.7,9.7,1,13.7C25.5,25.6,25.1,16.2,24.1,12.4"/>
</g>
</svg>
