<?xml version="1.0" encoding="utf-8"?>
<!-- Generator: Adobe Illustrator 16.0.0, SVG Export Plug-In . SVG Version: 6.00 Build 0)  -->
<!DOCTYPE svg PUBLIC "-//W3C//DTD SVG 1.1//EN" "http://www.w3.org/Graphics/SVG/1.1/DTD/svg11.dtd">
<svg version="1.1" xmlns="http://www.w3.org/2000/svg" xmlns:xlink="http://www.w3.org/1999/xlink" x="0px" y="0px" width="1280px"
	 height="800px" viewBox="0 0 1280 800" enable-background="new 0 0 1280 800" xml:space="preserve">
<g id="Layer_1">
	<g>
		<path fill-rule="evenodd" clip-rule="evenodd" fill="#0E0E0E" d="M755.021,636.845c-3.62,1.973-7.777,1.416-11.496,1.507
			c-12.478,0.305-24.053-2.562-32.87-12.523c-10.86-12.269-16.309-25.946-12.13-42.483c-11.248-3.137-23.143-3.248-34.758-5.224
			c-3.463-0.59-6.111-1.678-7.514-4.825c-1.254-2.812-3.365-3.313-6.08-3.181c-12.549,0.607-24.875-1.302-37.215-3.236
			c-3.913-0.614-7.305-3.234-12.472-2.74c6.08,3.483,11.377,6.561,16.715,9.565c8.111,4.564,16.27,9.045,24.37,13.627
			c5.063,2.863,6.504,8.064,7.16,13.117c2.384,18.376,0.307,35.925-8.605,52.743c-6.127,11.563-13.543,21.088-25.401,27.052
			c-4.042,2.032-8.282,2.823-12.016,1.427c-12.564-4.698-24.654-10.507-30.559-23.763c-6.112-13.721-8.228-27.7-0.736-41.691
			c1.123-2.097,0.54-2.956-1.252-3.812c-9.223-4.401-17.226-10.68-25.425-16.644c-2.332-1.696-5.377-2.853-5.364-6.625
			c0.006-1.776-1.97-1.49-3.044-1.917c-12.423-4.925-24.229-10.73-34.482-19.64c-9.837-8.547-12.445-18.525-9.336-30.928
			c4.795-19.129,12.335-37.148,20.787-54.859c3.638-7.625,6.505-15.625,11.052-22.805c0.634-1.001,0.286-1.861,0.138-2.836
			c-2.849-18.793-0.695-37.496,1.032-56.209c1.453-15.735,3.655-31.353,7.799-46.624c0.795-2.931-1.083-3.228-2.725-4.277
			c-26.579-16.988-46.582-39.023-53.909-70.688c-2.623-11.334-2.181-22.823-1.468-34.312c0.11-1.781,0.575-3.432-1.25-4.933
			c-1.798-1.479-1.017-3.699-0.365-5.585c2.87-8.303,5.761-16.599,8.738-24.863c0.624-1.731,1.345-3.239,0.553-5.197
			c-6.404-15.834-1.265-30.445,5.233-44.718c4.767-10.469,12.09-18.992,21.32-25.994c8.929-6.774,20.164-3.54,23.633,7.163
			c2.763,8.523,1.143,16.772-1.681,24.899c-0.662,1.906-0.919,3.059,1.333,4.166c2.123,1.043,3.185,3.161,3.471,5.71
			c1.229,10.967-1.15,20.731-10.357,27.503c-4.615,3.395-5.422,7.612-6.032,12.718c-1.634,13.667,1.408,26.438,6.73,38.773
			c3.82,8.853,10.236,15.327,19.198,19.321c6.125,2.73,12.201,5.192,19.064,5.162c3.663-0.016,7.23-0.271,11.343-1.837
			c-5.645-5.942-10.228-12.293-14.159-19.229c-5.124-9.038-7.764-18.545-9.199-28.753c-2.336-16.616-0.188-32.587,6.371-47.768
			c9.396-21.749,24.507-38.15,46.376-48.388c15.784-7.39,32.054-12.297,49.309-9.923c19.291,2.653,36.922,10.041,52.666,22.129
			c18.926,14.531,31.313,32.984,36.091,56.237c3.972,19.323,3.93,38.628-3.25,57.424c-0.409,1.072-0.729,2.178-1.229,3.688
			c6.947,0.622,13.63,1.229,20.065,3.366c6.335,2.104,10.433,5.878,12.054,12.63c2.631,10.948,2.012,21.81-0.235,32.625
			c-0.567,2.73-0.421,4.556,1.395,6.684c11.61,13.613,21.351,28.425,28.367,44.955c0.642,1.512,0.825,3.573,3.473,3.472
			c1.805-0.07,2.136,1.872,2.728,3.19c2.759,6.142,4.297,12.689,4.646,19.311c0.828,15.636,1.132,31.305-2.756,46.683
			c-1.904,7.533-5.482,14.229-10.361,20.267c-6.422,7.947-18.265,8.12-25.259,0.535c-4.952-5.369-6.438-12.165-8.391-18.797
			c-0.263-0.891,0.251-1.977-0.881-2.626c-7.722-4.429-6.093-11.287-4.34-17.908c1.322-4.996,3.86-9.566,6.716-13.868
			c1.414-2.128,1.873-3.994,0.941-6.472c-1.746-4.648-3.099-9.444-4.788-14.116c-0.472-1.303-1.254-2.533-0.057-3.625
			c2.837-2.587-0.381-3.684-1.465-4.289c-1.714-0.959-2.243,1.132-2.703,2.367c-3.834,10.297-7.586,20.624-11.401,30.928
			c-5.991,16.175-14.305,30.868-26.47,43.353c-8.669,8.896-18.807,9.861-29.792,6.523c-3.997-1.215-6.597-1.79-8.635,2.788
			c-1.1,2.469-3.227,4.79-5.454,6.396c-14.924,10.763-19.374,27.091-23.706,43.569c-1.051,3.997,2.893,5.625,3.832,8.756
			c0.443,1.48,3.84,0.264,6.08-0.891c1.994-1.027,4.873-0.57,7.339-0.413c25.426,1.622,50.323,6.549,75.015,12.509
			c6.568,1.586,12.988,4.14,19.142,6.975c4.923,2.267,6.427,7.565,7.532,12.383c4.617,20.111,3.959,40.367-0.197,60.386
			c-1.711,8.243-3.603,16.873-9.695,23.517c-1.887,2.057-3.133,5.243-6.926,4.053c3.443-3.897,6.287-8.028,8.365-12.964
			c5.808-13.797,6.101-28.468,7.557-42.935c0.982-9.764,0.626-19.602-2.046-29.167c-0.479-1.714-0.46-4.107-3.386-4.574
			c-0.109,1.192-0.552,2.391-0.262,3.372c3.211,10.85,2.99,21.967,1.74,32.938c-1.74,15.28-3.042,30.786-11.084,44.576
			c-1.223,2.098-1.9,4.531-2.684,6.858C752.744,636.239,753.375,636.741,755.021,636.845z M616.812,216.047
			c-2.48-2.079-4.96-4.157-7.441-6.236c-0.832-1.036-1.665-2.071-2.497-3.107c-6.628-12.808-6.916-25.741-0.655-38.747
			c1.468-3.05,0.129-4.195-2.662-4.621c-3.76-0.572-7.313,0.68-10.677,1.877c-15.727,5.598-30.146,12.756-34.85,30.932
			c-1.691,6.533-2.122,13.137-2.024,19.794c0.238,16.111,3.807,31.223,13.86,44.282l-0.108-0.178
			c0.404,0.523,0.807,1.047,1.211,1.57c1.245,1.744,2.432,3.532,3.742,5.227c12.964,16.763,34.562,28.939,58.291,17.838
			c8.426-2.946,15.343-8.403,22.372-13.619c7.798-5.785,12.416-13.505,14.045-23.2c1.747-10.401-4.11-19.656-14.524-21.919
			c-12.67-2.753-25.643-4.243-37.793-9.143l0.097,0.092C617.171,216.561,617.043,216.28,616.812,216.047z M794.964,451.976
			c2.311-1.865,4.157-4.071,5.091-6.946c0.387-0.508,0.847-0.976,1.146-1.53c7.781-14.391,7.002-30.094,7.012-45.683
			c0.002-2.359-1.518-1.871-3.02-1.991c-8.874-0.712-17.396,1.878-26.093,2.778c-3.6,0.373-7.512,0.795-9.673,4.9
			c-2.705,5.139-5.881,10.068-7.047,15.831c-0.732,3.62-1.24,7.431,2.104,10.461c1.859-4.029,1.158-8.964,5.352-11.923
			c1.59,5.628-1.834,10.759-0.406,16.04c0.69,6.772,2.183,13.182,8.324,18.663c0.033-4.239,1.881-7.233,1.074-10.618
			c0.913-1.531-1.346-4.635,1.567-4.813c3.51-0.215,0.905,3.017,1.69,4.508c0.346,0.658,0.145,1.604,0.193,2.42
			c-2.501,2.658-0.473,6.754-2.965,9.446c-0.125,0.135,0.218,0.893,0.513,1.194c3.458,3.535,9.3,2.076,11.071-2.741
			c1.587-2.426,2.01-5.201,2.438-7.984c0.145-0.94,0.156-2.126,1.451-2.284c1.646-0.2,1.658,1.254,2.074,2.269
			c-0.664,2.685-1.328,5.37-1.975,8.043l-0.001,0.135L794.964,451.976z M514.982,159.085c2.422,1.849,3.588,0.062,4.563-1.709
			c3.993-7.25,4.404-15.048,3.265-23.031c-0.152-1.064-1.097-1-1.941-0.68c-3.594-0.894-4.886,0.285-5.118,4.191
			c-0.433,7.306-2.245,14.378-6.275,20.943C511.393,158.899,513.188,158.992,514.982,159.085z M592,557
			c-7.82-7.977-12.948-17.552-16.937-27.888c-2.597-6.729-2.806-6.648-8.147-1.928c-4.918,4.348-4.942,10.575,0.083,14.66
			c7.472,6.072,15.387,11.521,23.733,16.33c0.969,1.014,1.917,2.067,3.699,2.039C594.521,558.255,593.363,557.55,592,557z
			 M731.057,285.792c8.498,4.716,17.298,8.941,24.76,15.33c3.492,2.973,6.984,5.945,10.676,9.087
			c0.595-1.229,1.113-1.919,1.271-2.684c2.125-10.319,1.29-20.569-1.441-30.61c-1.27-4.67-4.424-7.963-10.145-8.157
			c0.803,5.068,1.728,9.778,2.23,14.533c0.283,2.672,1.295,5.691-1.45,7.896c-3.228-3.912-1.714-8.837-2.69-13.239
			c-2.664-11.993-2.652-12.268-15.281-11.991c-1.106-0.485-1.96-0.061-2.553,0.851c-3.641,5.596-7.18,11.26-11.808,16.396
			C727.105,284.2,729.081,284.996,731.057,285.792z M567.439,175.455c0.439-0.228,0.938-0.384,1.309-0.692
			c8.801-7.302,18.419-13.033,29.733-15.504c1.286-0.281,2.078-1.119,2.484-2.217c3.395-9.165,8.092-17.563,14.353-25.263
			c-21.84,7.919-39.022,21.118-48.952,42.717c-0.301,0.574-0.549,1.193,0.083,1.649C566.558,176.224,567.099,175.7,567.439,175.455z
			 M505.928,140.951c-6.417,4.604-10.278,11.311-13.878,17.981c-5.337,9.889-8.919,20.653-7.833,31.947
			c1.133,11.781,6.678,17.596,19.002,16.121c1.631-0.195,3.214-0.9,4.843-1c16.762-1.03,23.17-13.022,24.773-25.675
			c0.365-2.881,1.099-6.979-2.926-8.103c-3.925-1.096-5.799,2.315-7.633,5.114c-0.178,0.271-0.254,0.612-0.361,0.927
			c-0.936,2.743-2.223,4.315-4.494,1.068c-1.145-1.637-2.643-1.798-4.362-1.612c-7.403-1.654-13,1.728-18.1,6.492
			c-1.224-0.515-4.89,0.347-1.515-2.746c1.567-1.437,3.042-2.975,4.558-4.466c3.33-1.346,6.661-2.69,9.991-4.036
			c1.671-0.003,3.343-0.006,5.015-0.009c6.079,4.141,8.317-1.27,11.738-4.744c-1.924-1.273-3.545-2.906-5.489-3.522
			c-4.598-1.458-8.867-5.23-14.221-2.552c-1.008-0.058-2.017-0.114-3.025-0.171c-0.055-0.335-0.109-0.669-0.164-1.003
			c0.112-0.279,0.181-0.568,0.207-0.867c3.3-0.598,5.019-2.126,6.057-5.786c1.648-5.813,4.378-11.301,3.762-18.216
			C509.521,137.808,507.287,138.785,505.928,140.951z M741.473,408.351c4.106-10.37,7.998-20.832,12.398-31.076
			c2.666-6.205,2.5-8.188-3.083-12.125c-10.726-7.563-23.142-9.74-35.781-11.195c-2.869-2.154-4.913-0.492-6.858,1.507
			c-10.438,10.729-17.225,23.416-20.174,38.093c-2.813,14.005-0.567,28.129-0.767,42.196c-0.081,5.74,3.625,8.482,9.265,6.922
			c2.865-0.793,5.661-1.912,7.603-4.399c4.521-2.896,8.434-6.382,10.942-11.236c2.883-0.289,2.003,0.981,1.212,2.581
			c-3.004,6.076-7.389,11.06-12.775,14.953c-3.616,2.613-8.034,3.854-12.659,3.868c-1.33,0.004-3.361-1.691-3.844,0.184
			c-0.589,2.293,1.498,3.264,3.657,3.761c11.46,2.641,21.479-0.063,29.652-8.458C730.129,433.788,736.203,421.284,741.473,408.351z
			 M566.142,544.919c-3.925-4.28-10.07-6.079-13.312-11.349c2.668-1.521,5.229,3.327,6.412,0.35
			c0.849-2.136-2.163-4.475-4.835-5.444c-0.401-0.852-1.254-1.708-0.327-2.647c0.86-0.871,1.836-0.331,2.734,0.061
			c1.425,0.621,2.596,3.067,4.167,1.84c3.353-2.62,6.611-5.516,9.258-8.819c1.354-1.689,1.484-4.487,0.76-6.909
			c-0.247-8.764-0.581-17.526-0.687-26.292c-0.03-2.537-0.764-3.717-3.401-3.552c-4.651,0.292-8.538-2.393-12.85-3.447
			c-1.445-0.354-1.698-1.378-0.94-2.642c6.287,0.429,12.413,2.217,18.768,2.149c2.014-0.021,2.851,1.322,2.82,3.328
			c-0.092,5.986,0.094,11.984-0.217,17.957c-0.519,9.923,0.601,19.595,3.857,28.968c3.393,9.768,5.259,10.497,14.267,6.104
			c6.7-3.268,7.572-3.423,11.095,3.011c3.968,7.246,9.685,9.92,17.647,10.607c15.042,1.298,12.38,0.06,12.698,13.8
			c0.05,2.178,0.505,3.78,2.774,3.865c3.623,0.136,7.124,1.261,10.878,0.595c3.943-0.7,5.852-2.23,5.588-6.509
			c-0.776-12.563,0.715-24.86,5.304-36.523c-4.574-1.488-10.146,1.893-13.85-3.483c2.436-1.768,5.21-0.076,7.419-1.739
			c-2.587-3.787-6.191-4.491-10.139-4.454c-1.453,0.014-3.425,0.401-3.585-1.629c-0.16-2.033,1.945-2.401,3.259-2.072
			c6.308,1.583,7.572-2.576,8.619-7.166c0.369-1.615,0.844-3.206,1.271-4.808c4.946-13.044,9.729-26.19,21.604-34.952
			c3.266-1.71,5.167-4.582,6.632-7.816c4.078-9.004,3.802-18.544,2.797-27.97c-2.518-23.612,1.376-45.672,14.608-65.727
			c1.716-2.6,3.875-4.963,4.605-8.158c-2.733-1.41-6.067,1.426-8.525-1.321c0.924-3.561,4.033-3.81,6.742-3.927
			c6.926-0.301,13.805-0.628,20.775,0.737c17.096,3.348,33.071,8.884,45.396,21.82c2.944,3.091,5.272,4.318,8.815,1.598
			c6.422-1.686,12.83-3.424,19.271-5.031c2.924-0.73,3.063-2.364,2.235-4.857c-2.111-6.364-5.539-12.076-8.817-17.833
			c-3.818-6.705-3.998-6.603-10.313-2.217c-5.839,4.055-7.515,3.812-12.184-1.477c-7.149-8.097-14.255-16.237-21.608-24.144
			c-1.908-2.05-2.098-3.4-0.381-5.467c2.537-3.053,5.426-5.685,8.953-7.755c-7.907-7.22-17.006-11.718-26.515-15.176
			c-11.937-4.34-24.142-7.198-37.022-3.663c-8.805,2.416-13.707,7.9-15.786,16.677c-1.325,5.594,0.348,10.879,0.481,16.307
			c-4.492-0.988-3.215-5.575-5.223-8.771c-0.37,2.294-0.786,4.04-0.902,5.806c-0.148,2.257-1.365,2.739-3.294,2.382
			c-2.106-5.838,1.294-11.131,2.009-17.145c-7.298,2.112-14.341,2.302-21.461,2.14c-9.313-0.211-18.295-2.898-27.56-3.35
			c-8.021-1.045-15.804-2.958-23.575-7.071c0.286,2.299,0.555,3.864,0.658,5.441c0.124,1.917-1.107,0.986-1.946,0.834
			c-1.294-3.228-2.337-6.587-3.947-9.647c-1.979-3.763-4.794-8.359-9.172-7.535c-4.94,0.929-9.727,1.188-14.671,1.31
			c-17.902,0.438-37.843-11.504-43.669-30.212c-1.576-5.063-3.345-10.06-4.655-15.209c-0.488-1.916-1.087-3.763-3.991-3.226
			c-8.643,1.598-17.328,2.965-25.997,4.422c-2.908,0.016-6.793-0.782-6.845,3.536c-0.154,12.681-1.555,25.488,3.095,37.834
			c1.122,2.979,2.524,3.03,4.798,1.712c6.25-1.481,8.636,1.678,10.333,7.334c2.642,8.802,6.715,17.101,14.356,22.811
			c3.986,2.979,3.975,5.662,0.697,8.95c-0.813,0.815-1.428,1.827-2.135,2.749c-2.518,1.415-1.524,2.614,0.061,4.111
			c5.156,4.871,10.187,9.806,16.272,13.642c8.223,5.185,8.088,5.401,11.429-3.313c0.291-0.758,0.558-1.525,0.836-2.288
			c3.02-6.104,6.013-12.221,9.082-18.301c0.694-1.374,1.466-2.761,0.875-4.252c-1.539-3.881-0.148-7.065,1.914-10.197
			c1.666,0.87,0.955,2.725,1.852,3.949c4.087-2.858,4.828-8.897,10.684-10.535c-0.336,4.406-2.308,7.469-4.295,10.434
			c-6.326,9.439-11.206,19.648-14.867,30.305c-8.396,24.436-13.591,49.633-15.908,75.363c-1.265,14.052-2.416,28.158-0.063,42.24
			c-0.472,1.859,0.501,3.555,0.614,5.316c0.303,4.77,3.932,8.717,3.245,13.688c-5.065-0.043-4.284-5.271-6.877-8.078
			c-3.361,7.433-6.625,14.503-9.763,21.63c-3.21,7.291-6.403,14.594-9.392,21.977c-1.557,3.847-2.729,7.855-3.934,11.833
			c-0.781,2.578-0.963,4.285,2.924,5c8.88,1.633,9.614,3.361,7.421,12.435c-2.408,9.962-0.34,15.799,8.297,21.35
			c3.752,2.41,4.151,4.735,1.625,8.074c-0.901,1.192-1.611,2.527-2.488,3.738c-0.777,1.073-1.166,1.921,0.269,2.849
			c5.871,3.795,11.854,7.37,18.371,9.97c1.612,0.643,2.307-0.081,2.974-1.553c5.504-12.141,14.411-21.421,24.856-29.415
			C570.248,549.738,570.158,548.121,566.142,544.919z M698.297,259.878c0.953-5.043,1.488-10.187,4.108-14.783
			c4.302-7.547,10.81-11.566,19.409-12.095c8.217-0.504,13.4,3.868,16.807,10.902c0.105,0.215,0.553,0.264,1.164,0.532
			c1.861-6.482,2.096-13.151,1.803-19.618c-0.486-10.783-2.201-21.476-5.676-31.806c-5.968-17.74-15.574-33.009-30.241-44.857
			c-4.347-3.512-8.919-5.552-14.603-2.564c-11.189,5.881-20.996,13.23-28.58,23.578c-2.295,3.13-1.579,4.912,0.744,6.563
			c7.806,5.551,13.15,13.089,17.645,21.305c7.05,12.888,10.877,26.686,11.057,41.424c0.074,6.014-1.726,11.731-2.945,17.539
			c-0.406,0.712-0.883,1.394-1.211,2.142c-6.389,14.578-16.76,25.246-30.871,32.654c-5.92,3.107-12.494,3.553-18.537,6.084
			c5.195,0.313,10.373,0.653,15.486,0.233c7.705-0.633,15.535-1.058,20.371-8.896c2.002-3.244,5.668-4.903,9.293-6.432
			c6.307-2.66,12.914-2.696,20.16-2.899C698.36,273.221,698.989,266.383,698.297,259.878z M595.063,596.725
			c2.604-0.561,5.214-0.997,7.899-0.731c1.261,0.125,3.177-0.353,3.131,1.456c-0.042,1.695-1.99,1.337-3.251,1.469
			c-15.587,1.628-29.442,15.388-31.458,29.362c-2.395,16.601,4.267,30.91,17.015,42.023c2.902,2.53,6.574,4.907,10.371,3.644
			c4.643-1.544,9.301-3.434,13.237-6.719c21.271-17.754,26.757-41.449,25.646-67.644c-0.265-6.233-2.264-11.258-8.377-14.536
			c-18.291-9.811-36.407-19.95-54.459-30.194c-2.366-1.343-3.988-0.953-5.853,0.16c-11.734,7.004-19.809,17.058-24.615,29.789
			c-1.343,3.558-0.601,6.471,2.744,8.62c6.565,4.22,13.083,8.512,19.621,12.773c0.87,0.743,1.708,1.529,2.616,2.221
			c3.297,2.511,5.81,3.169,8.881-1.091C582.241,601.735,588.01,597.979,595.063,596.725z M715.016,566.05
			c-0.441,1.89-1.734,3.088-3.188,4.274c-2.599,2.123-4.854,4.614-6.146,7.762c-10.16,24.734-2.563,47.769,24.977,55.998
			c13.303,3.976,19.259,1.141,24.088-11.123c3.895-9.894,7.098-20.04,8.105-30.702c1.376-14.554,2.564-28.997-0.475-43.658
			c-1.833-8.839-7.627-11.507-14.697-13.351c-6.227-1.625-12.726-2.237-18.916-3.969c-19.633-5.493-39.747-7.442-59.962-8.953
			c-3.352-0.25-4.727,1.103-5.981,3.787c-3.669,7.851-4.607,16.297-5.432,24.721c-0.662,6.761-1.24,13.634,1.846,20.104
			c0.986,3.087,3.586,3.583,6.292,3.959c9.872,1.372,19.899,1.676,29.612,4.12c2.918,0.734,4.803-0.442,6.248-2.675
			C704.689,571.244,709.064,567.617,715.016,566.05z M603.17,677.633c6.425,1.193,10.782,0.151,16.173-4.888
			c20.914-19.55,29.315-43.677,25.526-72.021c-0.241-1.799-0.721-3.816-3.17-6.005c1.178,17.038-0.128,32.789-5.932,47.905
			C629.727,658.354,619.083,669.87,603.17,677.633z M528.232,138.279c-2.375,7.628-1.79,15.145-5.766,21.638
			c-1.478,2.412,2.638,2.431,3.988,3.778c1.485,1.483,1.921-0.514,2.188-1.361C531.058,154.647,532.65,146.929,528.232,138.279z
			 M594.256,560.26c1.516,1.577,2.633,2.435,4.381,1.544C597.43,561.185,596.616,559.758,594.256,560.26z"/>
		<path fill-rule="evenodd" clip-rule="evenodd" fill="#FDFDFD" d="M651.596,498.067c-0.428,1.602-0.902,3.192-1.271,4.808
			c-1.047,4.59-2.312,8.749-8.619,7.166c-1.313-0.329-3.418,0.039-3.259,2.072c0.16,2.03,2.132,1.643,3.585,1.629
			c3.947-0.037,7.552,0.667,10.139,4.454c-2.209,1.663-4.983-0.028-7.419,1.739c3.703,5.376,9.275,1.995,13.85,3.483
			c-4.589,11.663-6.08,23.96-5.304,36.523c0.264,4.278-1.645,5.809-5.588,6.509c-3.755,0.666-7.256-0.459-10.878-0.595
			c-2.269-0.085-2.724-1.688-2.774-3.865c-0.318-13.74,2.344-12.502-12.698-13.8c-7.963-0.688-13.68-3.361-17.647-10.607
			c-3.522-6.434-4.395-6.278-11.095-3.011c-9.007,4.394-10.874,3.664-14.267-6.104c-3.256-9.373-4.375-19.045-3.857-28.968
			c0.312-5.973,0.125-11.971,0.217-17.957c0.031-2.006-0.806-3.35-2.82-3.328c-6.355,0.067-12.481-1.721-18.768-2.149
			c-9.022-3.85-16.05-9.968-20.437-18.766c-1.085-2.176-1.989-3.628-4.553-3.335c-2.353-14.082-1.202-28.188,0.063-42.24
			c2.317-25.73,7.511-50.928,15.908-75.363c3.662-10.656,8.541-20.865,14.867-30.305c1.987-2.965,3.959-6.027,4.295-10.434
			c-5.856,1.638-6.597,7.677-10.684,10.535c-0.896-1.225-0.186-3.079-1.852-3.949c-2.063,3.132-3.453,6.316-1.914,10.197
			c0.591,1.491-0.181,2.878-0.875,4.252c-3.068,6.08-6.062,12.197-9.082,18.301c-2.843,0.262-5.48-0.196-8.138-1.434
			c-6.992-3.257-13.767-6.904-20.46-10.718c0.707-0.922,1.322-1.934,2.135-2.749c3.278-3.288,3.289-5.972-0.697-8.95
			c-7.641-5.71-11.714-14.009-14.356-22.811c-1.698-5.656-4.083-8.815-10.333-7.334c-3.902-14.274-2.675-28.673-1.047-43.082
			c8.669-1.457,17.354-2.824,25.997-4.422c2.904-0.537,3.503,1.31,3.991,3.226c1.31,5.149,3.079,10.146,4.655,15.209
			c5.826,18.708,25.768,30.649,43.669,30.212c4.945-0.121,9.731-0.381,14.671-1.31c4.378-0.824,7.193,3.772,9.172,7.535
			c1.61,3.061,2.652,6.42,3.947,9.647c-1.891,2.783-0.783,4.383,2.087,5.287c-1.004,0.937-2.008,1.874-3.012,2.811
			c-3.236-0.33-6.477-0.386-8.411,2.835c-3.919,6.528-9.548,11.846-12.992,18.716c-5.836,11.645-9.658,23.693-11.062,36.834
			c-1.844,17.252-4.768,34.39-2.526,51.775c0.466,3.613-0.653,7.863,2.817,10.77c0.128,0.642,0.256,1.283,0.384,1.925
			c-1.888,1.1-1.077,1.676,0.412,2.12c0.144,0.968,0.288,1.936,0.431,2.903c-1.385,2.317-0.501,3.903,1.638,5.084
			c2.151,5.498,2.644,11.725,7.221,17.294c0.395-4.291-0.727-7.192-1.744-10.102c-5.041-14.412-4.914-29.54-4.811-44.378
			c0.127-18.287,3.593-36.151,10.444-53.459c5.5-13.893,11.996-26.983,21.181-38.715c1.929-2.464,4.153-4.992,7.747-4.834
			c4.981,0.22,9.903-0.078,14.789-1.049c3.199-1.508-0.556-3.387,0.269-5.021c9.265,0.451,18.247,3.139,27.56,3.35
			c7.12,0.162,14.163-0.027,21.461-2.14c-0.715,6.014-4.115,11.307-2.009,17.145c0.608,1.338,1.097,2.747,1.849,3.999
			c1.57,2.619,3.877,1.087,5.813,0.707c2.284-0.449,2.871-2.021,1.758-4.122c-0.134-5.428-1.807-10.713-0.481-16.307
			c2.079-8.776,6.981-14.261,15.786-16.677c12.881-3.535,25.086-0.677,37.022,3.663c9.509,3.458,18.607,7.956,26.515,15.176
			c-3.527,2.07-6.416,4.702-8.953,7.755c-1.717,2.066-1.527,3.417,0.381,5.467c7.354,7.906,14.459,16.047,21.608,24.144
			c4.669,5.288,6.345,5.531,12.184,1.477c6.315-4.386,6.495-4.488,10.313,2.217c3.278,5.757,6.706,11.469,8.817,17.833
			c0.827,2.493,0.688,4.127-2.235,4.857c-6.441,1.607-12.85,3.346-19.271,5.031c0.063-7.34-5.211-11.545-9.701-16.069
			c-9.366-9.438-21.779-13.03-33.936-16.924c-12.295-3.938-24.765-5.986-37.508-1.81c-3.427,1.123-5.884,2.785-5.966,6.891
			c-0.08,4.01,1.23,6.771,5.382,7.684c2.458,2.747,5.792-0.089,8.525,1.321c-0.73,3.195-2.89,5.559-4.605,8.158
			c-13.232,20.055-17.126,42.114-14.608,65.727c1.005,9.426,1.281,18.966-2.797,27.97c-1.465,3.234-3.366,6.106-6.632,7.816
			c-6.653-0.044-13.141,1.385-19.678,2.314c-1.766,0.251-3.668,1.335-4.04,3.305c-0.361,1.917,1.665,2.26,2.921,2.887
			c2.954,1.475,3.91,3.364,3.076,6.849c-1.261,5.273-3.545,10.033-6.07,14.699C647.83,496.085,648.63,497.432,651.596,498.067z
			 M656.504,340.166c0.813-2.405-1.117-2.447-2.139-2.77c-9.16-2.898-18.39-5.583-27.528-8.549
			c-2.151-0.699-3.017-0.146-3.593,1.767c-1.766,5.871-3.485,11.757-5.377,17.587c-0.643,1.98,0.029,2.494,1.831,3.043
			c9.046,2.756,18.032,5.709,27.063,8.515c1.359,0.422,3.212,1.072,3.87-0.908C652.721,352.563,654.619,346.21,656.504,340.166z"/>
		<path fill-rule="evenodd" clip-rule="evenodd" fill="#FDFDFD" d="M659.234,570.94c-3.086-6.471-2.508-13.344-1.846-20.104
			c0.824-8.424,1.763-16.87,5.432-24.721c1.255-2.685,2.63-4.037,5.981-3.787c20.215,1.511,40.329,3.46,59.962,8.953
			c6.19,1.731,12.689,2.344,18.916,3.969c7.07,1.844,12.864,4.512,14.697,13.351c3.039,14.661,1.851,29.104,0.475,43.658
			c-1.008,10.662-4.211,20.809-8.105,30.702c-4.829,12.264-10.785,15.099-24.088,11.123c-27.539-8.229-35.137-31.264-24.977-55.998
			c1.293-3.147,3.548-5.639,6.146-7.762c1.453-1.187,2.746-2.385,3.189-4.275c2.916,1.105,4.437-1.654,6.621-2.524
			c1.43-0.569,4.558,0.315,3.994-2.498c-0.485-2.422-2.572-4.325-5.169-4.898c-2.98-0.657-5.593,0.399-7.694,2.591
			c-2.989,3.117-6.389,5.846-8.871,9.444c-1.209,1.753-2.715,2.73-5.043,2.322c-6.516-1.141-13.102-3.194-19.572-2.906
			C672.618,567.875,664.445,561.668,659.234,570.94z M733.977,632.837c-12.76-9.842-21.297-21.353-24.068-36.657
			c-0.379-2.094,0.021-5.751-2.471-5.776c-3.627-0.037-2.004,3.758-2.506,5.951c-0.329,1.438-0.813,2.927-0.728,4.363
			C705.174,616.972,720.375,630.042,733.977,632.837z M750.449,543.789c-3.268,0.446-5.816,2.177-5.974,6.185
			c-0.161,4.094,3.036,7.066,7.218,7.009c4.425-0.06,5.518-3.016,5.648-6.602C757.481,546.605,754.563,543.76,750.449,543.789z"/>
		<path fill-rule="evenodd" clip-rule="evenodd" fill="#C8FBFD" d="M606.874,206.703c0.833,1.036,1.665,2.071,2.498,3.108
			c-1.815,1.097-0.826,2.178,0.157,3.018c1.691,1.445,3.517,2.733,5.285,4.088c0.795-0.01,1.589-0.02,2.384-0.029
			c0,0-0.097-0.092-0.097-0.091c-0.227,1.974,1.367,2.35,2.64,3.017c4.433,2.322,8.862,4.65,13.293,6.976
			c-3.788,0.82-6.079,2.741-4.628,6.941c1.269,3.675,6.977,5.541,11.062,3.653c3.377-1.561,4.106-4.02,2.014-7.19
			c3.783,0.145,6.979,1.828,10.044,3.842c6.981,4.589,10.147,10.409,8.192,17.031c-2.806,9.502-7.869,17.609-15.695,24.116
			c-3.708,3.083-8.778,4.706-11.021,9.494c-23.729,11.102-45.326-1.075-58.291-17.838c-1.31-1.694-2.498-3.482-3.743-5.228
			c-0.404-0.523-0.807-1.047-1.21-1.569c0,0,0.108,0.178,0.108,0.177c0.326-2.445-0.745-4.572-1.665-6.684
			c-5.115-11.74-8.066-23.899-7.224-36.793c1.18-18.061,8.835-32.387,24.528-41.949c2.683-1.634,5.479-3.032,8.882-2.876
			c2.545,0.117,3.646,0.482,2.78,3.435c-1.978,6.739-1.611,13.593,0.984,20.029C599.944,199.824,600.751,205.434,606.874,206.703z"
			/>
		<path fill-rule="evenodd" clip-rule="evenodd" fill="#FDFDFD" d="M566.713,606.197c-6.538-4.262-13.056-8.554-19.621-12.773
			c-3.345-2.149-4.087-5.063-2.744-8.62c4.807-12.731,12.881-22.785,24.615-29.789c1.865-1.113,3.487-1.503,5.853-0.16
			c18.052,10.244,36.169,20.384,54.459,30.194c6.113,3.278,8.113,8.303,8.377,14.536c1.111,26.194-4.375,49.89-25.646,67.644
			c-3.937,3.285-8.595,5.175-13.237,6.719c-3.797,1.264-7.469-1.113-10.371-3.644c-12.748-11.113-19.41-25.423-17.015-42.023
			c2.016-13.975,15.871-27.734,31.458-29.362c1.261-0.132,3.208,0.227,3.251-1.469c0.045-1.809-1.871-1.331-3.131-1.456
			c-2.685-0.266-5.295,0.171-7.899,0.731c-1.463-4.527-5.128-6.386-9.54-3.842C578.874,596.717,571.792,600.088,566.713,606.197z
			 M580.145,618.738c-3.311,4.16-3.724,4.724-4.089,7.439c-1.685,12.547,0.196,24.501,7.287,35.103
			c2.691,4.024,5.992,8.075,11.077,9.607c1.414,0.427,3.204,0.493,3.994-1.122c1.013-2.07-0.972-2.584-2.226-3.083
			c-6.07-2.412-8.973-7.786-11.742-12.996C578.815,643.089,577.781,631.682,580.145,618.738z M630.288,595.039
			c0.071-3.385-3.181-6.556-6.848-6.342c-3.527,0.205-5.218,2.521-5.46,5.865c-0.286,3.943,2.278,6.469,6.41,6.422
			C628.273,600.941,629.958,598.645,630.288,595.039z"/>
		<path fill-rule="evenodd" clip-rule="evenodd" fill="#FDFDFD" d="M688.988,255.998c1.22-5.808,3.02-11.525,2.945-17.539
			c-0.18-14.738-4.007-28.536-11.057-41.424c-4.494-8.216-9.839-15.754-17.645-21.305c-2.323-1.651-3.039-3.434-0.744-6.563
			c7.584-10.348,17.391-17.697,28.58-23.578c5.684-2.987,10.256-0.947,14.603,2.564c14.667,11.849,24.273,27.117,30.241,44.857
			c3.475,10.33,5.189,21.022,5.676,31.806c0.293,6.467,0.059,13.136-1.803,19.618c-0.611-0.269-1.059-0.317-1.164-0.532
			c-3.406-7.034-8.59-11.406-16.807-10.902c-8.6,0.528-15.107,4.548-19.409,12.095c-2.62,4.597-3.155,9.74-4.108,14.783
			c-2.743,3.43-5.22,2.372-7.457-0.536C690.071,258.344,689.598,257.119,688.988,255.998z"/>
		<path fill-rule="evenodd" clip-rule="evenodd" fill="#FDFDFD" d="M571,512c0.724,2.422,0.594,5.22-0.76,6.909
			c-2.647,3.304-5.905,6.199-9.258,8.819c-1.572,1.228-2.743-1.219-4.167-1.84c-0.897-0.392-1.874-0.932-2.734-0.061
			c-0.927,0.939-0.074,1.796,0.327,2.647c-3.762,1.583-7.474,3.631-5.106,8.426c2.196,4.448,7.027,6.386,10.91,9.185
			c2.478,1.785,3.826-1.466,5.931-1.167c4.017,3.202,4.106,4.819,0.133,7.86c-10.445,7.994-19.353,17.274-24.856,29.415
			c-0.667,1.472-1.362,2.195-2.974,1.553c-6.517-2.6-12.5-6.175-18.371-9.97c-1.435-0.928-1.046-1.775-0.269-2.849
			c0.877-1.211,1.587-2.546,2.488-3.738c2.526-3.339,2.127-5.664-1.625-8.074c-8.638-5.551-10.706-11.388-8.297-21.35
			c2.193-9.073,1.459-10.802-7.421-12.435c-3.887-0.715-3.705-2.422-2.924-5c1.205-3.978,2.377-7.986,3.934-11.833
			c2.988-7.383,6.182-14.686,9.392-21.977c3.138-7.127,6.402-14.197,9.763-21.63c2.593,2.808,1.812,8.035,6.877,8.078
			c4.745,8.599,12.772,12.906,21.612,15.603c7.67,2.341,11.493,7.047,12.608,14.831C566.67,506.608,567.139,510.415,571,512z"/>
		<path fill-rule="evenodd" clip-rule="evenodd" fill="#FDFDFD" d="M715.007,353.954c12.64,1.455,25.056,3.633,35.781,11.195
			c5.583,3.937,5.749,5.92,3.083,12.125c-4.4,10.244-8.292,20.706-12.398,31.076c-1.952-1.189-1.195-3.224-1.586-4.919
			c-0.564-2.447-0.172-5.744-3.566-6.326c-3.309-0.566-5.864,0.674-7.836,3.837c-5.205,8.347-8.352,17.724-13.467,26.094
			c-2.509,4.854-6.422,8.341-10.942,11.236c-7.839-1.947-8.343-7.97-8.179-14.491c0.224-8.926,0.41-17.756,1.75-26.704
			c1.777-11.884,4.645-22.889,11.977-32.568C712.007,361.363,714.109,357.928,715.007,353.954z"/>
		<path fill-rule="evenodd" clip-rule="evenodd" fill="#FDFDFD" d="M796.861,443.972c-0.416-1.015-0.428-2.469-2.074-2.269
			c-1.295,0.158-1.307,1.344-1.451,2.284c-0.428,2.783-0.851,5.559-2.438,7.984c-7.058,0.105-7.053,0.104-8.084-7.132
			c-0.039-0.275-0.351-0.513-0.535-0.768c-0.049-0.815,0.152-1.762-0.193-2.42c-0.785-1.491,1.819-4.723-1.69-4.508
			c-2.913,0.179-0.654,3.282-1.567,4.813c-3.784,0.604-5.52-1.884-7.174-4.634c-0.696-1.157-0.217-3.113-2.225-3.411
			c-1.428-5.281,1.996-10.412,0.406-16.04c-4.193,2.959-3.492,7.894-5.352,11.923c-3.344-3.03-2.836-6.841-2.104-10.461
			c1.166-5.763,4.342-10.692,7.047-15.831c2.161-4.105,6.073-4.527,9.673-4.9c8.697-0.9,17.219-3.49,26.093-2.778
			c1.502,0.12,3.021-0.368,3.02,1.991c-0.01,15.589,0.77,31.292-7.012,45.683c-0.3,0.555-0.76,1.022-1.146,1.53
			C798.99,444.677,797.926,444.324,796.861,443.972z"/>
		<path fill-rule="evenodd" clip-rule="evenodd" fill="#FDFDFD" d="M502.009,161.967c1.008,0.057,2.017,0.113,3.025,0.171
			c2.326,1.694,5.648,0.843,7.729,2.551c2.884,2.366-1.007,5.505,0.243,8.268c-1.671,0.003-3.343,0.006-5.015,0.009
			c-5.291-1.806-7.722-0.823-9.991,4.036c-1.517,1.491-2.991,3.029-4.558,4.466c-3.375,3.093,0.292,2.231,1.515,2.746
			c2.072,3.465,5.172,2.146,7.081,0.592c3.444-2.806,7.381-4.68,11.02-7.084c1.719-0.186,3.218-0.024,4.362,1.612
			c2.271,3.247,3.558,1.675,4.494-1.068c0.107-0.314,0.184-0.655,0.361-0.927c1.834-2.799,3.708-6.21,7.633-5.114
			c4.025,1.123,3.291,5.222,2.926,8.103c-1.603,12.652-8.012,24.645-24.773,25.675c-1.628,0.1-3.211,0.805-4.843,1
			c-12.324,1.475-17.869-4.34-19.002-16.121c-1.086-11.294,2.496-22.059,7.833-31.947c3.6-6.671,7.461-13.377,13.878-17.981
			c2.164,1.789,0.413,3.63,0.087,5.465c-0.833,4.703-4.908,8.466-3.963,13.681c-0.025,0.299-0.094,0.588-0.207,0.867
			c-1.184,0.192-2.442,0.27-2.977,1.956C500.141,162.891,501.286,163.244,502.009,161.967z"/>
		<path fill-rule="evenodd" clip-rule="evenodd" fill="#D2D0D0" d="M693.316,352.123c-4.151-0.913-5.462-3.674-5.382-7.684
			c0.082-4.105,2.539-5.768,5.966-6.891c12.743-4.177,25.213-2.128,37.508,1.81c12.156,3.894,24.569,7.485,33.936,16.924
			c4.49,4.524,9.764,8.729,9.701,16.069c-3.543,2.721-5.871,1.493-8.815-1.598c-12.324-12.937-28.3-18.473-45.396-21.82
			c-6.971-1.365-13.85-1.038-20.775-0.737C697.35,348.313,694.24,348.563,693.316,352.123z"/>
		<path fill-rule="evenodd" clip-rule="evenodd" fill="#D2D0D0" d="M715.018,427.036c5.115-8.37,8.262-17.747,13.467-26.094
			c1.972-3.163,4.527-4.403,7.836-3.837c3.395,0.582,3.002,3.879,3.566,6.326c0.391,1.695-0.366,3.729,1.586,4.919
			c-5.27,12.934-11.344,25.438-21.212,35.574c-8.173,8.396-18.192,11.099-29.652,8.458c-2.159-0.497-4.246-1.468-3.657-3.761
			c0.482-1.875,2.514-0.18,3.844-0.184c4.625-0.015,9.043-1.255,12.659-3.868c5.387-3.894,9.771-8.877,12.775-14.953
			C717.021,428.018,717.9,426.747,715.018,427.036z"/>
		<path fill-rule="evenodd" clip-rule="evenodd" fill="#FDFDFD" d="M606.874,206.703c-6.123-1.27-6.93-6.879-8.721-11.322
			c-2.595-6.437-2.962-13.29-0.984-20.029c0.866-2.952-0.235-3.317-2.78-3.435c-3.403-0.156-6.2,1.242-8.882,2.876
			c-15.692,9.563-23.348,23.889-24.528,41.949c-0.842,12.894,2.108,25.053,7.224,36.793c0.919,2.111,1.991,4.238,1.665,6.684
			c-10.054-13.059-13.623-28.17-13.86-44.281c-0.098-6.657,0.333-13.261,2.024-19.794c4.705-18.176,19.123-25.334,34.85-30.932
			c3.365-1.197,6.917-2.449,10.677-1.877c2.791,0.426,4.13,1.571,2.662,4.621C599.958,180.962,600.246,193.896,606.874,206.703z"/>
		<path fill-rule="evenodd" clip-rule="evenodd" fill="#D2D0D0" d="M715.007,353.954c-0.897,3.974-3,7.409-5.384,10.555
			c-7.332,9.68-10.199,20.685-11.977,32.568c-1.34,8.948-1.526,17.778-1.75,26.704c-0.164,6.521,0.34,12.544,8.179,14.491
			c-1.941,2.487-4.737,3.606-7.603,4.399c-5.64,1.561-9.346-1.182-9.265-6.922c0.199-14.067-2.046-28.191,0.767-42.196
			c2.949-14.677,9.736-27.363,20.174-38.093C710.094,353.462,712.138,351.8,715.007,353.954z"/>
		<path fill-rule="evenodd" clip-rule="evenodd" fill="#FDFDFD" d="M633.002,284.677c2.243-4.788,7.313-6.411,11.021-9.494
			c7.826-6.507,12.89-14.614,15.695-24.116c1.955-6.622-1.211-12.442-8.192-17.031c-3.064-2.014-6.261-3.697-10.044-3.842
			c-2.293-2.43-5.169-3.417-8.448-3.404c-4.431-2.325-8.861-4.653-13.293-6.976c-1.272-0.667-2.866-1.043-2.64-3.017
			c12.15,4.898,25.123,6.389,37.793,9.142c10.414,2.263,16.271,11.518,14.524,21.919c-1.629,9.695-6.247,17.415-14.045,23.2
			C648.345,276.273,641.428,281.73,633.002,284.677z"/>
		<path fill-rule="evenodd" clip-rule="evenodd" fill="#D2D0D0" d="M688.988,255.998c0.609,1.121,1.083,2.346,1.852,3.344
			c2.237,2.908,4.714,3.966,7.457,0.536c0.692,6.505,0.063,13.343,5.383,19.007c-7.246,0.203-13.854,0.239-20.16,2.899
			c-3.625,1.528-7.291,3.188-9.293,6.432c-4.836,7.838-12.666,8.263-20.371,8.896c-5.113,0.42-10.291,0.08-15.486-0.233
			c6.043-2.531,12.617-2.977,18.537-6.084c14.111-7.408,24.482-18.076,30.871-32.654
			C688.105,257.392,688.582,256.71,688.988,255.998z"/>
		<path fill-rule="evenodd" clip-rule="evenodd" fill="#D2D0D0" d="M571,512c-3.861-1.585-4.33-5.392-4.789-8.596
			c-1.115-7.784-4.938-12.49-12.608-14.831c-8.839-2.696-16.867-7.004-21.612-15.603c0.687-4.971-2.942-8.918-3.245-13.688
			c-0.112-1.762-1.085-3.457-0.614-5.316c2.563-0.293,3.468,1.159,4.553,3.335c4.387,8.798,11.415,14.916,20.437,18.766
			c-0.758,1.264-0.505,2.288,0.94,2.642c4.312,1.055,8.199,3.739,12.85,3.447c2.638-0.165,3.371,1.015,3.401,3.552
			C570.419,494.474,570.753,503.236,571,512z"/>
		<path fill-rule="evenodd" clip-rule="evenodd" fill="#FDFDFD" d="M566.366,174.496c9.931-21.599,27.113-34.798,48.953-42.717
			c-6.26,7.7-10.958,16.098-14.353,25.263c-0.406,1.098-1.199,1.936-2.484,2.217c-11.314,2.471-20.932,8.202-29.733,15.504
			c-0.372,0.309-0.87,0.465-1.309,0.692C567.082,175.135,566.724,174.815,566.366,174.496z"/>
		<path fill-rule="evenodd" clip-rule="evenodd" fill="#FDFDFD" d="M755.816,301.122c-7.462-6.389-16.262-10.614-24.76-15.33
			c3.231-6.377,6.674-12.67,7.93-19.836c12.629-0.276,12.617-0.002,15.281,11.991c0.977,4.402-0.537,9.327,2.69,13.239
			C756.666,294.509,757.051,297.908,755.816,301.122z"/>
		<path fill-rule="evenodd" clip-rule="evenodd" fill="#D2D0D0" d="M659.234,570.94c5.211-9.272,13.384-3.065,20.049-3.361
			c6.471-0.288,13.057,1.766,19.572,2.906c2.328,0.408,3.834-0.569,5.043-2.322c2.482-3.599,5.882-6.327,8.871-9.444
			c2.102-2.191,4.714-3.248,7.694-2.591c2.597,0.573,4.684,2.477,5.169,4.898c0.563,2.813-2.564,1.929-3.994,2.498
			c-2.185,0.87-3.705,3.63-6.621,2.524c-5.953,1.568-10.328,5.195-13.631,10.296c-1.445,2.232-3.33,3.409-6.248,2.675
			c-9.713-2.444-19.74-2.748-29.612-4.12C662.82,574.523,660.221,574.027,659.234,570.94z"/>
		<path fill-rule="evenodd" clip-rule="evenodd" fill="#EB6A79" d="M603.17,677.633c15.913-7.763,26.557-19.278,32.597-35.008
			c5.804-15.116,7.11-30.867,5.932-47.905c2.449,2.188,2.929,4.206,3.17,6.005c3.789,28.344-4.612,52.471-25.526,72.021
			C613.952,677.784,609.595,678.826,603.17,677.633z"/>
		<path fill-rule="evenodd" clip-rule="evenodd" fill="#EB6A79" d="M755.021,636.845c-1.646-0.104-2.277-0.605-1.883-1.778
			c0.783-2.327,1.461-4.761,2.684-6.858c8.042-13.79,9.344-29.296,11.084-44.576c1.25-10.972,1.471-22.089-1.74-32.938
			c-0.29-0.981,0.152-2.18,0.262-3.372c2.926,0.467,2.906,2.86,3.386,4.574c2.672,9.565,3.028,19.403,2.046,29.167
			c-1.456,14.467-1.749,29.138-7.557,42.935c-2.078,4.936-4.922,9.066-8.365,12.964C754.937,636.96,755.021,636.845,755.021,636.845
			z"/>
		<path fill-rule="evenodd" clip-rule="evenodd" fill="#D2D0D0" d="M755.816,301.122c1.234-3.214,0.85-6.613,1.142-9.936
			c2.745-2.204,1.733-5.224,1.45-7.896c-0.503-4.755-1.428-9.465-2.23-14.533c5.721,0.194,8.875,3.487,10.145,8.157
			c2.731,10.041,3.566,20.291,1.441,30.61c-0.158,0.765-0.677,1.454-1.271,2.684C762.801,307.067,759.309,304.095,755.816,301.122z"
			/>
		<path fill-rule="evenodd" clip-rule="evenodd" fill="#D2D0D0" d="M651.596,498.067c-2.966-0.636-3.766-1.982-2.188-4.898
			c2.525-4.666,4.81-9.426,6.07-14.699c0.834-3.484-0.122-5.374-3.076-6.849c-1.256-0.627-3.282-0.97-2.921-2.887
			c0.372-1.97,2.274-3.054,4.04-3.305c6.537-0.93,13.024-2.358,19.678-2.314C661.324,471.877,656.542,485.023,651.596,498.067z"/>
		<path fill-rule="evenodd" clip-rule="evenodd" fill="#D2D0D0" d="M485.961,237.884c-1.627,14.409-2.854,28.808,1.047,43.082
			c-2.274,1.318-3.676,1.268-4.798-1.712c-4.65-12.346-3.249-25.153-3.095-37.834C479.168,237.102,483.053,237.899,485.961,237.884z
			"/>
		<path fill-rule="evenodd" clip-rule="evenodd" fill="#D2D0D0" d="M510.261,322.81c6.693,3.813,13.468,7.461,20.46,10.718
			c2.658,1.237,5.295,1.695,8.138,1.434c-0.278,0.763-0.546,1.53-0.836,2.288c-3.341,8.715-3.206,8.498-11.429,3.313
			c-6.085-3.836-11.116-8.771-16.272-13.642C508.737,325.424,507.743,324.225,510.261,322.81z"/>
		<path fill-rule="evenodd" clip-rule="evenodd" fill="#D2D0D0" d="M566.713,606.197c5.079-6.109,12.16-9.48,18.811-13.314
			c4.412-2.544,8.077-0.686,9.54,3.842c-7.053,1.254-12.822,5.011-16.853,10.603c-3.071,4.26-5.583,3.602-8.881,1.091
			C568.421,607.727,567.583,606.94,566.713,606.197z"/>
		<path fill-rule="evenodd" clip-rule="evenodd" fill="#FDFDFD" d="M514.982,159.085c-1.794-0.093-3.589-0.186-5.506-0.285
			c4.03-6.565,5.842-13.638,6.275-20.943c0.231-3.906,1.524-5.085,5.118-4.191C520.667,142.546,519.083,151.107,514.982,159.085z"/>
		<path fill-rule="evenodd" clip-rule="evenodd" fill="#D2D0D0" d="M566.142,544.919c-2.105-0.299-3.453,2.952-5.931,1.167
			c-3.882-2.799-8.713-4.736-10.91-9.185c-2.368-4.795,1.344-6.843,5.106-8.426c2.672,0.97,5.684,3.309,4.835,5.444
			c-1.183,2.978-3.744-1.871-6.412-0.35C556.072,538.84,562.217,540.639,566.142,544.919z"/>
		<path fill-rule="evenodd" clip-rule="evenodd" fill="#D2D0D0" d="M594.152,303.269c-2.871-0.904-3.979-2.504-2.087-5.287
			c0.838,0.152,2.07,1.083,1.946-0.834c-0.103-1.577-0.372-3.143-0.658-5.441c7.771,4.113,15.554,6.026,23.575,7.071
			c-0.825,1.635,2.93,3.514-0.269,5.021c-0.969-1.29-1.722-2.747-3.639-2.988C606.507,299.992,600.033,299.301,594.152,303.269z"/>
		<path fill-rule="evenodd" clip-rule="evenodd" fill="#D2D0D0" d="M528.232,138.279c4.418,8.649,2.826,16.368,0.411,24.055
			c-0.267,0.848-0.703,2.845-2.188,1.361c-1.351-1.348-5.466-1.366-3.988-3.778C526.442,153.424,525.857,145.907,528.232,138.279z"
			/>
		<path fill-rule="evenodd" clip-rule="evenodd" fill="#D2D0D0" d="M513.006,172.956c-1.25-2.763,2.641-5.901-0.243-8.268
			c-2.081-1.708-5.402-0.856-7.729-2.551c5.354-2.679,9.623,1.094,14.221,2.552c1.944,0.616,3.565,2.249,5.489,3.522
			C521.323,171.687,519.084,177.097,513.006,172.956z"/>
		<path fill-rule="evenodd" clip-rule="evenodd" fill="#D2D0D0" d="M502.052,160.097c-0.944-5.215,3.13-8.978,3.963-13.681
			c0.325-1.835,2.076-3.676-0.087-5.465c1.359-2.166,3.593-3.144,5.943-4.856c0.616,6.915-2.114,12.403-3.762,18.216
			C507.07,157.971,505.352,159.499,502.052,160.097z"/>
		<path fill-rule="evenodd" clip-rule="evenodd" fill="#D2D0D0" d="M738.986,265.956c-1.256,7.166-4.698,13.459-7.93,19.836
			c-1.976-0.796-3.951-1.592-6.431-2.59c4.628-5.136,8.167-10.8,11.808-16.396C737.026,265.896,737.88,265.471,738.986,265.956z"/>
		<path fill-rule="evenodd" clip-rule="evenodd" fill="#D2D0D0" d="M514.982,159.085c4.102-7.978,5.685-16.539,5.886-25.42
			c0.844-0.32,1.789-0.385,1.941,0.68c1.139,7.983,0.728,15.781-3.265,23.031C518.57,159.146,517.404,160.934,514.982,159.085z"/>
		<path fill-rule="evenodd" clip-rule="evenodd" fill="#D2D0D0" d="M769.43,433.913c2.008,0.298,1.528,2.254,2.225,3.411
			c1.654,2.75,3.39,5.237,7.174,4.634c0.807,3.385-1.041,6.379-1.074,10.618C771.612,447.095,770.12,440.686,769.43,433.913z"/>
		<path fill-rule="evenodd" clip-rule="evenodd" fill="#D2D0D0" d="M513.058,177.721c-3.638,2.404-7.576,4.278-11.02,7.084
			c-1.908,1.555-5.009,2.873-7.081-0.592C500.058,179.448,505.655,176.066,513.058,177.721z"/>
		<path fill-rule="evenodd" clip-rule="evenodd" fill="#D2D0D0" d="M782.279,444.072c0.185,0.255,0.496,0.492,0.535,0.768
			c1.031,7.236,1.026,7.237,8.084,7.132c-1.771,4.817-7.613,6.276-11.071,2.741c-0.295-0.302-0.638-1.06-0.513-1.194
			C781.807,450.826,779.778,446.73,782.279,444.072z"/>
		<path fill-rule="evenodd" clip-rule="evenodd" fill="#D2D0D0" d="M673.359,317.716c1.113,2.102,0.526,3.673-1.758,4.122
			c-1.936,0.38-4.242,1.912-5.813-0.707c-0.752-1.252-1.24-2.661-1.849-3.999c1.929,0.357,3.146-0.125,3.294-2.382
			c0.116-1.766,0.532-3.512,0.902-5.806C670.145,312.141,668.867,316.728,673.359,317.716z"/>
		<path fill-rule="evenodd" clip-rule="evenodd" fill="#FDFDFD" d="M498,177.001c2.269-4.859,4.7-5.842,9.991-4.036
			C504.661,174.311,501.331,175.655,498,177.001z"/>
		<path fill-rule="evenodd" clip-rule="evenodd" fill="#D2D0D0" d="M796.861,443.972c1.064,0.353,2.129,0.705,3.193,1.058
			c-0.934,2.875-2.78,5.081-5.091,6.946l-0.094,0.052C795.533,449.342,796.197,446.656,796.861,443.972z"/>
		<path fill-rule="evenodd" clip-rule="evenodd" fill="#C8FBFD" d="M614.814,216.917c-1.769-1.354-3.594-2.643-5.285-4.088
			c-0.983-0.84-1.972-1.921-0.157-3.018c2.479,2.078,4.96,4.156,7.44,6.235C616.146,216.337,615.48,216.627,614.814,216.917z"/>
		<path fill-rule="evenodd" clip-rule="evenodd" fill="#D2D0D0" d="M594.256,560.26c2.36-0.502,3.174,0.925,4.381,1.544
			C596.889,562.694,595.771,561.837,594.256,560.26z"/>
		<path fill-rule="evenodd" clip-rule="evenodd" fill="#D2D0D0" d="M590.732,558.175c0.423-0.392,0.845-0.783,1.268-1.175
			c1.363,0.55,2.521,1.255,2.431,3.214C592.648,560.242,591.701,559.188,590.732,558.175z"/>
		<path fill-rule="evenodd" clip-rule="evenodd" fill="#D2D0D0" d="M502.009,161.967c-0.723,1.277-1.869,0.924-3.141,0.953
			c0.535-1.687,1.792-1.764,2.977-1.956C501.9,161.298,501.955,161.632,502.009,161.967z"/>
		<path fill-rule="evenodd" clip-rule="evenodd" fill="#FDFDFD" d="M614.814,216.917c0.666-0.29,1.332-0.58,1.998-0.87
			c0.231,0.233,0.359,0.514,0.386,0.841C616.403,216.897,615.609,216.907,614.814,216.917z"/>
		<path fill-rule="evenodd" clip-rule="evenodd" fill="#FDFDFD" d="M569.758,260.042c0.403,0.522,0.806,1.046,1.21,1.569
			C570.565,261.089,570.162,260.565,569.758,260.042z"/>
		<path fill-rule="evenodd" clip-rule="evenodd" fill="#FDFDFD" d="M567.439,175.455c-0.341,0.245-0.882,0.769-0.99,0.69
			c-0.632-0.456-0.384-1.075-0.083-1.649C566.724,174.815,567.082,175.135,567.439,175.455z"/>
		<path fill-rule="evenodd" clip-rule="evenodd" fill="#D2D0D0" d="M794.964,451.976l-0.078,0.174c0,0,0.001-0.135-0.007-0.129
			C794.87,452.027,794.964,451.976,794.964,451.976z"/>
		<path fill-rule="evenodd" clip-rule="evenodd" fill="#0E0E0E" d="M594.152,303.269c5.881-3.968,12.355-3.276,18.868-2.458
			c1.917,0.241,2.67,1.698,3.639,2.988c-4.886,0.971-9.808,1.269-14.789,1.049c-3.594-0.158-5.818,2.37-7.747,4.834
			c-9.185,11.731-15.681,24.822-21.181,38.715c-6.851,17.308-10.317,35.172-10.444,53.459c-0.103,14.838-0.23,29.966,4.811,44.378
			c1.017,2.909,2.139,5.811,1.744,10.102c-4.578-5.569-5.07-11.796-7.221-17.294c-0.008-1.867-0.656-3.529-1.638-5.084
			c-0.144-0.968-0.288-1.936-0.431-2.903c0.264-0.784,0.282-1.521-0.412-2.12c-0.128-0.642-0.256-1.283-0.384-1.925
			c-0.024-1.655,0.046-3.319-0.086-4.966c-3.438-42.605,4.255-82.107,32.259-115.964
			C592.145,305.143,593.148,304.205,594.152,303.269z"/>
		<path fill-rule="evenodd" clip-rule="evenodd" fill="#D2D0D0" d="M591.14,306.079c-28.004,33.856-35.697,73.358-32.259,115.964
			c0.133,1.646,0.063,3.311,0.086,4.966c-3.47-2.906-2.351-7.156-2.817-10.77c-2.242-17.386,0.682-34.523,2.526-51.775
			c1.404-13.141,5.226-25.189,11.062-36.834c3.443-6.87,9.072-12.188,12.992-18.716C584.663,305.693,587.904,305.749,591.14,306.079
			z"/>
		<path fill-rule="evenodd" clip-rule="evenodd" fill="#5EAAD5" d="M656.504,340.166c-1.885,6.044-3.783,12.396-5.873,18.685
			c-0.658,1.98-2.511,1.33-3.87,0.908c-9.031-2.806-18.017-5.759-27.063-8.515c-1.802-0.549-2.473-1.063-1.831-3.043
			c1.892-5.83,3.611-11.716,5.377-17.587c0.576-1.913,1.441-2.466,3.593-1.767c9.138,2.966,18.368,5.65,27.528,8.549
			C655.387,337.719,657.316,337.761,656.504,340.166z M647.184,357.642c1.625,0.297,1.68-0.862,1.976-1.786
			c1.421-4.426,2.673-8.915,4.33-13.25c1.064-2.785-0.267-3.472-2.466-4.127c-7.477-2.227-14.975-4.399-22.359-6.906
			c-2.741-0.931-3.516,0.057-4.156,2.364c-1.11,3.996-2.214,8.015-3.683,11.886c-1.01,2.659,0.001,3.52,2.324,4.165
			c5.756,1.599,11.491,3.278,17.199,5.043C642.721,355.765,645,356.798,647.184,357.642z"/>
		<path fill-rule="evenodd" clip-rule="evenodd" fill="#D2D0D0" d="M560.194,433.957c0.982,1.555,1.63,3.217,1.638,5.084
			C559.693,437.86,558.81,436.274,560.194,433.957z"/>
		<path fill-rule="evenodd" clip-rule="evenodd" fill="#D2D0D0" d="M559.352,428.934c0.694,0.599,0.676,1.336,0.412,2.12
			C558.275,430.609,557.464,430.033,559.352,428.934z"/>
		<path fill-rule="evenodd" clip-rule="evenodd" fill="#D2D0D0" d="M733.977,632.837c-13.602-2.795-28.803-15.865-29.772-32.119
			c-0.086-1.437,0.398-2.925,0.728-4.363c0.502-2.193-1.121-5.988,2.506-5.951c2.491,0.025,2.092,3.683,2.471,5.776
			C712.68,611.484,721.217,622.995,733.977,632.837z"/>
		<path fill-rule="evenodd" clip-rule="evenodd" fill="#0E0E0E" d="M750.449,543.789c4.114-0.029,7.032,2.816,6.893,6.592
			c-0.131,3.586-1.224,6.542-5.648,6.602c-4.182,0.058-7.379-2.915-7.218-7.009C744.633,545.966,747.182,544.235,750.449,543.789z"
			/>
		<path fill-rule="evenodd" clip-rule="evenodd" fill="#0E0E0E" d="M633.035,226.789c3.279-0.013,6.154,0.975,8.448,3.404
			c2.092,3.171,1.363,5.63-2.014,7.19c-4.085,1.888-9.793,0.021-11.062-3.653C626.956,229.53,629.247,227.609,633.035,226.789z"/>
		<path fill-rule="evenodd" clip-rule="evenodd" fill="#D2D0D0" d="M580.145,618.738c-2.364,12.943-1.33,24.351,4.301,34.948
			c2.769,5.21,5.671,10.584,11.742,12.996c1.254,0.499,3.239,1.013,2.226,3.083c-0.791,1.615-2.581,1.549-3.994,1.122
			c-5.085-1.532-8.386-5.583-11.077-9.607c-7.09-10.602-8.972-22.556-7.287-35.103C576.42,623.462,576.834,622.898,580.145,618.738z
			"/>
		<path fill-rule="evenodd" clip-rule="evenodd" fill="#0E0E0E" d="M630.291,595.042c-0.332,3.603-2.018,5.899-5.9,5.942
			c-4.132,0.047-6.696-2.479-6.41-6.422c0.242-3.344,1.933-5.66,5.46-5.865C627.107,588.483,630.359,591.654,630.291,595.042z"/>
		<g id="XMLID_1_">
			<g>
				<path fill="#FFFFFF" d="M806.58,381.88c0.66,2.74-1.39,1.91-2.64,2.08c-8.521,1.19-17.141,1.63-25.53,3.78
					c-2.99,0.77-6.13,0.88-9.3-0.54c11.1-4.21,22.35-7.64,34.239-8.64C806.12,378.33,806.14,380.1,806.58,381.88z"/>
				<path fill="#FFFFFF" d="M804.49,372.76c0.439,1.79-0.38,2.18-1.521,2.2c-11.16,0.19-21.45,4.32-32.1,6.85
					c-1.101,0.26-3.12,1.96-3.79-0.17c-0.79-2.56,1.88-2.13,3.24-2.65c9.779-3.8,19.64-7.29,30.06-9.03
					C803.37,369.46,804.35,370.55,804.49,372.76z"/>
				<path fill="#FFFFFF" d="M775.02,327.3c3.021,1.39,3.62,4.87,5.91,7.32c-2.21,2.6-5.01,4.97-8.029,5.12
					c-2.46,0.12-5.9-1.04-6.86-4.47C765.78,334.32,774.05,326.86,775.02,327.3z"/>
				<path fill="#FFFFFF" d="M776.26,395.09c-1.47-1.4-4.34,2.24-4.83-0.45c-0.529-2.89,3.021-2.13,4.891-2.64
					c9.17-2.5,18.63-3.1,28.029-4.09c1.75-0.19,3.48-0.72,3.521,1.9c0.04,2.64-2.021,1.5-3.271,1.66
					C795.24,392.69,785.87,393.87,776.26,395.09z"/>
				<path fill="#FFFFFF" d="M772.27,323.2c0.99,1.39-0.56,2.08-1.39,2.66c-2,1.41-3.67,3.23-6,4.28c-2.06,0.92-3.53,1.27-5.01-0.92
					c-1.47-2.17-0.97-3.52,1.04-4.88c2.17-1.48,4.22-3.15,6.34-4.72c0.25-0.19,0.57-0.29,0.95-0.48
					C770.09,319.92,771.15,321.64,772.27,323.2z"/>
				<path fill="#FFFFFF" d="M765.33,315.46c1.03,1.4-0.32,2.13-1.15,2.8c-1.81,1.46-3.87,2.64-5.56,4.21
					c-1.89,1.78-2.83,1.08-4.3-0.62c-1.67-1.93-0.78-2.72,0.75-3.85c2.26-1.67,4.39-3.51,6.29-5.04
					C763.63,312.94,764.47,314.28,765.33,315.46z"/>
				<path fill="#FFFFFF" d="M758.01,308.71c2.53,2.44-0.24,3.02-1.35,4.04c-1.811,1.66-3.59,3.43-5.771,4.27
					c-1.87-0.41-2.909-1.54-3.62-2.84c-0.81-1.49,0.62-1.9,1.551-2.56c1.35-0.95,2.83-1.84,3.89-3.08
					C754.68,306.26,756.19,306.97,758.01,308.71z"/>
				<path fill="#FFFFFF" d="M754.3,550.09c-0.109,2.07-0.76,3.7-3.06,3.851c-2.32,0.149-3.221-1.341-3.38-3.391
					c-0.16-2.08,0.47-3.56,2.93-3.64C753.08,546.84,754.08,548.04,754.3,550.09z"/>
				<path fill="#FFFFFF" d="M735.19,251.34c0.449,10.02-4.051,18.29-11.681,24.69c-4.45,3.72-9.34,3.57-14.319,0.71
					c-5.2-2.99-6.091-7.87-6.301-14.1c0.99-7.21,1.94-15.3,8.841-21.03c4.739-3.93,10-4.94,15.77-2.66
					C733.09,241.16,734.96,246.31,735.19,251.34z"/>
				<path fill="#FFFFFF" d="M688.01,137.22c0.32,1.71-1.24,2.13-2.3,2.85c-6.46,4.44-12.51,9.39-18.28,14.69
					c-4.05,3.72-8.069,7.47-10.489,12.57c-0.931,1.97-1.801,3-4.48,1.52c-12.68-6.99-26.78-8.39-37.86-9.78
					c-10.82,0-10.71,0.05-7.43-6.95c5.91-12.6,14.41-22.54,28.43-25.92c11.29-2.71,22.5-0.79,33.34,3.03
					c5.479,1.93,10.85,4.16,16.27,6.28C686.24,135.91,687.74,135.78,688.01,137.22z"/>
				<path fill="#FFFFFF" d="M631.07,559.85c-0.28,2.181,0.4,5.721-4.09,5.12c-2.75-0.359-7.56,0.62-7.48-2.63
					c0.08-2.88-0.2-8.38,4.53-9.149C629.42,552.31,631.07,554.24,631.07,559.85z"/>
				<path fill="#FFFFFF" d="M627.02,594.58c0.26,1.89-1.05,2.57-2.66,2.82c-1.71-0.301-3.3-0.771-3.36-2.9
					c-0.05-1.56,0.75-2.53,2.38-2.45C625.08,592.13,626.75,592.54,627.02,594.58z"/>
				<path fill="#FFFFFF" d="M614.84,551.5c1.04,0.28,2.92-0.23,2.91,1.24c-1.06,3.59-1.35,6.97-3.01,9.46
					c-1.43,2.16-4.19-0.24-6.38-0.38c-3.4-0.23-5.88-1.38-2.31-5.17c1.32-1.42,2.17-3.301,3.19-4.99
					C611.01,548.72,613.03,551.02,614.84,551.5z"/>
				<path fill="#FFFFFF" d="M604.52,545.6c0.8,1.23,3.03,1.94,1.84,4.08c-0.32,0.58-0.69,1.13-1.02,1.7
					c-4.81,8.37-5.15,8.41-12.38,1.04c2.93-2.15,5.83-4.26,8.71-6.4C602.58,545.34,603.58,544.15,604.52,545.6z"/>
				<path fill="#FFFFFF" d="M595.53,537.46c2.25-1.09,5.62,1.271,5.42,4.04c-2.4,2.8-5.53,5.34-9.03,7.01
					c-2.61,1.25-2.5-2.319-3.75-3.569c-1.44-1.45-1.19-2.83,0.88-3.83C591.28,540.03,593.31,538.54,595.53,537.46z"/>
				<path fill="#FFFFFF" d="M514.34,559.55c1.87,1.36,4.5,1.91,5.55,4.38c-1.92,2.801-2.27,7.021-6.38,7.011
					c-3.23,0-5.73-2.261-7.39-5.061C505.74,565.26,513.64,559.04,514.34,559.55z"/>
				<path fill="#FFFFFF" d="M515.67,210.87c0.01,2.35-2.01,1.9-3.29,2.01c-8.74,0.78-17.48,1.44-26.6,2.16
					c-0.06-3.62,1.15-4.62,4.43-4.66c7.27-0.1,14.53-0.96,21.8-1.33C513.34,208.98,515.66,207.99,515.67,210.87z"/>
				<path fill="#FFFFFF" d="M515.51,218c0.67,2.14-1.71,2.04-2.69,2.93c-0.65,0.58-1.82,0.8-2.76,0.82
					c-8.14,0.19-16.07,2.12-24.15,2.74c-1.34,0.11-3.29,1.27-3.92-0.52c-0.73-2.07,0.63-3.87,2.51-4.86
					c2.6-1.36,5.48-1.01,8.29-0.95c6.43-0.27,12.81-1.64,19.28-1.2C513.27,217.04,514.99,216.32,515.51,218z"/>
				<path fill="#FFFFFF" d="M512.47,225.91c0.91,0.34,2.62-0.58,2.36,1.52c-0.16,1.32-0.96,1.99-2.3,2.18
					c-4.43,0.64-8.87,1.28-13.28,2.01c-6.21,1.04-12.4,2.17-19.17,3.36c-0.61,0.01-2.18-0.05-1.94-1.55
					c0.31-1.93,0.24-4.31,3.38-4.65c6.75-0.72,13.47-1.76,20.19-2.68C505.29,225.61,508.86,224.55,512.47,225.91z"/>
				<path fill="#FFFFFF" d="M510.91,555.71c0.83,2.74-2.24,3.38-4.03,3.96c-2.37,0.771-4.62,4.09-7.53,0.92
					c-2.04-2.22-5.22-5.3-3.83-7.47c1.49-2.351,5.93-1.66,10.46-2.42C508.88,549.66,510.1,553.05,510.91,555.71z"/>
				<path fill="#FFFFFF" d="M507.98,312.91c4.78,4.76-1.33,6.12-2.4,10.46c-0.92-4.13-7.12-5.13-2.65-9.48
					C504.26,312.59,505.34,310.28,507.98,312.91z"/>
				<path fill="#FFFFFF" d="M503.98,539.43c2.86-0.47,4.71-0.279,3.42,3.271c0.95,4.27-1.38,5.34-4.96,5.26
					c-1.15-0.03-2.36-0.1-3.45,0.18c-2.39,0.601-4.57,0.42-4.68-2.439c-0.09-2.561-0.68-6.021,3.74-6.07
					C500.03,539.61,502.05,539.75,503.98,539.43z"/>
				<path fill="#FFFFFF" d="M502.27,536.01c-0.5,0-1.06,0.16-1.47-0.02c-1.55-0.7-4.99,1.77-4.49-2.11c0.37-2.87,0.85-6.92,5.49-5.8
					c2.6,0.62,6.37-0.28,7.34,3.45C510.09,535.19,508.7,536,502.27,536.01z"/>
				<path fill="#FFFFFF" d="M501.44,305.02c2.44,3.46,2.66,3.3-3.55,8.33c-0.35-3.23-5.71-4.19-2.34-7.63
					C496.65,304.6,498.83,301.33,501.44,305.02z"/>
				<path fill="#FFFFFF" d="M497.85,299.05c-0.86,2.35-3.07,3.45-4.93,3.62c-2.85,0.25-4.01-3.06-4.04-4.76
					c-0.06-2.82,3.36-2.38,5.32-2.85C497.21,294.35,496.47,297.65,497.85,299.05z"/>
				<path fill="#FFFFFF" d="M489.44,285.17c3.98,0.01,4.16,3.25,4.13,4.95c-0.06,2.93-3.46,2.58-5.37,2.81
					c-3.28,0.39-3.34-3.24-3.47-4.94C484.44,284.29,488.85,287.53,489.44,285.17z"/>
			</g>
			<g>
			</g>
		</g>
		<path fill-rule="evenodd" clip-rule="evenodd" fill="#FDFDFD" d="M647.184,357.642c-2.184-0.844-4.463-1.877-6.835-2.611
			c-5.708-1.765-11.443-3.444-17.199-5.043c-2.323-0.646-3.334-1.506-2.324-4.165c1.469-3.871,2.573-7.89,3.683-11.886
			c0.64-2.308,1.415-3.295,4.156-2.364c7.384,2.507,14.882,4.68,22.359,6.906c2.199,0.655,3.53,1.342,2.466,4.127
			c-1.657,4.335-2.909,8.824-4.33,13.25C648.863,356.779,648.809,357.938,647.184,357.642z M632.962,341.038
			c0.401-2.935-1.443-3.32-3.643-3.073c-2.809,0.315-3.992,2.264-3.805,4.808c0.16,2.164,1.755,3.512,3.878,3.895
			c1.691,0.306,2.287-1.408,1.555-2.079c-5.125-4.7,0.365-3.037,2.082-3.624c-2.041,6.064,1.74,7.632,6.394,8.425
			c1.728-1.501-1.828-4.407,1.591-5.423c0.436,2.461-0.589,5.461,2.461,6.962c0.983,0.484,2.154,1.354,3.114,0.08
			c0.755-1.003,0.099-1.638-0.812-2.353c-1.258-0.987-1.621-2.326,0.504-2.689c1.184-0.202,2.597-0.012,2.34-1.647
			c-0.271-1.738-1.98-1.45-3.244-1.501c-1.135-0.046-2.277,0.129-3.418,0.206C639.862,340.071,635.562,339.123,632.962,341.038z"/>
		<path fill-rule="evenodd" clip-rule="evenodd" fill="#EB6A79" d="M641.016,343.966c-3.419,1.016,0.137,3.922-1.591,5.423
			c-4.654-0.793-8.435-2.36-6.394-8.425l-0.068,0.075c2.6-1.916,6.9-0.968,8.999,1.984l0.067-0.061
			c-0.675,0.034-1.1,0.316-1.061,1.063L641.016,343.966z"/>
		<path fill-rule="evenodd" clip-rule="evenodd" fill="#EB6A79" d="M641.961,343.023c1.141-0.077,2.283-0.252,3.418-0.206
			c1.264,0.051,2.973-0.237,3.244,1.501c0.257,1.636-1.156,1.445-2.34,1.647c-2.125,0.363-1.762,1.702-0.504,2.689
			c0.91,0.715,1.566,1.35,0.812,2.353c-0.96,1.274-2.131,0.404-3.114-0.08c-3.05-1.501-2.025-4.501-2.461-6.962l-0.048,0.06
			c0.97,0.261,1.229-0.187,1.061-1.063L641.961,343.023z"/>
		<path fill-rule="evenodd" clip-rule="evenodd" fill="#EB6A79" d="M633.03,340.964c-1.717,0.587-7.207-1.076-2.082,3.624
			c0.731,0.671,0.136,2.385-1.555,2.079c-2.123-0.383-3.718-1.73-3.878-3.895c-0.188-2.544,0.996-4.492,3.805-4.808
			c2.199-0.247,4.043,0.139,3.642,3.074L633.03,340.964z"/>
		<path fill-rule="evenodd" clip-rule="evenodd" fill="#FDFDFD" d="M642.028,342.963c0.169,0.876-0.091,1.323-1.061,1.063
			C640.929,343.279,641.354,342.997,642.028,342.963z"/>
	</g>
</g>
<g id="ear_dot">
	<path fill-rule="evenodd" clip-rule="evenodd" fill="#5EAAD5" d="M702.894,262.637c0.99-7.205,1.933-15.3,8.837-21.025
		c4.744-3.936,9.996-4.943,15.77-2.66c5.594,2.212,7.455,7.357,7.686,12.386c0.459,10.026-4.041,18.297-11.676,24.691
		c-4.447,3.725-9.34,3.574-14.324,0.709C703.988,273.751,703.098,268.867,702.894,262.637z"/>
</g>
<g id="Head_Stripe">
	<path fill-rule="evenodd" clip-rule="evenodd" fill="#EB6A79" d="M614.6,159.066c-10.815,0.003-10.705,0.055-7.425-6.946
		c5.906-12.603,14.41-22.544,28.423-25.916c11.291-2.718,22.499-0.793,33.34,3.023c5.48,1.93,10.855,4.163,16.27,6.282
		c1.031,0.404,2.528,0.269,2.803,1.71c0.325,1.709-1.244,2.129-2.299,2.853c-6.465,4.434-12.512,9.392-18.279,14.688
		c-4.049,3.72-8.07,7.471-10.488,12.571c-0.934,1.969-1.8,3.003-4.484,1.521C639.783,161.856,625.676,160.459,614.6,159.066z"/>
</g>
<g id="elbow" class="astronaut-stripe">
	<path fill-rule="evenodd" clip-rule="evenodd" fill="#EB6A79" d="M780.932,334.625c-2.213,2.593-5.014,4.969-8.033,5.114
		c-2.458,0.119-5.9-1.042-6.855-4.469c-0.266-0.953,8.012-8.415,8.975-7.971C778.043,328.693,778.641,332.169,780.932,334.625z"/>
	<path fill-rule="evenodd" clip-rule="evenodd" fill="#5EAAD5" d="M768.203,319.142c1.883,0.776,2.951,2.502,4.063,4.059
		c0.995,1.393-0.559,2.077-1.382,2.656c-2.008,1.41-3.679,3.236-6.007,4.281c-2.058,0.924-3.527,1.271-5.011-0.918
		c-1.466-2.165-0.966-3.523,1.038-4.882c2.179-1.477,4.227-3.148,6.343-4.721C767.502,319.429,767.822,319.328,768.203,319.142z"/>
	<path fill-rule="evenodd" clip-rule="evenodd" fill="#EB6A79" d="M761.363,312.958c2.268-0.022,3.104,1.326,3.962,2.497
		c1.03,1.405-0.315,2.133-1.146,2.805c-1.808,1.462-3.867,2.636-5.555,4.214c-1.896,1.775-2.832,1.077-4.301-0.622
		c-1.674-1.935-0.784-2.726,0.748-3.856C757.33,316.328,759.462,314.492,761.363,312.958z"/>
	<path fill-rule="evenodd" clip-rule="evenodd" fill="#5EAAD5" d="M750.895,317.022c-1.879-0.413-2.915-1.541-3.622-2.842
		c-0.812-1.491,0.614-1.903,1.544-2.559c1.355-0.955,2.834-1.847,3.897-3.078c1.97-2.281,3.478-1.57,5.292,0.17
		c2.536,2.433-0.236,3.018-1.346,4.034C754.848,314.409,753.069,316.185,750.895,317.022z"/>
	<path fill-rule="evenodd" clip-rule="evenodd" fill="#5EAAD5" d="M505.577,323.372c-0.914-4.129-7.122-5.133-2.644-9.484
		c1.331-1.293,2.41-3.604,5.051-0.976C512.76,317.667,506.65,319.026,505.577,323.372z"/>
	<path fill-rule="evenodd" clip-rule="evenodd" fill="#EB6A79" d="M489.44,285.172c3.979,0.011,4.162,3.249,4.127,4.948
		c-0.06,2.93-3.454,2.579-5.369,2.81c-3.274,0.394-3.341-3.241-3.472-4.938C484.441,284.286,488.846,287.531,489.44,285.172z"/>
	<path fill-rule="evenodd" clip-rule="evenodd" fill="#EB6A79" d="M497.894,313.352c-0.355-3.234-5.71-4.188-2.345-7.631
		c1.097-1.122,3.281-4.386,5.889-0.702C503.885,308.477,504.102,308.323,497.894,313.352z"/>
	<path fill-rule="evenodd" clip-rule="evenodd" fill="#5EAAD5" d="M497.851,299.054c-0.859,2.35-3.067,3.446-4.932,3.612
		c-2.848,0.253-4.006-3.054-4.04-4.754c-0.057-2.825,3.358-2.385,5.325-2.853C497.205,294.346,496.466,297.649,497.851,299.054z"/>
</g>
<g id="foot_dot">
	<path fill-rule="evenodd" clip-rule="evenodd" fill="#5EAAD5" d="M754.301,550.088c-0.111,2.071-0.759,3.699-3.057,3.85
		c-2.325,0.152-3.222-1.334-3.38-3.387c-0.16-2.081,0.47-3.563,2.921-3.641C753.077,546.838,754.085,548.035,754.301,550.088z"/>
	<path fill-rule="evenodd" clip-rule="evenodd" fill="#5EAAD5" d="M624.364,597.403c-1.713-0.3-3.299-0.775-3.364-2.902
		c-0.047-1.563,0.745-2.528,2.375-2.453c1.705,0.078,3.376,0.489,3.65,2.535C627.278,596.471,625.972,597.146,624.364,597.403z"/>
</g>
<g id="glove">
	<path fill-rule="evenodd" clip-rule="evenodd" fill="#EB6A79" d="M480.084,234.976c-0.614,0.018-2.187-0.043-1.945-1.548
		c0.31-1.929,0.238-4.312,3.382-4.646c6.75-0.718,13.465-1.76,20.193-2.682c3.58-0.49,7.142-1.552,10.758-0.188
		c0.906,0.342,2.622-0.579,2.361,1.515c-0.165,1.321-0.961,1.994-2.304,2.186c-4.433,0.634-8.866,1.273-13.282,2.011
		C493.042,232.66,486.853,233.787,480.084,234.976z"/>
	<path fill-rule="evenodd" clip-rule="evenodd" fill="#5EAAD5" d="M492.789,218.159c6.436-0.266,12.808-1.637,19.278-1.199
		c1.2,0.081,2.924-0.636,3.447,1.045c0.665,2.136-1.716,2.039-2.696,2.921c-0.648,0.584-1.813,0.8-2.754,0.822
		c-8.139,0.19-16.075,2.122-24.158,2.746c-1.34,0.104-3.289,1.266-3.917-0.526c-0.726-2.068,0.628-3.864,2.516-4.856
		C487.098,217.749,489.98,218.1,492.789,218.159z"/>
	<path fill-rule="evenodd" clip-rule="evenodd" fill="#5EAAD5" d="M769.113,387.199c11.102-4.214,22.352-7.641,34.234-8.639
		c2.768-0.231,2.796,1.543,3.23,3.323c0.665,2.732-1.384,1.902-2.641,2.078c-8.516,1.192-17.135,1.624-25.523,3.779
		C775.424,388.51,772.275,388.625,769.113,387.199z"/>
	<path fill-rule="evenodd" clip-rule="evenodd" fill="#EB6A79" d="M804.488,372.761c0.445,1.79-0.376,2.18-1.518,2.199
		c-11.156,0.186-21.453,4.322-32.102,6.853c-1.098,0.261-3.117,1.961-3.785-0.176c-0.797-2.553,1.877-2.123,3.232-2.648
		c9.78-3.795,19.639-7.291,30.06-9.026C803.365,369.464,804.352,370.55,804.488,372.761z"/>
	<path fill-rule="evenodd" clip-rule="evenodd" fill="#EB6A79" d="M776.258,395.089c-1.469-1.396-4.342,2.237-4.83-0.45
		c-0.525-2.884,3.021-2.131,4.893-2.64c9.172-2.496,18.627-3.095,28.025-4.094c1.751-0.186,3.483-0.717,3.525,1.907
		c0.043,2.636-2.025,1.494-3.271,1.657C795.236,392.693,785.867,393.868,776.258,395.089z"/>
	<path fill-rule="evenodd" clip-rule="evenodd" fill="#EB6A79" d="M485.782,215.041c-0.058-3.62,1.152-4.621,4.432-4.664
		c7.268-0.094,14.522-0.954,21.792-1.325c1.331-0.068,3.656-1.065,3.667,1.819c0.009,2.351-2.012,1.897-3.295,2.013
		C503.644,213.664,494.9,214.317,485.782,215.041z"/>
</g>
<g id="knees">
	<path fill-rule="evenodd" clip-rule="evenodd" fill="#EB6A79" d="M505.977,550.703c2.908-1.039,4.119,2.344,4.929,5.003
		c0.835,2.744-2.237,3.385-4.023,3.963c-2.369,0.767-4.626,4.087-7.533,0.92c-2.038-2.221-5.214-5.299-3.833-7.473
		C497.008,550.77,501.449,551.459,505.977,550.703z"/>
	<path fill-rule="evenodd" clip-rule="evenodd" fill="#5EAAD5" d="M507.396,542.695c0.956,4.275-1.379,5.35-4.954,5.265
		c-1.153-0.028-2.356-0.101-3.453,0.178c-2.39,0.605-4.569,0.426-4.675-2.438c-0.095-2.561-0.679-6.017,3.738-6.069
		c1.98-0.023,3.995,0.12,5.931-0.199C506.835,538.961,508.69,539.152,507.396,542.695z"/>
	<path fill-rule="evenodd" clip-rule="evenodd" fill="#5EAAD5" d="M631.071,559.853c-0.28,2.174,0.396,5.719-4.091,5.122
		c-2.751-0.365-7.559,0.614-7.477-2.634c0.074-2.882-0.207-8.385,4.529-9.153C629.42,552.313,631.066,554.235,631.071,559.853z"/>
	<path fill-rule="evenodd" clip-rule="evenodd" fill="#EB6A79" d="M617.747,552.736c-1.058,3.589-1.352,6.978-3.003,9.462
		c-1.438,2.163-4.197-0.236-6.382-0.38c-3.407-0.224-5.878-1.378-2.316-5.171c1.329-1.416,2.17-3.297,3.193-4.991
		c1.772-2.933,3.789-0.633,5.602-0.154C615.877,551.775,617.759,551.269,617.747,552.736z"/>
	<path fill-rule="evenodd" clip-rule="evenodd" fill="#5EAAD5" d="M519.895,563.934c-1.923,2.801-2.277,7.017-6.389,7.009
		c-3.229-0.007-5.721-2.263-7.389-5.058c-0.373-0.625,7.52-6.845,8.224-6.335C516.214,560.905,518.84,561.465,519.895,563.934z"/>
	<path fill-rule="evenodd" clip-rule="evenodd" fill="#5EAAD5" d="M592.962,552.415c2.926-2.146,5.825-4.258,8.704-6.395
		c0.91-0.676,1.911-1.869,2.855-0.417c0.795,1.222,3.029,1.938,1.841,4.074c-0.321,0.578-0.689,1.13-1.019,1.704
		C600.532,559.749,600.186,559.786,592.962,552.415z"/>
	<path fill-rule="evenodd" clip-rule="evenodd" fill="#EB6A79" d="M600.954,541.501c-2.404,2.803-5.538,5.336-9.034,7.01
		c-2.612,1.251-2.501-2.32-3.748-3.572c-1.442-1.448-1.196-2.829,0.878-3.831c2.228-1.076,4.255-2.568,6.481-3.649
		C597.778,536.367,601.147,538.727,600.954,541.501z"/>
	<path fill-rule="evenodd" clip-rule="evenodd" fill="#EB6A79" d="M502.268,536.014c-0.495-0.001-1.059,0.156-1.47-0.028
		c-1.543-0.695-4.986,1.778-4.483-2.11c0.37-2.86,0.85-6.91,5.484-5.798c2.597,0.623,6.373-0.277,7.343,3.448
		C510.094,535.188,508.699,535.996,502.268,536.014z"/>
</g>
</svg>
