<svg enable-background="new 0 0 1280 800" height="800" viewBox="0 0 1280 800" width="1280" xmlns="http://www.w3.org/2000/svg"><path clip-rule="evenodd" d="m712.334 499.775c.531 11.42.635 22.221-.975 33.058-1.081 7.278-7.348 8.668-11.717 12.262-9.584 7.884-21.541 9.198-33.063 11.548-3.559.726-6.427 1.458-6.439 5.8-.006 2.408-1.701 3.336-3.604 4.249-6.442 3.091-13.143 5.512-19.936 7.651-2.975.937-4.117 2.35-4.078 5.662.126 10.538-.288 21.169-7.211 29.928-6.756 8.547-14.988 15.102-26.354 16.447-3.163.374-5.877 1.432-8.585 3.414-7.811 5.718-19.163 2.315-25.055-6.433-9.091-13.497-11.938-28.721-12.79-44.433-.747-13.775-.489-27.498 5.212-40.59 2.77-6.36 6.943-10.445 13.718-11.722 15.812-2.979 30.873-9.17 46.942-10.992 5.222-.593 10.271-2.172 15.779-1.05 5.909 1.205 8.353-2.668 6.813-8.554-1.754-6.711-5.279-11.067-11.707-14.26-8.15-4.048-12.188-12.156-14.963-20.477-1.721-5.156-3.168-10.676-2.138-16.185.566-3.028-.885-2.863-2.795-3.064-8.939-.938-17.746-2.421-26.376-5.123-15.458-4.839-26.083-15.231-34.63-28.486-8.77-13.601-16.605-27.645-22.47-42.751-.163-.42-.583-.739-1.469-1.822-3.409 8.724-6.8 16.953-7.376 25.792-.29 4.44 4.217 7.281 6.818 10.649 5.997 7.768 9.036 16.197 6.362 26.05-.216.798-.313 2.053-.826 2.279-5.161 2.284-3.336 6.751-3.258 10.502.213 10.229-4.746 16.987-13.674 21.252-2.455 1.172-5.229 2.157-7.722 1.138-8.32-3.401-16.507-6.918-20.336-16.269-4.593-11.218-6.987-22.941-8.24-34.836-1.625-15.421-3.044-30.946 1.73-46.197.995-3.179.438-7.241 5.668-7.167 1.853.026 1.204-2.03 1.585-3.19 5.227-15.888 9.383-32.22 18.89-46.352 1.44-2.141.652-4.092.249-6.203-2.726-14.284-2.055-28.072 5.489-41.052 2.844-4.894 6.831-8.103 11.923-10.087 5.903-2.3 11.931-4.341 18.26-4.967 3.482-.345 3.772-1.177 2.016-4.123-8.204-13.761-13.053-28.518-13.059-44.739-.011-32.185 13.898-57.075 40.272-74.707 49.734-33.248 118.956-12.347 140.141 42.491 10.738 27.795 6.553 54.292-8.096 79.636-1.108 1.918-4.387 4.004-1.564 6.261 2.865 2.291 5.943 5.612 10.574 2.528 9.324-6.207 17.924-13.146 25.262-21.696 5.135-5.982 9.933-12.083 12.764-19.516.976-2.562 2.104-5.099-2.341-5.708-2.31-.316-2.141-2.525-2.114-4.429.09-6.66-.055-13.327.181-19.981.118-3.354-1.362-4.783-4.21-6.372-13.848-7.729-19.349-17.778-15.579-31.501 1.579-5.749 1.155-10.135-.929-15.348-1.801-4.501-3.146-9.329-1.414-14.549 4.389-13.221 18.43-18.377 30.912-11.938 16.296 8.408 22.604 22.922 26.322 39.508 1.643 7.323 1.07 14.814 2.338 22.168 1.541 8.934 5.697 16.968 8.232 25.566 3.625 12.297 6.508 24.67 7.404 37.404.702 9.962.442 19.991-1.458 29.873-3.067 15.952-10.977 29.512-21.481 41.543-5.9 6.761-12.516 12.971-20.688 17.085-2.532 1.275-2.486 2.938-1.968 5.31 3.188 14.592 7.31 29.025 8.792 43.929 1.674 16.838 5.666 33.408 4.975 50.556-.251 6.247 4.311 11.665 7.057 17.299 10.896 22.354 23.533 43.848 33.023 66.901 5.321 12.925 2.932 22.104-7.017 31.835-10.475 10.245-21.311 20.021-32.74 29.16-1.462 1.168-2.357 2.642-1.922 4.312 2.985 11.447-3.46 18.949-10.726 26.138-.945.935-1.967 1.797-2.985 2.653-7.447 6.258-12.903 11.959-9.231 23.911 5.835 18.993-2.803 34.671-16.881 47.474-1.721 1.564-2.586 3.356-3.428 5.328-3.147 7.365-9.946 11.312-17.895 11.592-11.121.393-19.579-4.797-26.771-12.238-15.301-15.83-25.369-34.7-30.512-56.08-1.554-6.458-2.631-13.285-.91-19.804 1.936-7.335 6.418-13.428 12.248-18.309 15.186-12.71 30.329-25.429 46.914-36.402 10.776-7.129 20.919-15.322 28.484-26.129.453-.648 1.291-1.832 1.156-1.967-2.986-2.969-1.24-8.528-6.674-10.507-5.205-1.895-9.512-5.877-14.125-9.837zm-39.56-267.715c-1.075-2.708-2.15-5.416-3.226-8.124-3.35-8.964-5.359-18.327-5.184-27.792.328-17.694 2.105-35.221 12.25-50.643 1.543-2.346 2.4-4.708-.965-6.674-4.3-2.512-8.498-5.228-12.563-8.104-7.035-4.979-14.039-4.202-20.901.019-10.281 6.322-19.34 13.984-26.675 23.755-7.805 10.397-13.158 21.747-15.638 34.481-2.433 5.376-2.779 11.248-3.513 16.93-1.901 14.714-2.571 29.417 4.244 43.35 1.406 2.874 3.298 4.424 6.618 5.035 13.862 2.553 27.914 4.757 39.312 14.181 3.705 3.063 7.564 5.979 10.973 9.346 3.195 3.156 4.628 2.491 6.043-1.464 3.795-10.608 12.438-15.406 22.602-18.161 2.402-.651 5.092.598 8.428-.997-8.869-3.672-13.537-10.579-18.464-17.223-1.113-2.639-2.226-5.278-3.341-7.915zm-154.547 206.808c-2.002-2.082-4.004-4.163-6.006-6.245.386-3.216-1.3-3.584-4.103-3.612-8.623-.086-15.27-4.772-16.147-11.066-.423-3.034-.059-5.345 3.778-2.808.822 8.406 10.578 13.095 18.228 8.76.496.049 1 .057 1.487.153 1.376.275 2.708-2.457 3.872-.425 1.167 2.037-.907 2.65-2.293 3.573-2.191 1.459-.618 3.357-.059 4.889 1.064 2.912 3.665 4.281 6.478 4.846 1.87.376 2.323-1.52 2.825-2.904 1.961-5.415.619-10.395-1.959-15.261-5.175-9.768-12.403-17.442-23.235-20.462-5.22-1.455-10.854-.356-16.326.365-3.855.509-5.56 2.26-5.783 5.938-1.108 18.285 2.927 35.611 10.186 52.217 1.109 2.539 2.529 6.401 6.981 5.44 2.574-1.412 2.683-3.882 2.79-6.386.057-1.325-.641-3.296 2.012-2.793.213 3.248-.433 6.585.751 9.73 1.313 3.491 3.334 5.697 7.352 3.298 2.063-.383 2.907-1.395 2.73-3.696-.235-3.052.231-6.119-.237-9.221-.351-2.328.875-1.958 2.054-.638.451 2.102.897 4.203 1.354 6.302.269 1.239.075 2.944 1.858 3.037 1.427.074 2.453-1.145 3.084-2.263 2.719-4.817 2.761-10.031 2.373-15.409-.213-2.948-1.329-4.6-4.045-5.359zm270.867-170.847c.239-3.206 1.191-3.755 1.449-5.581.952-6.734 2.882-13.418 1.753-20.337.524-9.556-1.469-18.871-2.721-28.255-.573-4.3-2.284-6.101-6.899-3.756-7.027 3.569-14.695 5.258-22.52 5.911-4.621.386-8.69.793-8.984 6.869-.082 1.701-1.342 3.368-2.15 5.008-5.853 11.879-14.775 21.244-24.671 29.751-5.956 5.12-12.329 9.703-20.094 11.725-2.269.59-5.649 2.363-5.2-2.736.096-1.079-1.081-.996-1.713-1.437-4.712-3.284-9.709-2.796-14.752-1.145-6.256 2.049-11.094 5.863-14.086 11.829-2.657 5.301-3.056 11.902-.893 16.249 7.449 14.979 11.904 30.769 15.675 46.864.831 3.549 1.297 7.203 1.677 10.836 1.076 10.288.248 20.601.34 30.897.104 11.664.209 23.239-2.361 34.674-3.697 16.453-13.174 28.065-29.235 33.651-10.672 3.711-21.878 4.061-33.065 3.719-3.229-.099-4.448 1.059-4.449 4.262-.002 10.895 2.74 20.721 10.592 28.69 3.722 6.275 10.176 6.296 17.923 6.706-3.188 1.443-3.812 2.498-2.904 4.552 1.047 2.375 1.348 5.069 2.094 7.59 1.895 6.41 1.922 6.402 8.148 3.636 3.328-.436 6.656-.871 9.985-1.307.261 4.45-4.62 3.138-6.829 5.946 5.084.078 9.451.981 13.739 2.276 1.52 1.56 4.438 1.68 4.875 4.455-1.585.897-2.576-.465-3.8-.576-9.592-4.899-19.633-2.828-29.529-3.019-.101.511-.201 1.021-.301 1.532 1.889.906 3.777 1.812 5.666 2.718 6.828 7.583 12.232 15.973 14.74 26.004.464 4.589 2.23 6.893 7.339 4.925 2.528-.974 5.401-1.051 8.119-1.533 5.005-.635 9.464-1.428 7.271-8.546-1.036-3.362 2.438-3.365 4.534-3.873 5.002-1.211 9.458-3.271 9.906-9.003.42-5.356 2.873-7.769 8.075-7.669 2.081.04 3.528-.415 3.437-2.996-.211-5.974.426-11.994-1.03-17.893-.431-1.743-.841-3.37-2.188-4.874-6.296-7.028-13.131-12.338-23.387-9.197-.43.132-.979-.129-1.473-.206-.71-1.321-.239-2.32.86-3.146 1.793-.169 3.601-.244 5.376-.523 4.688-.738 9.172-2.699 14.046-2.324-1.552 2.845-1.234 4.894 1.573 7.155 4.75 3.825 8.805 8.504 13.5 12.406 9.098 7.561 18.298 15.356 31.324 8.207.273-.15.646-.119.973-.172-.719.843-1.438 1.686-2.156 2.528-.59.404-1.18.809-1.77 1.213-2.344.715-4.686 1.434-7.031 2.141-1.607.484-4.316.034-4.021 2.506.282 2.362 2.905 1.365 4.54 1.616 2.006.308 5.015-1.051 4.463 3.005-8.783 1.115-11.155 9.374-16.996 14.729 3.049 1.023 5.484 1.842 7.92 2.659 6.684 2.908 12.104 7.52 17.108 12.691 3.119 4.232 7.13 7.823 9.104 12.887.506 1.296.84 3.493 2.521 3.187 1.869-.34 3.531-1.789 3.445-4.202 8.16-3.956 14.558-10.217 21.192-16.175 2.178-1.955.253-3.123-.961-3.8-5.407-3.015-3.689-6.071-.581-9.65 5.311-6.114 6.307-12.972 2.719-20.359-3.09-6.361-3.238-6.688 3.295-9.711 4.609-2.132 5.214-4.185 2.772-8.659-9.682-17.742-18.983-35.691-28.427-53.564-.169-1.742-1.189-3.027-2.482-4.576-1.626 2.471-3.387 5.765-5.551.583 1.383-8.165 3.801-16.213 2.77-24.652-1.269-10.38-2.419-20.775-3.803-31.14-1.998-14.969-4.517-29.848-8.869-44.346-.701-2.339-1.09-5.897-3.377-6.257-2.548-.399-4.773 2.146-6.562 4.423-2.148 2.734-4.575 5.299-8.022 6.514-3.797-2.55-.588-2.957 1.131-4.063 1.178-.76 2.79-1.761 2.057-3.523-.687-1.65-2.314-.979-3.501-.593-3.837 1.25-7.878.837-11.768 1.59-2.009-.997-4.181-.761-6.315-.851-5.08-.214-10.303.454-15.128-1.613-2.8-1.199-6.698-1.666-6.136-6.285 5.314 4.099 11.736 4.403 17.932 4.579 15.136.429 29.51-2.811 43.201-9.533 6.307-3.097 7.016-4.651 1.986-9.816-.666-.683-1.613-1.091-2.432-1.626-1.197-2.53-.875-4.823 1.346-6.58 8.559-6.769 13.85-15.836 17.356-25.863 1.817-5.195 4.438-6.353 9.131-4.342.43.765 1.128 1.061 1.96 1.12 1.85 1.357 3.699 2.715 5.714 4.194 1.319-3.209 2.355-6.14 2.471-9.325zm-245.266-80.062c4.312-14.785 9.407-29.266 18.142-43.17-1.837.285-2.222.241-2.466.404-.546.365-1.087.777-1.52 1.268-12.156 13.78-22.352 28.52-23.878 47.658-1.046 13.118-1.769 26.178 3.082 38.813 1.656 6.687 6.12 11.844 9.353 18.151 1.31-2.983-.015-5.13-.721-7.196-3.81-11.146-4.689-22.611-4.515-34.291.107-7.327 1.967-14.394 2.523-21.637zm-33.85 183.181c2.363 1.113 4.734 2.211 7.085 3.35.748.362 1.774.989 2.133.029 1.121-3.002 3.459-5.896 2.404-9.263-1.521-4.855-3.543-9.555-5.352-14.321-.748-2.167-.037-5.835-3.041-5.929-4.711-.147-9.13-1.605-13.736-1.974-1.31-.104-2.929-.886-3.685 1.328-2.3 6.742-5.15 13.301-6.601 20.318-.254 1.231-.399 2.381 1.426 2.356 6.765-.091 12.986 2.389 19.367 4.106zm167.454-218.209c-4.145 7.801-7.303 15.904-8.125 25.885 2.703-2.936 4.613-5.143 6.664-7.212 5.628-5.679 11.99-5.658 17.463-.026 5.341 5.496 9.154 11.899 10.457 19.472 1.653 9.607 3.381 19.234 2.175 29.099-.23 1.881-.833 4.136.774 6.141 4.89-7.691 5.885-32.249 1.469-41.354-2.48-13.777-9.725-24.893-19.546-34.475-5.876-5.733-7.602-5.26-11.331 2.47zm57.652 7.094c-3.082-.32-2.663-3.794-4.62-5.127-.565-1.069-.144-2.968-2.092-2.893-2.253.087-1.356 1.996-1.319 3.045.084 2.434-.127 4.818.568 7.323 4.46 16.066 18.473 24.942 36.242 19.621 6.984-2.092 12.589-8.13 12.906-15.506.755-17.577-4.675-33.115-17.146-45.726-3.402-3.439-7.716-6.155-13.439-6.023.527 1.458.932 2.36 1.179 3.304.421 1.603 2.175 3.885-.217 4.621-2.093.646-1.862-2.223-2.452-3.596-2.365-5.499-5.303-6.792-11.12-4.771-1.91.664-2.665 1.834-.943 3.228 2.712 2.194 3.855 5.337 5.526 8.166.496.842.984 1.899-.326 2.526-.98.469-1.506-.342-1.969-.996-.574-.813-1.057-1.69-1.582-2.539-1.539-2.486-2.881-7-5.58-6.078-2.581.882-3.174 5.424-3.113 8.84.014.829.096 1.664.221 2.484.934 6.129 2.87 11.924 5.803 17.391 2.125 3.965 3.871 8.045 3.473 12.706zm-73.42 263.733c.158 6.756-1.292 13.167-5.178 19.404 5.277-.379 6.338-4.921 9.428-6.458 6.774-3.369 9.086-9.563 10.211-16.06 2.894-16.696 3.657-33.583 3.068-50.522 1.443-9.166-.24-18.216-1.28-27.245-2.057-17.837-7.637-34.793-16.343-50.321-9.795-17.472-26.422-26.554-45.458-30.332-28.274-5.611-56.817-5.749-85.133-.006-6.98 1.415-14.062 4.123-18.249 10.913-2.533 3.219-3.59 7.035-4.436 10.938-2.12 9.627-1.499 19.077 1.214 28.557 3.654 12.767 7.301 25.521 11.384 38.168 7.706 23.871 18.495 46.22 31.981 67.288 5.874 9.175 12.646 17.596 23.157 21.964 18.761 7.797 38.3 10.75 58.495 8.9 4.513-.413 9.397-.088 13.323-3.249 5.684-4.577 9.113-10.458 10.227-17.679 1.326-1.193 1.835-2.771 2.1-4.463.495.067.992.135 1.489.203zm-6.615 135.257c1.164-14.867-4.759-26.886-15.17-36.94-4.385-4.235-9.424-5.051-15.538-3.035-6.366 2.1-13.133 3.165-19.805 4.107-8.547 1.207-16.941 2.886-26.252 5.5 14.143 6.514 19.042 18.439 22.786 31.217 1.146 3.909.079 8.228 1.303 11.771 2.426 7.023 1.784 14.041 1.699 21.077-.109 9.037-3.549 17.505-5.127 26.302-.802 1.14-1.698 2.252-1.38 3.817 13.507-.992 29.575-14.819 30.768-28.705.602-6.998.811-13.913.276-20.875-.09-1.171-.61-2.276.636-3.105.65-.433 1.529-.344 1.785.198 1.486 3.146 3.592 1.353 5.409.675 4.982-1.857 9.851-4.028 14.875-5.756 3.227-1.111 4.579-2.912 3.735-6.248zm34.035 40.79c10.408 10.316 17.709 22.613 23.045 36.162 4.713 11.155 5.9 23.367 10.16 35.108 8.165-6.939 13.289-15.139 15.586-25.106.968-1.829 1.035-3.815 1.046-5.821.051-9.46-2.358-18.391-5.93-27.043-.882-2.136-.741-5.168 1.374-4.24 3.766 1.651 4.711-.999 6.334-2.544 3.846-3.663 7.178-7.902 11.211-11.326 10.878-9.234 9.803-19.399 4.199-30.334-5.51-10.748-15.495-17.089-24.764-24-2.947-2.198-7.423-3.275-10.372-.96-5.873 4.612-13.067 7.32-18.191 12.919-14.797 12.212-30.987 22.763-44.426 36.782 12.28-1.757 21.783 3.49 30.728 10.403zm7.879 73.159c-3.039 1.732-6.105 3.416-9.106 5.212-2.427 1.452-3.178 3.057-.601 5.302 2.482 2.161 5.226 3.54 8.449 3.892 12.156 1.324 16.617-1.998 14.398-14.036-.793-4.303-2.761-4.847-6.234-3.195-1.838.874-3.676 1.901-5.939.139 1.004-.72 1.756-1.334 2.576-1.838 8.582-5.274 8.584-5.27 4.982-14.454-.121-.309-.258-.614-.355-.931-.84-2.733-2.17-3.169-4.756-1.632-7.406 4.401-14.998 8.488-22.457 12.802-6.326 3.658-6.221 3.67-1.719 9.5 2.834 3.668 5.632 4.854 10.089 2.131 3.022-1.847 6.142-4.459 10.673-2.892zm-49.4-66.282c4.461-6.99 10.668-9.435 18.213-7.373 10.904 2.979 19.9 8.788 26.52 18.287 7.321 10.506 12.045 22.082 15.807 34.199 2.721 8.764 5.416 17.47 5.248 26.799-.035 1.954-1.323 4.069.061 6.059 5.443-1.783 6.061-6.129 5.315-10.247-4.753-26.296-12.023-51.644-31.46-71.396-8.215-8.349-17.832-13.82-30.356-9.594-5.598 1.889-9.964 7.239-9.348 13.266zm5.095 25.534c.328 3.92 2.738 7.048 4.023 10.594 1.244 3.431 2.703 3.792 5.764 2.003 6.865-4.012 13.957-7.618 20.654-11.944 12.725-8.221 11.281-4.208 2.541-16.52-.189-.269-.469-.472-.672-.732-1.607-2.061-3.32-2.157-5.615-.853-8.064 4.586-16.225 9.005-24.367 13.452-1.623.886-2.546 2.073-2.328 4zm17.846 30.668c.836-.395 2.05-.903 3.203-1.524 6.299-3.393 12.549-6.877 18.879-10.208 11.363-5.979 11.188-5.831 4.766-17.079-1.821-3.189-3.182-2.713-5.688-1.438-8.016 4.077-15.738 8.613-23.229 13.601-7.658 5.1-7.798 4.986-2.619 12.869 1.027 1.561 1.76 3.703 4.688 3.779zm-96.322-73.788c0-.181 0-.362 0-.543 5.156 0 10.313.007 15.469-.004 2.696-.005 3.898-1.235 3.561-4.046-.335-2.8-.386-5.633-.619-8.446-.22-2.651-1.214-3.996-4.373-3.783-7.299.489-14.631.495-21.948.724-10.815.338-10.754.34-9.345 11.094.465 3.545 1.862 5.373 5.772 5.069 3.806-.296 7.654-.065 11.483-.065zm-.067-36.15c-1.831 0-3.665-.057-5.493.01-12.921.466-12.804.472-12.646 13.448.036 2.99 1.035 3.497 3.703 3.516 9.499.066 18.941-1.515 28.461-.825 3.051.221 3.549-1.652 2.889-4.288-2.879-11.502-2.853-11.51-14.915-11.846-.666-.019-1.333-.002-1.999-.015zm4.364 39.783v.352c-3.658 0-7.328-.191-10.972.037-9.865.62-9.974.995-7.088 10.725 1.062 3.58 2.952 5.21 6.741 5.13 6.646-.142 13.298.013 19.948.026 1.322.003 2.812.192 3.697-1.026 2.988-4.108 2.628-9.038 1.966-13.467-.506-3.392-4.475-1.234-6.832-1.676-2.407-.451-4.966-.101-7.46-.101zm-9.421-59.782c8.243 1.646 14.09 6.714 17.953 13.429 10.978 19.082 12.044 39.63 7.438 60.705-1.494 6.836-3.765 13.466-7.32 19.648 6.78-2.733 8.141-9.026 9.672-14.707 3.199-11.861 4.683-24.085 2.955-36.312-1.642-11.621-2.577-23.552-10.642-33.311-3.893-4.71-7.837-8.874-13.736-11.083-2.649-.99-4.358-.682-6.32 1.631zm92.755 69.917c-5.258-.224-9.266 1.804-11.359 5.751-2.669 5.033-1.953 10.682-.504 16.089.33 1.232 1.496 1.271 2.455.729 7.67-4.344 15.358-8.658 22.941-13.149 2.238-1.326 2.188-2.98-.135-4.582-4.211-2.906-8.699-4.849-13.398-4.838zm-84.949 10.134c0-.062 0-.123 0-.185-3.16 0-6.32-.032-9.479.017-1.308.02-2.956-.063-2.165 2.106 1.866 5.111 4.334 9.934 9.754 11.945 2.966 1.101 6.326 1.072 8.537-2.021 1.942-2.718 3.361-5.729 4.437-8.897.673-1.985.45-3.139-2.103-3.002-2.985.16-5.987.037-8.981.037zm6.914-63.943c-2.208-4.771-2.633-5.197-8.658-8.985-8.759-5.507-15.33-2.49-17.098 7.757-.385 2.231.322 3.333 2.507 2.948 7.616-1.339 15.288-1.993 23.249-1.72z" fill="#0f0f10" fill-rule="evenodd"/><path d="m802.96 517.96c.45 4.68-3.09 3.67-5.68 4.01-3.23.431-3.351-1.66-3.36-4.01-.01-4.41 3.93-5.15 6.47-5.4 2.77-.28 2.39 3.2 2.57 5.4z" fill="#fff"/><path d="m797.84 525.42c1.49.65 4.17-1.01 3.98 1.68-.15 2.03-.65 5.341-3.471 5.19-2.13-.12-5.34-1.021-5.319-4.25.02-3.53 3.15-1.94 4.81-2.62z" fill="#fff"/><path d="m797.32 503.63c2.43-.52 1.42 2.78 2.89 4-1.43 2.64-4.1 3.69-6.4 4.19-2.199.47-2.85-2.931-2.59-3.95.69-2.74 3.74-3.74 6.1-4.24z" fill="#fff"/><path d="m795.61 536.05c.029 1.98-2.11 3.78-4.37 4.04-1.78.22-3.57-1.21-3.76-2.71-.271-2.1 2.199-2.95 3.159-4.84 1.831 1.65 4.941 1.51 4.971 3.51z" fill="#fff"/><path d="m705.19 524.92c1.6-.03 3.029.061 2.79 2.32-.16 1.56-.261 3.16-2.461 2.51-1.56-.45-3.909-.11-3.619-2.96.22-2.23 1.85-1.85 3.29-1.87z" fill="#fff"/><path d="m703.59 532.99c1.05.6 3.37-1.021 3.22 1.569-.1 1.62-1.079 3.521-2.84 3.57-1.95.05-3.13-1.72-3.279-3.59-.161-2.179 1.739-1.299 2.899-1.549z" fill="#fff"/><path d="m699.92 540.88c-.86 2.08-2.85 3.07-4.56 3.351-1.38.229-1.92-2.36-1.931-3.33-.02-1.65 1.771-2.9 3.45-2.95 1.611-.061 2.181 1.679 3.041 2.929z" fill="#fff"/><path d="m691.57 544.06c.069 1.65-.32 2.761-2.141 2.7-1.87-.069-2.47-1.1-2.52-2.89-.05-1.75.39-3.03 2.25-3.18 2.681-.22 1.861 2.15 2.411 3.37z" fill="#fff"/><path d="m786.32 198.4c1.649 3.05.93 5.09-2.42 6.63-9.15 4.21-18.49 7.44-28.74 6.98-1.641-.07-3.26-.51-4.891-.73-2.14-.3-2.739-1.74-2.51-3.58.3-2.47 2.11-1.41 3.471-1.29.829.06 1.649.18 2.479.28 10.08.57 18.65-4.02 27.46-7.89 1.451-.63 3.281-3.85 5.151-.4z" fill="#fff"/><path d="m782.66 188.2c1.01 1.72 1.14 4.22-.771 5.97-.6.54-1.38.89-2.1 1.29-8.57 4.85-17.79 7.11-27.62 6.84-1.12-.03-2.33-.27-3.31-.78-1.94-1.03-2.051-2.95-1.58-4.79.529-2.05 2.13-.82 3.3-.81.99.01 1.99.11 2.979.17 9.171.53 17.16-3.08 25.101-7.01 1.211-.59 2.641-3.19 4.001-.88z" fill="#fff"/><path d="m779.95 180.25c.319 1.8.04 3.37-1.55 4.41-7.221 4.76-15.29 7.09-22.91 8.35-1.19-.14-1.59-.08-1.84-.24-2.16-1.33-6.851.62-6.431-3.63.33-3.38 4.07-1.28 6.221-1.67 8.29-1.48 17.06-1.42 23.399-8.36 1.841-2.01 2.711-1.1 3.111 1.14z" fill="#fff"/><path d="m515.82 378.28c1.5.61 2.68 1.51 1.81 3.4-.81 1.76-2.11.58-2.93.19-10.42-5.04-21.17-7.7-33.1-4.25-.5-6.5 3.03-5.69 6.93-6 9.95-.78 18.54 3.06 27.29 6.66z" fill="#fff"/><path d="m514.06 385.59c.82.39 2.14.54 1.67 1.98-.53 1.63-1.68 1.13-2.83.7-6.26-2.32-12.69-3.82-19.45-4.03-3.28.42-6.56.85-9.85 1.25-1.16.14-2.67 1.63-3.41-.18-.79-1.92.74-3.26 2.31-3.83 3.91-1.44 8-2.17 12.19-1.83 6.88.57 13.22 2.99 19.37 5.94z" fill="#fff"/><path d="m512.34 391.89c2.19.81 1.57 2.01 1.27 3.5-.37 1.89-1.28 2.32-3.13 1.82-6.74-1.82-13.59-2.91-20.6-2.11-3.45.39-6.86.99-10.4 1.52-1.59-4.67.77-6.58 4.51-7.25 9.66-1.75 19.11-.93 28.35 2.52z" fill="#fff"/><path d="m627.77 121.17c5.12.92 10.47.78 15.3 3.59-47.78 30.94-60.87 74.71-47.17 127.55-13.14-.95-25.71.37-38.31.03-3.44-.09-5.01-1.92-6.36-4.6-4.08-8.14-4.64-16.86-4.61-25.74.09-24.25 4.1-47.62 15.54-69.29 4.94-9.35 10.61-18.5 20.38-23.29 14.17-6.95 29.1-11.15 45.23-8.25z" fill="#fff"/><path d="m775.68 275.86c1.891-.15 9.73 4.59 9.2 5.65-1.31 2.66-1.7 6.21-4.79 7.44-1.74.69-8.08-4.14-8.1-5.56 0-1.03 3.16-7.49 3.69-7.53z" fill="#fff"/><path d="m772.62 289.33c2.12 1.38 4.85 1.95 6.479 4.3-1.22 1.71-2.05 3.49-3.409 4.59-1.381 1.11-2.24-.74-3.2-1.49-1.181-.92-2.37-1.86-3.37-2.96-1.24-1.37-1.33-2.9-.26-4.55 1.36-2.11 2.7-.59 3.76.11z" fill="#fff"/><path d="m772.17 302.09c.48 1.74-2.63 4.56-3.46 4.05-2.6-1.56-5.03-3.94-5.85-7.07-.37-1.42 1.13-2.56 2.58-3.39 2.47 2.09 5.88 3.31 6.73 6.41z" fill="#fff"/><path d="m759.94 303.27c2.859.87 4.25 3.88 6.119 6.19-1.3 1.74-2.699 3.65-4.75 3.31-3.109-.51-4.55-3.39-4.89-6.09-.179-1.44 1.951-3.89 3.521-3.41z" fill="#fff"/><path d="m508.96 333.99c3.54 0 3.49 2.79 3.49 4.92 0 2.76-2.44 2.19-4.17 2-2.3-.26-4.62-.62-6.84-1.28-1.24-.37-3.99.34-2.98-2.6.65-1.86.63-4.75 4.58-3.39 1.61.1 3.77.34 5.92.35z" fill="#fff"/><path d="m509.82 330c-2.84-.18-5.83 1.16-7.03-1.57-.58-1.32.67-4.32 2.95-4.42 3.95-.17 2.65 3.61 4.08 5.99z" fill="#fff"/><path clip-rule="evenodd" d="m750.907 550.051c-5.005-5.172-10.425-9.783-17.108-12.691-.036-2.246.891-4.112 2.197-5.874 2.252-3.037 4.678-5.828 7.869-7.995 2.438-1.654 2.211-3.15-.99-3.52.552-4.056-2.457-2.697-4.463-3.005-1.635-.251-4.258.746-4.54-1.616-.296-2.472 2.413-2.021 4.021-2.506 2.346-.707 4.688-1.426 7.032-2.141.28.557.616 1.143 1.345.753.842-.449.676-1.224.424-1.966.719-.843 1.438-1.686 2.156-2.528 2.42-1.767 2.69-3.055.702-5.69-1.715-2.273-3.651-4.749-6.942-2.226-2.432 1.864-4.859 3.651-8.096 2.186-2.855-1.294-5.875-2.429-8.389-4.235-6.834-4.909-14.15-9.58-13.553-19.757.137-2.331-1.677-2.507-3.529-1.589-2.517 1.247-5.042 2.478-7.563 3.715-4.874-.375-9.358 1.586-14.046 2.324-1.775.279-3.583.354-5.376.523-.854-1.525-2.213-1.171-3.513-.905-11.572 2.37-23.28 2.964-35.055 2.784-2.015-.03-3.783-.296-5.625-1.441-4.708-2.93-7.786-1.945-11.08 3.061-7.852-7.97-10.594-17.796-10.592-28.69.001-3.203 1.22-4.36 4.449-4.262 11.188.342 22.394-.008 33.065-3.719 16.062-5.586 25.538-17.198 29.235-33.651 2.57-11.435 2.465-23.01 2.361-34.674-.092-10.297.736-20.609-.34-30.897-.38-3.633-.846-7.287-1.677-10.836-3.771-16.096-8.226-31.885-15.675-46.864-2.163-4.347-1.765-10.948.893-16.249 2.992-5.966 7.83-9.78 14.086-11.829 5.043-1.651 10.04-2.14 14.752 1.145.632.44 1.809.357 1.713 1.437-.449 5.1 2.932 3.326 5.2 2.736 7.765-2.021 14.138-6.604 20.094-11.725 9.896-8.507 18.818-17.872 24.671-29.751.809-1.64 2.068-3.307 2.15-5.008.294-6.076 4.363-6.483 8.984-6.869 7.824-.653 15.492-2.342 22.52-5.911 4.615-2.345 6.326-.544 6.899 3.756 1.252 9.384 3.245 18.699 2.721 28.255-3.866-.812-6.17.763-6.125 4.696.106 9.166-4.79 16.832-7.219 25.231-4.693-2.011-7.313-.854-9.131 4.342-3.507 10.027-8.798 19.095-17.356 25.863-2.221 1.757-2.543 4.05-1.346 6.58-2.119 2.104-4.926-.687-7.326 1.27-6.377 5.197-14.763 4.386-22.127 6.705-4.135 1.302-8.902 1.382-13.281.954-9.125-.892-17.4-4.048-23.583-11.359-.763-.902-1.571-2.577-3.153-1.724-1.15.621-.699 2.119-.649 3.223.331 7.292 4.339 12.611 9.433 17.328-.563 4.619 3.336 5.086 6.136 6.285 4.825 2.067 10.048 1.399 15.128 1.613 2.135.09 4.307-.146 6.315.851.993 3.007 1.191 6.102 1.038 9.239-.104 2.144 1.016 3.425 2.984 2.493 2.867-1.356 6.477-1.725 8.059-5.143 3.447-1.215 5.874-3.779 8.022-6.514 1.788-2.276 4.014-4.822 6.562-4.423 2.287.359 2.676 3.918 3.377 6.257 4.353 14.498 6.871 29.377 8.869 44.346 1.384 10.364 2.534 20.76 3.803 31.14 1.031 8.439-1.387 16.487-2.77 24.652-2.095 1.008-2.484 3.443-4.096 4.887-.91.814-1.257 2.136-.488 3.178.963 1.309 2.115-.011 3.162-.166 3.463-.512 5.531-4.453 9.455-3.905 9.443 17.873 18.745 35.822 28.427 53.564 2.441 4.475 1.837 6.527-2.772 8.659-6.533 3.022-6.385 3.35-3.295 9.711 3.588 7.388 2.592 14.245-2.719 20.359-3.108 3.579-4.826 6.636.581 9.65 1.214.677 3.139 1.845.961 3.8-6.635 5.958-13.032 12.219-21.192 16.175-1.156-1.142-2.023-2.521-3.03-3.761-3.151-3.881-6.145-8.223-12.041-8.111z" fill="#fdfdfd" fill-rule="evenodd"/><path d="m618.7 366.86c.39 2.61-.52 3.3-2.86 3.14-21.42-1.51-42.87-.53-64.31-.75-2.27-.03-3.23-1.03-3.52-3.24-1.98-14.75-3.8-29.53-6.23-44.21-.7-4.21 1.1-3.82 3.75-3.81 10.32.05 20.64.02 30.95.02 10.49 0 20.97.08 31.45-.05 2.81-.04 3.85.53 4.25 3.71 1.92 15.1 4.22 30.15 6.52 45.19z" fill="#fdfdfd"/><path d="m530.59 365.26c.04-.13.12-.26.11-.39 0-.05-.19-.08-.29-.13-.04.13-.12.26-.11.39 0 .04.19.08.29.13zm22.28 52.82c-13.48-21.07-24.27-43.42-31.98-67.29-4.08-12.64-7.73-25.4-11.38-38.17-2.72-9.47-3.34-18.92-1.22-28.55 5.77 1.51 11.21 4.28 17.32 4.46 9.2 1.93 18.42 3.58 27.8 1.09 1.98.12 3.95.29 5.92.35 10.55.32 21.12-.65 31.67.88 2.92.42 5.31 3.06 8.5 1.82 7.56.57 15.2-.16 22.65 2.04 11.42 3.37 17.13 12.11 21.041 22.31 5.1 13.29 6.39 27.47 8.71 41.38.56 3.32.3 6.81 3.06 9.38 1.521 4.74 2.09 9.66 2.01 14.59-.1 6.43-1.29 12.92-.71 19.26.7 7.601.65 15.17.8 22.76.021 1.29-.319 2.7 1.011 3.63-1.11 7.221-4.54 13.101-10.221 17.681-3.93 3.16-8.81 2.83-13.33 3.25-20.19 1.84-39.73-1.11-58.49-8.91-10.511-4.361-17.281-12.781-23.161-21.961zm-21.08-47.49c4.47 13.49 11.49 25.81 18.71 37.87 7.76 12.96 17.99 23.28 32.89 29.08 12.29 4.77 24.46 6.36 37.31 5.56 2.7-.17 4.31-1.31 4-3.869-.31-2.49-1.48-5.351-4.58-4.931-6.37.87-12.51-.359-18.67-1.319-16.7-2.62-30.67-10.73-42.37-22.57-7.61-7.7-13.21-16.99-18.69-26.34-3.14-5.35-5.75-10.96-8.46-16.91-1.2 1.659-.44 2.529-.14 3.429zm84.05-.59c2.34.16 3.25-.53 2.86-3.14-2.3-15.04-4.6-30.09-6.52-45.19-.4-3.18-1.44-3.75-4.25-3.71-10.48.13-20.96.05-31.45.05-10.31 0-20.63.03-30.95-.02-2.65-.01-4.45-.4-3.75 3.81 2.43 14.68 4.25 29.46 6.23 44.21.29 2.21 1.25 3.21 3.52 3.24 21.44.22 42.89-.76 64.31.75z" fill="#fdfdfd"/><g clip-rule="evenodd" fill-rule="evenodd"><path d="m599.874 188.978c2.479-12.734 7.833-24.084 15.638-34.481 7.334-9.771 16.394-17.433 26.675-23.755 6.862-4.221 13.866-4.998 20.901-.019 4.064 2.877 8.263 5.593 12.563 8.104 3.365 1.966 2.508 4.328.965 6.674-10.145 15.422-11.922 32.948-12.25 50.643-.176 9.465 1.834 18.828 5.184 27.792-.541.029-1.084.059-1.625.089-8.166-9.473-18.59-11.549-28.278-5.613-6.274 3.845-9.859 9.587-11.637 16.592-4.829-1.356-6.204-5.995-9.047-9.299-8.657-10.063-13.57-21.885-16.949-34.481-.353-1.316-.766-2.12-2.14-2.246z" fill="#fbfbfb"/><path d="m712.129 635.967c-5.336-13.549-12.637-25.846-23.045-36.162.071-2.13-1.217-3.693-2.123-5.462-1.765-3.438-5.301-4.94-7.803-7.563-4.309-4.518-4.32-5.155.126-9.684 2.833-2.886 6.7-4.397 9.53-7.133 5.354-5.176 12.641-8.898 13.968-17.344 5.124-5.599 12.318-8.307 18.191-12.919 2.949-2.315 7.425-1.238 10.372.96 9.269 6.911 19.254 13.252 24.764 24 5.604 10.935 6.679 21.1-4.199 30.334-4.033 3.424-7.365 7.663-11.211 11.326-1.623 1.545-2.568 4.195-6.334 2.544-2.115-.928-2.256 2.104-1.374 4.24 3.571 8.652 5.98 17.583 5.93 27.043-.011 2.006-.078 3.992-1.046 5.821-4.367 1.351-4.018 6.086-6.37 8.886-1.344 1.601-2.173 4.063-4.767 3.778-2.582-.283-3.774-2.333-4.653-4.619-1.951-5.074-4.13-10.066-5.96-15.183-.748-2.092-1.928-2.934-3.996-2.863zm11.092-41.128c-.063-4.897-3.809-8.711-8.362-8.514-3.915.169-7.427 4.744-7.444 9.697-.019 5.378 3.589 10.036 7.699 9.941 3.881-.089 8.173-5.979 8.107-11.124z" fill="#fbfbfb"/><path d="m598.945 619.014c1.579-8.797 5.019-17.265 5.127-26.302.085-7.036.727-14.054-1.699-21.077-1.224-3.544-.158-7.862-1.303-11.771-3.744-12.777-8.643-24.703-22.786-31.217 9.311-2.614 17.705-4.293 26.252-5.5 6.672-.942 13.439-2.008 19.805-4.107 6.113-2.016 11.153-1.2 15.538 3.035 10.411 10.055 16.334 22.073 15.17 36.94-4.055 1.697-8.027 3.644-12.188 5.021-4.255 1.409-8.31 3.318-13.199.401-4.313-2.573-10.349 1.46-9.507 5.894 1.167 6.149.533 12.127.024 18.249-.847 10.191-5.324 18.307-12.876 24.817-2.519 2.17-4.122 5.933-8.358 5.617zm12.136-65.923c-.017 3.558 3.028 7.266 6.025 7.339 4.199.103 8.032-3.729 7.912-7.908-.106-3.722-3.868-7.552-7.332-7.468-3.492.085-6.585 3.849-6.605 8.037z" fill="#fbfbfb"/><path d="m525.608 288.526c-6.109-.174-11.55-2.941-17.314-4.458.845-3.902 1.902-7.719 4.437-10.938 15.876-6.764 32.501-8.554 49.622-8.291 10.138.156 20.224 1.185 30.354 1.136 17.762-.086 33.991 5.477 49.098 14.198 3.686 2.128 9.225 3.917 9.074 10.075-3.328 4.381-6.478 8.911-10.721 13.042-4.014-7.535-10.357-11.251-18.513-11.094-7.378.144-14.842-2.867-22.142.472-3.197 1.24-5.586-1.4-8.502-1.823-10.551-1.53-21.118-.558-31.668-.88-1.976-.061-3.948-.226-5.922-.343-.348-.34-.646-.896-1.05-.989-8.287-1.91-16.859-.551-25.188-2.166-1.274-.246-1.448 1.053-1.565 2.059z" fill="#d3d1d1"/><path d="m658.074 428.018c-1.339-.927-.99-2.341-1.015-3.625-.146-7.59-.1-15.159-.798-22.764-.581-6.344.608-12.832.708-19.261.077-4.931-.487-9.845-2.015-14.589 1.978-5.6-.403-10.961-.714-16.439-.749-13.206-3.552-25.856-8.222-38.136-.846-2.225-.551-3.363 1.095-5.093 3.481-3.658 7.312-7.279 7.672-12.866 2.108-.508 2.476 1.266 3.139 2.499 10.009 18.626 18.434 37.694 19.347 59.389.178 4.22-.513 8.947 1.922 12.989.589 16.939-.175 33.826-3.068 50.522-1.125 6.497-3.437 12.69-10.211 16.06-3.09 1.537-4.15 6.079-9.428 6.458 3.886-6.237 5.336-12.648 5.177-19.396.194-1.244.88-2.549-.372-3.699-.844 1.05-1.393 2.137-1.117 3.488-.265 1.692-.774 3.269-2.1 4.463z" fill="#d3d1d1"/><path d="m735.084 160.025c.398-4.661-1.348-8.741-3.475-12.706-2.933-5.467-4.869-11.262-5.803-17.391-.125-.82-.207-1.655-.221-2.484-.061-3.416.532-7.958 3.113-8.84 2.699-.922 4.041 3.592 5.58 6.078.525.849 1.008 1.727 1.582 2.539.463.654.988 1.465 1.969.996 1.311-.627.822-1.685.326-2.526-1.671-2.829-2.814-5.972-5.526-8.166-1.722-1.394-.967-2.563.943-3.228 5.817-2.021 8.755-.728 11.12 4.771.59 1.373.359 4.241 2.452 3.596 2.392-.736.638-3.019.217-4.621-.247-.943-.651-1.846-1.179-3.304 5.724-.132 10.037 2.584 13.439 6.023 12.472 12.61 17.901 28.148 17.146 45.726-.317 7.376-5.922 13.414-12.906 15.506-17.77 5.321-31.782-3.555-36.242-19.621-.695-2.505-.484-4.89-.568-7.323-.037-1.049-.934-2.958 1.319-3.045 1.948-.075 1.526 1.823 2.092 2.893-2.079.957-1.771 2.888-1.16 4.271 1.931 4.372 3.576 8.907 6.368 12.859 1.685 2.386 3.959 3.432 6.865 3.021 1.07-.15 2.615.473 2.945-1.036.174-.796-.32-2.097-.962-2.652-3.774-3.271-5.823-7.954-9.434-11.336z" fill="#fbfbfb"/><path d="m670.018 518.989c1.224.111 2.215 1.474 3.8.576-.437-2.775-3.355-2.896-4.875-4.455.106-3.464-4.952-4.44-4.083-8.432.088-.41-1.908-1.099-2.827.209-3.329.436-6.657.871-9.985 1.307-3.518-6.57-3.683-8.781 4.297-12.684 4.996-2.443 10.598-3.624 15.837-5.61 3.14-1.19 6.845-1.389 9.017-4.541.494.077 1.043.338 1.473.206 10.256-3.141 17.091 2.169 23.387 9.197 1.348 1.504 1.758 3.131 2.188 4.874 1.456 5.898.819 11.919 1.03 17.893.092 2.581-1.355 3.036-3.437 2.996-5.202-.1-7.655 2.313-8.075 7.669-.448 5.731-4.904 7.792-9.906 9.003-2.096.508-5.57.511-4.534 3.873 2.192 7.118-2.267 7.911-7.271 8.546-.155-6.785-.163-6.819-6.755-5.46-2.92.602-5.803 1.373-8.703 2.068-2.508-10.031-7.912-18.421-14.74-26.004 5.545-3.405 11.266-1.273 16.914-.458 2.525.366 5.051 1.612 7.248-.773z" fill="#fbfbfb"/><path d="m599.874 188.978c1.374.127 1.787.931 2.14 2.245 3.379 12.597 8.292 24.419 16.949 34.481 2.843 3.304 4.218 7.942 9.047 9.299.232 4.291-.665 8.644.8 12.868 3.069 8.85 12.025 15.188 21.748 14.185 10.079-1.039 17.404-5.472 19.955-15.822.434-1.758.982-3.488 1.479-5.231 1.375-.343 2.75-.686 4.126-1.028 4.927 6.644 9.595 13.551 18.464 17.223-3.336 1.595-6.025.346-8.428.997-10.164 2.755-18.807 7.553-22.602 18.161-1.415 3.955-2.848 4.62-6.043 1.464-3.408-3.366-7.268-6.283-10.973-9.346-11.398-9.424-25.45-11.628-39.312-14.181-3.32-.611-5.212-2.161-6.618-5.035-6.815-13.933-6.146-28.636-4.244-43.35.733-5.682 1.079-11.554 3.512-16.93z" fill="#d3d1d1"/><path d="m495.748 415.137c-3.836-2.537-4.201-.227-3.778 2.808.877 6.294 7.524 10.98 16.147 11.066 2.803.028 4.489.396 4.103 3.612.253 4.215-2.136 5.397-5.884 5.441-2.446.029-4.967-.654-7.359.435-.334-.011-.668-.021-1.003-.03.377-2.307-1.196-2.968-2.926-3.051-1.1-.054-1.07 1.134-.788 1.91 2.965 8.141 2.667 16.519 1.89 24.938-4.452.961-5.872-2.901-6.981-5.44-7.259-16.605-11.294-33.932-10.186-52.217.223-3.678 1.927-5.429 5.783-5.938 5.472-.722 11.105-1.82 16.326-.365 10.833 3.02 18.06 10.694 23.235 20.462 2.578 4.866 3.92 9.846 1.959 15.261-.502 1.385-.955 3.28-2.825 2.904-2.813-.564-5.414-1.934-6.478-4.846-.56-1.531-2.132-3.43.059-4.889 1.386-.923 3.46-1.536 2.293-3.573-1.165-2.032-2.496.7-3.872.425-.487-.097-.991-.104-1.487-.153-.697-1.621-2.047-2.008-3.639-1.901-4.295.284-7.538-1.777-10.463-4.613-1.155-1.12-2.162-2.584-4.126-2.246z" fill="#fbfbfb"/><path d="m679.193 370.122c-2.435-4.042-1.744-8.77-1.922-12.989-.913-21.694-9.338-40.763-19.347-59.389-.663-1.233-1.03-3.007-3.139-2.499l.006.006c.308-2.492-.912-3.382-3.251-3.097-.221-.635-.441-1.27-.662-1.905.15-6.158-5.389-7.947-9.074-10.075-15.107-8.722-31.336-14.284-49.098-14.198-10.13.049-20.216-.979-30.354-1.136-17.121-.263-33.746 1.527-49.622 8.291 4.187-6.79 11.268-9.498 18.248-10.913 28.316-5.743 56.859-5.605 85.133.006 19.036 3.778 35.664 12.86 45.458 30.332 8.706 15.528 14.286 32.484 16.343 50.321 1.041 9.029 2.725 18.079 1.281 27.245z" fill="#fbfbfb"/><path d="m690.432 325.213c-5.094-4.717-9.102-10.036-9.433-17.328-.05-1.104-.501-2.602.649-3.223 1.582-.854 2.391.821 3.153 1.724 6.183 7.312 14.458 10.468 23.583 11.359 4.379.428 9.146.348 13.281-.954 7.364-2.319 15.75-1.508 22.127-6.705 2.4-1.956 5.207.835 7.326-1.27.818.535 1.766.943 2.432 1.626 5.029 5.165 4.32 6.72-1.986 9.816-13.691 6.723-28.065 9.962-43.201 9.533-6.195-.175-12.617-.479-17.931-4.578z" fill="#d3d1d1"/><path d="m696.963 672.964c-4.531-1.566-7.651 1.045-10.673 2.891-4.457 2.723-7.255 1.537-10.089-2.131-4.502-5.83-4.607-5.842 1.719-9.5 7.459-4.313 15.051-8.4 22.457-12.802 2.586-1.537 3.916-1.102 4.756 1.632.098.316.234.622.355.931 3.602 9.185 3.6 9.18-4.982 14.454-.82.504-1.572 1.118-2.576 1.838 2.264 1.763 4.102.735 5.939-.139 3.474-1.651 5.441-1.107 6.234 3.195 2.219 12.038-2.242 15.36-14.398 14.036-3.224-.352-5.967-1.73-8.449-3.892-2.577-2.245-1.826-3.85.601-5.302 3-1.795 6.067-3.479 9.106-5.211z" fill="#e76977"/><path d="m647.563 606.682c-.615-6.026 3.751-11.377 9.347-13.266 12.524-4.227 22.142 1.245 30.356 9.594 19.437 19.752 26.707 45.1 31.46 71.396.745 4.118.128 8.464-5.315 10.247-1.384-1.989-.096-4.104-.061-6.059.168-9.329-2.527-18.035-5.248-26.799-3.762-12.117-8.485-23.693-15.807-34.199-6.619-9.499-15.615-15.308-26.52-18.287-7.545-2.062-13.752.382-18.212 7.373z" fill="#5eabd6"/><path d="m652.658 632.216c-.218-1.927.705-3.114 2.328-4 8.143-4.447 16.303-8.866 24.367-13.452 2.295-1.305 4.008-1.208 5.615.853.203.261.482.464.672.732 8.74 12.312 10.184 8.299-2.541 16.52-6.697 4.326-13.789 7.933-20.654 11.944-3.061 1.789-4.52 1.428-5.764-2.003-1.285-3.546-3.695-6.674-4.023-10.594z" fill="#e76977"/><path d="m598.945 619.014c4.236.316 5.839-3.446 8.357-5.616 7.553-6.511 12.029-14.626 12.876-24.817.509-6.122 1.142-12.1-.024-18.249-.841-4.434 5.194-8.467 9.507-5.894 4.889 2.917 8.944 1.008 13.199-.401 4.161-1.378 8.134-3.324 12.188-5.021.844 3.336-.508 5.138-3.736 6.248-5.023 1.728-9.893 3.898-14.875 5.756-1.817.678-3.923 2.472-5.409-.675-.256-.542-1.135-.631-1.785-.198-1.246.829-.726 1.935-.636 3.105.535 6.962.326 13.877-.276 20.875-1.193 13.886-17.261 27.713-30.768 28.705-.315-1.566.581-2.679 1.382-3.818z" fill="#d3d1d1"/><path d="m670.504 662.884c-2.928-.076-3.661-2.218-4.688-3.78-5.179-7.883-5.039-7.77 2.619-12.869 7.49-4.987 15.213-9.523 23.229-13.601 2.506-1.274 3.866-1.751 5.688 1.438 6.422 11.248 6.598 11.101-4.766 17.079-6.33 3.331-12.58 6.815-18.879 10.208-1.153.621-2.367 1.13-3.203 1.525z" fill="#e76977"/><path d="m681.197 485.359c-2.172 3.152-5.877 3.351-9.017 4.541-5.239 1.986-10.841 3.167-15.837 5.61-7.979 3.902-7.814 6.113-4.297 12.684-6.227 2.767-6.254 2.774-8.148-3.636-.746-2.521-1.047-5.215-2.094-7.59-.907-2.054-.284-3.108 2.904-4.552-7.748-.41-14.202-.431-17.923-6.706 3.294-5.006 6.372-5.99 11.08-3.061 1.841 1.146 3.61 1.411 5.625 1.441 11.774.18 23.482-.414 35.055-2.784 1.3-.266 2.658-.62 3.513.905-1.1.828-1.571 1.827-.861 3.148z" fill="#d3d1d1"/><path d="m708.309 184.935c4.416 9.104 3.421 33.662-1.469 41.354-1.607-2.005-1.005-4.26-.774-6.141 1.206-9.864-.521-19.491-2.175-29.099-1.303-7.572-5.116-13.976-10.457-19.472-5.473-5.632-11.835-5.652-17.463.026-2.051 2.069-3.961 4.276-6.664 7.212.822-9.98 3.98-18.084 8.125-25.885 2.734-.023 4.986 1.112 7.43 2.33 8.701 4.334 13.181 12.161 17.738 20.055 1.864 3.228 2.863 6.976 5.709 9.62z" fill="#c8fbfd"/><path d="m574.182 589.096c-3.829 0-7.676-.23-11.482.064-3.911.304-5.308-1.524-5.772-5.069-1.409-10.754-1.47-10.756 9.345-11.094 7.317-.229 14.649-.234 21.948-.724 3.159-.213 4.153 1.132 4.373 3.783.233 2.813.284 5.646.619 8.446.337 2.811-.865 4.041-3.561 4.046-5.156.011-10.313.004-15.469.004-.001.181-.001.363-.001.544z" fill="#e76977"/><path d="m574.115 552.953c.666.006 1.333-.011 1.999.008 12.062.336 12.036.344 14.915 11.846.66 2.636.162 4.509-2.889 4.288-9.521-.689-18.962.892-28.461.825-2.668-.019-3.667-.525-3.703-3.516-.158-12.977-.275-12.982 12.646-13.448 1.829-.066 3.662-.01 5.493-.003z" fill="#e76977"/><path d="m509.978 371.14c-6.381-1.717-12.602-4.196-19.366-4.104-1.825.024-1.68-1.125-1.426-2.356 1.451-7.018 4.301-13.576 6.601-20.318.756-2.214 2.375-1.433 3.685-1.328 4.606.368 9.025 1.826 13.736 1.974 3.004.094 2.293 3.762 3.041 5.929-3.101 6.419-4.978 13.22-6.271 20.203z" fill="#fbfbfb"/><path d="m578.479 592.729c2.493 0 5.052-.351 7.461.101 2.357.441 6.325-1.716 6.832 1.676.662 4.429 1.021 9.358-1.966 13.467-.886 1.219-2.375 1.029-3.697 1.026-6.65-.014-13.302-.168-19.948-.026-3.789.08-5.68-1.55-6.741-5.13-2.885-9.729-2.777-10.104 7.088-10.725 3.644-.229 7.313-.037 10.972-.037-.001-.117-.001-.234-.001-.352z" fill="#e76977"/><path d="m701.479 479.365c2.521-1.237 5.047-2.468 7.563-3.715 1.853-.918 3.666-.742 3.529 1.589-.598 10.177 6.719 14.848 13.553 19.757 2.514 1.807 5.533 2.941 8.389 4.235 3.236 1.466 5.664-.321 8.096-2.186 3.291-2.523 5.228-.048 6.942 2.226 1.988 2.636 1.718 3.924-.702 5.69-.326.053-.699.021-.973.172-13.026 7.149-22.227-.646-31.324-8.207-4.695-3.902-8.75-8.581-13.5-12.406-2.807-2.261-3.124-4.31-1.573-7.155z" fill="#d3d1d1"/><path d="m537.187 232.933c-4.85-12.636-4.128-25.695-3.082-38.813 1.526-19.139 11.722-33.878 23.878-47.658.433-.49.973-.902 1.52-1.268.245-.163.629-.119 2.466-.404-8.734 13.904-13.83 28.385-18.142 43.17-1.187.009-1.693.827-2.155 1.751-4.903 9.807-5.549 20.17-4.411 30.88.432 4.065-.023 8.224-.074 12.342z" fill="#fbfbfb"/><path d="m569.058 532.947c1.962-2.313 3.672-2.621 6.32-1.63 5.898 2.209 9.843 6.373 13.736 11.083 8.065 9.759 9 21.689 10.642 33.311 1.728 12.227.244 24.45-2.955 36.312-1.532 5.681-2.893 11.974-9.672 14.707 3.555-6.183 5.826-12.813 7.32-19.648 4.607-21.075 3.54-41.623-7.438-60.705-3.864-6.716-9.71-11.783-17.953-13.43z" fill="#5eabd6"/><path d="m661.813 602.864c4.699-.012 9.188 1.932 13.398 4.837 2.323 1.602 2.373 3.256.135 4.582-7.583 4.491-15.271 8.806-22.941 13.149-.959.543-2.125.504-2.455-.729-1.449-5.407-2.165-11.056.504-16.089 2.093-3.946 6.101-5.973 11.359-5.75z" fill="#e76977"/><path d="m702.782 552.619c-1.327 8.445-8.614 12.168-13.968 17.344-2.83 2.735-6.697 4.247-9.53 7.133-4.446 4.528-4.435 5.166-.126 9.684 2.502 2.623 6.038 4.125 7.803 7.563.906 1.769 2.194 3.332 2.123 5.462-8.945-6.913-18.448-12.16-30.728-10.403 13.439-14.02 29.629-24.571 44.426-36.783z" fill="#d3d1d1"/><path d="m576.864 612.998c2.994 0 5.996.123 8.981-.037 2.553-.137 2.776 1.017 2.103 3.002-1.075 3.169-2.494 6.18-4.437 8.897-2.21 3.094-5.571 3.122-8.537 2.021-5.42-2.012-7.889-6.834-9.754-11.945-.792-2.169.857-2.087 2.165-2.106 3.159-.049 6.319-.017 9.479-.017z" fill="#e76977"/><path d="m537.187 232.933c.051-4.117.507-8.276.075-12.343-1.138-10.71-.493-21.073 4.411-30.88.462-.924.969-1.742 2.155-1.751-.555 7.243-2.416 14.31-2.525 21.638-.174 11.68.706 23.145 4.515 34.291.706 2.066 2.031 4.213.721 7.196-3.232-6.308-7.697-11.465-9.352-18.151z" fill="#d3d1d1"/><path d="m583.778 549.055c-7.961-.272-15.634.381-23.249 1.72-2.185.385-2.892-.717-2.507-2.948 1.768-10.247 8.339-13.264 17.098-7.757 6.026 3.787 6.45 4.214 8.658 8.985z" fill="#e76977"/><path d="m712.129 635.967c2.068-.07 3.248.771 3.996 2.864 1.83 5.116 4.009 10.108 5.96 15.183.879 2.286 2.071 4.336 4.653 4.619 2.594.284 3.423-2.178 4.767-3.778 2.353-2.8 2.003-7.535 6.37-8.886-2.297 9.968-7.421 18.167-15.586 25.106-4.26-11.741-5.447-23.953-10.16-35.108z" fill="#d3d1d1"/><path d="m778.952 272.031c2.429-8.399 7.325-16.065 7.219-25.231-.045-3.934 2.259-5.508 6.125-4.696 1.129 6.919-.801 13.603-1.753 20.337-.258 1.826-1.376 3.893-1.449 5.581-1.922 16.032-4.959 7.496-8.182 5.13-.832-.06-1.53-.356-1.96-1.121z" fill="#d3d1d1"/><path d="m496.151 462.266c.777-8.419 1.076-16.797-1.89-24.938-.282-.776-.313-1.964.788-1.91 1.73.083 3.303.744 2.926 3.051-.268 3.552 2.661 3.817 4.884 4.375 3.728.935 7.489.187 11.194-.581-.15 3.433-.299 6.865-.449 10.298-1.179-1.32-2.405-1.69-2.054.638.468 3.102.002 6.169.237 9.221.177 2.302-.667 3.313-2.73 3.696-.023-4.929-.041-9.856-.07-14.785-.016-2.696-.66-5.184-3.933-5.041-2.76.12-4.557 1.625-3.927 4.85.12.615-.107 1.297-.173 1.948-2.653-.503-1.955 1.468-2.012 2.793-.109 2.503-.217 4.973-2.791 6.385z" fill="#d3d1d1"/><path d="m708.309 184.935c-2.846-2.644-3.845-6.392-5.709-9.619-4.558-7.894-9.037-15.721-17.738-20.055-2.443-1.218-4.695-2.354-7.43-2.33 3.729-7.729 5.455-8.203 11.331-2.471 9.821 9.582 17.065 20.697 19.546 34.475z" fill="#fbfbfb"/><path d="m509.978 371.14c1.292-6.982 3.17-13.783 6.271-20.205 1.808 4.767 3.83 9.466 5.352 14.321 1.055 3.367-1.283 6.261-2.404 9.263-.359.96-1.385.333-2.133-.029-2.352-1.139-4.723-2.237-7.086-3.35z" fill="#d3d1d1"/><path d="m513.604 452.561c.15-3.433.299-6.865.449-10.298.961-.845 1.844-1.73 1.67-3.173.834-.074 1.669-.147 2.503-.222 2.716.759 3.833 2.411 4.045 5.359.388 5.378.347 10.592-2.373 15.409-.631 1.118-1.657 2.337-3.084 2.263-1.783-.093-1.589-1.798-1.858-3.037-.455-2.098-.902-4.2-1.352-6.301z" fill="#fbfbfb"/><path d="m500.953 453.087c.066-.651.293-1.333.173-1.948-.63-3.225 1.167-4.729 3.927-4.85 3.272-.143 3.917 2.345 3.933 5.041.029 4.929.047 9.856.07 14.785-4.018 2.399-6.039.193-7.352-3.298-1.184-3.145-.538-6.482-.751-9.73z" fill="#fbfbfb"/><g fill="#d3d1d1"><path d="m730.092 340.552c-1.582 3.418-5.191 3.786-8.059 5.143-1.969.932-3.089-.35-2.984-2.493.153-3.138-.045-6.232-1.038-9.239 3.89-.753 7.931-.34 11.768-1.59 1.187-.386 2.814-1.058 3.501.593.733 1.763-.879 2.764-2.057 3.523-1.719 1.106-4.928 1.513-1.131 4.063z"/><path d="m735.084 160.025c3.611 3.382 5.66 8.064 9.437 11.337.642.556 1.136 1.856.962 2.652-.33 1.509-1.875.886-2.945 1.036-2.906.41-5.181-.636-6.865-3.021-2.792-3.952-4.438-8.487-6.368-12.859-.611-1.384-.919-3.314 1.16-4.271 1.956 1.332 1.537 4.806 4.619 5.126z"/><path d="m742.875 519.971c3.201.369 3.428 1.865.99 3.52-3.191 2.167-5.617 4.958-7.869 7.995-1.307 1.762-2.233 3.628-2.197 5.874-2.436-.817-4.871-1.636-7.92-2.659 5.841-5.356 8.213-13.615 16.996-14.73z"/><path d="m660.594 546.225c2.9-.695 5.783-1.467 8.703-2.068 6.592-1.359 6.6-1.325 6.755 5.46-2.718.482-5.591.56-8.119 1.533-5.109 1.967-6.875-.337-7.339-4.925z"/><path d="m670.018 518.989c-2.196 2.385-4.723 1.139-7.25.773-5.648-.815-11.369-2.947-16.914.458-1.889-.906-3.777-1.812-5.666-2.718.1-.511.2-1.021.301-1.532 9.896.191 19.937-1.88 29.529 3.019z"/><path d="m750.907 550.051c5.896-.111 8.89 4.23 12.041 8.11 1.007 1.239 1.874 2.619 3.03 3.761.086 2.413-1.576 3.862-3.445 4.202-1.682.307-2.016-1.891-2.521-3.187-1.975-5.063-5.986-8.654-9.105-12.886z"/><path d="m495.748 415.137c1.964-.338 2.971 1.126 4.126 2.245 2.925 2.836 6.168 4.897 10.463 4.613 1.591-.106 2.941.28 3.639 1.901-7.65 4.335-17.406-.353-18.228-8.759z"/><path d="m765.988 440.003c-3.924-.548-5.992 3.394-9.455 3.905-1.047.155-2.199 1.475-3.162.166-.769-1.042-.422-2.363.488-3.178 1.611-1.443 2.001-3.879 4.096-4.887 2.164 5.182 3.925 1.888 5.551-.583 1.293 1.55 2.313 2.835 2.482 4.577z"/><path d="m518.227 438.868c-.834.074-1.669.147-2.503.222-5.659 1.984-11.318 3.972-16.746-.591 2.392-1.089 4.913-.405 7.359-.435 3.748-.044 6.137-1.227 5.884-5.441 2.001 2.082 4.004 4.163 6.006 6.245z"/><path d="m662.032 506.888c.919-1.308 2.915-.619 2.827-.209-.869 3.991 4.189 4.968 4.083 8.432-4.288-1.295-8.655-2.198-13.739-2.276 2.209-2.81 7.09-1.497 6.829-5.947z"/></g><path d="m676.116 239.974c-1.376.343-2.751.686-4.126 1.028-.224-2.965-.446-5.93-.669-8.895.484-.017.969-.032 1.453-.048 1.115 2.638 2.228 5.277 3.342 7.915z" fill="#fbfbfb"/><path d="m672.774 232.06c-.484.016-.969.031-1.453.048-1.133-2.694-2.266-5.389-3.397-8.083.541-.03 1.084-.06 1.625-.089 1.075 2.708 2.15 5.416 3.225 8.124z" fill="#d3d1d1"/></g><path d="m661.29 420.07c1.25 1.149.57 2.449.37 3.699-.49-.079-.99-.149-1.49-.22-.27-1.349.28-2.429 1.12-3.479z" fill="#0f0f10"/><path clip-rule="evenodd" d="m746.693 509.49c.252.742.418 1.517-.424 1.966-.729.39-1.064-.196-1.345-.753.59-.404 1.18-.808 1.769-1.213z" fill="#d3d1d1" fill-rule="evenodd"/><path clip-rule="evenodd" d="m531.935 367.155c2.707 5.959 5.316 11.566 8.452 16.912 5.483 9.348 11.079 18.644 18.689 26.342 11.708 11.843 25.67 19.946 42.375 22.566 6.163.967 12.3 2.191 18.667 1.326 3.105-.422 4.272 2.438 4.578 4.927.315 2.56-1.299 3.703-3.997 3.871-12.848.8-25.023-.785-37.309-5.563-14.897-5.795-25.129-16.116-32.892-29.076-7.224-12.061-14.243-24.376-18.709-37.87-.297-.902-1.063-1.767.146-3.435z" fill="#d3d1d1" fill-rule="evenodd"/><path clip-rule="evenodd" d="m650.879 290.249c.221.636.441 1.271.662 1.905-2.23 3.685-4.411 7.594-8.104 9.858-2.919 1.788-1.981 3.05-.421 4.749 2.205 2.402 3.107-.303 4.139-1.289 3.099-2.965 4.282-7.408 7.638-10.222l-.006-.006c-.36 5.587-4.19 9.208-7.672 12.866-1.646 1.729-1.94 2.868-1.095 5.093 4.67 12.279 7.473 24.93 8.222 38.136.311 5.479 2.691 10.84.714 16.439-2.759-2.565-2.498-6.056-3.053-9.377-2.324-13.914-3.607-28.09-8.708-41.381-3.915-10.201-9.624-18.946-21.04-22.315-7.45-2.197-15.093-1.468-22.65-2.037 7.3-3.339 14.763-.328 22.142-.472 8.155-.157 14.499 3.559 18.513 11.094 4.241-4.13 7.391-8.66 10.719-13.041z" fill="#0f0f10" fill-rule="evenodd"/><path clip-rule="evenodd" d="m525.608 288.526c.117-1.007.292-2.306 1.566-2.059 8.329 1.615 16.901.256 25.188 2.166.405.093.703.649 1.05.989-9.38 2.484-18.598.84-27.804-1.096z" fill="#0f0f10" fill-rule="evenodd"/><path clip-rule="evenodd" d="m530.409 364.743c.104.042.293.081.295.126.004.128-.069.258-.111.387-.104-.042-.294-.081-.296-.126-.005-.128.069-.258.112-.387z" fill="#d3d1d1" fill-rule="evenodd"/><path d="m649.03 220.01c9.229.04 18.39 9.88 18.279 19.63-.109 9.49-8.229 17.49-17.579 17.34-9.671-.15-17.09-8.42-17.041-18.98.041-9.79 7.531-18.03 16.341-17.99z" fill="#fff"/><path d="m671.32 232.11c.22 2.96.449 5.93.67 8.89-.5 1.75-1.04 3.48-1.48 5.23-2.55 10.35-9.87 14.79-19.95 15.83-9.729 1-18.68-5.34-21.75-14.19-1.47-4.22-.57-8.58-.8-12.87 1.78-7 5.36-12.74 11.64-16.59 9.68-5.93 20.11-3.86 28.27 5.61 1.14 2.7 2.27 5.39 3.4 8.09zm-4.01 7.53c.11-9.75-9.05-19.59-18.279-19.63-8.811-.04-16.3 8.2-16.34 17.99-.05 10.56 7.37 18.83 17.041 18.98 9.348.15 17.468-7.85 17.578-17.34z" fill="#0f0f10"/><path d="m667.92 224.02c1.14 2.7 2.271 5.39 3.4 8.09.22 2.96.449 5.93.67 8.89-.5 1.75-1.04 3.48-1.48 5.23-2.55 10.35-9.87 14.79-19.95 15.83-9.729 1-18.68-5.34-21.75-14.19-1.47-4.22-.57-8.58-.8-12.87 1.78-7 5.36-12.74 11.64-16.59 9.68-5.93 20.11-3.86 28.27 5.61z" fill="none" stroke="#fff" stroke-miterlimit="10"/><path d="m649.03 220.01c-8.811-.04-16.3 8.2-16.34 17.99-.05 10.56 7.37 18.83 17.041 18.98 9.35.15 17.47-7.85 17.579-17.34.11-9.75-9.05-19.59-18.28-19.63z" fill="none" stroke="#fff" stroke-miterlimit="10"/><path clip-rule="evenodd" d="m723.221 594.839c.066 5.146-4.226 11.035-8.107 11.125-4.11.095-7.718-4.563-7.699-9.941.018-4.953 3.529-9.528 7.444-9.697 4.553-.198 8.299 3.615 8.362 8.513z" fill="#0f0f10" fill-rule="evenodd"/><path d="m720.36 595.69c-.23 3.489-2.03 5.739-5.221 5.779-3.04.03-4.79-2.25-4.77-5.319.02-3.681 2.74-5.46 5.78-5.511 2.721-.039 4.171 2.361 4.211 5.051z" fill="#fff"/><path clip-rule="evenodd" d="m611.081 553.091c.02-4.188 3.113-7.952 6.604-8.037 3.464-.084 7.226 3.746 7.332 7.468.12 4.18-3.712 8.011-7.912 7.908-2.996-.074-6.041-3.782-6.024-7.339z" fill="#0f0f10" fill-rule="evenodd"/><path d="m622.32 553.2c.03 2.569-1.48 3.88-4.46 3.97-2.59-.22-4.04-2.03-4.08-4.83-.03-2.5 1.5-4.18 3.99-4.03 2.79.16 4.51 2.01 4.55 4.89z" fill="#fff"/><path clip-rule="evenodd" d="m498.978 438.499c5.428 4.563 11.087 2.575 16.746.591.174 1.442-.709 2.328-1.67 3.173-3.706.768-7.467 1.516-11.194.581-2.223-.558-5.151-.823-4.884-4.375.333.01.668.019 1.002.03z" fill="#0f0f10" fill-rule="evenodd"/><path clip-rule="evenodd" d="m654.792 295.251c-3.355 2.813-4.539 7.257-7.638 10.222-1.031.986-1.934 3.691-4.139 1.289-1.561-1.699-2.498-2.961.421-4.749 3.693-2.265 5.874-6.174 8.104-9.858 2.34-.286 3.56.604 3.252 3.096z" fill="#d3d1d1" fill-rule="evenodd"/><path clip-rule="evenodd" d="m577.707 322.933c8.825.001 17.649.028 26.474-.02 2.157-.012 3.688.06 4.04 2.948 1.447 11.87 3.13 23.712 4.817 35.551.409 2.873-.534 4.061-3.454 3.661-17.598-2.409-35.225.427-52.839-.219-3.34-.122-4.512-1.06-4.93-4.486-1.306-10.713-2.995-21.382-4.715-32.039-.631-3.912.022-5.705 4.637-5.505 8.642.375 17.312.108 25.97.109z" fill="#fbfbfb" fill-rule="evenodd"/><path d="m603.75 349.33c.1 1.55.86 3.28-1.4 4.21-3.85 1.59-10.09-1.53-12.24-6.27-2.24-4.94-.82-9.99 3.39-12.07 5.12-2.54 7.94-.7 8.98 6.25-2.31-.27-4.31-1.69-6 .2-.97 1.1-.89 2.57-.17 3.74 1.13 1.87 2.81 2.79 5.06 1.92 2.02-.78 2.29.64 2.38 2.02z" fill="#0f0f10"/><path d="m570.77 351c.23 3.29-2.47 2.35-3.62 2.87-5.94-.06-10.69-4.53-11.15-9.98-.43-5.13 2.05-8.8 6.69-9.45 2.65-.36 5.51-.46 6.12 3.24.31 1.9.61 3.78-2.52 3.13-2.14-.44-3.61.53-3.51 2.94.1 2.42 1.7 3.99 3.86 3.56 3.45-.69 3.95 1.14 4.13 3.69z" fill="#0f0f10"/><path d="m591.02 352.9c-6.35 2.57-8.87-1.27-11.39-5.57-1.65 2.13 2.24 6.96-3.45 6.35-1.98-.21-2.95-.85-3.18-2.94-.38-3.27-1.19-7.18-1.72-11.81-.18-1.56-1.32-3.8 1.83-4.11 2.48-.25 4.25.25 4.49 3.13.07.81.33 1.6.62 3 1.92-3.35 2.29-7.88 7.48-6.57 1.29.33 2.63.58 1.48 2.05-5.35 6.85-.37 11.48 3.84 16.47z" fill="#fbfbfb"/><g clip-rule="evenodd" fill-rule="evenodd"><path d="m720.725 595.483c-.237 3.681-2.117 6.063-5.437 6.099-3.164.035-4.987-2.368-4.966-5.607.024-3.878 2.856-5.765 6.014-5.812 2.836-.041 4.348 2.491 4.389 5.32z" fill="#e76977"/><path d="m617.856 557.084c-2.583-.221-4.041-2.029-4.074-4.848-.029-2.504 1.497-4.189 3.985-4.042 2.796.166 4.514 2.017 4.551 4.909.033 2.58-1.478 3.896-4.462 3.981z" fill="#e76977"/><path d="m802.932 517.697c.452 4.68-3.094 3.67-5.681 4.01-3.228.425-3.351-1.659-3.358-4.015-.014-4.409 3.935-5.148 6.47-5.403 2.77-.278 2.387 3.203 2.569 5.408z" fill="#e76977"/><path d="m797.813 525.15c1.488.653 4.167-1.007 3.977 1.684-.145 2.026-.642 5.344-3.469 5.188-2.131-.117-5.334-1.018-5.318-4.25.017-3.531 3.145-1.941 4.81-2.622z" fill="#5eabd6"/><path d="m800.18 507.365c-1.423 2.637-4.096 3.691-6.395 4.187-2.199.473-2.854-2.93-2.597-3.944.696-2.745 3.743-3.746 6.108-4.247 2.431-.516 1.415 2.78 2.884 4.004z" fill="#5eabd6"/><path d="m790.613 532.272c1.834 1.646 4.935 1.509 4.969 3.511.034 1.983-2.107 3.775-4.373 4.044-1.78.212-3.565-1.218-3.756-2.719-.265-2.098 2.197-2.94 3.16-4.836z" fill="#e76977"/><path d="m699.889 540.615c-.852 2.074-2.85 3.063-4.56 3.347-1.378.228-1.913-2.359-1.925-3.331-.02-1.647 1.767-2.896 3.453-2.951 1.609-.053 2.178 1.688 3.032 2.935z" fill="#5eabd6"/><path d="m703.563 532.72c1.049.604 3.365-1.02 3.216 1.576-.093 1.619-1.077 3.515-2.836 3.565-1.95.056-3.134-1.716-3.275-3.589-.166-2.181 1.733-1.302 2.895-1.552z" fill="#e76977"/><path d="m691.539 543.798c.078 1.643-.32 2.757-2.139 2.692-1.869-.065-2.473-1.097-2.52-2.886-.047-1.749.393-3.033 2.254-3.184 2.676-.216 1.854 2.15 2.405 3.378z" fill="#e76977"/><path d="m705.162 524.662c1.599-.037 3.027.054 2.791 2.312-.164 1.564-.256 3.16-2.459 2.515-1.562-.457-3.911-.116-3.624-2.961.226-2.237 1.857-1.852 3.292-1.866z" fill="#5eabd6"/><path d="m648.971 219.425c9.502.042 18.934 10.19 18.816 20.248-.116 9.791-8.47 18.049-18.101 17.892-9.947-.161-17.588-8.692-17.539-19.582.047-10.1 7.75-18.598 16.824-18.558z" fill="#e76977"/><path d="m595.896 252.311c-13.136-.946-25.708.369-38.304.034-3.438-.092-5.015-1.923-6.361-4.605-4.082-8.136-4.637-16.854-4.606-25.738.086-24.252 4.095-47.623 15.538-69.295 4.934-9.346 10.604-18.493 20.378-23.285 14.171-6.948 29.096-11.155 45.229-8.256 5.121.921 10.47.787 15.299 3.595-47.776 30.942-60.87 74.707-47.173 127.55z" fill="#5eabd6"/><path d="m775.677 275.857c1.897-.152 9.729 4.593 9.208 5.652-1.311 2.66-1.707 6.214-4.791 7.439-1.746.694-8.084-4.14-8.102-5.562-.013-1.006 3.158-7.487 3.685-7.529z" fill="#e76977"/><path d="m503.042 333.645c1.609.1 3.763.34 5.917.342 3.537.003 3.486 2.798 3.488 4.919.002 2.761-2.439 2.195-4.163 2.003-2.304-.257-4.628-.62-6.841-1.281-1.239-.371-3.996.341-2.979-2.6.642-1.854.627-4.745 4.578-3.383z" fill="#e76977"/><path d="m779.099 293.633c-1.224 1.707-2.046 3.484-3.413 4.583-1.379 1.11-2.234-.738-3.193-1.484-1.179-.918-2.37-1.857-3.367-2.959-1.24-1.37-1.336-2.907-.27-4.553 1.365-2.107 2.709-.589 3.769.105 2.112 1.385 4.844 1.957 6.474 4.308z" fill="#5eabd6"/><path d="m766.057 309.457c-1.293 1.741-2.696 3.649-4.748 3.313-3.111-.511-4.545-3.388-4.885-6.086-.182-1.441 1.95-3.897 3.518-3.418 2.854.872 4.25 3.884 6.115 6.191z" fill="#5eabd6"/><path d="m765.436 295.679c2.471 2.094 5.885 3.312 6.736 6.413.477 1.739-2.627 4.554-3.467 4.05-2.598-1.558-5.022-3.942-5.844-7.07-.374-1.422 1.132-2.564 2.575-3.393z" fill="#e76977"/><path d="m509.824 330c-2.842-.179-5.838 1.16-7.039-1.573-.576-1.313.676-4.318 2.954-4.415 3.953-.168 2.647 3.612 4.085 5.988z" fill="#5eabd6"/><path d="m753.705 206.691c10.089.569 18.652-4.021 27.467-7.889 1.446-.634 3.273-3.854 5.146-.398 1.652 3.048.936 5.087-2.422 6.63-9.151 4.205-18.49 7.432-28.736 6.976-1.639-.073-3.26-.506-4.894-.734-2.132-.298-2.737-1.739-2.509-3.577.307-2.473 2.113-1.404 3.473-1.293.828.068 1.65.189 2.475.285z" fill="#5eabd6"/><path d="m753.563 196.09c9.169.527 17.158-3.083 25.094-7.006 1.213-.599 2.644-3.189 4-.883 1.014 1.724 1.143 4.223-.768 5.965-.597.545-1.381.891-2.098 1.296-8.57 4.844-17.789 7.112-27.619 6.842-1.117-.031-2.334-.273-3.309-.788-1.943-1.025-2.056-2.95-1.58-4.79.527-2.041 2.129-.814 3.297-.805.994.008 1.988.108 2.983.169z" fill="#e76977"/><path d="m479.478 396.617c-1.585-4.664.77-6.572 4.509-7.248 9.663-1.748 19.111-.933 28.357 2.517 2.186.815 1.563 2.019 1.269 3.504-.376 1.895-1.281 2.321-3.129 1.822-6.744-1.824-13.596-2.913-20.606-2.116-3.443.391-6.862.997-10.4 1.521z" fill="#5eabd6"/><path d="m755.488 193.006c-1.191-.141-1.586-.077-1.842-.235-2.156-1.33-6.851.616-6.431-3.634.334-3.377 4.075-1.276 6.222-1.662 8.289-1.487 17.064-1.42 23.406-8.361 1.835-2.01 2.708-1.101 3.107 1.141.319 1.795.036 3.361-1.551 4.407-7.219 4.761-15.294 7.087-22.911 8.344z" fill="#5eabd6"/><path d="m481.596 377.615c-.494-6.499 3.035-5.688 6.938-5.995 9.948-.783 18.535 3.058 27.281 6.655 1.5.617 2.682 1.519 1.819 3.4-.811 1.768-2.111.587-2.933.19-10.424-5.034-21.174-7.699-33.105-4.25z" fill="#5eabd6"/><path d="m493.452 384.241c-3.282.417-6.563.845-9.848 1.244-1.166.141-2.671 1.638-3.415-.177-.786-1.915.737-3.257 2.306-3.833 3.912-1.436 8.002-2.164 12.194-1.821 6.883.562 13.218 2.981 19.376 5.933.813.39 2.14.546 1.668 1.979-.538 1.636-1.688 1.133-2.834.707-6.262-2.324-12.687-3.828-19.447-4.032z" fill="#e76977"/><path d="m591.02 352.899c-6.348 2.567-8.867-1.268-11.385-5.567-1.652 2.128 2.237 6.958-3.457 6.351-1.98-.212-2.944-.852-3.181-2.94-.449-3.95-1.262-7.858-1.715-11.809-.179-1.562-1.318-3.806 1.825-4.117 2.484-.246 4.252.251 4.498 3.137.069.809.321 1.601.613 2.995 1.925-3.348 2.296-7.874 7.477-6.568 1.299.327 2.635.584 1.484 2.055-5.348 6.843-.374 11.472 3.841 16.463z" fill="#e76977"/><path d="m567.151 353.869c-5.937-.061-10.689-4.533-11.15-9.979-.434-5.129 2.049-8.804 6.688-9.446 2.654-.368 5.516-.469 6.12 3.239.308 1.892.613 3.771-2.522 3.128-2.138-.438-3.61.524-3.511 2.938.1 2.419 1.706 3.987 3.861 3.559 3.458-.687 3.957 1.142 4.134 3.688.229 3.293-2.476 2.355-3.62 2.873z" fill="#e76977"/><path d="m602.482 341.446c-2.315-.263-4.316-1.682-5.998.205-.979 1.098-.891 2.57-.178 3.743 1.135 1.865 2.809 2.782 5.061 1.917 2.027-.778 2.291.637 2.381 2.021.1 1.547.863 3.279-1.398 4.21-3.85 1.586-10.088-1.533-12.241-6.275-2.241-4.936-.823-9.986 3.39-12.072 5.124-2.537 7.942-.695 8.983 6.251z" fill="#e76977"/><path d="m576.484 316.834c10.483.001 20.967.078 31.448-.052 2.808-.034 3.847.537 4.25 3.712 1.916 15.098 4.216 30.148 6.515 45.194.398 2.606-.514 3.3-2.851 3.135-21.421-1.511-42.874-.525-64.311-.751-2.273-.024-3.23-1.028-3.527-3.234-1.981-14.753-3.795-29.536-6.229-44.215-.697-4.207 1.105-3.818 3.756-3.808 10.317.047 20.633.019 30.949.019zm1.225 4.924c-8.658 0-17.328.268-25.97-.107-4.615-.2-5.269 1.593-4.637 5.505 1.72 10.657 3.409 21.326 4.715 32.039.417 3.427 1.589 4.364 4.93 4.486 17.615.646 35.242-2.19 52.839.219 2.92.399 3.863-.788 3.453-3.661-1.686-11.839-3.369-23.681-4.816-35.551-.352-2.889-1.883-2.96-4.04-2.948-8.825.048-17.65.02-26.474.018z" fill="#5eabd6"/></g></svg>