<?xml version="1.0" encoding="utf-8"?>
<!-- Generator: Adobe Illustrator 16.0.0, SVG Export Plug-In . SVG Version: 6.00 Build 0)  -->
<!DOCTYPE svg PUBLIC "-//W3C//DTD SVG 1.1//EN" "http://www.w3.org/Graphics/SVG/1.1/DTD/svg11.dtd">
<svg version="1.1" id="Layer_1" xmlns="http://www.w3.org/2000/svg" xmlns:xlink="http://www.w3.org/1999/xlink" x="0px" y="0px"
	 width="1280px" height="800px" viewBox="0 0 1280 800" enable-background="new 0 0 1280 800" xml:space="preserve">
<g>
	<path fill-rule="evenodd" clip-rule="evenodd" fill="#0F0F10" d="M712.334,499.775c0.531,11.42,0.635,22.221-0.975,33.058
		c-1.081,7.278-7.348,8.668-11.717,12.262c-9.584,7.884-21.541,9.198-33.063,11.548c-3.559,0.726-6.427,1.458-6.439,5.8
		c-0.006,2.408-1.701,3.336-3.604,4.249c-6.442,3.091-13.143,5.512-19.936,7.651c-2.975,0.937-4.117,2.35-4.078,5.662
		c0.126,10.538-0.288,21.169-7.211,29.928c-6.756,8.547-14.988,15.102-26.354,16.447c-3.163,0.374-5.877,1.432-8.585,3.414
		c-7.811,5.718-19.163,2.315-25.055-6.433c-9.091-13.497-11.938-28.721-12.79-44.433c-0.747-13.775-0.489-27.498,5.212-40.59
		c2.77-6.36,6.943-10.445,13.718-11.722c15.812-2.979,30.873-9.17,46.942-10.992c5.222-0.593,10.271-2.172,15.779-1.05
		c5.909,1.205,8.353-2.668,6.813-8.554c-1.754-6.711-5.279-11.067-11.707-14.26c-8.15-4.048-12.188-12.156-14.963-20.477
		c-1.721-5.156-3.168-10.676-2.138-16.185c0.566-3.028-0.885-2.863-2.795-3.064c-8.939-0.938-17.746-2.421-26.376-5.123
		c-15.458-4.839-26.083-15.231-34.63-28.486c-8.77-13.601-16.605-27.645-22.47-42.751c-0.163-0.42-0.583-0.739-1.469-1.822
		c-3.409,8.724-6.8,16.953-7.376,25.792c-0.29,4.44,4.217,7.281,6.818,10.649c5.997,7.768,9.036,16.197,6.362,26.05
		c-0.216,0.798-0.313,2.053-0.826,2.279c-5.161,2.284-3.336,6.751-3.258,10.502c0.213,10.229-4.746,16.987-13.674,21.252
		c-2.455,1.172-5.229,2.157-7.722,1.138c-8.32-3.401-16.507-6.918-20.336-16.269c-4.593-11.218-6.987-22.941-8.24-34.836
		c-1.625-15.421-3.044-30.946,1.73-46.197c0.995-3.179,0.438-7.241,5.668-7.167c1.853,0.026,1.204-2.03,1.585-3.19
		c5.227-15.888,9.383-32.22,18.89-46.352c1.44-2.141,0.652-4.092,0.249-6.203c-2.726-14.284-2.055-28.072,5.489-41.052
		c2.844-4.894,6.831-8.103,11.923-10.087c5.903-2.3,11.931-4.341,18.26-4.967c3.482-0.345,3.772-1.177,2.016-4.123
		c-8.204-13.761-13.053-28.518-13.059-44.739c-0.011-32.185,13.898-57.075,40.272-74.707
		c49.734-33.248,118.956-12.347,140.141,42.491c10.738,27.795,6.553,54.292-8.096,79.636c-1.108,1.918-4.387,4.004-1.564,6.261
		c2.865,2.291,5.943,5.612,10.574,2.528c9.324-6.207,17.924-13.146,25.262-21.696c5.135-5.982,9.933-12.083,12.764-19.516
		c0.976-2.562,2.104-5.099-2.341-5.708c-2.31-0.316-2.141-2.525-2.114-4.429c0.09-6.66-0.055-13.327,0.181-19.981
		c0.118-3.354-1.362-4.783-4.21-6.372c-13.848-7.729-19.349-17.778-15.579-31.501c1.579-5.749,1.155-10.135-0.929-15.348
		c-1.801-4.501-3.146-9.329-1.414-14.549c4.389-13.221,18.43-18.377,30.912-11.938c16.296,8.408,22.604,22.922,26.322,39.508
		c1.643,7.323,1.07,14.814,2.338,22.168c1.541,8.934,5.697,16.968,8.232,25.566c3.625,12.297,6.508,24.67,7.404,37.404
		c0.702,9.962,0.442,19.991-1.458,29.873c-3.067,15.952-10.977,29.512-21.481,41.543c-5.9,6.761-12.516,12.971-20.688,17.085
		c-2.532,1.275-2.486,2.938-1.968,5.31c3.188,14.592,7.31,29.025,8.792,43.929c1.674,16.838,5.666,33.408,4.975,50.556
		c-0.251,6.247,4.311,11.665,7.057,17.299c10.896,22.354,23.533,43.848,33.023,66.901c5.321,12.925,2.932,22.104-7.017,31.835
		c-10.475,10.245-21.311,20.021-32.74,29.16c-1.462,1.168-2.357,2.642-1.922,4.312c2.985,11.447-3.46,18.949-10.726,26.138
		c-0.945,0.935-1.967,1.797-2.985,2.653c-7.447,6.258-12.903,11.959-9.231,23.911c5.835,18.993-2.803,34.671-16.881,47.474
		c-1.721,1.564-2.586,3.356-3.428,5.328c-3.147,7.365-9.946,11.312-17.895,11.592c-11.121,0.393-19.579-4.797-26.771-12.238
		c-15.301-15.83-25.369-34.7-30.512-56.08c-1.554-6.458-2.631-13.285-0.91-19.804c1.936-7.335,6.418-13.428,12.248-18.309
		c15.186-12.71,30.329-25.429,46.914-36.402c10.776-7.129,20.919-15.322,28.484-26.129c0.453-0.648,1.291-1.832,1.156-1.967
		c-2.986-2.969-1.24-8.528-6.674-10.507C721.254,507.717,716.947,503.735,712.334,499.775z M672.774,232.06
		c-1.075-2.708-2.15-5.416-3.226-8.124c-3.35-8.964-5.359-18.327-5.184-27.792c0.328-17.694,2.105-35.221,12.25-50.643
		c1.543-2.346,2.4-4.708-0.965-6.674c-4.3-2.512-8.498-5.228-12.563-8.104c-7.035-4.979-14.039-4.202-20.901,0.019
		c-10.281,6.322-19.34,13.984-26.675,23.755c-7.805,10.397-13.158,21.747-15.638,34.481c-2.433,5.376-2.779,11.248-3.513,16.93
		c-1.901,14.714-2.571,29.417,4.244,43.35c1.406,2.874,3.298,4.424,6.618,5.035c13.862,2.553,27.914,4.757,39.312,14.181
		c3.705,3.063,7.564,5.979,10.973,9.346c3.195,3.156,4.628,2.491,6.043-1.464c3.795-10.608,12.438-15.406,22.602-18.161
		c2.402-0.651,5.092,0.598,8.428-0.997c-8.869-3.672-13.537-10.579-18.464-17.223C675.002,237.336,673.889,234.697,672.774,232.06z
		 M518.227,438.868c-2.002-2.082-4.004-4.163-6.006-6.245c0.386-3.216-1.3-3.584-4.103-3.612
		c-8.623-0.086-15.27-4.772-16.147-11.066c-0.423-3.034-0.059-5.345,3.778-2.808c0.822,8.406,10.578,13.095,18.228,8.76
		c0.496,0.049,1,0.057,1.487,0.153c1.376,0.275,2.708-2.457,3.872-0.425c1.167,2.037-0.907,2.65-2.293,3.573
		c-2.191,1.459-0.618,3.357-0.059,4.889c1.064,2.912,3.665,4.281,6.478,4.846c1.87,0.376,2.323-1.52,2.825-2.904
		c1.961-5.415,0.619-10.395-1.959-15.261c-5.175-9.768-12.403-17.442-23.235-20.462c-5.22-1.455-10.854-0.356-16.326,0.365
		c-3.855,0.509-5.56,2.26-5.783,5.938c-1.108,18.285,2.927,35.611,10.186,52.217c1.109,2.539,2.529,6.401,6.981,5.44
		c2.574-1.412,2.683-3.882,2.79-6.386c0.057-1.325-0.641-3.296,2.012-2.793c0.213,3.248-0.433,6.585,0.751,9.73
		c1.313,3.491,3.334,5.697,7.352,3.298c2.063-0.383,2.907-1.395,2.73-3.696c-0.235-3.052,0.231-6.119-0.237-9.221
		c-0.351-2.328,0.875-1.958,2.054-0.638c0.451,2.102,0.897,4.203,1.354,6.302c0.269,1.239,0.075,2.944,1.858,3.037
		c1.427,0.074,2.453-1.145,3.084-2.263c2.719-4.817,2.761-10.031,2.373-15.409C522.059,441.279,520.943,439.627,518.227,438.868z
		 M789.094,268.021c1.585-1.557,1.191-3.755,1.449-5.581c0.952-6.734,2.882-13.418,1.753-20.337
		c0.524-9.556-1.469-18.871-2.721-28.255c-0.573-4.3-2.284-6.101-6.899-3.756c-7.027,3.569-14.695,5.258-22.52,5.911
		c-4.621,0.386-8.69,0.793-8.984,6.869c-0.082,1.701-1.342,3.368-2.15,5.008c-5.853,11.879-14.775,21.244-24.671,29.751
		c-5.956,5.12-12.329,9.703-20.094,11.725c-2.269,0.59-5.649,2.363-5.2-2.736c0.096-1.079-1.081-0.996-1.713-1.437
		c-4.712-3.284-9.709-2.796-14.752-1.145c-6.256,2.049-11.094,5.863-14.086,11.829c-2.657,5.301-3.056,11.902-0.893,16.249
		c7.449,14.979,11.904,30.769,15.675,46.864c0.831,3.549,1.297,7.203,1.677,10.836c1.076,10.288,0.248,20.601,0.34,30.897
		c0.104,11.664,0.209,23.239-2.361,34.674c-3.697,16.453-13.174,28.065-29.235,33.651c-10.672,3.711-21.878,4.061-33.065,3.719
		c-3.229-0.099-4.448,1.059-4.449,4.262c-0.002,10.895,2.74,20.721,10.592,28.69c3.722,6.275,10.176,6.296,17.923,6.706
		c-3.188,1.443-3.812,2.498-2.904,4.552c1.047,2.375,1.348,5.069,2.094,7.59c1.895,6.41,1.922,6.402,8.148,3.636
		c3.328-0.436,6.656-0.871,9.985-1.307c0.261,4.45-4.62,3.138-6.829,5.946c5.084,0.078,9.451,0.981,13.739,2.276
		c1.52,1.56,4.438,1.68,4.875,4.455c-1.585,0.897-2.576-0.465-3.8-0.576c-9.592-4.899-19.633-2.828-29.529-3.019
		c-0.101,0.511-0.201,1.021-0.301,1.532c1.889,0.906,3.777,1.812,5.666,2.718c6.828,7.583,12.232,15.973,14.74,26.004
		c0.464,4.589,2.23,6.893,7.339,4.925c2.528-0.974,5.401-1.051,8.119-1.533c5.005-0.635,9.464-1.428,7.271-8.546
		c-1.036-3.362,2.438-3.365,4.534-3.873c5.002-1.211,9.458-3.271,9.906-9.003c0.42-5.356,2.873-7.769,8.075-7.669
		c2.081,0.04,3.528-0.415,3.437-2.996c-0.211-5.974,0.426-11.994-1.03-17.893c-0.431-1.743-0.841-3.37-2.188-4.874
		c-6.296-7.028-13.131-12.338-23.387-9.197c-0.43,0.132-0.979-0.129-1.473-0.206c-0.71-1.321-0.239-2.32,0.86-3.146
		c1.793-0.169,3.601-0.244,5.376-0.523c4.688-0.738,9.172-2.699,14.046-2.324c-1.552,2.845-1.234,4.894,1.573,7.155
		c4.75,3.825,8.805,8.504,13.5,12.406c9.098,7.561,18.298,15.356,31.324,8.207c0.273-0.15,0.646-0.119,0.973-0.172
		c-0.719,0.843-1.438,1.686-2.156,2.528c-0.59,0.404-1.18,0.809-1.77,1.213c-2.344,0.715-4.686,1.434-7.031,2.141
		c-1.607,0.484-4.316,0.034-4.021,2.506c0.282,2.362,2.905,1.365,4.54,1.616c2.006,0.308,5.015-1.051,4.463,3.005
		c-8.783,1.115-11.155,9.374-16.996,14.729c3.049,1.023,5.484,1.842,7.92,2.659c6.684,2.908,12.104,7.52,17.108,12.691
		c3.119,4.232,7.13,7.823,9.104,12.887c0.506,1.296,0.84,3.493,2.521,3.187c1.869-0.34,3.531-1.789,3.445-4.202
		c8.16-3.956,14.558-10.217,21.192-16.175c2.178-1.955,0.253-3.123-0.961-3.8c-5.407-3.015-3.689-6.071-0.581-9.65
		c5.311-6.114,6.307-12.972,2.719-20.359c-3.09-6.361-3.238-6.688,3.295-9.711c4.609-2.132,5.214-4.185,2.772-8.659
		c-9.682-17.742-18.983-35.691-28.427-53.564c-0.169-1.742-1.189-3.027-2.482-4.576c-1.626,2.471-3.387,5.765-5.551,0.583
		c1.383-8.165,3.801-16.213,2.77-24.652c-1.269-10.38-2.419-20.775-3.803-31.14c-1.998-14.969-4.517-29.848-8.869-44.346
		c-0.701-2.339-1.09-5.897-3.377-6.257c-2.548-0.399-4.773,2.146-6.562,4.423c-2.148,2.734-4.575,5.299-8.022,6.514
		c-3.797-2.55-0.588-2.957,1.131-4.063c1.178-0.76,2.79-1.761,2.057-3.523c-0.687-1.65-2.314-0.979-3.501-0.593
		c-3.837,1.25-7.878,0.837-11.768,1.59c-2.009-0.997-4.181-0.761-6.315-0.851c-5.08-0.214-10.303,0.454-15.128-1.613
		c-2.8-1.199-6.698-1.666-6.136-6.285c5.314,4.099,11.736,4.403,17.932,4.579c15.136,0.429,29.51-2.811,43.201-9.533
		c6.307-3.097,7.016-4.651,1.986-9.816c-0.666-0.683-1.613-1.091-2.432-1.626c-1.197-2.53-0.875-4.823,1.346-6.58
		c8.559-6.769,13.85-15.836,17.356-25.863c1.817-5.195,4.438-6.353,9.131-4.342c0.43,0.765,1.128,1.061,1.96,1.12
		c1.85,1.357,3.699,2.715,5.714,4.194C787.942,274.137,788.978,271.206,789.094,268.021z M543.828,187.959
		c4.312-14.785,9.407-29.266,18.142-43.17c-1.837,0.285-2.222,0.241-2.466,0.404c-0.546,0.365-1.087,0.777-1.52,1.268
		c-12.156,13.78-22.352,28.52-23.878,47.658c-1.046,13.118-1.769,26.178,3.082,38.813c1.656,6.687,6.12,11.844,9.353,18.151
		c1.31-2.983-0.015-5.13-0.721-7.196c-3.81-11.146-4.689-22.611-4.515-34.291C541.412,202.269,543.272,195.202,543.828,187.959z
		 M509.978,371.14c2.363,1.113,4.734,2.211,7.085,3.35c0.748,0.362,1.774,0.989,2.133,0.029c1.121-3.002,3.459-5.896,2.404-9.263
		c-1.521-4.855-3.543-9.555-5.352-14.321c-0.748-2.167-0.037-5.835-3.041-5.929c-4.711-0.147-9.13-1.605-13.736-1.974
		c-1.31-0.104-2.929-0.886-3.685,1.328c-2.3,6.742-5.15,13.301-6.601,20.318c-0.254,1.231-0.399,2.381,1.426,2.356
		C497.376,366.943,503.597,369.423,509.978,371.14z M677.432,152.931c-4.145,7.801-7.303,15.904-8.125,25.885
		c2.703-2.936,4.613-5.143,6.664-7.212c5.628-5.679,11.99-5.658,17.463-0.026c5.341,5.496,9.154,11.899,10.457,19.472
		c1.653,9.607,3.381,19.234,2.175,29.099c-0.23,1.881-0.833,4.136,0.774,6.141c4.89-7.691,5.885-32.249,1.469-41.354
		c-2.48-13.777-9.725-24.893-19.546-34.475C682.887,144.728,681.161,145.201,677.432,152.931z M735.084,160.025
		c-3.082-0.32-2.663-3.794-4.62-5.127c-0.565-1.069-0.144-2.968-2.092-2.893c-2.253,0.087-1.356,1.996-1.319,3.045
		c0.084,2.434-0.127,4.818,0.568,7.323c4.46,16.066,18.473,24.942,36.242,19.621c6.984-2.092,12.589-8.13,12.906-15.506
		c0.755-17.577-4.675-33.115-17.146-45.726c-3.402-3.439-7.716-6.155-13.439-6.023c0.527,1.458,0.932,2.36,1.179,3.304
		c0.421,1.603,2.175,3.885-0.217,4.621c-2.093,0.646-1.862-2.223-2.452-3.596c-2.365-5.499-5.303-6.792-11.12-4.771
		c-1.91,0.664-2.665,1.834-0.943,3.228c2.712,2.194,3.855,5.337,5.526,8.166c0.496,0.842,0.984,1.899-0.326,2.526
		c-0.98,0.469-1.506-0.342-1.969-0.996c-0.574-0.813-1.057-1.69-1.582-2.539c-1.539-2.486-2.881-7-5.58-6.078
		c-2.581,0.882-3.174,5.424-3.113,8.84c0.014,0.829,0.096,1.664,0.221,2.484c0.934,6.129,2.87,11.924,5.803,17.391
		C733.736,151.284,735.482,155.364,735.084,160.025z M661.664,423.758c0.158,6.756-1.292,13.167-5.178,19.404
		c5.277-0.379,6.338-4.921,9.428-6.458c6.774-3.369,9.086-9.563,10.211-16.06c2.894-16.696,3.657-33.583,3.068-50.522
		c1.443-9.166-0.24-18.216-1.28-27.245c-2.057-17.837-7.637-34.793-16.343-50.321c-9.795-17.472-26.422-26.554-45.458-30.332
		c-28.274-5.611-56.817-5.749-85.133-0.006c-6.98,1.415-14.062,4.123-18.249,10.913c-2.533,3.219-3.59,7.035-4.436,10.938
		c-2.12,9.627-1.499,19.077,1.214,28.557c3.654,12.767,7.301,25.521,11.384,38.168c7.706,23.871,18.495,46.22,31.981,67.288
		c5.874,9.175,12.646,17.596,23.157,21.964c18.761,7.797,38.3,10.75,58.495,8.9c4.513-0.413,9.397-0.088,13.323-3.249
		c5.684-4.577,9.113-10.458,10.227-17.679c1.326-1.193,1.835-2.771,2.1-4.463C660.67,423.622,661.167,423.69,661.664,423.758z
		 M655.049,559.015c1.164-14.867-4.759-26.886-15.17-36.94c-4.385-4.235-9.424-5.051-15.538-3.035
		c-6.366,2.1-13.133,3.165-19.805,4.107c-8.547,1.207-16.941,2.886-26.252,5.5c14.143,6.514,19.042,18.439,22.786,31.217
		c1.146,3.909,0.079,8.228,1.303,11.771c2.426,7.023,1.784,14.041,1.699,21.077c-0.109,9.037-3.549,17.505-5.127,26.302
		c-0.802,1.14-1.698,2.252-1.38,3.817c13.507-0.992,29.575-14.819,30.768-28.705c0.602-6.998,0.811-13.913,0.276-20.875
		c-0.09-1.171-0.61-2.276,0.636-3.105c0.65-0.433,1.529-0.344,1.785,0.198c1.486,3.146,3.592,1.353,5.409,0.675
		c4.982-1.857,9.851-4.028,14.875-5.756C654.541,564.152,655.893,562.351,655.049,559.015z M689.084,599.805
		c10.408,10.316,17.709,22.613,23.045,36.162c4.713,11.155,5.9,23.367,10.16,35.108c8.165-6.939,13.289-15.139,15.586-25.106
		c0.968-1.829,1.035-3.815,1.046-5.821c0.051-9.46-2.358-18.391-5.93-27.043c-0.882-2.136-0.741-5.168,1.374-4.24
		c3.766,1.651,4.711-0.999,6.334-2.544c3.846-3.663,7.178-7.902,11.211-11.326c10.878-9.234,9.803-19.399,4.199-30.334
		c-5.51-10.748-15.495-17.089-24.764-24c-2.947-2.198-7.423-3.275-10.372-0.96c-5.873,4.612-13.067,7.32-18.191,12.919
		c-14.797,12.212-30.987,22.763-44.426,36.782C670.636,587.645,680.139,592.892,689.084,599.805z M595.896,252.311
		c-13.696-52.843-0.603-96.607,47.174-127.551c-4.83-2.808-10.178-2.674-15.299-3.595c-16.134-2.899-31.059,1.308-45.23,8.256
		c-9.774,4.792-15.444,13.939-20.378,23.285c-11.442,21.672-15.452,45.043-15.538,69.295c-0.031,8.884,0.524,17.603,4.606,25.738
		c1.346,2.683,2.922,4.514,6.361,4.605C570.188,252.68,582.759,251.364,595.896,252.311z M696.963,672.964
		c-3.039,1.732-6.105,3.416-9.106,5.212c-2.427,1.452-3.178,3.057-0.601,5.302c2.482,2.161,5.226,3.54,8.449,3.892
		c12.156,1.324,16.617-1.998,14.398-14.036c-0.793-4.303-2.761-4.847-6.234-3.195c-1.838,0.874-3.676,1.901-5.939,0.139
		c1.004-0.72,1.756-1.334,2.576-1.838c8.582-5.274,8.584-5.27,4.982-14.454c-0.121-0.309-0.258-0.614-0.355-0.931
		c-0.84-2.733-2.17-3.169-4.756-1.632c-7.406,4.401-14.998,8.488-22.457,12.802c-6.326,3.658-6.221,3.67-1.719,9.5
		c2.834,3.668,5.632,4.854,10.089,2.131C689.312,674.009,692.432,671.397,696.963,672.964z M647.563,606.682
		c4.461-6.99,10.668-9.435,18.213-7.373c10.904,2.979,19.9,8.788,26.52,18.287c7.321,10.506,12.045,22.082,15.807,34.199
		c2.721,8.764,5.416,17.47,5.248,26.799c-0.035,1.954-1.323,4.069,0.061,6.059c5.443-1.783,6.061-6.129,5.315-10.247
		c-4.753-26.296-12.023-51.644-31.46-71.396c-8.215-8.349-17.832-13.82-30.356-9.594
		C651.313,595.305,646.947,600.655,647.563,606.682z M652.658,632.216c0.328,3.92,2.738,7.048,4.023,10.594
		c1.244,3.431,2.703,3.792,5.764,2.003c6.865-4.012,13.957-7.618,20.654-11.944c12.725-8.221,11.281-4.208,2.541-16.52
		c-0.189-0.269-0.469-0.472-0.672-0.732c-1.607-2.061-3.32-2.157-5.615-0.853c-8.064,4.586-16.225,9.005-24.367,13.452
		C653.363,629.102,652.44,630.289,652.658,632.216z M670.504,662.884c0.836-0.395,2.05-0.903,3.203-1.524
		c6.299-3.393,12.549-6.877,18.879-10.208c11.363-5.979,11.188-5.831,4.766-17.079c-1.821-3.189-3.182-2.713-5.688-1.438
		c-8.016,4.077-15.738,8.613-23.229,13.601c-7.658,5.1-7.798,4.986-2.619,12.869C666.843,660.666,667.576,662.808,670.504,662.884z
		 M574.182,589.096c0-0.181,0-0.362,0-0.543c5.156,0,10.313,0.007,15.469-0.004c2.696-0.005,3.898-1.235,3.561-4.046
		c-0.335-2.8-0.386-5.633-0.619-8.446c-0.22-2.651-1.214-3.996-4.373-3.783c-7.299,0.489-14.631,0.495-21.948,0.724
		c-10.815,0.338-10.754,0.34-9.345,11.094c0.465,3.545,1.862,5.373,5.772,5.069C566.505,588.865,570.353,589.096,574.182,589.096z
		 M574.115,552.946c-1.831,0-3.665-0.057-5.493,0.01c-12.921,0.466-12.804,0.472-12.646,13.448c0.036,2.99,1.035,3.497,3.703,3.516
		c9.499,0.066,18.941-1.515,28.461-0.825c3.051,0.221,3.549-1.652,2.889-4.288c-2.879-11.502-2.853-11.51-14.915-11.846
		C575.448,552.942,574.781,552.959,574.115,552.946z M578.479,592.729c0,0.117,0,0.234,0,0.352c-3.658,0-7.328-0.191-10.972,0.037
		c-9.865,0.62-9.974,0.995-7.088,10.725c1.062,3.58,2.952,5.21,6.741,5.13c6.646-0.142,13.298,0.013,19.948,0.026
		c1.322,0.003,2.812,0.192,3.697-1.026c2.988-4.108,2.628-9.038,1.966-13.467c-0.506-3.392-4.475-1.234-6.832-1.676
		C583.532,592.379,580.973,592.729,578.479,592.729z M569.058,532.947c8.243,1.646,14.09,6.714,17.953,13.429
		c10.978,19.082,12.044,39.63,7.438,60.705c-1.494,6.836-3.765,13.466-7.32,19.648c6.78-2.733,8.141-9.026,9.672-14.707
		c3.199-11.861,4.683-24.085,2.955-36.312c-1.642-11.621-2.577-23.552-10.642-33.311c-3.893-4.71-7.837-8.874-13.736-11.083
		C572.729,530.326,571.02,530.634,569.058,532.947z M661.813,602.864c-5.258-0.224-9.266,1.804-11.359,5.751
		c-2.669,5.033-1.953,10.682-0.504,16.089c0.33,1.232,1.496,1.271,2.455,0.729c7.67-4.344,15.358-8.658,22.941-13.149
		c2.238-1.326,2.188-2.98-0.135-4.582C671,604.796,666.512,602.853,661.813,602.864z M576.864,612.998c0-0.062,0-0.123,0-0.185
		c-3.16,0-6.32-0.032-9.479,0.017c-1.308,0.02-2.956-0.063-2.165,2.106c1.866,5.111,4.334,9.934,9.754,11.945
		c2.966,1.101,6.326,1.072,8.537-2.021c1.942-2.718,3.361-5.729,4.437-8.897c0.673-1.985,0.45-3.139-2.103-3.002
		C582.86,613.121,579.858,612.998,576.864,612.998z M753.705,206.691c-0.825-0.097-1.647-0.218-2.475-0.286
		c-1.359-0.111-3.166-1.18-3.473,1.293c-0.229,1.838,0.377,3.279,2.509,3.577c1.634,0.229,3.255,0.661,4.894,0.734
		c10.246,0.456,19.585-2.771,28.736-6.976c3.357-1.543,4.074-3.582,2.422-6.63c-1.873-3.456-3.7-0.235-5.146,0.398
		C772.357,202.67,763.794,207.261,753.705,206.691z M583.778,549.055c-2.208-4.771-2.633-5.197-8.658-8.985
		c-8.759-5.507-15.33-2.49-17.098,7.757c-0.385,2.231,0.322,3.333,2.507,2.948C568.145,549.436,575.817,548.782,583.778,549.055z
		 M753.563,196.09c-0.994-0.061-1.988-0.161-2.982-0.169c-1.168-0.01-2.77-1.236-3.297,0.805c-0.476,1.84-0.363,3.765,1.58,4.79
		c0.975,0.515,2.191,0.757,3.309,0.788c9.83,0.271,19.049-1.998,27.619-6.842c0.717-0.405,1.501-0.751,2.098-1.296
		c1.91-1.742,1.781-4.241,0.768-5.965c-1.356-2.307-2.787,0.284-4,0.883C770.721,193.007,762.731,196.617,753.563,196.09z
		 M479.478,396.617c3.538-0.524,6.957-1.13,10.4-1.521c7.01-0.797,13.862,0.292,20.606,2.116c1.848,0.499,2.752,0.072,3.129-1.822
		c0.295-1.485,0.917-2.688-1.269-3.504c-9.246-3.449-18.694-4.265-28.357-2.517C480.248,390.045,477.893,391.953,479.478,396.617z
		 M755.488,193.006c7.617-1.257,15.691-3.583,22.912-8.345c1.587-1.046,1.87-2.612,1.551-4.407c-0.399-2.241-1.272-3.15-3.107-1.141
		c-6.342,6.941-15.117,6.874-23.406,8.361c-2.146,0.386-5.888-1.715-6.222,1.662c-0.42,4.25,4.274,2.304,6.431,3.634
		C753.902,192.929,754.297,192.865,755.488,193.006z M481.596,377.615c11.932-3.449,22.681-0.784,33.105,4.251
		c0.822,0.396,2.122,1.577,2.933-0.19c0.863-1.882-0.319-2.783-1.819-3.4c-8.746-3.598-17.333-7.438-27.281-6.655
		C484.631,371.928,481.102,371.116,481.596,377.615z M493.452,384.241c6.76,0.204,13.186,1.708,19.447,4.032
		c1.146,0.426,2.297,0.929,2.834-0.707c0.471-1.434-0.855-1.59-1.668-1.979c-6.158-2.951-12.493-5.371-19.376-5.933
		c-4.192-0.343-8.282,0.386-12.194,1.821c-1.569,0.576-3.092,1.918-2.306,3.833c0.744,1.814,2.25,0.317,3.415,0.177
		C486.888,385.086,490.169,384.658,493.452,384.241z M775.677,275.857c-0.526,0.042-3.698,6.522-3.685,7.53
		c0.018,1.422,6.355,6.256,8.102,5.562c3.084-1.226,3.48-4.779,4.791-7.439C785.406,280.45,777.574,275.705,775.677,275.857z
		 M503.042,333.645c-3.951-1.361-3.937,1.529-4.578,3.383c-1.018,2.94,1.739,2.229,2.979,2.6c2.212,0.661,4.537,1.024,6.841,1.281
		c1.723,0.192,4.165,0.758,4.163-2.003c-0.001-2.121,0.049-4.916-3.488-4.919C506.805,333.984,504.652,333.744,503.042,333.645z
		 M802.959,517.964c-0.182-2.205,0.201-5.687-2.569-5.408c-2.535,0.255-6.483,0.994-6.47,5.403c0.008,2.355,0.131,4.439,3.358,4.015
		C799.865,521.634,803.411,522.644,802.959,517.964z M779.099,293.633c-1.63-2.351-4.361-2.923-6.475-4.308
		c-1.06-0.694-2.403-2.213-3.769-0.105c-1.066,1.646-0.971,3.183,0.27,4.553c0.997,1.102,2.188,2.041,3.367,2.959
		c0.959,0.746,1.814,2.595,3.193,1.484C777.053,297.117,777.875,295.34,779.099,293.633z M766.057,309.457
		c-1.864-2.307-3.261-5.319-6.115-6.191c-1.567-0.479-3.699,1.977-3.518,3.418c0.34,2.698,1.773,5.575,4.885,6.086
		C763.36,313.106,764.764,311.198,766.057,309.457z M765.436,295.679c-1.442,0.829-2.948,1.972-2.574,3.393
		c0.821,3.128,3.246,5.513,5.844,7.07c0.84,0.504,3.943-2.311,3.467-4.05C771.32,298.99,767.906,297.772,765.436,295.679z
		 M797.84,525.417c-1.664,0.681-4.793-0.909-4.811,2.622c-0.016,3.232,3.188,4.133,5.318,4.25c2.827,0.155,3.324-3.162,3.469-5.188
		C802.007,524.41,799.328,526.07,797.84,525.417z M800.207,507.632c-1.469-1.225-0.453-4.521-2.883-4.005
		c-2.365,0.501-5.412,1.502-6.108,4.247c-0.257,1.015,0.397,4.417,2.597,3.944C796.111,511.323,798.784,510.269,800.207,507.632z
		 M790.641,532.539c-0.963,1.896-3.426,2.737-3.16,4.836c0.19,1.501,1.976,2.931,3.756,2.719c2.266-0.269,4.407-2.061,4.373-4.044
		C795.575,534.048,792.475,534.186,790.641,532.539z M509.824,330c-1.438-2.376-0.132-6.156-4.085-5.988
		c-2.278,0.097-3.53,3.103-2.954,4.415C503.986,331.16,506.982,329.821,509.824,330z M699.916,540.882
		c-0.854-1.247-1.423-2.988-3.031-2.936c-1.687,0.056-3.473,1.304-3.453,2.951c0.012,0.972,0.547,3.559,1.925,3.331
		C697.066,543.945,699.064,542.956,699.916,540.882z M703.59,532.986c-1.161,0.25-3.061-0.629-2.896,1.553
		c0.142,1.873,1.325,3.645,3.275,3.589c1.759-0.051,2.743-1.946,2.836-3.565C706.955,531.967,704.639,533.59,703.59,532.986z
		 M691.566,544.064c-0.551-1.228,0.271-3.594-2.404-3.377c-1.861,0.15-2.301,1.435-2.254,3.184c0.047,1.789,0.65,2.82,2.52,2.886
		C691.246,546.821,691.645,545.707,691.566,544.064z M705.193,524.924c-1.439,0.019-3.07-0.366-3.296,1.87
		c-0.287,2.845,2.063,2.504,3.624,2.961c2.203,0.646,2.295-0.95,2.459-2.515C708.217,524.982,706.788,524.892,705.193,524.924z"/>
	<path fill-rule="evenodd" clip-rule="evenodd" fill="#FDFDFD" d="M750.907,550.051c-5.005-5.172-10.425-9.783-17.108-12.691
		c-0.036-2.246,0.891-4.112,2.197-5.874c2.252-3.037,4.678-5.828,7.869-7.995c2.438-1.654,2.211-3.15-0.99-3.52
		c0.552-4.056-2.457-2.697-4.463-3.005c-1.635-0.251-4.258,0.746-4.54-1.616c-0.296-2.472,2.413-2.021,4.021-2.506
		c2.346-0.707,4.688-1.426,7.032-2.141c0.28,0.557,0.616,1.143,1.345,0.753c0.842-0.449,0.676-1.224,0.424-1.966
		c0.719-0.843,1.438-1.686,2.156-2.528c2.42-1.767,2.69-3.055,0.702-5.69c-1.715-2.273-3.651-4.749-6.942-2.226
		c-2.432,1.864-4.859,3.651-8.096,2.186c-2.855-1.294-5.875-2.429-8.389-4.235c-6.834-4.909-14.15-9.58-13.553-19.757
		c0.137-2.331-1.677-2.507-3.529-1.589c-2.517,1.247-5.042,2.478-7.563,3.715c-4.874-0.375-9.358,1.586-14.046,2.324
		c-1.775,0.279-3.583,0.354-5.376,0.523c-0.854-1.525-2.213-1.171-3.513-0.905c-11.572,2.37-23.28,2.964-35.055,2.784
		c-2.015-0.03-3.783-0.296-5.625-1.441c-4.708-2.93-7.786-1.945-11.08,3.061c-7.852-7.97-10.594-17.796-10.592-28.69
		c0.001-3.203,1.22-4.36,4.449-4.262c11.188,0.342,22.394-0.008,33.065-3.719c16.062-5.586,25.538-17.198,29.235-33.651
		c2.57-11.435,2.465-23.01,2.361-34.674c-0.092-10.297,0.736-20.609-0.34-30.897c-0.38-3.633-0.846-7.287-1.677-10.836
		c-3.771-16.096-8.226-31.885-15.675-46.864c-2.163-4.347-1.765-10.948,0.893-16.249c2.992-5.966,7.83-9.78,14.086-11.829
		c5.043-1.651,10.04-2.14,14.752,1.145c0.632,0.44,1.809,0.357,1.713,1.437c-0.449,5.1,2.932,3.326,5.2,2.736
		c7.765-2.021,14.138-6.604,20.094-11.725c9.896-8.507,18.818-17.872,24.671-29.751c0.809-1.64,2.068-3.307,2.15-5.008
		c0.294-6.076,4.363-6.483,8.984-6.869c7.824-0.653,15.492-2.342,22.52-5.911c4.615-2.345,6.326-0.544,6.899,3.756
		c1.252,9.384,3.245,18.699,2.721,28.255c-3.866-0.812-6.17,0.763-6.125,4.696c0.106,9.166-4.79,16.832-7.219,25.231
		c-4.693-2.011-7.313-0.854-9.131,4.342c-3.507,10.027-8.798,19.095-17.356,25.863c-2.221,1.757-2.543,4.05-1.346,6.58
		c-2.119,2.104-4.926-0.687-7.326,1.27c-6.377,5.197-14.763,4.386-22.127,6.705c-4.135,1.302-8.902,1.382-13.281,0.954
		c-9.125-0.892-17.4-4.048-23.583-11.359c-0.763-0.902-1.571-2.577-3.153-1.724c-1.15,0.621-0.699,2.119-0.649,3.223
		c0.331,7.292,4.339,12.611,9.433,17.328c-0.563,4.619,3.336,5.086,6.136,6.285c4.825,2.067,10.048,1.399,15.128,1.613
		c2.135,0.09,4.307-0.146,6.315,0.851c0.993,3.007,1.191,6.102,1.038,9.239c-0.104,2.144,1.016,3.425,2.984,2.493
		c2.867-1.356,6.477-1.725,8.059-5.143c3.447-1.215,5.874-3.779,8.022-6.514c1.788-2.276,4.014-4.822,6.562-4.423
		c2.287,0.359,2.676,3.918,3.377,6.257c4.353,14.498,6.871,29.377,8.869,44.346c1.384,10.364,2.534,20.76,3.803,31.14
		c1.031,8.439-1.387,16.487-2.77,24.652c-2.095,1.008-2.484,3.443-4.096,4.887c-0.91,0.814-1.257,2.136-0.488,3.178
		c0.963,1.309,2.115-0.011,3.162-0.166c3.463-0.512,5.531-4.453,9.455-3.905c9.443,17.873,18.745,35.822,28.427,53.564
		c2.441,4.475,1.837,6.527-2.772,8.659c-6.533,3.022-6.385,3.35-3.295,9.711c3.588,7.388,2.592,14.245-2.719,20.359
		c-3.108,3.579-4.826,6.636,0.581,9.65c1.214,0.677,3.139,1.845,0.961,3.8c-6.635,5.958-13.032,12.219-21.192,16.175
		c-1.156-1.142-2.023-2.521-3.03-3.761C759.797,554.281,756.803,549.939,750.907,550.051z"/>
	<path fill-rule="evenodd" clip-rule="evenodd" fill="#FDFDFD" d="M658.074,428.018c-1.113,7.221-4.543,13.102-10.227,17.679
		c-3.926,3.161-8.81,2.836-13.323,3.249c-20.194,1.85-39.733-1.104-58.495-8.9c-10.511-4.368-17.283-12.789-23.157-21.964
		c-13.487-21.068-24.275-43.417-31.981-67.288c-4.083-12.647-7.73-25.401-11.384-38.168c-2.713-9.479-3.333-18.93-1.214-28.557
		c5.764,1.517,11.205,4.284,17.314,4.458c9.206,1.936,18.424,3.58,27.804,1.097c1.974,0.117,3.946,0.282,5.922,0.343
		c10.55,0.322,21.117-0.65,31.668,0.88c2.916,0.423,5.305,3.063,8.502,1.823c7.558,0.569,15.201-0.16,22.65,2.037
		c11.416,3.369,17.125,12.114,21.04,22.315c5.101,13.291,6.384,27.467,8.708,41.381c0.555,3.321,0.294,6.812,3.053,9.377
		c1.527,4.744,2.092,9.658,2.015,14.589c-0.1,6.429-1.289,12.917-0.708,19.261c0.698,7.604,0.651,15.174,0.798,22.764
		C657.084,425.677,656.735,427.091,658.074,428.018z M576.483,318.008c-10.316,0-20.633,0.027-30.95-0.019
		c-2.651-0.011-4.453-0.399-3.756,3.808c2.435,14.679,4.249,29.462,6.229,44.215c0.296,2.206,1.253,3.21,3.527,3.234
		c21.438,0.226,42.89-0.76,64.311,0.751c2.337,0.165,3.25-0.528,2.851-3.135c-2.299-15.046-4.599-30.097-6.515-45.194
		c-0.403-3.175-1.442-3.746-4.25-3.712C597.45,318.086,586.966,318.009,576.483,318.008z M531.935,367.155
		c-1.208,1.668-0.442,2.532-0.144,3.435c4.466,13.494,11.485,25.81,18.709,37.87c7.763,12.96,17.995,23.281,32.892,29.076
		c12.285,4.778,24.46,6.363,37.309,5.563c2.698-0.168,4.312-1.312,3.997-3.871c-0.306-2.488-1.473-5.349-4.578-4.927
		c-6.367,0.865-12.504-0.359-18.667-1.326c-16.705-2.62-30.668-10.724-42.375-22.566c-7.611-7.698-13.207-16.994-18.689-26.342
		C537.25,378.722,534.641,373.114,531.935,367.155z M530.409,364.743c-0.043,0.129-0.116,0.259-0.112,0.387
		c0.001,0.045,0.192,0.084,0.296,0.126c0.042-0.129,0.116-0.259,0.111-0.387C530.702,364.824,530.512,364.785,530.409,364.743z"/>
	<path fill-rule="evenodd" clip-rule="evenodd" fill="#5EABD6" d="M595.896,252.311c-13.136-0.946-25.708,0.369-38.304,0.034
		c-3.438-0.092-5.015-1.923-6.361-4.605c-4.082-8.136-4.637-16.854-4.606-25.738c0.086-24.252,4.095-47.623,15.538-69.295
		c4.934-9.346,10.604-18.493,20.378-23.285c14.171-6.948,29.096-11.155,45.23-8.256c5.121,0.921,10.469,0.787,15.299,3.595
		C595.292,155.703,582.2,199.468,595.896,252.311z"/>
	<path fill-rule="evenodd" clip-rule="evenodd" fill="#FBFBFB" d="M599.874,188.978c2.479-12.734,7.833-24.084,15.638-34.481
		c7.334-9.771,16.394-17.433,26.675-23.755c6.862-4.221,13.866-4.998,20.901-0.019c4.064,2.877,8.263,5.593,12.563,8.104
		c3.365,1.966,2.508,4.328,0.965,6.674c-10.145,15.422-11.922,32.948-12.25,50.643c-0.176,9.465,1.834,18.828,5.184,27.792
		c-0.541,0.029-1.084,0.059-1.625,0.089c-8.166-9.473-18.59-11.549-28.278-5.613c-6.274,3.845-9.859,9.587-11.637,16.592
		c-4.829-1.356-6.204-5.995-9.047-9.299c-8.657-10.063-13.57-21.885-16.949-34.481C601.661,189.908,601.248,189.104,599.874,188.978
		z"/>
	<path fill-rule="evenodd" clip-rule="evenodd" fill="#FBFBFB" d="M712.129,635.967c-5.336-13.549-12.637-25.846-23.045-36.162
		c0.071-2.13-1.217-3.693-2.123-5.462c-1.765-3.438-5.301-4.94-7.803-7.563c-4.309-4.518-4.32-5.155,0.126-9.684
		c2.833-2.886,6.7-4.397,9.53-7.133c5.354-5.176,12.641-8.898,13.968-17.344c5.124-5.599,12.318-8.307,18.191-12.919
		c2.949-2.315,7.425-1.238,10.372,0.96c9.269,6.911,19.254,13.252,24.764,24c5.604,10.935,6.679,21.1-4.199,30.334
		c-4.033,3.424-7.365,7.663-11.211,11.326c-1.623,1.545-2.568,4.195-6.334,2.544c-2.115-0.928-2.256,2.104-1.374,4.24
		c3.571,8.652,5.98,17.583,5.93,27.043c-0.011,2.006-0.078,3.992-1.046,5.821c-4.367,1.351-4.018,6.086-6.37,8.886
		c-1.344,1.601-2.173,4.063-4.767,3.778c-2.582-0.283-3.774-2.333-4.653-4.619c-1.951-5.074-4.13-10.066-5.96-15.183
		C715.377,636.738,714.197,635.896,712.129,635.967z M723.221,594.839c-0.063-4.897-3.809-8.711-8.362-8.514
		c-3.915,0.169-7.427,4.744-7.444,9.697c-0.019,5.378,3.589,10.036,7.699,9.941C718.995,605.874,723.287,599.984,723.221,594.839z"
		/>
	<path fill-rule="evenodd" clip-rule="evenodd" fill="#FBFBFB" d="M598.945,619.014c1.579-8.797,5.019-17.265,5.127-26.302
		c0.085-7.036,0.727-14.054-1.699-21.077c-1.224-3.544-0.158-7.862-1.303-11.771c-3.744-12.777-8.643-24.703-22.786-31.217
		c9.311-2.614,17.705-4.293,26.252-5.5c6.672-0.942,13.439-2.008,19.805-4.107c6.113-2.016,11.153-1.2,15.538,3.035
		c10.411,10.055,16.334,22.073,15.17,36.94c-4.055,1.697-8.027,3.644-12.188,5.021c-4.255,1.409-8.31,3.318-13.199,0.401
		c-4.313-2.573-10.349,1.46-9.507,5.894c1.167,6.149,0.533,12.127,0.024,18.249c-0.847,10.191-5.324,18.307-12.876,24.817
		C604.784,615.567,603.181,619.33,598.945,619.014z M611.081,553.091c-0.017,3.558,3.028,7.266,6.025,7.339
		c4.199,0.103,8.032-3.729,7.912-7.908c-0.106-3.722-3.868-7.552-7.332-7.468C614.194,545.139,611.101,548.903,611.081,553.091z"/>
	<path fill-rule="evenodd" clip-rule="evenodd" fill="#D3D1D1" d="M525.608,288.526c-6.109-0.174-11.55-2.941-17.314-4.458
		c0.845-3.902,1.902-7.719,4.437-10.938c15.876-6.764,32.501-8.554,49.622-8.291c10.138,0.156,20.224,1.185,30.354,1.136
		c17.762-0.086,33.991,5.477,49.098,14.198c3.686,2.128,9.225,3.917,9.074,10.075c-3.328,4.381-6.478,8.911-10.721,13.042
		c-4.014-7.535-10.357-11.251-18.513-11.094c-7.378,0.144-14.842-2.867-22.142,0.472c-3.197,1.24-5.586-1.4-8.502-1.823
		c-10.551-1.53-21.118-0.558-31.668-0.88c-1.976-0.061-3.948-0.226-5.922-0.343c-0.348-0.34-0.646-0.896-1.05-0.989
		c-8.287-1.91-16.859-0.551-25.188-2.166C525.899,286.221,525.725,287.52,525.608,288.526z"/>
	<path fill-rule="evenodd" clip-rule="evenodd" fill="#D3D1D1" d="M658.074,428.018c-1.339-0.927-0.99-2.341-1.015-3.625
		c-0.146-7.59-0.1-15.159-0.798-22.764c-0.581-6.344,0.608-12.832,0.708-19.261c0.077-4.931-0.487-9.845-2.015-14.589
		c1.978-5.6-0.403-10.961-0.714-16.439c-0.749-13.206-3.552-25.856-8.222-38.136c-0.846-2.225-0.551-3.363,1.095-5.093
		c3.481-3.658,7.312-7.279,7.672-12.866c2.108-0.508,2.476,1.266,3.139,2.499c10.009,18.626,18.434,37.694,19.347,59.389
		c0.178,4.22-0.513,8.947,1.922,12.989c0.589,16.939-0.175,33.826-3.068,50.522c-1.125,6.497-3.437,12.69-10.211,16.06
		c-3.09,1.537-4.15,6.079-9.428,6.458c3.886-6.237,5.336-12.648,5.177-19.396c0.194-1.244,0.88-2.549-0.372-3.699
		c-0.844,1.05-1.393,2.137-1.117,3.488C659.909,425.247,659.4,426.824,658.074,428.018z"/>
	<path fill-rule="evenodd" clip-rule="evenodd" fill="#FBFBFB" d="M735.084,160.025c0.398-4.661-1.348-8.741-3.475-12.706
		c-2.933-5.467-4.869-11.262-5.803-17.391c-0.125-0.82-0.207-1.655-0.221-2.484c-0.061-3.416,0.532-7.958,3.113-8.84
		c2.699-0.922,4.041,3.592,5.58,6.078c0.525,0.849,1.008,1.727,1.582,2.539c0.463,0.654,0.988,1.465,1.969,0.996
		c1.311-0.627,0.822-1.685,0.326-2.526c-1.671-2.829-2.814-5.972-5.526-8.166c-1.722-1.394-0.967-2.563,0.943-3.228
		c5.817-2.021,8.755-0.728,11.12,4.771c0.59,1.373,0.359,4.241,2.452,3.596c2.392-0.736,0.638-3.019,0.217-4.621
		c-0.247-0.943-0.651-1.846-1.179-3.304c5.724-0.132,10.037,2.584,13.439,6.023c12.472,12.61,17.901,28.148,17.146,45.726
		c-0.317,7.376-5.922,13.414-12.906,15.506c-17.77,5.321-31.782-3.555-36.242-19.621c-0.695-2.505-0.484-4.89-0.568-7.323
		c-0.037-1.049-0.934-2.958,1.319-3.045c1.948-0.075,1.526,1.823,2.092,2.893c-2.079,0.957-1.771,2.888-1.16,4.271
		c1.931,4.372,3.576,8.907,6.368,12.859c1.685,2.386,3.959,3.432,6.865,3.021c1.07-0.15,2.615,0.473,2.945-1.036
		c0.174-0.796-0.32-2.097-0.962-2.652C740.744,168.09,738.695,163.407,735.084,160.025z"/>
	<path fill-rule="evenodd" clip-rule="evenodd" fill="#FBFBFB" d="M670.018,518.989c1.224,0.111,2.215,1.474,3.8,0.576
		c-0.437-2.775-3.355-2.896-4.875-4.455c0.106-3.464-4.952-4.44-4.083-8.432c0.088-0.41-1.908-1.099-2.827,0.209
		c-3.329,0.436-6.657,0.871-9.985,1.307c-3.518-6.57-3.683-8.781,4.297-12.684c4.996-2.443,10.598-3.624,15.837-5.61
		c3.14-1.19,6.845-1.389,9.017-4.541c0.494,0.077,1.043,0.338,1.473,0.206c10.256-3.141,17.091,2.169,23.387,9.197
		c1.348,1.504,1.758,3.131,2.188,4.874c1.456,5.898,0.819,11.919,1.03,17.893c0.092,2.581-1.355,3.036-3.437,2.996
		c-5.202-0.1-7.655,2.313-8.075,7.669c-0.448,5.731-4.904,7.792-9.906,9.003c-2.096,0.508-5.57,0.511-4.534,3.873
		c2.192,7.118-2.267,7.911-7.271,8.546c-0.155-6.785-0.163-6.819-6.755-5.46c-2.92,0.602-5.803,1.373-8.703,2.068
		c-2.508-10.031-7.912-18.421-14.74-26.004c5.545-3.405,11.266-1.273,16.914-0.458C665.295,520.128,667.821,521.374,670.018,518.989
		z"/>
	<path fill-rule="evenodd" clip-rule="evenodd" fill="#D3D1D1" d="M599.874,188.978c1.374,0.127,1.787,0.931,2.14,2.245
		c3.379,12.597,8.292,24.419,16.949,34.481c2.843,3.304,4.218,7.942,9.047,9.299c0.232,4.291-0.665,8.644,0.8,12.868
		c3.069,8.85,12.025,15.188,21.748,14.185c10.079-1.039,17.404-5.472,19.955-15.822c0.434-1.758,0.982-3.488,1.479-5.231
		c1.375-0.343,2.75-0.686,4.126-1.028c4.927,6.644,9.595,13.551,18.464,17.223c-3.336,1.595-6.025,0.346-8.428,0.997
		c-10.164,2.755-18.807,7.553-22.602,18.161c-1.415,3.955-2.848,4.62-6.043,1.464c-3.408-3.366-7.268-6.283-10.973-9.346
		c-11.398-9.424-25.45-11.628-39.312-14.181c-3.32-0.611-5.212-2.161-6.618-5.035c-6.815-13.933-6.146-28.636-4.244-43.35
		C597.095,200.226,597.441,194.354,599.874,188.978z"/>
	<path fill-rule="evenodd" clip-rule="evenodd" fill="#FBFBFB" d="M495.748,415.137c-3.836-2.537-4.201-0.227-3.778,2.808
		c0.877,6.294,7.524,10.98,16.147,11.066c2.803,0.028,4.489,0.396,4.103,3.612c0.253,4.215-2.136,5.397-5.884,5.441
		c-2.446,0.029-4.967-0.654-7.359,0.435c-0.334-0.011-0.668-0.021-1.003-0.03c0.377-2.307-1.196-2.968-2.926-3.051
		c-1.1-0.054-1.07,1.134-0.788,1.91c2.965,8.141,2.667,16.519,1.89,24.938c-4.452,0.961-5.872-2.901-6.981-5.44
		c-7.259-16.605-11.294-33.932-10.186-52.217c0.223-3.678,1.927-5.429,5.783-5.938c5.472-0.722,11.105-1.82,16.326-0.365
		c10.833,3.02,18.06,10.694,23.235,20.462c2.578,4.866,3.92,9.846,1.959,15.261c-0.502,1.385-0.955,3.28-2.825,2.904
		c-2.813-0.564-5.414-1.934-6.478-4.846c-0.56-1.531-2.132-3.43,0.059-4.889c1.386-0.923,3.46-1.536,2.293-3.573
		c-1.165-2.032-2.496,0.7-3.872,0.425c-0.487-0.097-0.991-0.104-1.487-0.153c-0.697-1.621-2.047-2.008-3.639-1.901
		c-4.295,0.284-7.538-1.777-10.463-4.613C498.719,416.263,497.712,414.799,495.748,415.137z"/>
	<path fill-rule="evenodd" clip-rule="evenodd" fill="#FBFBFB" d="M679.193,370.122c-2.435-4.042-1.744-8.77-1.922-12.989
		c-0.913-21.694-9.338-40.763-19.347-59.389c-0.663-1.233-1.03-3.007-3.139-2.499l0.006,0.006c0.308-2.492-0.912-3.382-3.251-3.097
		c-0.221-0.635-0.441-1.27-0.662-1.905c0.15-6.158-5.389-7.947-9.074-10.075c-15.107-8.722-31.336-14.284-49.098-14.198
		c-10.13,0.049-20.216-0.979-30.354-1.136c-17.121-0.263-33.746,1.527-49.622,8.291c4.187-6.79,11.268-9.498,18.248-10.913
		c28.316-5.743,56.859-5.605,85.133,0.006c19.036,3.778,35.664,12.86,45.458,30.332c8.706,15.528,14.286,32.484,16.343,50.321
		C678.953,351.906,680.637,360.956,679.193,370.122z"/>
	<path fill-rule="evenodd" clip-rule="evenodd" fill="#D3D1D1" d="M690.432,325.213c-5.094-4.717-9.102-10.036-9.433-17.328
		c-0.05-1.104-0.501-2.602,0.649-3.223c1.582-0.854,2.391,0.821,3.153,1.724c6.183,7.312,14.458,10.468,23.583,11.359
		c4.379,0.428,9.146,0.348,13.281-0.954c7.364-2.319,15.75-1.508,22.127-6.705c2.4-1.956,5.207,0.835,7.326-1.27
		c0.818,0.535,1.766,0.943,2.432,1.626c5.029,5.165,4.32,6.72-1.986,9.816c-13.691,6.723-28.065,9.962-43.201,9.533
		C702.168,329.616,695.746,329.312,690.432,325.213z"/>
	<path fill-rule="evenodd" clip-rule="evenodd" fill="#E76977" d="M696.963,672.964c-4.531-1.566-7.651,1.045-10.673,2.891
		c-4.457,2.723-7.255,1.537-10.089-2.131c-4.502-5.83-4.607-5.842,1.719-9.5c7.459-4.313,15.051-8.4,22.457-12.802
		c2.586-1.537,3.916-1.102,4.756,1.632c0.098,0.316,0.234,0.622,0.355,0.931c3.602,9.185,3.6,9.18-4.982,14.454
		c-0.82,0.504-1.572,1.118-2.576,1.838c2.264,1.763,4.102,0.735,5.939-0.139c3.474-1.651,5.441-1.107,6.234,3.195
		c2.219,12.038-2.242,15.36-14.398,14.036c-3.224-0.352-5.967-1.73-8.449-3.892c-2.577-2.245-1.826-3.85,0.601-5.302
		C690.857,676.38,693.924,674.696,696.963,672.964z"/>
	<path fill-rule="evenodd" clip-rule="evenodd" fill="#5EABD6" d="M647.563,606.682c-0.615-6.026,3.751-11.377,9.347-13.266
		c12.524-4.227,22.142,1.245,30.356,9.594c19.437,19.752,26.707,45.1,31.46,71.396c0.745,4.118,0.128,8.464-5.315,10.247
		c-1.384-1.989-0.096-4.104-0.061-6.059c0.168-9.329-2.527-18.035-5.248-26.799c-3.762-12.117-8.485-23.693-15.807-34.199
		c-6.619-9.499-15.615-15.308-26.52-18.287C658.23,597.247,652.023,599.691,647.563,606.682z"/>
	<path fill-rule="evenodd" clip-rule="evenodd" fill="#E76977" d="M652.658,632.216c-0.218-1.927,0.705-3.114,2.328-4
		c8.143-4.447,16.303-8.866,24.367-13.452c2.295-1.305,4.008-1.208,5.615,0.853c0.203,0.261,0.482,0.464,0.672,0.732
		c8.74,12.312,10.184,8.299-2.541,16.52c-6.697,4.326-13.789,7.933-20.654,11.944c-3.061,1.789-4.52,1.428-5.764-2.003
		C655.396,639.264,652.986,636.136,652.658,632.216z"/>
	<path fill-rule="evenodd" clip-rule="evenodd" fill="#D3D1D1" d="M598.945,619.014c4.236,0.316,5.839-3.446,8.357-5.616
		c7.553-6.511,12.029-14.626,12.876-24.817c0.509-6.122,1.142-12.1-0.024-18.249c-0.841-4.434,5.194-8.467,9.507-5.894
		c4.889,2.917,8.944,1.008,13.199-0.401c4.161-1.378,8.134-3.324,12.188-5.021c0.844,3.336-0.508,5.138-3.736,6.248
		c-5.023,1.728-9.893,3.898-14.875,5.756c-1.817,0.678-3.923,2.472-5.409-0.675c-0.256-0.542-1.135-0.631-1.785-0.198
		c-1.246,0.829-0.726,1.935-0.636,3.105c0.535,6.962,0.326,13.877-0.276,20.875c-1.193,13.886-17.261,27.713-30.768,28.705
		C597.248,621.266,598.144,620.153,598.945,619.014z"/>
	<path fill-rule="evenodd" clip-rule="evenodd" fill="#E76977" d="M670.504,662.884c-2.928-0.076-3.661-2.218-4.688-3.78
		c-5.179-7.883-5.039-7.77,2.619-12.869c7.49-4.987,15.213-9.523,23.229-13.601c2.506-1.274,3.866-1.751,5.688,1.438
		c6.422,11.248,6.598,11.101-4.766,17.079c-6.33,3.331-12.58,6.815-18.879,10.208C672.554,661.98,671.34,662.489,670.504,662.884z"
		/>
	<path fill-rule="evenodd" clip-rule="evenodd" fill="#D3D1D1" d="M681.197,485.359c-2.172,3.152-5.877,3.351-9.017,4.541
		c-5.239,1.986-10.841,3.167-15.837,5.61c-7.979,3.902-7.814,6.113-4.297,12.684c-6.227,2.767-6.254,2.774-8.148-3.636
		c-0.746-2.521-1.047-5.215-2.094-7.59c-0.907-2.054-0.284-3.108,2.904-4.552c-7.748-0.41-14.202-0.431-17.923-6.706
		c3.294-5.006,6.372-5.99,11.08-3.061c1.841,1.146,3.61,1.411,5.625,1.441c11.774,0.18,23.482-0.414,35.055-2.784
		c1.3-0.266,2.658-0.62,3.513,0.905C680.958,483.039,680.487,484.038,681.197,485.359z"/>
	<path fill-rule="evenodd" clip-rule="evenodd" fill="#C8FBFD" d="M708.309,184.935c4.416,9.104,3.421,33.662-1.469,41.354
		c-1.607-2.005-1.005-4.26-0.774-6.141c1.206-9.864-0.521-19.491-2.175-29.099c-1.303-7.572-5.116-13.976-10.457-19.472
		c-5.473-5.632-11.835-5.652-17.463,0.026c-2.051,2.069-3.961,4.276-6.664,7.212c0.822-9.98,3.98-18.084,8.125-25.885
		c2.734-0.023,4.986,1.112,7.43,2.33c8.701,4.334,13.181,12.161,17.738,20.055C704.464,178.543,705.463,182.291,708.309,184.935z"/>
	<path fill-rule="evenodd" clip-rule="evenodd" fill="#E76977" d="M574.182,589.096c-3.829,0-7.676-0.23-11.482,0.064
		c-3.911,0.304-5.308-1.524-5.772-5.069c-1.409-10.754-1.47-10.756,9.345-11.094c7.317-0.229,14.649-0.234,21.948-0.724
		c3.159-0.213,4.153,1.132,4.373,3.783c0.233,2.813,0.284,5.646,0.619,8.446c0.337,2.811-0.865,4.041-3.561,4.046
		c-5.156,0.011-10.313,0.004-15.469,0.004C574.182,588.733,574.182,588.915,574.182,589.096z"/>
	<path fill-rule="evenodd" clip-rule="evenodd" fill="#E76977" d="M574.115,552.953c0.666,0.006,1.333-0.011,1.999,0.008
		c12.062,0.336,12.036,0.344,14.915,11.846c0.66,2.636,0.162,4.509-2.889,4.288c-9.521-0.689-18.962,0.892-28.461,0.825
		c-2.668-0.019-3.667-0.525-3.703-3.516c-0.158-12.977-0.275-12.982,12.646-13.448C570.451,552.89,572.284,552.946,574.115,552.953z
		"/>
	<path fill-rule="evenodd" clip-rule="evenodd" fill="#FBFBFB" d="M509.978,371.14c-6.381-1.717-12.602-4.196-19.366-4.104
		c-1.825,0.024-1.68-1.125-1.426-2.356c1.451-7.018,4.301-13.576,6.601-20.318c0.756-2.214,2.375-1.433,3.685-1.328
		c4.606,0.368,9.025,1.826,13.736,1.974c3.004,0.094,2.293,3.762,3.041,5.929C513.148,357.356,511.271,364.157,509.978,371.14z"/>
	<path fill-rule="evenodd" clip-rule="evenodd" fill="#E76977" d="M578.479,592.729c2.493,0,5.052-0.351,7.461,0.101
		c2.357,0.441,6.325-1.716,6.832,1.676c0.662,4.429,1.021,9.358-1.966,13.467c-0.886,1.219-2.375,1.029-3.697,1.026
		c-6.65-0.014-13.302-0.168-19.948-0.026c-3.789,0.08-5.68-1.55-6.741-5.13c-2.885-9.729-2.777-10.104,7.088-10.725
		c3.644-0.229,7.313-0.037,10.972-0.037C578.479,592.964,578.479,592.847,578.479,592.729z"/>
	<path fill-rule="evenodd" clip-rule="evenodd" fill="#D3D1D1" d="M701.479,479.365c2.521-1.237,5.047-2.468,7.563-3.715
		c1.853-0.918,3.666-0.742,3.529,1.589c-0.598,10.177,6.719,14.848,13.553,19.757c2.514,1.807,5.533,2.941,8.389,4.235
		c3.236,1.466,5.664-0.321,8.096-2.186c3.291-2.523,5.228-0.048,6.942,2.226c1.988,2.636,1.718,3.924-0.702,5.69
		c-0.326,0.053-0.699,0.021-0.973,0.172c-13.026,7.149-22.227-0.646-31.324-8.207c-4.695-3.902-8.75-8.581-13.5-12.406
		C700.245,484.259,699.928,482.21,701.479,479.365z"/>
	<path fill-rule="evenodd" clip-rule="evenodd" fill="#FBFBFB" d="M537.187,232.933c-4.85-12.636-4.128-25.695-3.082-38.813
		c1.526-19.139,11.722-33.878,23.878-47.658c0.433-0.49,0.973-0.902,1.52-1.268c0.245-0.163,0.629-0.119,2.466-0.404
		c-8.734,13.904-13.83,28.385-18.142,43.17c-1.187,0.009-1.693,0.827-2.155,1.751c-4.903,9.807-5.549,20.17-4.411,30.88
		C537.693,224.656,537.238,228.815,537.187,232.933z"/>
	<path fill-rule="evenodd" clip-rule="evenodd" fill="#5EABD6" d="M569.058,532.947c1.962-2.313,3.672-2.621,6.32-1.63
		c5.898,2.209,9.843,6.373,13.736,11.083c8.065,9.759,9,21.689,10.642,33.311c1.728,12.227,0.244,24.45-2.955,36.312
		c-1.532,5.681-2.893,11.974-9.672,14.707c3.555-6.183,5.826-12.813,7.32-19.648c4.607-21.075,3.54-41.623-7.438-60.705
		C583.147,539.661,577.301,534.594,569.058,532.947z"/>
	<path fill-rule="evenodd" clip-rule="evenodd" fill="#E76977" d="M661.813,602.864c4.699-0.012,9.188,1.932,13.398,4.837
		c2.323,1.602,2.373,3.256,0.135,4.582c-7.583,4.491-15.271,8.806-22.941,13.149c-0.959,0.543-2.125,0.504-2.455-0.729
		c-1.449-5.407-2.165-11.056,0.504-16.089C652.547,604.668,656.555,602.641,661.813,602.864z"/>
	<path fill-rule="evenodd" clip-rule="evenodd" fill="#D3D1D1" d="M702.782,552.619c-1.327,8.445-8.614,12.168-13.968,17.344
		c-2.83,2.735-6.697,4.247-9.53,7.133c-4.446,4.528-4.435,5.166-0.126,9.684c2.502,2.623,6.038,4.125,7.803,7.563
		c0.906,1.769,2.194,3.332,2.123,5.462c-8.945-6.913-18.448-12.16-30.728-10.403C671.795,575.382,687.985,564.831,702.782,552.619z"
		/>
	<path fill-rule="evenodd" clip-rule="evenodd" fill="#E76977" d="M576.864,612.998c2.994,0,5.996,0.123,8.981-0.037
		c2.553-0.137,2.776,1.017,2.103,3.002c-1.075,3.169-2.494,6.18-4.437,8.897c-2.21,3.094-5.571,3.122-8.537,2.021
		c-5.42-2.012-7.889-6.834-9.754-11.945c-0.792-2.169,0.857-2.087,2.165-2.106c3.159-0.049,6.319-0.017,9.479-0.017
		C576.864,612.875,576.864,612.937,576.864,612.998z"/>
	<path fill-rule="evenodd" clip-rule="evenodd" fill="#5EABD6" d="M753.705,206.691c10.089,0.569,18.652-4.021,27.467-7.889
		c1.446-0.634,3.273-3.854,5.146-0.398c1.652,3.048,0.936,5.087-2.422,6.63c-9.151,4.205-18.49,7.432-28.736,6.976
		c-1.639-0.073-3.26-0.506-4.894-0.734c-2.132-0.298-2.737-1.739-2.509-3.577c0.307-2.473,2.113-1.404,3.473-1.293
		C752.058,206.474,752.88,206.595,753.705,206.691z"/>
	<path fill-rule="evenodd" clip-rule="evenodd" fill="#D3D1D1" d="M537.187,232.933c0.051-4.117,0.507-8.276,0.075-12.343
		c-1.138-10.71-0.493-21.073,4.411-30.88c0.462-0.924,0.969-1.742,2.155-1.751c-0.555,7.243-2.416,14.31-2.525,21.638
		c-0.174,11.68,0.706,23.145,4.515,34.291c0.706,2.066,2.031,4.213,0.721,7.196C543.307,244.776,538.842,239.619,537.187,232.933z"
		/>
	<path fill-rule="evenodd" clip-rule="evenodd" fill="#E76977" d="M583.778,549.055c-7.961-0.272-15.634,0.381-23.249,1.72
		c-2.185,0.385-2.892-0.717-2.507-2.948c1.768-10.247,8.339-13.264,17.098-7.757C581.146,543.857,581.57,544.284,583.778,549.055z"
		/>
	<path fill-rule="evenodd" clip-rule="evenodd" fill="#E76977" d="M753.563,196.09c9.169,0.527,17.158-3.083,25.094-7.006
		c1.213-0.599,2.644-3.189,4-0.883c1.014,1.724,1.143,4.223-0.768,5.965c-0.597,0.545-1.381,0.891-2.098,1.296
		c-8.57,4.844-17.789,7.112-27.619,6.842c-1.117-0.031-2.334-0.273-3.309-0.788c-1.943-1.025-2.056-2.95-1.58-4.79
		c0.527-2.041,2.129-0.814,3.297-0.805C751.574,195.929,752.568,196.029,753.563,196.09z"/>
	<path fill-rule="evenodd" clip-rule="evenodd" fill="#D3D1D1" d="M712.129,635.967c2.068-0.07,3.248,0.771,3.996,2.864
		c1.83,5.116,4.009,10.108,5.96,15.183c0.879,2.286,2.071,4.336,4.653,4.619c2.594,0.284,3.423-2.178,4.767-3.778
		c2.353-2.8,2.003-7.535,6.37-8.886c-2.297,9.968-7.421,18.167-15.586,25.106C718.029,659.334,716.842,647.122,712.129,635.967z"/>
	<path fill-rule="evenodd" clip-rule="evenodd" fill="#5EABD6" d="M479.478,396.617c-1.585-4.664,0.77-6.572,4.509-7.248
		c9.663-1.748,19.111-0.933,28.357,2.517c2.186,0.815,1.563,2.019,1.269,3.504c-0.376,1.895-1.281,2.321-3.129,1.822
		c-6.744-1.824-13.596-2.913-20.606-2.116C486.435,395.487,483.016,396.093,479.478,396.617z"/>
	<path fill-rule="evenodd" clip-rule="evenodd" fill="#D3D1D1" d="M778.952,272.031c2.429-8.399,7.325-16.065,7.219-25.231
		c-0.045-3.934,2.259-5.508,6.125-4.696c1.129,6.919-0.801,13.603-1.753,20.337c-0.258,1.826,0.136,4.024-1.449,5.581
		c-2.945,1.362-5.852,2.787-8.182,5.13C780.08,273.092,779.382,272.796,778.952,272.031z"/>
	<path fill-rule="evenodd" clip-rule="evenodd" fill="#D3D1D1" d="M496.151,462.266c0.777-8.419,1.076-16.797-1.89-24.938
		c-0.282-0.776-0.313-1.964,0.788-1.91c1.73,0.083,3.303,0.744,2.926,3.051c-0.268,3.552,2.661,3.817,4.884,4.375
		c3.728,0.935,7.489,0.187,11.194-0.581c-0.15,3.433-0.299,6.865-0.449,10.298c-1.179-1.32-2.405-1.69-2.054,0.638
		c0.468,3.102,0.002,6.169,0.237,9.221c0.177,2.302-0.667,3.313-2.73,3.696c-0.023-4.929-0.041-9.856-0.07-14.785
		c-0.016-2.696-0.66-5.184-3.933-5.041c-2.76,0.12-4.557,1.625-3.927,4.85c0.12,0.615-0.107,1.297-0.173,1.948
		c-2.653-0.503-1.955,1.468-2.012,2.793C498.833,458.384,498.725,460.854,496.151,462.266z"/>
	<path fill-rule="evenodd" clip-rule="evenodd" fill="#FBFBFB" d="M708.309,184.935c-2.846-2.644-3.845-6.392-5.709-9.619
		c-4.558-7.894-9.037-15.721-17.738-20.055c-2.443-1.218-4.695-2.354-7.43-2.33c3.729-7.729,5.455-8.203,11.331-2.471
		C698.584,160.042,705.828,171.157,708.309,184.935z"/>
	<path fill-rule="evenodd" clip-rule="evenodd" fill="#5EABD6" d="M755.488,193.006c-1.191-0.141-1.586-0.077-1.842-0.235
		c-2.156-1.33-6.851,0.616-6.431-3.634c0.334-3.377,4.075-1.276,6.222-1.662c8.289-1.487,17.064-1.42,23.406-8.361
		c1.835-2.01,2.708-1.101,3.107,1.141c0.319,1.795,0.036,3.361-1.551,4.407C771.18,189.423,763.105,191.749,755.488,193.006z"/>
	<path fill-rule="evenodd" clip-rule="evenodd" fill="#D3D1D1" d="M509.978,371.14c1.292-6.982,3.17-13.783,6.271-20.205
		c1.808,4.767,3.83,9.466,5.352,14.321c1.055,3.367-1.283,6.261-2.404,9.263c-0.359,0.96-1.385,0.333-2.133-0.029
		C514.712,373.351,512.341,372.253,509.978,371.14z"/>
	<path fill-rule="evenodd" clip-rule="evenodd" fill="#5EABD6" d="M481.596,377.615c-0.494-6.499,3.035-5.688,6.938-5.995
		c9.948-0.783,18.535,3.058,27.281,6.655c1.5,0.617,2.682,1.519,1.819,3.4c-0.811,1.768-2.111,0.587-2.933,0.19
		C504.277,376.831,493.527,374.166,481.596,377.615z"/>
	<path fill-rule="evenodd" clip-rule="evenodd" fill="#FBFBFB" d="M513.604,452.561c0.15-3.433,0.299-6.865,0.449-10.298
		c0.961-0.845,1.844-1.73,1.67-3.173c0.834-0.074,1.669-0.147,2.503-0.222c2.716,0.759,3.833,2.411,4.045,5.359
		c0.388,5.378,0.347,10.592-2.373,15.409c-0.631,1.118-1.657,2.337-3.084,2.263c-1.783-0.093-1.589-1.798-1.858-3.037
		C514.501,456.764,514.054,454.662,513.604,452.561z"/>
	<path fill-rule="evenodd" clip-rule="evenodd" fill="#E76977" d="M493.452,384.241c-3.282,0.417-6.563,0.845-9.848,1.244
		c-1.166,0.141-2.671,1.638-3.415-0.177c-0.786-1.915,0.737-3.257,2.306-3.833c3.912-1.436,8.002-2.164,12.194-1.821
		c6.883,0.562,13.218,2.981,19.376,5.933c0.813,0.39,2.14,0.546,1.668,1.979c-0.538,1.636-1.688,1.133-2.834,0.707
		C506.637,385.949,500.212,384.445,493.452,384.241z"/>
	<path fill-rule="evenodd" clip-rule="evenodd" fill="#FBFBFB" d="M500.953,453.087c0.066-0.651,0.293-1.333,0.173-1.948
		c-0.63-3.225,1.167-4.729,3.927-4.85c3.272-0.143,3.917,2.345,3.933,5.041c0.029,4.929,0.047,9.856,0.07,14.785
		c-4.018,2.399-6.039,0.193-7.352-3.298C500.52,459.672,501.166,456.335,500.953,453.087z"/>
	<path fill-rule="evenodd" clip-rule="evenodd" fill="#D3D1D1" d="M730.092,340.552c-1.582,3.418-5.191,3.786-8.059,5.143
		c-1.969,0.932-3.089-0.35-2.984-2.493c0.153-3.138-0.045-6.232-1.038-9.239c3.89-0.753,7.931-0.34,11.768-1.59
		c1.187-0.386,2.814-1.058,3.501,0.593c0.733,1.763-0.879,2.764-2.057,3.523C729.504,337.595,726.295,338.002,730.092,340.552z"/>
	<path fill-rule="evenodd" clip-rule="evenodd" fill="#D3D1D1" d="M735.084,160.025c3.611,3.382,5.66,8.064,9.437,11.337
		c0.642,0.556,1.136,1.856,0.962,2.652c-0.33,1.509-1.875,0.886-2.945,1.036c-2.906,0.41-5.181-0.636-6.865-3.021
		c-2.792-3.952-4.438-8.487-6.368-12.859c-0.611-1.384-0.919-3.314,1.16-4.271C732.421,156.231,732.002,159.705,735.084,160.025z"/>
	<path fill-rule="evenodd" clip-rule="evenodd" fill="#D3D1D1" d="M742.875,519.971c3.201,0.369,3.428,1.865,0.99,3.52
		c-3.191,2.167-5.617,4.958-7.869,7.995c-1.307,1.762-2.233,3.628-2.197,5.874c-2.436-0.817-4.871-1.636-7.92-2.659
		C731.72,529.345,734.092,521.086,742.875,519.971z"/>
	<path fill-rule="evenodd" clip-rule="evenodd" fill="#E76977" d="M775.677,275.857c1.897-0.152,9.729,4.593,9.208,5.652
		c-1.311,2.66-1.707,6.214-4.791,7.439c-1.746,0.694-8.084-4.14-8.102-5.562C771.979,282.38,775.15,275.899,775.677,275.857z"/>
	<path fill-rule="evenodd" clip-rule="evenodd" fill="#D3D1D1" d="M660.594,546.225c2.9-0.695,5.783-1.467,8.703-2.068
		c6.592-1.359,6.6-1.325,6.755,5.46c-2.718,0.482-5.591,0.56-8.119,1.533C662.824,553.117,661.058,550.813,660.594,546.225z"/>
	<path fill-rule="evenodd" clip-rule="evenodd" fill="#E76977" d="M503.042,333.645c1.609,0.1,3.763,0.34,5.917,0.342
		c3.537,0.003,3.486,2.798,3.488,4.919c0.002,2.761-2.439,2.195-4.163,2.003c-2.304-0.257-4.628-0.62-6.841-1.281
		c-1.239-0.371-3.996,0.341-2.979-2.6C499.106,335.174,499.091,332.283,503.042,333.645z"/>
	<path fill-rule="evenodd" clip-rule="evenodd" fill="#D3D1D1" d="M670.018,518.989c-2.196,2.385-4.723,1.139-7.25,0.773
		c-5.648-0.815-11.369-2.947-16.914,0.458c-1.889-0.906-3.777-1.812-5.666-2.718c0.1-0.511,0.2-1.021,0.301-1.532
		C650.385,516.161,660.426,514.09,670.018,518.989z"/>
	<path fill-rule="evenodd" clip-rule="evenodd" fill="#D3D1D1" d="M750.907,550.051c5.896-0.111,8.89,4.23,12.041,8.11
		c1.007,1.239,1.874,2.619,3.03,3.761c0.086,2.413-1.576,3.862-3.445,4.202c-1.682,0.307-2.016-1.891-2.521-3.187
		C758.037,557.874,754.026,554.283,750.907,550.051z"/>
	<path fill-rule="evenodd" clip-rule="evenodd" fill="#D3D1D1" d="M495.748,415.137c1.964-0.338,2.971,1.126,4.126,2.245
		c2.925,2.836,6.168,4.897,10.463,4.613c1.591-0.106,2.941,0.28,3.639,1.901C506.326,428.231,496.57,423.543,495.748,415.137z"/>
	<path fill-rule="evenodd" clip-rule="evenodd" fill="#E76977" d="M802.959,517.964c0.452,4.68-3.094,3.67-5.681,4.01
		c-3.228,0.425-3.351-1.659-3.358-4.015c-0.014-4.409,3.935-5.148,6.47-5.403C803.16,512.277,802.777,515.759,802.959,517.964z"/>
	<path fill-rule="evenodd" clip-rule="evenodd" fill="#5EABD6" d="M779.099,293.633c-1.224,1.707-2.046,3.484-3.413,4.583
		c-1.379,1.11-2.234-0.738-3.193-1.484c-1.179-0.918-2.37-1.857-3.367-2.959c-1.24-1.37-1.336-2.907-0.27-4.553
		c1.365-2.107,2.709-0.589,3.769,0.105C774.737,290.71,777.469,291.282,779.099,293.633z"/>
	<path fill-rule="evenodd" clip-rule="evenodd" fill="#5EABD6" d="M766.057,309.457c-1.293,1.741-2.696,3.649-4.748,3.313
		c-3.111-0.511-4.545-3.388-4.885-6.086c-0.182-1.441,1.95-3.897,3.518-3.418C762.796,304.138,764.192,307.15,766.057,309.457z"/>
	<path fill-rule="evenodd" clip-rule="evenodd" fill="#D3D1D1" d="M765.988,440.003c-3.924-0.548-5.992,3.394-9.455,3.905
		c-1.047,0.155-2.199,1.475-3.162,0.166c-0.769-1.042-0.422-2.363,0.488-3.178c1.611-1.443,2.001-3.879,4.096-4.887
		c2.164,5.182,3.925,1.888,5.551-0.583C764.799,436.976,765.819,438.261,765.988,440.003z"/>
	<path fill-rule="evenodd" clip-rule="evenodd" fill="#E76977" d="M765.436,295.679c2.471,2.094,5.885,3.312,6.736,6.413
		c0.477,1.739-2.627,4.554-3.467,4.05c-2.598-1.558-5.022-3.942-5.844-7.07C762.487,297.65,763.993,296.508,765.436,295.679z"/>
	<path fill-rule="evenodd" clip-rule="evenodd" fill="#D3D1D1" d="M518.227,438.868c-0.834,0.074-1.669,0.147-2.503,0.222
		c-5.659,1.984-11.318,3.972-16.746-0.591c2.392-1.089,4.913-0.405,7.359-0.435c3.748-0.044,6.137-1.227,5.884-5.441
		C514.222,434.705,516.225,436.786,518.227,438.868z"/>
	<path fill-rule="evenodd" clip-rule="evenodd" fill="#5EABD6" d="M797.84,525.417c1.488,0.653,4.167-1.007,3.977,1.684
		c-0.145,2.026-0.642,5.344-3.469,5.188c-2.131-0.117-5.334-1.018-5.318-4.25C793.047,524.508,796.176,526.098,797.84,525.417z"/>
	<path fill-rule="evenodd" clip-rule="evenodd" fill="#D3D1D1" d="M662.032,506.888c0.919-1.308,2.915-0.619,2.827-0.209
		c-0.869,3.991,4.189,4.968,4.083,8.432c-4.288-1.295-8.655-2.198-13.739-2.276C657.412,510.025,662.293,511.338,662.032,506.888z"
		/>
	<path fill-rule="evenodd" clip-rule="evenodd" fill="#5EABD6" d="M800.207,507.632c-1.423,2.637-4.096,3.691-6.395,4.187
		c-2.199,0.473-2.854-2.93-2.597-3.944c0.696-2.745,3.743-3.746,6.108-4.247C799.754,503.111,798.738,506.407,800.207,507.632z"/>
	<path fill-rule="evenodd" clip-rule="evenodd" fill="#FBFBFB" d="M780.912,273.151c2.33-2.343,5.236-3.768,8.182-5.13
		c-0.116,3.185-1.151,6.115-2.468,9.324C784.611,275.866,782.762,274.509,780.912,273.151z"/>
	<path fill-rule="evenodd" clip-rule="evenodd" fill="#E76977" d="M790.641,532.539c1.834,1.646,4.935,1.509,4.969,3.511
		c0.034,1.983-2.107,3.775-4.373,4.044c-1.78,0.212-3.565-1.218-3.756-2.719C787.215,535.276,789.678,534.435,790.641,532.539z"/>
	<path fill-rule="evenodd" clip-rule="evenodd" fill="#5EABD6" d="M509.824,330c-2.842-0.179-5.838,1.16-7.039-1.573
		c-0.576-1.313,0.676-4.318,2.954-4.415C509.692,323.844,508.386,327.624,509.824,330z"/>
	<path fill-rule="evenodd" clip-rule="evenodd" fill="#5EABD6" d="M699.916,540.882c-0.852,2.074-2.85,3.063-4.56,3.347
		c-1.378,0.228-1.913-2.359-1.925-3.331c-0.02-1.647,1.767-2.896,3.453-2.951C698.493,537.894,699.063,539.635,699.916,540.882z"/>
	<path fill-rule="evenodd" clip-rule="evenodd" fill="#E76977" d="M703.59,532.986c1.049,0.604,3.365-1.02,3.216,1.576
		c-0.093,1.619-1.077,3.515-2.836,3.565c-1.95,0.056-3.134-1.716-3.275-3.589C700.529,532.357,702.429,533.236,703.59,532.986z"/>
	<path fill-rule="evenodd" clip-rule="evenodd" fill="#E76977" d="M691.566,544.064c0.078,1.643-0.32,2.757-2.139,2.692
		c-1.869-0.065-2.473-1.097-2.52-2.886c-0.047-1.749,0.393-3.033,2.254-3.184C691.837,540.471,691.016,542.837,691.566,544.064z"/>
	<path fill-rule="evenodd" clip-rule="evenodd" fill="#5EABD6" d="M705.189,524.929c1.599-0.037,3.027,0.054,2.791,2.312
		c-0.164,1.564-0.256,3.16-2.459,2.515c-1.562-0.457-3.911-0.116-3.624-2.961C702.123,524.558,703.754,524.942,705.189,524.929z"/>
	<path fill-rule="evenodd" clip-rule="evenodd" fill="#FBFBFB" d="M676.116,239.974c-1.376,0.343-2.751,0.686-4.126,1.028
		c-0.224-2.965-0.446-5.93-0.669-8.895c0.484-0.017,0.969-0.032,1.453-0.048C673.889,234.697,675.002,237.336,676.116,239.974z"/>
	<path fill-rule="evenodd" clip-rule="evenodd" fill="#D3D1D1" d="M672.774,232.06c-0.484,0.016-0.969,0.031-1.453,0.048
		c-1.133-2.694-2.266-5.389-3.397-8.083c0.541-0.03,1.084-0.06,1.625-0.089C670.624,226.644,671.699,229.352,672.774,232.06z"/>
	<path fill-rule="evenodd" clip-rule="evenodd" fill="#5EABD6" d="M660.174,423.555c-0.275-1.352,0.273-2.438,1.117-3.488
		c1.252,1.15,0.566,2.455,0.372,3.699C661.167,423.69,660.67,423.622,660.174,423.555z"/>
	<path fill-rule="evenodd" clip-rule="evenodd" fill="#D3D1D1" d="M746.693,509.49c0.252,0.742,0.418,1.517-0.424,1.966
		c-0.729,0.39-1.064-0.196-1.345-0.753C745.514,510.299,746.104,509.895,746.693,509.49z"/>
	<path fill-rule="evenodd" clip-rule="evenodd" fill="#5EABD6" d="M576.483,318.008c10.483,0.001,20.967,0.078,31.448-0.052
		c2.808-0.034,3.847,0.537,4.25,3.712c1.916,15.098,4.216,30.148,6.515,45.194c0.398,2.606-0.514,3.3-2.851,3.135
		c-21.421-1.511-42.874-0.525-64.311-0.751c-2.273-0.024-3.23-1.028-3.527-3.234c-1.981-14.753-3.795-29.536-6.229-44.215
		c-0.697-4.207,1.105-3.818,3.756-3.808C555.85,318.035,566.167,318.008,576.483,318.008z M577.707,322.932
		c-8.658,0-17.328,0.268-25.97-0.107c-4.615-0.2-5.269,1.593-4.637,5.505c1.72,10.657,3.409,21.326,4.715,32.039
		c0.417,3.427,1.589,4.364,4.93,4.486c17.614,0.646,35.241-2.19,52.839,0.219c2.92,0.399,3.863-0.788,3.454-3.661
		c-1.687-11.839-3.37-23.681-4.817-35.551c-0.352-2.889-1.883-2.96-4.04-2.948C595.356,322.961,586.532,322.934,577.707,322.932z"/>
	<path fill-rule="evenodd" clip-rule="evenodd" fill="#D3D1D1" d="M531.935,367.155c2.707,5.959,5.316,11.566,8.452,16.912
		c5.483,9.348,11.079,18.644,18.689,26.342c11.708,11.843,25.67,19.946,42.375,22.566c6.163,0.967,12.3,2.191,18.667,1.326
		c3.105-0.422,4.272,2.438,4.578,4.927c0.315,2.56-1.299,3.703-3.997,3.871c-12.848,0.8-25.023-0.785-37.309-5.563
		c-14.897-5.795-25.129-16.116-32.892-29.076c-7.224-12.061-14.243-24.376-18.709-37.87
		C531.492,369.688,530.726,368.823,531.935,367.155z"/>
	<path fill-rule="evenodd" clip-rule="evenodd" fill="#0F0F10" d="M650.879,290.249c0.221,0.636,0.441,1.271,0.662,1.905
		c-2.23,3.685-4.411,7.594-8.104,9.858c-2.919,1.788-1.981,3.05-0.421,4.749c2.205,2.402,3.107-0.303,4.139-1.289
		c3.099-2.965,4.282-7.408,7.638-10.222l-0.006-0.006c-0.36,5.587-4.19,9.208-7.672,12.866c-1.646,1.729-1.94,2.868-1.095,5.093
		c4.67,12.279,7.473,24.93,8.222,38.136c0.311,5.479,2.691,10.84,0.714,16.439c-2.759-2.565-2.498-6.056-3.053-9.377
		c-2.324-13.914-3.607-28.09-8.708-41.381c-3.915-10.201-9.624-18.946-21.04-22.315c-7.45-2.197-15.093-1.468-22.65-2.037
		c7.3-3.339,14.763-0.328,22.142-0.472c8.155-0.157,14.499,3.559,18.513,11.094C644.401,299.16,647.551,294.63,650.879,290.249z"/>
	<path fill-rule="evenodd" clip-rule="evenodd" fill="#0F0F10" d="M525.608,288.526c0.117-1.007,0.292-2.306,1.566-2.059
		c8.329,1.615,16.901,0.256,25.188,2.166c0.405,0.093,0.703,0.649,1.05,0.989C544.032,292.106,534.814,290.462,525.608,288.526z"/>
	<path fill-rule="evenodd" clip-rule="evenodd" fill="#D3D1D1" d="M530.409,364.743c0.104,0.042,0.293,0.081,0.295,0.126
		c0.004,0.128-0.069,0.258-0.111,0.387c-0.104-0.042-0.294-0.081-0.296-0.126C530.292,365.002,530.366,364.872,530.409,364.743z"/>
	<path fill-rule="evenodd" clip-rule="evenodd" fill="#0F0F10" d="M667.924,224.024c1.132,2.694,2.265,5.389,3.397,8.083
		c0.223,2.965,0.445,5.93,0.669,8.895c-0.496,1.743-1.045,3.474-1.479,5.231c-2.551,10.351-9.876,14.783-19.955,15.822
		c-9.723,1.003-18.678-5.335-21.748-14.185c-1.465-4.225-0.568-8.577-0.8-12.868c1.778-7.005,5.362-12.747,11.637-16.592
		C649.334,212.476,659.758,214.552,667.924,224.024z M649.031,220.007c-8.813-0.038-16.297,8.2-16.341,17.991
		c-0.048,10.558,7.375,18.828,17.038,18.984c9.354,0.152,17.47-7.854,17.582-17.346
		C667.424,229.887,658.262,220.047,649.031,220.007z"/>
	<path fill-rule="evenodd" clip-rule="evenodd" fill="#0F0F10" d="M723.221,594.839c0.066,5.146-4.226,11.035-8.107,11.125
		c-4.11,0.095-7.718-4.563-7.699-9.941c0.018-4.953,3.529-9.528,7.444-9.697C719.412,586.128,723.158,589.941,723.221,594.839z
		 M720.361,595.686c-0.039-2.683-1.49-5.083-4.215-5.044c-3.032,0.044-5.752,1.832-5.775,5.51c-0.021,3.071,1.73,5.349,4.77,5.316
		C718.328,601.435,720.133,599.176,720.361,595.686z"/>
	<path fill-rule="evenodd" clip-rule="evenodd" fill="#0F0F10" d="M611.081,553.091c0.02-4.188,3.113-7.952,6.604-8.037
		c3.464-0.084,7.226,3.746,7.332,7.468c0.12,4.18-3.712,8.011-7.912,7.908C614.109,560.356,611.064,556.648,611.081,553.091z
		 M617.857,557.166c2.984-0.084,4.495-1.396,4.462-3.967c-0.037-2.882-1.754-4.727-4.551-4.892
		c-2.489-0.147-4.014,1.532-3.985,4.028C613.816,555.144,615.274,556.946,617.857,557.166z"/>
	<path fill-rule="evenodd" clip-rule="evenodd" fill="#0F0F10" d="M498.978,438.499c5.428,4.563,11.087,2.575,16.746,0.591
		c0.174,1.442-0.709,2.328-1.67,3.173c-3.706,0.768-7.467,1.516-11.194,0.581c-2.223-0.558-5.151-0.823-4.884-4.375
		C498.309,438.479,498.644,438.488,498.978,438.499z"/>
	<path fill-rule="evenodd" clip-rule="evenodd" fill="#D3D1D1" d="M654.792,295.251c-3.355,2.813-4.539,7.257-7.638,10.222
		c-1.031,0.986-1.934,3.691-4.139,1.289c-1.561-1.699-2.498-2.961,0.421-4.749c3.693-2.265,5.874-6.174,8.104-9.858
		C653.88,291.869,655.1,292.759,654.792,295.251z"/>
	<path fill-rule="evenodd" clip-rule="evenodd" fill="#FBFBFB" d="M577.707,322.933c8.825,0.001,17.649,0.028,26.474-0.02
		c2.157-0.012,3.688,0.06,4.04,2.948c1.447,11.87,3.13,23.712,4.817,35.551c0.409,2.873-0.534,4.061-3.454,3.661
		c-17.598-2.409-35.225,0.427-52.839-0.219c-3.34-0.122-4.512-1.06-4.93-4.486c-1.306-10.713-2.995-21.382-4.715-32.039
		c-0.631-3.912,0.022-5.705,4.637-5.505C560.379,323.199,569.049,322.932,577.707,322.933z M591.02,352.899
		c-4.215-4.991-9.189-9.62-3.84-16.465c1.149-1.471-0.186-1.728-1.484-2.055c-5.181-1.306-5.552,3.221-7.478,6.568
		c-0.292-1.395-0.544-2.187-0.613-2.995c-0.246-2.886-2.014-3.383-4.498-3.137c-3.144,0.312-2.004,2.556-1.825,4.117
		c0.453,3.95,1.266,7.858,1.715,11.809c0.237,2.089,1.201,2.729,3.181,2.94c5.693,0.607,1.804-4.223,3.457-6.351
		C582.153,351.632,584.671,355.467,591.02,352.899z M567.151,353.869c1.144-0.519,3.848,0.42,3.62-2.872
		c-0.177-2.547-0.676-4.375-4.134-3.688c-2.156,0.429-3.761-1.14-3.861-3.559c-0.1-2.414,1.373-3.377,3.511-2.938
		c3.136,0.644,2.831-1.236,2.522-3.128c-0.604-3.708-3.466-3.607-6.12-3.239c-4.638,0.643-7.121,4.317-6.688,9.446
		C556.462,349.336,561.215,353.809,567.151,353.869z M602.482,341.446c-1.042-6.946-3.859-8.788-8.984-6.251
		c-4.212,2.086-5.631,7.137-3.39,12.072c2.153,4.742,8.392,7.861,12.241,6.275c2.262-0.931,1.499-2.663,1.398-4.21
		c-0.089-1.385-0.354-2.8-2.381-2.021c-2.252,0.865-3.926-0.052-5.061-1.917c-0.713-1.173-0.801-2.646,0.177-3.743
		C598.166,339.765,600.167,341.184,602.482,341.446z"/>
	<path fill-rule="evenodd" clip-rule="evenodd" fill="#E76977" d="M649.031,220.007c9.23,0.04,18.393,9.88,18.278,19.63
		c-0.112,9.491-8.228,17.498-17.582,17.346c-9.663-0.156-17.086-8.427-17.038-18.984
		C632.734,228.207,640.218,219.969,649.031,220.007z"/>
	<path fill-rule="evenodd" clip-rule="evenodd" fill="#E76977" d="M720.361,595.686c-0.229,3.49-2.033,5.749-5.221,5.782
		c-3.039,0.032-4.79-2.245-4.77-5.316c0.023-3.678,2.743-5.466,5.775-5.51C718.871,590.603,720.322,593.003,720.361,595.686z"/>
	<path fill-rule="evenodd" clip-rule="evenodd" fill="#E76977" d="M617.857,557.166c-2.583-0.22-4.041-2.022-4.074-4.83
		c-0.029-2.496,1.497-4.176,3.985-4.028c2.796,0.165,4.514,2.01,4.551,4.892C622.353,555.77,620.841,557.082,617.857,557.166z"/>
	<path fill-rule="evenodd" clip-rule="evenodd" fill="#E76977" d="M591.02,352.899c-6.349,2.567-8.867-1.268-11.385-5.567
		c-1.652,2.128,2.237,6.958-3.457,6.351c-1.98-0.212-2.944-0.852-3.181-2.94c-0.449-3.95-1.262-7.858-1.715-11.809
		c-0.179-1.562-1.318-3.806,1.825-4.117c2.484-0.246,4.252,0.251,4.498,3.137c0.069,0.809,0.321,1.601,0.613,2.995
		c1.925-3.348,2.296-7.874,7.478-6.568c1.299,0.327,2.634,0.584,1.484,2.055C581.831,343.279,586.805,347.908,591.02,352.899z"/>
	<path fill-rule="evenodd" clip-rule="evenodd" fill="#E76977" d="M567.151,353.869c-5.937-0.061-10.689-4.533-11.15-9.979
		c-0.434-5.129,2.049-8.804,6.688-9.446c2.654-0.368,5.516-0.469,6.12,3.239c0.308,1.892,0.613,3.771-2.522,3.128
		c-2.138-0.438-3.61,0.524-3.511,2.938c0.1,2.419,1.706,3.987,3.861,3.559c3.458-0.687,3.957,1.142,4.134,3.688
		C571,354.289,568.295,353.351,567.151,353.869z"/>
	<path fill-rule="evenodd" clip-rule="evenodd" fill="#E76977" d="M602.482,341.446c-2.315-0.263-4.316-1.682-5.999,0.205
		c-0.979,1.098-0.891,2.57-0.177,3.743c1.135,1.865,2.809,2.782,5.061,1.917c2.027-0.778,2.292,0.637,2.381,2.021
		c0.1,1.547,0.863,3.279-1.398,4.21c-3.849,1.586-10.088-1.533-12.241-6.275c-2.241-4.936-0.823-9.986,3.39-12.072
		C598.623,332.658,601.441,334.5,602.482,341.446z"/>
</g>
</svg>
