<svg enable-background="new 0 0 1280 800" height="800" viewBox="0 0 1280 800" width="1280" xmlns="http://www.w3.org/2000/svg"><g clip-rule="evenodd" fill-rule="evenodd"><path d="m755.021 636.845c-3.62 1.973-7.777 1.416-11.496 1.507-12.478.305-24.053-2.562-32.87-12.523-10.86-12.269-16.309-25.946-12.13-42.483-11.248-3.137-23.143-3.248-34.758-5.224-3.463-.59-6.111-1.678-7.514-4.825-1.254-2.812-3.365-3.313-6.08-3.181-12.549.607-24.875-1.302-37.215-3.236-3.913-.614-7.305-3.234-12.472-2.74 6.08 3.483 11.377 6.561 16.715 9.565 8.111 4.564 16.27 9.045 24.37 13.627 5.063 2.863 6.504 8.064 7.16 13.117 2.384 18.376.307 35.925-8.605 52.743-6.127 11.563-13.543 21.088-25.401 27.052-4.042 2.032-8.282 2.823-12.016 1.427-12.564-4.698-24.654-10.507-30.559-23.763-6.112-13.721-8.228-27.7-.736-41.691 1.123-2.097.54-2.956-1.252-3.812-9.223-4.401-17.226-10.68-25.425-16.644-2.332-1.696-5.377-2.853-5.364-6.625.006-1.776-1.97-1.49-3.044-1.917-12.423-4.925-24.229-10.73-34.482-19.64-9.837-8.547-12.445-18.525-9.336-30.928 4.795-19.129 12.335-37.148 20.787-54.859 3.638-7.625 6.505-15.625 11.052-22.805.634-1.001.286-1.861.138-2.836-2.849-18.793-.695-37.496 1.032-56.209 1.453-15.735 3.655-31.353 7.799-46.624.795-2.931-1.083-3.228-2.725-4.277-26.579-16.988-46.582-39.023-53.909-70.688-2.623-11.334-2.181-22.823-1.468-34.312.11-1.781.575-3.432-1.25-4.933-1.798-1.479-1.017-3.699-.365-5.585 2.87-8.303 5.761-16.599 8.738-24.863.624-1.731 1.345-3.239.553-5.197-6.404-15.834-1.265-30.445 5.233-44.718 4.767-10.469 12.09-18.992 21.32-25.994 8.929-6.774 20.164-3.54 23.633 7.163 2.763 8.523 1.143 16.772-1.681 24.899-.662 1.906-.919 3.059 1.333 4.166 2.123 1.043 3.185 3.161 3.471 5.71 1.229 10.967-1.15 20.731-10.357 27.503-4.615 3.395-5.422 7.612-6.032 12.718-1.634 13.667 1.408 26.438 6.73 38.773 3.82 8.853 10.236 15.327 19.198 19.321 6.125 2.73 12.201 5.192 19.064 5.162 3.663-.016 7.23-.271 11.343-1.837-5.645-5.942-10.228-12.293-14.159-19.229-5.124-9.038-7.764-18.545-9.199-28.753-2.336-16.616-.188-32.587 6.371-47.768 9.396-21.749 24.507-38.15 46.376-48.388 15.784-7.39 32.054-12.297 49.309-9.923 19.291 2.653 36.922 10.041 52.666 22.129 18.926 14.531 31.313 32.984 36.091 56.237 3.972 19.323 3.93 38.628-3.25 57.424-.409 1.072-.729 2.178-1.229 3.688 6.947.622 13.63 1.229 20.065 3.366 6.335 2.104 10.433 5.878 12.054 12.63 2.631 10.948 2.012 21.81-.235 32.625-.567 2.73-.421 4.556 1.395 6.684 11.61 13.613 21.351 28.425 28.367 44.955.642 1.512.825 3.573 3.473 3.472 1.805-.07 2.136 1.872 2.728 3.19 2.759 6.142 4.297 12.689 4.646 19.311.828 15.636 1.132 31.305-2.756 46.683-1.904 7.533-5.482 14.229-10.361 20.267-6.422 7.947-18.265 8.12-25.259.535-4.952-5.369-6.438-12.165-8.391-18.797-.263-.891.251-1.977-.881-2.626-7.722-4.429-6.093-11.287-4.34-17.908 1.322-4.996 3.86-9.566 6.716-13.868 1.414-2.128 1.873-3.994.941-6.472-1.746-4.648-3.099-9.444-4.788-14.116-.472-1.303-1.254-2.533-.057-3.625 2.837-2.587-.381-3.684-1.465-4.289-1.714-.959-2.243 1.132-2.703 2.367-3.834 10.297-7.586 20.624-11.401 30.928-5.991 16.175-14.305 30.868-26.47 43.353-8.669 8.896-18.807 9.861-29.792 6.523-3.997-1.215-6.597-1.79-8.635 2.788-1.1 2.469-3.227 4.79-5.454 6.396-14.924 10.763-19.374 27.091-23.706 43.569-1.051 3.997 2.893 5.625 3.832 8.756.443 1.48 3.84.264 6.08-.891 1.994-1.027 4.873-.57 7.339-.413 25.426 1.622 50.323 6.549 75.015 12.509 6.568 1.586 12.988 4.14 19.142 6.975 4.923 2.267 6.427 7.565 7.532 12.383 4.617 20.111 3.959 40.367-.197 60.386-1.711 8.243-3.603 16.873-9.695 23.517-1.887 2.057-3.133 5.243-6.926 4.053 3.443-3.897 6.287-8.028 8.365-12.964 5.808-13.797 6.101-28.468 7.557-42.935.982-9.764.626-19.602-2.046-29.167-.479-1.714-.46-4.107-3.386-4.574-.109 1.192-.552 2.391-.262 3.372 3.211 10.85 2.99 21.967 1.74 32.938-1.74 15.28-3.042 30.786-11.084 44.576-1.223 2.098-1.9 4.531-2.684 6.858-.393 1.173.238 1.675 1.884 1.779zm-138.209-420.798c-2.48-2.079-4.96-4.157-7.441-6.236-.832-1.036-1.665-2.071-2.497-3.107-6.628-12.808-6.916-25.741-.655-38.747 1.468-3.05.129-4.195-2.662-4.621-3.76-.572-7.313.68-10.677 1.877-15.727 5.598-30.146 12.756-34.85 30.932-1.691 6.533-2.122 13.137-2.024 19.794.238 16.111 3.807 31.223 13.86 44.282l-.108-.178c.404.523.807 1.047 1.211 1.57 1.245 1.744 2.432 3.532 3.742 5.227 12.964 16.763 34.562 28.939 58.291 17.838 8.426-2.946 15.343-8.403 22.372-13.619 7.798-5.785 12.416-13.505 14.045-23.2 1.747-10.401-4.11-19.656-14.524-21.919-12.67-2.753-25.643-4.243-37.793-9.143 0 0 .097.092.097.092-.028-.328-.156-.609-.387-.842zm178.152 235.929c2.311-1.865 4.157-4.071 5.091-6.946.387-.508.847-.976 1.146-1.53 7.781-14.391 7.002-30.094 7.012-45.683.002-2.359-1.518-1.871-3.02-1.991-8.874-.712-17.396 1.878-26.093 2.778-3.6.373-7.512.795-9.673 4.9-2.705 5.139-5.881 10.068-7.047 15.831-.732 3.62-1.24 7.431 2.104 10.461 1.859-4.029 1.158-8.964 5.352-11.923 1.59 5.628-1.834 10.759-.406 16.04.69 6.772 2.183 13.182 8.324 18.663.033-4.239 1.881-7.233 1.074-10.618.913-1.531-1.346-4.635 1.567-4.813 3.51-.215.905 3.017 1.69 4.508.346.658.145 1.604.193 2.42-2.501 2.658-.473 6.754-2.965 9.446-.125.135.218.893.513 1.194 3.458 3.535 9.3 2.076 11.071-2.741 1.587-2.426 2.01-5.201 2.438-7.984.145-.94.156-2.126 1.451-2.284 1.646-.2 1.658 1.254 2.074 2.269-.664 2.685-1.328 5.37-1.975 8.043l-.001.135zm-279.982-292.891c2.422 1.849 3.588.062 4.563-1.709 3.993-7.25 4.404-15.048 3.265-23.031-.152-1.064-1.097-1-1.941-.68-3.594-.894-4.886.285-5.118 4.191-.433 7.306-2.245 14.378-6.275 20.943 1.917.1 3.712.193 5.506.286zm77.018 397.915c-7.82-7.977-12.948-17.552-16.937-27.888-2.597-6.729-2.806-6.648-8.147-1.928-4.918 4.348-4.942 10.575.083 14.66 7.472 6.072 15.387 11.521 23.733 16.33.969 1.014 1.917 2.067 3.699 2.039.09-1.958-1.068-2.663-2.431-3.213zm139.057-271.208c8.498 4.716 17.298 8.941 24.76 15.33 3.492 2.973 6.984 5.945 10.676 9.087.595-1.229 1.113-1.919 1.271-2.684 2.125-10.319 1.29-20.569-1.441-30.61-1.27-4.67-4.424-7.963-10.145-8.157.803 5.068 1.728 9.778 2.23 14.533.283 2.672 1.295 5.691-1.45 7.896-3.228-3.912-1.714-8.837-2.69-13.239-2.664-11.993-2.652-12.268-15.281-11.991-1.106-.485-1.96-.061-2.553.851-3.641 5.596-7.18 11.26-11.808 16.396 2.479.996 4.455 1.792 6.431 2.588zm-163.618-110.337c.439-.228.938-.384 1.309-.692 8.801-7.302 18.419-13.033 29.733-15.504 1.286-.281 2.078-1.119 2.484-2.217 3.395-9.165 8.092-17.563 14.353-25.263-21.84 7.919-39.022 21.118-48.952 42.717-.301.574-.549 1.193.083 1.649.109.079.65-.445.99-.69zm-61.511-34.504c-6.417 4.604-10.278 11.311-13.878 17.981-5.337 9.889-8.919 20.653-7.833 31.947 1.133 11.781 6.678 17.596 19.002 16.121 1.631-.195 3.214-.9 4.843-1 16.762-1.03 23.17-13.022 24.773-25.675.365-2.881 1.099-6.979-2.926-8.103-3.925-1.096-5.799 2.315-7.633 5.114-.178.271-.254.612-.361.927-.936 2.743-2.223 4.315-4.494 1.068-1.145-1.637-2.643-1.798-4.362-1.612-7.403-1.654-13 1.728-18.1 6.492-1.224-.515-4.89.347-1.515-2.746 1.567-1.437 3.042-2.975 4.558-4.466 3.33-1.346 6.661-2.69 9.991-4.036 1.671-.003 3.343-.006 5.015-.009 6.079 4.141 8.317-1.27 11.738-4.744-1.924-1.273-3.545-2.906-5.489-3.522-4.598-1.458-8.867-5.23-14.221-2.552-1.008-.058-2.017-.114-3.025-.171-.055-.335-.109-.669-.164-1.003.112-.279.181-.568.207-.867 3.3-.598 5.019-2.126 6.057-5.786 1.648-5.813 4.378-11.301 3.762-18.216-2.352 1.715-4.586 2.692-5.945 4.858zm235.545 267.4c4.106-10.37 7.998-20.832 12.398-31.076 2.666-6.205 2.5-8.188-3.083-12.125-10.726-7.563-23.142-9.74-35.781-11.195-2.869-2.154-4.913-.492-6.858 1.507-10.438 10.729-17.225 23.416-20.174 38.093-2.813 14.005-.567 28.129-.767 42.196-.081 5.74 3.625 8.482 9.265 6.922 2.865-.793 5.661-1.912 7.603-4.399 4.521-2.896 8.434-6.382 10.942-11.236 2.883-.289 2.003.981 1.212 2.581-3.004 6.076-7.389 11.06-12.775 14.953-3.616 2.613-8.034 3.854-12.659 3.868-1.33.004-3.361-1.691-3.844.184-.589 2.293 1.498 3.264 3.657 3.761 11.46 2.641 21.479-.063 29.652-8.458 9.868-10.139 15.942-22.643 21.212-35.576zm-175.331 136.568c-3.925-4.28-10.07-6.079-13.312-11.349 2.668-1.521 5.229 3.327 6.412.35.849-2.136-2.163-4.475-4.835-5.444-.401-.852-1.254-1.708-.327-2.647.86-.871 1.836-.331 2.734.061 1.425.621 2.596 3.067 4.167 1.84 3.353-2.62 6.611-5.516 9.258-8.819 1.354-1.689 1.484-4.487.76-6.909-.247-8.764-.581-17.526-.687-26.292-.03-2.537-.764-3.717-3.401-3.552-4.651.292-8.538-2.393-12.85-3.447-1.445-.354-1.698-1.378-.94-2.642 6.287.429 12.413 2.217 18.768 2.149 2.014-.021 2.851 1.322 2.82 3.328-.092 5.986.094 11.984-.217 17.957-.519 9.923.601 19.595 3.857 28.968 3.393 9.768 5.259 10.497 14.267 6.104 6.7-3.268 7.572-3.423 11.095 3.011 3.968 7.246 9.685 9.92 17.647 10.607 15.042 1.298 12.38.06 12.698 13.8.05 2.178.505 3.78 2.774 3.865 3.623.136 7.124 1.261 10.878.595 3.943-.7 5.852-2.23 5.588-6.509-.776-12.563.715-24.86 5.304-36.523-4.574-1.488-10.146 1.893-13.85-3.483 2.436-1.768 5.21-.076 7.419-1.739-2.587-3.787-6.191-4.491-10.139-4.454-1.453.014-3.425.401-3.585-1.629-.16-2.033 1.945-2.401 3.259-2.072 6.308 1.583 7.572-2.576 8.619-7.166.369-1.615.844-3.206 1.271-4.808 4.946-13.044 9.729-26.19 21.604-34.952 3.266-1.71 5.167-4.582 6.632-7.816 4.078-9.004 3.802-18.544 2.797-27.97-2.518-23.612 1.376-45.672 14.608-65.727 1.716-2.6 3.875-4.963 4.605-8.158-2.733-1.41-6.067 1.426-8.525-1.321.924-3.561 4.033-3.81 6.742-3.927 6.926-.301 13.805-.628 20.775.737 17.096 3.348 33.071 8.884 45.396 21.82 2.944 3.091 5.272 4.318 8.815 1.598 6.422-1.686 12.83-3.424 19.271-5.031 2.924-.73 3.063-2.364 2.235-4.857-2.111-6.364-5.539-12.076-8.817-17.833-3.818-6.705-3.998-6.603-10.313-2.217-5.839 4.055-7.515 3.812-12.184-1.477-7.149-8.097-14.255-16.237-21.608-24.144-1.908-2.05-2.098-3.4-.381-5.467 2.537-3.053 5.426-5.685 8.953-7.755-7.907-7.22-17.006-11.718-26.515-15.176-11.937-4.34-24.142-7.198-37.022-3.663-8.805 2.416-13.707 7.9-15.786 16.677-1.325 5.594.348 10.879.481 16.307-4.492-.988-3.215-5.575-5.223-8.771-.37 2.294-.786 4.04-.902 5.806-.148 2.257-1.365 2.739-3.294 2.382-2.106-5.838 1.294-11.131 2.009-17.145-7.298 2.112-14.341 2.302-21.461 2.14-9.313-.211-18.295-2.898-27.56-3.35-8.021-1.045-15.804-2.958-23.575-7.071.286 2.299.555 3.864.658 5.441.124 1.917-1.107.986-1.946.834-1.294-3.228-2.337-6.587-3.947-9.647-1.979-3.763-4.794-8.359-9.172-7.535-4.94.929-9.727 1.188-14.671 1.31-17.902.438-37.843-11.504-43.669-30.212-1.576-5.063-3.345-10.06-4.655-15.209-.488-1.916-1.087-3.763-3.991-3.226-8.643 1.598-17.328 2.965-25.997 4.422-2.908.016-6.793-.782-6.845 3.536-.154 12.681-1.555 25.488 3.095 37.834 1.122 2.979 2.524 3.03 4.798 1.712 6.25-1.481 8.636 1.678 10.333 7.334 2.642 8.802 6.715 17.101 14.356 22.811 3.986 2.979 3.975 5.662.697 8.95-.813.815-1.428 1.827-2.135 2.749-2.518 1.415-1.524 2.614.061 4.111 5.156 4.871 10.187 9.806 16.272 13.642 8.223 5.185 8.088 5.401 11.429-3.313.291-.758.558-1.525.836-2.288 3.02-6.104 6.013-12.221 9.082-18.301.694-1.374 1.466-2.761.875-4.252-1.539-3.881-.148-7.065 1.914-10.197 1.666.87.955 2.725 1.852 3.949 4.087-2.858 4.828-8.897 10.684-10.535-.336 4.406-2.308 7.469-4.295 10.434-6.326 9.439-11.206 19.648-14.867 30.305-8.396 24.436-13.591 49.633-15.908 75.363-1.265 14.052-2.416 28.158-.063 42.24-.472 1.859.501 3.555.614 5.316.303 4.77 3.932 8.717 3.245 13.688-5.065-.043-4.284-5.271-6.877-8.078-3.361 7.433-6.625 14.503-9.763 21.63-3.21 7.291-6.403 14.594-9.392 21.977-1.557 3.847-2.729 7.855-3.934 11.833-.781 2.578-.963 4.285 2.924 5 8.88 1.633 9.614 3.361 7.421 12.435-2.408 9.962-.34 15.799 8.297 21.35 3.752 2.41 4.151 4.735 1.625 8.074-.901 1.192-1.611 2.527-2.488 3.738-.777 1.073-1.166 1.921.269 2.849 5.871 3.795 11.854 7.37 18.371 9.97 1.612.643 2.307-.081 2.974-1.553 5.504-12.141 14.411-21.421 24.856-29.415 3.974-3.047 3.884-4.664-.132-7.866zm132.155-285.041c.953-5.043 1.488-10.187 4.108-14.783 4.302-7.547 10.81-11.566 19.409-12.095 8.217-.504 13.4 3.868 16.807 10.902.105.215.553.264 1.164.532 1.861-6.482 2.096-13.151 1.803-19.618-.486-10.783-2.201-21.476-5.676-31.806-5.968-17.74-15.574-33.009-30.241-44.857-4.347-3.512-8.919-5.552-14.603-2.564-11.189 5.881-20.996 13.23-28.58 23.578-2.295 3.13-1.579 4.912.744 6.563 7.806 5.551 13.15 13.089 17.645 21.305 7.05 12.888 10.877 26.686 11.057 41.424.074 6.014-1.726 11.731-2.945 17.539-.406.712-.883 1.394-1.211 2.142-6.389 14.578-16.76 25.246-30.871 32.654-5.92 3.107-12.494 3.553-18.537 6.084 5.195.313 10.373.653 15.486.233 7.705-.633 15.535-1.058 20.371-8.896 2.002-3.244 5.668-4.903 9.293-6.432 6.307-2.66 12.914-2.696 20.16-2.899-5.32-5.663-4.691-12.501-5.383-19.006zm-103.234 336.847c2.604-.561 5.214-.997 7.899-.731 1.261.125 3.177-.353 3.131 1.456-.042 1.695-1.99 1.337-3.251 1.469-15.587 1.628-29.442 15.388-31.458 29.362-2.395 16.601 4.267 30.91 17.015 42.023 2.902 2.53 6.574 4.907 10.371 3.644 4.643-1.544 9.301-3.434 13.237-6.719 21.271-17.754 26.757-41.449 25.646-67.644-.265-6.233-2.264-11.258-8.377-14.536-18.291-9.811-36.407-19.95-54.459-30.194-2.366-1.343-3.988-.953-5.853.16-11.734 7.004-19.809 17.058-24.615 29.789-1.343 3.558-.601 6.471 2.744 8.62 6.565 4.22 13.083 8.512 19.621 12.773.87.743 1.708 1.529 2.616 2.221 3.297 2.511 5.81 3.169 8.881-1.091 4.03-5.592 9.799-9.348 16.852-10.602zm119.953-30.675c-.441 1.89-1.734 3.088-3.188 4.274-2.599 2.123-4.854 4.614-6.146 7.762-10.16 24.734-2.563 47.769 24.977 55.998 13.303 3.976 19.259 1.141 24.088-11.123 3.895-9.894 7.098-20.04 8.105-30.702 1.376-14.554 2.564-28.997-.475-43.658-1.833-8.839-7.627-11.507-14.697-13.351-6.227-1.625-12.726-2.237-18.916-3.969-19.633-5.493-39.747-7.442-59.962-8.953-3.352-.25-4.727 1.103-5.981 3.787-3.669 7.851-4.607 16.297-5.432 24.721-.662 6.761-1.24 13.634 1.846 20.104.986 3.087 3.586 3.583 6.292 3.959 9.872 1.372 19.899 1.676 29.612 4.12 2.918.734 4.803-.442 6.248-2.675 3.302-5.1 7.677-8.727 13.629-10.294zm-100.417-406.984c11.076 1.393 25.185 2.79 37.86 9.787 2.685 1.481 3.551.447 4.484-1.521 2.418-5.101 6.439-8.852 10.488-12.571 5.768-5.297 11.814-10.255 18.279-14.688 1.055-.724 2.624-1.144 2.299-2.853-.274-1.441-1.771-1.306-2.803-1.71-5.414-2.119-10.789-4.353-16.27-6.282-10.841-3.816-22.049-5.741-33.34-3.023-14.014 3.372-22.518 13.313-28.423 25.916-3.278 7-3.389 6.948 7.426 6.945zm88.295 103.571c.204 6.23 1.095 11.114 6.292 14.101 4.984 2.865 9.877 3.016 14.324-.709 7.635-6.395 12.135-14.665 11.676-24.691-.23-5.028-2.092-10.174-7.686-12.386-5.773-2.283-11.025-1.275-15.77 2.66-6.904 5.725-7.846 13.82-8.836 21.025zm-99.724 414.996c6.425 1.193 10.782.151 16.173-4.888 20.914-19.55 29.315-43.677 25.526-72.021-.241-1.799-.721-3.816-3.17-6.005 1.178 17.038-.128 32.789-5.932 47.905-6.04 15.73-16.684 27.246-32.597 35.009zm-123.086-442.657c6.769-1.188 12.958-2.315 19.163-3.352 4.416-.737 8.849-1.377 13.282-2.011 1.342-.191 2.139-.864 2.304-2.186.261-2.094-1.456-1.173-2.361-1.515-3.616-1.364-7.178-.303-10.758.188-6.728.922-13.443 1.964-20.193 2.682-3.144.334-3.072 2.717-3.382 4.646-.242 1.505 1.332 1.565 1.945 1.548zm12.705-16.817c-2.808-.06-5.691-.41-8.285.952-1.888.992-3.242 2.788-2.516 4.856.628 1.792 2.578.63 3.917.526 8.083-.624 16.019-2.556 24.158-2.746.942-.022 2.106-.238 2.754-.822.98-.882 3.36-.785 2.696-2.921-.522-1.681-2.247-.964-3.447-1.045-6.469-.437-12.842.935-19.277 1.2zm276.324 169.04c3.162 1.426 6.311 1.311 9.301.542 8.389-2.155 17.008-2.587 25.523-3.779 1.257-.176 3.306.654 2.641-2.078-.435-1.78-.463-3.555-3.23-3.323-11.883.998-23.133 4.424-34.235 8.638zm35.375-14.438c-.137-2.211-1.123-3.297-4.112-2.799-10.421 1.735-20.279 5.231-30.06 9.026-1.355.525-4.029.096-3.232 2.648.668 2.137 2.688.437 3.785.176 10.648-2.53 20.945-6.667 32.102-6.853 1.141-.019 1.963-.408 1.517-2.198zm-28.23 22.328c9.609-1.221 18.979-2.396 28.342-3.619 1.246-.163 3.314.979 3.271-1.657-.042-2.624-1.774-2.093-3.525-1.907-9.398.999-18.854 1.598-28.025 4.094-1.872.509-5.418-.244-4.893 2.64.488 2.686 3.361-.947 4.83.449zm-290.476-180.048c9.118-.724 17.862-1.377 26.594-2.157 1.283-.115 3.304.338 3.295-2.013-.011-2.885-2.336-1.888-3.667-1.819-7.269.371-14.524 1.231-21.792 1.325-3.277.043-4.488 1.044-4.43 4.664zm20.195 335.662c-4.528.756-8.968.066-10.46 2.413-1.382 2.174 1.794 5.252 3.833 7.473 2.907 3.167 5.164-.153 7.533-.92 1.786-.578 4.858-1.219 4.023-3.963-.81-2.659-2.021-6.042-4.929-5.003zm1.419-8.008c1.295-3.543-.56-3.734-3.413-3.265-1.936.319-3.951.176-5.931.199-4.417.053-3.833 3.509-3.738 6.069.106 2.864 2.285 3.044 4.675 2.438 1.097-.278 2.3-.206 3.453-.178 3.575.087 5.909-.987 4.954-5.263zm273.536-208.07c-2.291-2.456-2.889-5.932-5.914-7.325-.963-.444-9.24 7.018-8.975 7.971.955 3.427 4.397 4.588 6.855 4.469 3.02-.146 5.821-2.522 8.034-5.115zm-149.861 225.228c-.005-5.617-1.652-7.54-7.038-6.665-4.736.769-4.456 6.271-4.529 9.153-.083 3.248 4.725 2.269 7.476 2.634 4.487.596 3.811-2.949 4.091-5.122zm-102.839-421.574c-2.375 7.628-1.79 15.145-5.766 21.638-1.478 2.412 2.638 2.431 3.988 3.778 1.485 1.483 1.921-.514 2.188-1.361 2.416-7.687 4.008-15.405-.41-24.055zm89.515 414.457c.012-1.468-1.87-.961-2.906-1.234-1.813-.479-3.83-2.778-5.602.154-1.023 1.694-1.864 3.575-3.193 4.991-3.562 3.793-1.09 4.947 2.316 5.171 2.186.144 4.945 2.543 6.382.38 1.652-2.484 1.945-5.873 3.003-9.462zm-97.852 11.198c-1.055-2.469-3.68-3.028-5.554-4.384-.704-.51-8.597 5.71-8.224 6.335 1.668 2.795 4.16 5.051 7.389 5.058 4.111.007 4.466-4.209 6.389-7.009zm73.067-11.519c7.224 7.371 7.57 7.334 12.381-1.033.33-.574.698-1.126 1.019-1.704 1.188-2.137-1.046-2.853-1.841-4.074-.944-1.452-1.945-.259-2.855.417-2.879 2.136-5.778 4.248-8.704 6.394zm7.992-10.914c.193-2.774-3.176-5.134-5.422-4.043-2.226 1.081-4.253 2.573-6.481 3.649-2.074 1.002-2.32 2.383-.878 3.831 1.246 1.252 1.135 4.823 3.748 3.572 3.495-1.673 6.629-4.206 9.033-7.009zm167.249-222.359c-.381.187-.701.287-.955.476-2.116 1.572-4.164 3.244-6.343 4.721-2.004 1.358-2.504 2.717-1.038 4.882 1.483 2.189 2.953 1.842 5.011.918 2.328-1.045 3.999-2.871 6.007-4.281.823-.579 2.377-1.264 1.382-2.656-1.113-1.558-2.181-3.284-4.064-4.06zm-265.935 216.872c6.431-.018 7.826-.826 6.873-4.488-.97-3.726-4.746-2.825-7.343-3.448-4.634-1.112-5.114 2.938-5.484 5.798-.502 3.889 2.94 1.415 4.483 2.11.412.184.976.027 1.471.028zm259.095-223.056c-1.901 1.534-4.033 3.37-6.291 5.037-1.532 1.131-2.422 1.922-.748 3.856 1.469 1.699 2.404 2.397 4.301.622 1.688-1.578 3.747-2.752 5.555-4.214.83-.672 2.176-1.399 1.146-2.805-.859-1.17-1.695-2.518-3.963-2.496zm-10.468 4.064c2.175-.838 3.953-2.613 5.766-4.274 1.109-1.017 3.882-1.602 1.346-4.034-1.814-1.74-3.322-2.451-5.292-.17-1.063 1.231-2.542 2.123-3.897 3.078-.93.655-2.355 1.067-1.544 2.559.705 1.3 1.742 2.428 3.621 2.841zm-245.318 6.35c1.074-4.346 7.184-5.705 2.407-10.46-2.641-2.629-3.72-.317-5.051.976-4.478 4.351 1.73 5.355 2.644 9.484zm-16.137-38.2c-.594 2.359-4.999-.886-4.714 2.82.13 1.696.198 5.331 3.472 4.938 1.915-.23 5.309.12 5.369-2.81.035-1.699-.148-4.937-4.127-4.948zm8.454 28.18c6.208-5.028 5.991-4.875 3.543-8.333-2.607-3.684-4.792-.42-5.889.702-3.364 3.442 1.991 4.396 2.346 7.631zm-.043-14.298c-1.385-1.404-.646-4.708-3.647-3.994-1.966.468-5.381.027-5.325 2.853.034 1.7 1.192 5.007 4.04 4.754 1.864-.167 4.073-1.264 4.932-3.613zm96.405 261.206c1.516 1.577 2.633 2.435 4.381 1.544-1.207-.619-2.021-2.046-4.381-1.544z" fill="#0e0e0e"/><path d="m651.596 498.067c-.428 1.602-.902 3.192-1.271 4.808-1.047 4.59-2.312 8.749-8.619 7.166-1.313-.329-3.418.039-3.259 2.072.16 2.03 2.132 1.643 3.585 1.629 3.947-.037 7.552.667 10.139 4.454-2.209 1.663-4.983-.028-7.419 1.739 3.703 5.376 9.275 1.995 13.85 3.483-4.589 11.663-6.08 23.96-5.304 36.523.264 4.278-1.645 5.809-5.588 6.509-3.755.666-7.256-.459-10.878-.595-2.269-.085-2.724-1.688-2.774-3.865-.318-13.74 2.344-12.502-12.698-13.8-7.963-.688-13.68-3.361-17.647-10.607-3.522-6.434-4.395-6.278-11.095-3.011-9.007 4.394-10.874 3.664-14.267-6.104-3.256-9.373-4.375-19.045-3.857-28.968.312-5.973.125-11.971.217-17.957.031-2.006-.806-3.35-2.82-3.328-6.355.067-12.481-1.721-18.768-2.149-9.022-3.85-16.05-9.968-20.437-18.766-1.085-2.176-1.989-3.628-4.553-3.335-2.353-14.082-1.202-28.188.063-42.24 2.317-25.73 7.511-50.928 15.908-75.363 3.662-10.656 8.541-20.865 14.867-30.305 1.987-2.965 3.959-6.027 4.295-10.434-5.856 1.638-6.597 7.677-10.684 10.535-.896-1.225-.186-3.079-1.852-3.949-2.063 3.132-3.453 6.316-1.914 10.197.591 1.491-.181 2.878-.875 4.252-3.068 6.08-6.062 12.197-9.082 18.301-2.843.262-5.48-.196-8.138-1.434-6.992-3.257-13.767-6.904-20.46-10.718.707-.922 1.322-1.934 2.135-2.749 3.278-3.288 3.289-5.972-.697-8.95-7.641-5.71-11.714-14.009-14.356-22.811-1.698-5.656-4.083-8.815-10.333-7.334-3.902-14.274-2.675-28.673-1.047-43.082 8.669-1.457 17.354-2.824 25.997-4.422 2.904-.537 3.503 1.31 3.991 3.226 1.31 5.149 3.079 10.146 4.655 15.209 5.826 18.708 25.768 30.649 43.669 30.212 4.945-.121 9.731-.381 14.671-1.31 4.378-.824 7.193 3.772 9.172 7.535 1.61 3.061 2.652 6.42 3.947 9.647-1.891 2.783-.783 4.383 2.087 5.287-1.004.937-2.008 1.874-3.012 2.811-3.236-.33-6.477-.386-8.411 2.835-3.919 6.528-9.548 11.846-12.992 18.716-5.836 11.645-9.658 23.693-11.062 36.834-1.844 17.252-4.768 34.39-2.526 51.775.466 3.613-.653 7.863 2.817 10.77.128.642.256 1.283.384 1.925-1.888 1.1-1.077 1.676.412 2.12.144.968.288 1.936.431 2.903-1.385 2.317-.501 3.903 1.638 5.084 2.151 5.498 2.644 11.725 7.221 17.294.395-4.291-.727-7.192-1.744-10.102-5.041-14.412-4.914-29.54-4.811-44.378.127-18.287 3.593-36.151 10.444-53.459 5.5-13.893 11.996-26.983 21.181-38.715 1.929-2.464 4.153-4.992 7.747-4.834 4.981.22 9.903-.078 14.789-1.049 3.199-1.508-.556-3.387.269-5.021 9.265.451 18.247 3.139 27.56 3.35 7.12.162 14.163-.027 21.461-2.14-.715 6.014-4.115 11.307-2.009 17.145.608 1.338 1.097 2.747 1.849 3.999 1.57 2.619 3.877 1.087 5.813.707 2.284-.449 2.871-2.021 1.758-4.122-.134-5.428-1.807-10.713-.481-16.307 2.079-8.776 6.981-14.261 15.786-16.677 12.881-3.535 25.086-.677 37.022 3.663 9.509 3.458 18.607 7.956 26.515 15.176-3.527 2.07-6.416 4.702-8.953 7.755-1.717 2.066-1.527 3.417.381 5.467 7.354 7.906 14.459 16.047 21.608 24.144 4.669 5.288 6.345 5.531 12.184 1.477 6.315-4.386 6.495-4.488 10.313 2.217 3.278 5.757 6.706 11.469 8.817 17.833.827 2.493.688 4.127-2.235 4.857-6.441 1.607-12.85 3.346-19.271 5.031.063-7.34-5.211-11.545-9.701-16.069-9.366-9.438-21.779-13.03-33.936-16.924-12.295-3.938-24.765-5.986-37.508-1.81-3.427 1.123-5.884 2.785-5.966 6.891-.08 4.01 1.23 6.771 5.382 7.684 2.458 2.747 5.792-.089 8.525 1.321-.73 3.195-2.89 5.559-4.605 8.158-13.232 20.055-17.126 42.114-14.608 65.727 1.005 9.426 1.281 18.966-2.797 27.97-1.465 3.234-3.366 6.106-6.632 7.816-6.653-.044-13.141 1.385-19.678 2.314-1.766.251-3.668 1.335-4.04 3.305-.361 1.917 1.665 2.26 2.921 2.887 2.954 1.475 3.91 3.364 3.076 6.849-1.261 5.273-3.545 10.033-6.07 14.699-1.578 2.918-.778 4.265 2.188 4.9zm4.908-157.901c.813-2.405-1.117-2.447-2.139-2.77-9.16-2.898-18.39-5.583-27.528-8.549-2.151-.699-3.017-.146-3.593 1.767-1.766 5.871-3.485 11.757-5.377 17.587-.643 1.98.029 2.494 1.831 3.043 9.046 2.756 18.032 5.709 27.063 8.515 1.359.422 3.212 1.072 3.87-.908 2.09-6.288 3.988-12.641 5.873-18.685z" fill="#fdfdfd"/><path d="m659.234 570.94c-3.086-6.471-2.508-13.344-1.846-20.104.824-8.424 1.763-16.87 5.432-24.721 1.255-2.685 2.63-4.037 5.981-3.787 20.215 1.511 40.329 3.46 59.962 8.953 6.19 1.731 12.689 2.344 18.916 3.969 7.07 1.844 12.864 4.512 14.697 13.351 3.039 14.661 1.851 29.104.475 43.658-1.008 10.662-4.211 20.809-8.105 30.702-4.829 12.264-10.785 15.099-24.088 11.123-27.539-8.229-35.137-31.264-24.977-55.998 1.293-3.147 3.548-5.639 6.146-7.762 1.453-1.187 2.746-2.385 3.189-4.275 2.916 1.105 4.437-1.654 6.621-2.524 1.43-.569 4.558.315 3.994-2.498-.485-2.422-2.572-4.325-5.169-4.898-2.98-.657-5.593.399-7.694 2.591-2.989 3.117-6.389 5.846-8.871 9.444-1.209 1.753-2.715 2.73-5.043 2.322-6.516-1.141-13.102-3.194-19.572-2.906-6.664.295-14.837-5.912-20.048 3.36zm74.743 61.897c-12.76-9.842-21.297-21.353-24.068-36.657-.379-2.094.021-5.751-2.471-5.776-3.627-.037-2.004 3.758-2.506 5.951-.329 1.438-.813 2.927-.728 4.363.97 16.254 16.171 29.324 29.773 32.119zm16.472-89.048c-3.268.446-5.816 2.177-5.974 6.185-.161 4.094 3.036 7.066 7.218 7.009 4.425-.06 5.518-3.016 5.648-6.602.14-3.776-2.778-6.621-6.892-6.592z" fill="#fdfdfd"/><path d="m606.874 206.703c.833 1.036 1.665 2.071 2.498 3.108-1.815 1.097-.826 2.178.157 3.018 1.691 1.445 3.517 2.733 5.285 4.088.795-.01 1.589-.02 2.384-.029 0 0-.097-.092-.097-.091-.227 1.974 1.367 2.35 2.64 3.017 4.433 2.322 8.862 4.65 13.293 6.976-3.788.82-6.079 2.741-4.628 6.941 1.269 3.675 6.977 5.541 11.062 3.653 3.377-1.561 4.106-4.02 2.014-7.19 3.783.145 6.979 1.828 10.044 3.842 6.981 4.589 10.147 10.409 8.192 17.031-2.806 9.502-7.869 17.609-15.695 24.116-3.708 3.083-8.778 4.706-11.021 9.494-23.729 11.102-45.326-1.075-58.291-17.838-1.31-1.694-2.498-3.482-3.743-5.228-.404-.523-.807-1.047-1.21-1.569 0 0 .108.178.108.177.326-2.445-.745-4.572-1.665-6.684-5.115-11.74-8.066-23.899-7.224-36.793 1.18-18.061 8.835-32.387 24.528-41.949 2.683-1.634 5.479-3.032 8.882-2.876 2.545.117 3.646.482 2.78 3.435-1.978 6.739-1.611 13.593.984 20.029 1.793 4.443 2.6 10.053 8.723 11.322z" fill="#c8fbfd"/><path d="m566.713 606.197c-6.538-4.262-13.056-8.554-19.621-12.773-3.345-2.149-4.087-5.063-2.744-8.62 4.807-12.731 12.881-22.785 24.615-29.789 1.865-1.113 3.487-1.503 5.853-.16 18.052 10.244 36.169 20.384 54.459 30.194 6.113 3.278 8.113 8.303 8.377 14.536 1.111 26.194-4.375 49.89-25.646 67.644-3.937 3.285-8.595 5.175-13.237 6.719-3.797 1.264-7.469-1.113-10.371-3.644-12.748-11.113-19.41-25.423-17.015-42.023 2.016-13.975 15.871-27.734 31.458-29.362 1.261-.132 3.208.227 3.251-1.469.045-1.809-1.871-1.331-3.131-1.456-2.685-.266-5.295.171-7.899.731-1.463-4.527-5.128-6.386-9.54-3.842-6.648 3.834-13.73 7.205-18.809 13.314zm13.432 12.541c-3.311 4.16-3.724 4.724-4.089 7.439-1.685 12.547.196 24.501 7.287 35.103 2.691 4.024 5.992 8.075 11.077 9.607 1.414.427 3.204.493 3.994-1.122 1.013-2.07-.972-2.584-2.226-3.083-6.07-2.412-8.973-7.786-11.742-12.996-5.631-10.597-6.665-22.004-4.301-34.948zm50.143-23.699c.071-3.385-3.181-6.556-6.848-6.342-3.527.205-5.218 2.521-5.46 5.865-.286 3.943 2.278 6.469 6.41 6.422 3.883-.043 5.568-2.339 5.898-5.945z" fill="#fdfdfd"/><path d="m688.988 255.998c1.22-5.808 3.02-11.525 2.945-17.539-.18-14.738-4.007-28.536-11.057-41.424-4.494-8.216-9.839-15.754-17.645-21.305-2.323-1.651-3.039-3.434-.744-6.563 7.584-10.348 17.391-17.697 28.58-23.578 5.684-2.987 10.256-.947 14.603 2.564 14.667 11.849 24.273 27.117 30.241 44.857 3.475 10.33 5.189 21.022 5.676 31.806.293 6.467.059 13.136-1.803 19.618-.611-.269-1.059-.317-1.164-.532-3.406-7.034-8.59-11.406-16.807-10.902-8.6.528-15.107 4.548-19.409 12.095-2.62 4.597-3.155 9.74-4.108 14.783-2.743 3.43-5.22 2.372-7.457-.536-.768-.998-1.241-2.223-1.851-3.344z" fill="#fdfdfd"/><path d="m571 512c.724 2.422.594 5.22-.76 6.909-2.647 3.304-5.905 6.199-9.258 8.819-1.572 1.228-2.743-1.219-4.167-1.84-.897-.392-1.874-.932-2.734-.061-.927.939-.074 1.796.327 2.647-3.762 1.583-7.474 3.631-5.106 8.426 2.196 4.448 7.027 6.386 10.91 9.185 2.478 1.785 3.826-1.466 5.931-1.167 4.017 3.202 4.106 4.819.133 7.86-10.445 7.994-19.353 17.274-24.856 29.415-.667 1.472-1.362 2.195-2.974 1.553-6.517-2.6-12.5-6.175-18.371-9.97-1.435-.928-1.046-1.775-.269-2.849.877-1.211 1.587-2.546 2.488-3.738 2.526-3.339 2.127-5.664-1.625-8.074-8.638-5.551-10.706-11.388-8.297-21.35 2.193-9.073 1.459-10.802-7.421-12.435-3.887-.715-3.705-2.422-2.924-5 1.205-3.978 2.377-7.986 3.934-11.833 2.988-7.383 6.182-14.686 9.392-21.977 3.138-7.127 6.402-14.197 9.763-21.63 2.593 2.808 1.812 8.035 6.877 8.078 4.745 8.599 12.772 12.906 21.612 15.603 7.67 2.341 11.493 7.047 12.608 14.831.457 3.206.926 7.013 4.787 8.598z" fill="#fdfdfd"/><path d="m715.007 353.954c12.64 1.455 25.056 3.633 35.781 11.195 5.583 3.937 5.749 5.92 3.083 12.125-4.4 10.244-8.292 20.706-12.398 31.076-1.952-1.189-1.195-3.224-1.586-4.919-.564-2.447-.172-5.744-3.566-6.326-3.309-.566-5.864.674-7.836 3.837-5.205 8.347-8.352 17.724-13.467 26.094-2.509 4.854-6.422 8.341-10.942 11.236-7.839-1.947-8.343-7.97-8.179-14.491.224-8.926.41-17.756 1.75-26.704 1.777-11.884 4.645-22.889 11.977-32.568 2.383-3.146 4.485-6.581 5.383-10.555z" fill="#fdfdfd"/><path d="m614.599 159.066c-10.815.003-10.705.055-7.425-6.946 5.905-12.603 14.41-22.544 28.423-25.916 11.291-2.718 22.499-.793 33.34 3.023 5.48 1.93 10.855 4.163 16.27 6.282 1.031.404 2.528.269 2.803 1.71.325 1.709-1.244 2.129-2.299 2.853-6.465 4.434-12.512 9.392-18.279 14.688-4.049 3.72-8.07 7.471-10.488 12.571-.934 1.969-1.8 3.003-4.484 1.521-12.676-6.996-26.785-8.393-37.861-9.786z" fill="#eb6a79"/><path d="m796.861 443.972c-.416-1.015-.428-2.469-2.074-2.269-1.295.158-1.307 1.344-1.451 2.284-.428 2.783-.851 5.559-2.438 7.984-7.058.105-7.053.104-8.084-7.132-.039-.275-.351-.513-.535-.768-.049-.815.152-1.762-.193-2.42-.785-1.491 1.819-4.723-1.69-4.508-2.913.179-.654 3.282-1.567 4.813-3.784.604-5.52-1.884-7.174-4.634-.696-1.157-.217-3.113-2.225-3.411-1.428-5.281 1.996-10.412.406-16.04-4.193 2.959-3.492 7.894-5.352 11.923-3.344-3.03-2.836-6.841-2.104-10.461 1.166-5.763 4.342-10.692 7.047-15.831 2.161-4.105 6.073-4.527 9.673-4.9 8.697-.9 17.219-3.49 26.093-2.778 1.502.12 3.021-.368 3.02 1.991-.01 15.589.77 31.292-7.012 45.683-.3.555-.76 1.022-1.146 1.53-1.065-.351-2.129-.704-3.194-1.056z" fill="#fdfdfd"/><path d="m502.009 161.967c1.008.057 2.017.113 3.025.171 2.326 1.694 5.648.843 7.729 2.551 2.884 2.366-1.007 5.505.243 8.268-1.671.003-3.343.006-5.015.009-5.291-1.806-7.722-.823-9.991 4.036-1.517 1.491-2.991 3.029-4.558 4.466-3.375 3.093.292 2.231 1.515 2.746 2.072 3.465 5.172 2.146 7.081.592 3.444-2.806 7.381-4.68 11.02-7.084 1.719-.186 3.218-.024 4.362 1.612 2.271 3.247 3.558 1.675 4.494-1.068.107-.314.184-.655.361-.927 1.834-2.799 3.708-6.21 7.633-5.114 4.025 1.123 3.291 5.222 2.926 8.103-1.603 12.652-8.012 24.645-24.773 25.675-1.628.1-3.211.805-4.843 1-12.324 1.475-17.869-4.34-19.002-16.121-1.086-11.294 2.496-22.059 7.833-31.947 3.6-6.671 7.461-13.377 13.878-17.981 2.164 1.789.413 3.63.087 5.465-.833 4.703-4.908 8.466-3.963 13.681-.025.299-.094.588-.207.867-1.184.192-2.442.27-2.977 1.956 1.274-.032 2.419.321 3.142-.956z" fill="#fdfdfd"/><path d="m693.316 352.123c-4.151-.913-5.462-3.674-5.382-7.684.082-4.105 2.539-5.768 5.966-6.891 12.743-4.177 25.213-2.128 37.508 1.81 12.156 3.894 24.569 7.485 33.936 16.924 4.49 4.524 9.764 8.729 9.701 16.069-3.543 2.721-5.871 1.493-8.815-1.598-12.324-12.937-28.3-18.473-45.396-21.82-6.971-1.365-13.85-1.038-20.775-.737-2.709.117-5.819.367-6.743 3.927z" fill="#d2d0d0"/><path d="m702.894 262.637c.99-7.205 1.933-15.3 8.837-21.025 4.744-3.936 9.996-4.943 15.77-2.66 5.594 2.212 7.455 7.357 7.686 12.386.459 10.026-4.041 18.297-11.676 24.691-4.447 3.725-9.34 3.574-14.324.709-5.199-2.987-6.089-7.871-6.293-14.101z" fill="#5eaad5"/><path d="m715.018 427.036c5.115-8.37 8.262-17.747 13.467-26.094 1.972-3.163 4.527-4.403 7.836-3.837 3.395.582 3.002 3.879 3.566 6.326.391 1.695-.366 3.729 1.586 4.919-5.27 12.934-11.344 25.438-21.212 35.574-8.173 8.396-18.192 11.099-29.652 8.458-2.159-.497-4.246-1.468-3.657-3.761.482-1.875 2.514-.18 3.844-.184 4.625-.015 9.043-1.255 12.659-3.868 5.387-3.894 9.771-8.877 12.775-14.953.791-1.598 1.67-2.869-1.212-2.58z" fill="#d2d0d0"/><path d="m606.874 206.703c-6.123-1.27-6.93-6.879-8.721-11.322-2.595-6.437-2.962-13.29-.984-20.029.866-2.952-.235-3.317-2.78-3.435-3.403-.156-6.2 1.242-8.882 2.876-15.692 9.563-23.348 23.889-24.528 41.949-.842 12.894 2.108 25.053 7.224 36.793.919 2.111 1.991 4.238 1.665 6.684-10.054-13.059-13.623-28.17-13.86-44.281-.098-6.657.333-13.261 2.024-19.794 4.705-18.176 19.123-25.334 34.85-30.932 3.365-1.197 6.917-2.449 10.677-1.877 2.791.426 4.13 1.571 2.662 4.621-6.263 13.006-5.975 25.94.653 38.747z" fill="#fdfdfd"/><path d="m715.007 353.954c-.897 3.974-3 7.409-5.384 10.555-7.332 9.68-10.199 20.685-11.977 32.568-1.34 8.948-1.526 17.778-1.75 26.704-.164 6.521.34 12.544 8.179 14.491-1.941 2.487-4.737 3.606-7.603 4.399-5.64 1.561-9.346-1.182-9.265-6.922.199-14.067-2.046-28.191.767-42.196 2.949-14.677 9.736-27.363 20.174-38.093 1.946-1.998 3.99-3.66 6.859-1.506z" fill="#d2d0d0"/><path d="m633.002 284.677c2.243-4.788 7.313-6.411 11.021-9.494 7.826-6.507 12.89-14.614 15.695-24.116 1.955-6.622-1.211-12.442-8.192-17.031-3.064-2.014-6.261-3.697-10.044-3.842-2.293-2.43-5.169-3.417-8.448-3.404-4.431-2.325-8.861-4.653-13.293-6.976-1.272-.667-2.866-1.043-2.64-3.017 12.15 4.898 25.123 6.389 37.793 9.142 10.414 2.263 16.271 11.518 14.524 21.919-1.629 9.695-6.247 17.415-14.045 23.2-7.028 5.215-13.945 10.672-22.371 13.619z" fill="#fdfdfd"/><path d="m688.988 255.998c.609 1.121 1.083 2.346 1.852 3.344 2.237 2.908 4.714 3.966 7.457.536.692 6.505.063 13.343 5.383 19.007-7.246.203-13.854.239-20.16 2.899-3.625 1.528-7.291 3.188-9.293 6.432-4.836 7.838-12.666 8.263-20.371 8.896-5.113.42-10.291.08-15.486-.233 6.043-2.531 12.617-2.977 18.537-6.084 14.111-7.408 24.482-18.076 30.871-32.654.327-.749.804-1.431 1.21-2.143z" fill="#d2d0d0"/><path d="m571 512c-3.861-1.585-4.33-5.392-4.789-8.596-1.115-7.784-4.938-12.49-12.608-14.831-8.839-2.696-16.867-7.004-21.612-15.603.687-4.971-2.942-8.918-3.245-13.688-.112-1.762-1.085-3.457-.614-5.316 2.563-.293 3.468 1.159 4.553 3.335 4.387 8.798 11.415 14.916 20.437 18.766-.758 1.264-.505 2.288.94 2.642 4.312 1.055 8.199 3.739 12.85 3.447 2.638-.165 3.371 1.015 3.401 3.552.106 8.766.44 17.528.687 26.292z" fill="#d2d0d0"/><path d="m566.366 174.496c9.931-21.599 27.113-34.798 48.953-42.717-6.26 7.7-10.958 16.098-14.353 25.263-.406 1.098-1.199 1.936-2.484 2.217-11.314 2.471-20.932 8.202-29.733 15.504-.372.309-.87.465-1.309.692-.358-.32-.716-.64-1.074-.959z" fill="#fdfdfd"/><path d="m755.816 301.122c-7.462-6.389-16.262-10.614-24.76-15.33 3.231-6.377 6.674-12.67 7.93-19.836 12.629-.276 12.617-.002 15.281 11.991.977 4.402-.537 9.327 2.69 13.239-.291 3.323.094 6.722-1.141 9.936z" fill="#fdfdfd"/><path d="m659.234 570.94c5.211-9.272 13.384-3.065 20.049-3.361 6.471-.288 13.057 1.766 19.572 2.906 2.328.408 3.834-.569 5.043-2.322 2.482-3.599 5.882-6.327 8.871-9.444 2.102-2.191 4.714-3.248 7.694-2.591 2.597.573 4.684 2.477 5.169 4.898.563 2.813-2.564 1.929-3.994 2.498-2.185.87-3.705 3.63-6.621 2.524-5.953 1.568-10.328 5.195-13.631 10.296-1.445 2.232-3.33 3.409-6.248 2.675-9.713-2.444-19.74-2.748-29.612-4.12-2.706-.376-5.305-.872-6.292-3.959z" fill="#d2d0d0"/><path d="m603.17 677.633c15.913-7.763 26.557-19.278 32.597-35.008 5.804-15.116 7.11-30.867 5.932-47.905 2.449 2.188 2.929 4.206 3.17 6.005 3.789 28.344-4.612 52.471-25.526 72.021-5.391 5.038-9.748 6.08-16.173 4.887z" fill="#eb6a79"/><path d="m755.021 636.845c-1.646-.104-2.277-.605-1.883-1.778.783-2.327 1.461-4.761 2.684-6.858 8.042-13.79 9.344-29.296 11.084-44.576 1.25-10.972 1.471-22.089-1.74-32.938-.29-.981.152-2.18.262-3.372 2.926.467 2.906 2.86 3.386 4.574 2.672 9.565 3.028 19.403 2.046 29.167-1.456 14.467-1.749 29.138-7.557 42.935-2.078 4.936-4.922 9.066-8.365 12.964-.001-.003.083-.118.083-.118z" fill="#eb6a79"/><g fill="#d2d0d0"><path d="m755.816 301.122c1.234-3.214.85-6.613 1.142-9.936 2.745-2.204 1.733-5.224 1.45-7.896-.503-4.755-1.428-9.465-2.23-14.533 5.721.194 8.875 3.487 10.145 8.157 2.731 10.041 3.566 20.291 1.441 30.61-.158.765-.677 1.454-1.271 2.684-3.692-3.141-7.184-6.113-10.677-9.086z"/><path d="m651.596 498.067c-2.966-.636-3.766-1.982-2.188-4.898 2.525-4.666 4.81-9.426 6.07-14.699.834-3.484-.122-5.374-3.076-6.849-1.256-.627-3.282-.97-2.921-2.887.372-1.97 2.274-3.054 4.04-3.305 6.537-.93 13.024-2.358 19.678-2.314-11.875 8.762-16.657 21.908-21.603 34.952z"/><path d="m485.961 237.884c-1.627 14.409-2.854 28.808 1.047 43.082-2.274 1.318-3.676 1.268-4.798-1.712-4.65-12.346-3.249-25.153-3.095-37.834.053-4.318 3.938-3.521 6.846-3.536z"/><path d="m510.261 322.81c6.693 3.813 13.468 7.461 20.46 10.718 2.658 1.237 5.295 1.695 8.138 1.434-.278.763-.546 1.53-.836 2.288-3.341 8.715-3.206 8.498-11.429 3.313-6.085-3.836-11.116-8.771-16.272-13.642-1.585-1.497-2.579-2.696-.061-4.111z"/><path d="m566.713 606.197c5.079-6.109 12.16-9.48 18.811-13.314 4.412-2.544 8.077-.686 9.54 3.842-7.053 1.254-12.822 5.011-16.853 10.603-3.071 4.26-5.583 3.602-8.881 1.091-.909-.692-1.747-1.479-2.617-2.222z"/></g><path d="m480.084 234.976c-.614.018-2.187-.043-1.945-1.548.31-1.929.238-4.312 3.382-4.646 6.75-.718 13.465-1.76 20.193-2.682 3.58-.49 7.142-1.552 10.758-.188.906.342 2.622-.579 2.361 1.515-.165 1.321-.961 1.994-2.304 2.186-4.433.634-8.866 1.273-13.282 2.011-6.205 1.036-12.394 2.163-19.163 3.352z" fill="#eb6a79"/><path d="m492.789 218.159c6.436-.266 12.808-1.637 19.278-1.199 1.2.081 2.924-.636 3.447 1.045.665 2.136-1.716 2.039-2.696 2.921-.648.584-1.813.8-2.754.822-8.139.19-16.075 2.122-24.158 2.746-1.34.104-3.289 1.266-3.917-.526-.726-2.068.628-3.864 2.516-4.856 2.593-1.363 5.475-1.012 8.284-.953z" fill="#5eaad5"/><path d="m769.113 387.199c11.102-4.214 22.352-7.641 34.234-8.639 2.768-.231 2.796 1.543 3.23 3.323.665 2.732-1.384 1.902-2.641 2.078-8.516 1.192-17.135 1.624-25.523 3.779-2.989.77-6.138.885-9.3-.541z" fill="#5eaad5"/><path d="m804.488 372.761c.445 1.79-.376 2.18-1.518 2.199-11.156.186-21.453 4.322-32.102 6.853-1.098.261-3.117 1.961-3.785-.176-.797-2.553 1.877-2.123 3.232-2.648 9.78-3.795 19.639-7.291 30.06-9.026 2.99-.499 3.977.587 4.113 2.798z" fill="#eb6a79"/><path d="m776.258 395.089c-1.469-1.396-4.342 2.237-4.83-.45-.525-2.884 3.021-2.131 4.893-2.64 9.172-2.496 18.627-3.095 28.025-4.094 1.751-.186 3.483-.717 3.525 1.907.043 2.636-2.025 1.494-3.271 1.657-9.364 1.224-18.733 2.399-28.342 3.62z" fill="#eb6a79"/><path d="m514.982 159.085c-1.794-.093-3.589-.186-5.506-.285 4.03-6.565 5.842-13.638 6.275-20.943.231-3.906 1.524-5.085 5.118-4.191-.202 8.88-1.786 17.441-5.887 25.419z" fill="#fdfdfd"/><path d="m485.782 215.041c-.058-3.62 1.152-4.621 4.432-4.664 7.268-.094 14.522-.954 21.792-1.325 1.331-.068 3.656-1.065 3.667 1.819.009 2.351-2.012 1.897-3.295 2.013-8.734.78-17.478 1.433-26.596 2.157z" fill="#eb6a79"/><path d="m566.142 544.919c-2.105-.299-3.453 2.952-5.931 1.167-3.882-2.799-8.713-4.736-10.91-9.185-2.368-4.795 1.344-6.843 5.106-8.426 2.672.97 5.684 3.309 4.835 5.444-1.183 2.978-3.744-1.871-6.412-.35 3.242 5.271 9.387 7.07 13.312 11.35z" fill="#d2d0d0"/><path d="m505.977 550.703c2.908-1.039 4.119 2.344 4.929 5.003.835 2.744-2.237 3.385-4.023 3.963-2.369.767-4.626 4.087-7.533.92-2.038-2.221-5.214-5.299-3.833-7.473 1.491-2.346 5.932-1.657 10.46-2.413z" fill="#eb6a79"/><path d="m594.152 303.269c-2.871-.904-3.979-2.504-2.087-5.287.838.152 2.07 1.083 1.946-.834-.103-1.577-.372-3.143-.658-5.441 7.771 4.113 15.554 6.026 23.575 7.071-.825 1.635 2.93 3.514-.269 5.021-.969-1.29-1.722-2.747-3.639-2.988-6.513-.819-12.987-1.51-18.868 2.458z" fill="#d2d0d0"/><path d="m507.396 542.695c.956 4.275-1.379 5.35-4.954 5.265-1.153-.028-2.356-.101-3.453.178-2.39.605-4.569.426-4.675-2.438-.095-2.561-.679-6.017 3.738-6.069 1.98-.023 3.995.12 5.931-.199 2.852-.471 4.707-.28 3.413 3.263z" fill="#5eaad5"/><path d="m780.932 334.625c-2.213 2.593-5.014 4.969-8.033 5.114-2.458.119-5.9-1.042-6.855-4.469-.266-.953 8.012-8.415 8.975-7.971 3.024 1.394 3.622 4.87 5.913 7.326z" fill="#eb6a79"/><path d="m631.071 559.853c-.28 2.174.396 5.719-4.091 5.122-2.75-.365-7.559.614-7.476-2.634.073-2.882-.207-8.385 4.529-9.153 5.386-.875 7.033 1.047 7.038 6.665z" fill="#5eaad5"/><path d="m528.232 138.279c4.418 8.649 2.826 16.368.411 24.055-.267.848-.703 2.845-2.188 1.361-1.351-1.348-5.466-1.366-3.988-3.778 3.975-6.493 3.39-14.01 5.765-21.638z" fill="#d2d0d0"/><path d="m617.747 552.736c-1.058 3.589-1.352 6.978-3.003 9.462-1.438 2.163-4.197-.236-6.382-.38-3.407-.224-5.878-1.378-2.316-5.171 1.329-1.416 2.17-3.297 3.193-4.991 1.772-2.933 3.789-.633 5.602-.154 1.036.273 2.918-.233 2.906 1.234z" fill="#eb6a79"/><path d="m513.006 172.956c-1.25-2.763 2.641-5.901-.243-8.268-2.081-1.708-5.402-.856-7.729-2.551 5.354-2.679 9.623 1.094 14.221 2.552 1.944.616 3.565 2.249 5.489 3.522-3.421 3.476-5.66 8.886-11.738 4.745z" fill="#d2d0d0"/><path d="m502.052 160.097c-.944-5.215 3.13-8.978 3.963-13.681.325-1.835 2.076-3.676-.087-5.465 1.359-2.166 3.593-3.144 5.943-4.856.616 6.915-2.114 12.403-3.762 18.216-1.039 3.66-2.757 5.188-6.057 5.786z" fill="#d2d0d0"/><path d="m519.895 563.934c-1.923 2.801-2.277 7.017-6.389 7.009-3.229-.007-5.721-2.263-7.389-5.058-.373-.625 7.52-6.845 8.224-6.335 1.873 1.355 4.499 1.915 5.554 4.384z" fill="#5eaad5"/><path d="m592.962 552.415c2.926-2.146 5.825-4.258 8.704-6.395.91-.676 1.911-1.869 2.855-.417.795 1.222 3.029 1.938 1.841 4.074-.321.578-.689 1.13-1.019 1.704-4.811 8.368-5.157 8.405-12.381 1.034z" fill="#5eaad5"/><path d="m600.954 541.501c-2.404 2.803-5.538 5.336-9.034 7.01-2.612 1.251-2.501-2.32-3.748-3.572-1.442-1.448-1.196-2.829.878-3.831 2.228-1.076 4.255-2.568 6.481-3.649 2.247-1.092 5.616 1.268 5.423 4.042z" fill="#eb6a79"/><path d="m738.986 265.956c-1.256 7.166-4.698 13.459-7.93 19.836-1.976-.796-3.951-1.592-6.431-2.59 4.628-5.136 8.167-10.8 11.808-16.396.593-.91 1.447-1.335 2.553-.85z" fill="#d2d0d0"/><path d="m768.203 319.142c1.883.776 2.951 2.502 4.063 4.059.995 1.393-.559 2.077-1.382 2.656-2.008 1.41-3.679 3.236-6.007 4.281-2.058.924-3.527 1.271-5.011-.918-1.466-2.165-.966-3.523 1.038-4.882 2.179-1.477 4.227-3.148 6.343-4.721.255-.188.575-.289.956-.475z" fill="#5eaad5"/><path d="m502.268 536.014c-.495-.001-1.059.156-1.47-.028-1.543-.695-4.986 1.778-4.483-2.11.37-2.86.85-6.91 5.484-5.798 2.597.623 6.373-.277 7.343 3.448.952 3.662-.443 4.47-6.874 4.488z" fill="#eb6a79"/><path d="m514.982 159.085c4.102-7.978 5.685-16.539 5.886-25.42.844-.32 1.789-.385 1.941.68 1.139 7.983.728 15.781-3.265 23.031-.974 1.77-2.14 3.558-4.562 1.709z" fill="#d2d0d0"/><path d="m769.43 433.913c2.008.298 1.528 2.254 2.225 3.411 1.654 2.75 3.39 5.237 7.174 4.634.807 3.385-1.041 6.379-1.074 10.618-6.143-5.481-7.635-11.89-8.325-18.663z" fill="#d2d0d0"/><path d="m761.363 312.958c2.268-.022 3.104 1.326 3.962 2.497 1.03 1.405-.315 2.133-1.146 2.805-1.808 1.462-3.867 2.636-5.555 4.214-1.896 1.775-2.832 1.077-4.301-.622-1.674-1.935-.784-2.726.748-3.856 2.259-1.668 4.391-3.504 6.292-5.038z" fill="#eb6a79"/><path d="m513.058 177.721c-3.638 2.404-7.576 4.278-11.02 7.084-1.908 1.555-5.009 2.873-7.081-.592 5.101-4.765 10.698-8.147 18.101-6.492z" fill="#d2d0d0"/><path d="m750.895 317.022c-1.879-.413-2.915-1.541-3.622-2.842-.812-1.491.614-1.903 1.544-2.559 1.355-.955 2.834-1.847 3.897-3.078 1.97-2.281 3.478-1.57 5.292.17 2.536 2.433-.236 3.018-1.346 4.034-1.812 1.662-3.591 3.438-5.765 4.275z" fill="#5eaad5"/><path d="m782.279 444.072c.185.255.496.492.535.768 1.031 7.236 1.026 7.237 8.084 7.132-1.771 4.817-7.613 6.276-11.071 2.741-.295-.302-.638-1.06-.513-1.194 2.493-2.693.464-6.789 2.965-9.447z" fill="#d2d0d0"/><path d="m673.359 317.716c1.113 2.102.526 3.673-1.758 4.122-1.936.38-4.242 1.912-5.813-.707-.752-1.252-1.24-2.661-1.849-3.999 1.929.357 3.146-.125 3.294-2.382.116-1.766.532-3.512.902-5.806 2.01 3.197.732 7.784 5.224 8.772z" fill="#d2d0d0"/><path d="m505.577 323.372c-.914-4.129-7.122-5.133-2.644-9.484 1.331-1.293 2.41-3.604 5.051-.976 4.776 4.755-1.334 6.114-2.407 10.46z" fill="#5eaad5"/><path d="m489.44 285.172c3.979.011 4.162 3.249 4.127 4.948-.06 2.93-3.454 2.579-5.369 2.81-3.274.394-3.341-3.241-3.472-4.938-.285-3.706 4.12-.461 4.714-2.82z" fill="#eb6a79"/><path d="m497.894 313.352c-.355-3.234-5.71-4.188-2.345-7.631 1.097-1.122 3.281-4.386 5.889-.702 2.447 3.458 2.664 3.304-3.544 8.333z" fill="#eb6a79"/><path d="m497.851 299.054c-.859 2.35-3.067 3.446-4.932 3.612-2.848.253-4.006-3.054-4.04-4.754-.057-2.825 3.358-2.385 5.325-2.853 3.001-.713 2.262 2.59 3.647 3.995z" fill="#5eaad5"/><g fill="#d2d0d0"><path d="m498 177.001c2.269-4.859 4.7-5.842 9.991-4.036-3.33 1.346-6.66 2.69-9.991 4.036z"/><path d="m796.861 443.972c1.064.353 2.129.705 3.193 1.058-.934 2.875-2.78 5.081-5.091 6.946l-.094.052c.664-2.686 1.328-5.372 1.992-8.056z"/><path d="m614.814 216.917c-1.769-1.354-3.594-2.643-5.285-4.088-.983-.84-1.972-1.921-.157-3.018 2.479 2.078 4.96 4.156 7.44 6.235-.666.291-1.332.581-1.998.871z"/><path d="m594.256 560.26c2.36-.502 3.174.925 4.381 1.544-1.748.89-2.866.033-4.381-1.544z"/><path d="m590.732 558.175c.423-.392.845-.783 1.268-1.175 1.363.55 2.521 1.255 2.431 3.214-1.783.028-2.73-1.026-3.699-2.039z"/><path d="m502.009 161.967c-.723 1.277-1.869.924-3.141.953.535-1.687 1.792-1.764 2.977-1.956.055.334.11.668.164 1.003z"/></g><path d="m614.814 216.917c.666-.29 1.332-.58 1.998-.87.231.233.359.514.386.841-.795.009-1.589.019-2.384.029z" fill="#fdfdfd"/><path d="m569.758 260.042c.403.522.806 1.046 1.21 1.569-.403-.522-.806-1.046-1.21-1.569z" fill="#fdfdfd"/><path d="m567.439 175.455c-.341.245-.882.769-.99.69-.632-.456-.384-1.075-.083-1.649.358.319.716.639 1.073.959z" fill="#fdfdfd"/><path d="m794.964 451.976-.078.174s.001-.135-.007-.129c-.009.006.085-.045.085-.045z" fill="#d2d0d0"/><path d="m594.152 303.269c5.881-3.968 12.355-3.276 18.868-2.458 1.917.241 2.67 1.698 3.639 2.988-4.886.971-9.808 1.269-14.789 1.049-3.594-.158-5.818 2.37-7.747 4.834-9.185 11.731-15.681 24.822-21.181 38.715-6.851 17.308-10.317 35.172-10.444 53.459-.103 14.838-.23 29.966 4.811 44.378 1.017 2.909 2.139 5.811 1.744 10.102-4.578-5.569-5.07-11.796-7.221-17.294-.008-1.867-.656-3.529-1.638-5.084-.144-.968-.288-1.936-.431-2.903.264-.784.282-1.521-.412-2.12-.128-.642-.256-1.283-.384-1.925-.024-1.655.046-3.319-.086-4.966-3.438-42.605 4.255-82.107 32.259-115.964 1.005-.937 2.008-1.875 3.012-2.811z" fill="#0e0e0e"/><path d="m591.14 306.079c-28.004 33.856-35.697 73.358-32.259 115.964.133 1.646.063 3.311.086 4.966-3.47-2.906-2.351-7.156-2.817-10.77-2.242-17.386.682-34.523 2.526-51.775 1.404-13.141 5.226-25.189 11.062-36.834 3.443-6.87 9.072-12.188 12.992-18.716 1.933-3.221 5.174-3.165 8.41-2.835z" fill="#d2d0d0"/><path d="m656.504 340.166c-1.885 6.044-3.783 12.396-5.873 18.685-.658 1.98-2.511 1.33-3.87.908-9.031-2.806-18.017-5.759-27.063-8.515-1.802-.549-2.473-1.063-1.831-3.043 1.892-5.83 3.611-11.716 5.377-17.587.576-1.913 1.441-2.466 3.593-1.767 9.138 2.966 18.368 5.65 27.528 8.549 1.022.323 2.951.365 2.139 2.77zm-9.32 17.476c1.625.297 1.68-.862 1.976-1.786 1.421-4.426 2.673-8.915 4.33-13.25 1.064-2.785-.267-3.472-2.466-4.127-7.477-2.227-14.975-4.399-22.359-6.906-2.741-.931-3.516.057-4.156 2.364-1.11 3.996-2.214 8.015-3.683 11.886-1.01 2.659.001 3.52 2.324 4.165 5.756 1.599 11.491 3.278 17.199 5.043 2.372.734 4.651 1.767 6.835 2.611z" fill="#5eaad5"/><path d="m560.194 433.957c.982 1.555 1.63 3.217 1.638 5.084-2.139-1.181-3.022-2.767-1.638-5.084z" fill="#d2d0d0"/><path d="m559.352 428.934c.694.599.676 1.336.412 2.12-1.489-.445-2.3-1.021-.412-2.12z" fill="#d2d0d0"/><path d="m733.977 632.837c-13.602-2.795-28.803-15.865-29.772-32.119-.086-1.437.398-2.925.728-4.363.502-2.193-1.121-5.988 2.506-5.951 2.491.025 2.092 3.683 2.471 5.776 2.77 15.304 11.307 26.815 24.067 36.657z" fill="#d2d0d0"/><path d="m750.449 543.789c4.114-.029 7.032 2.816 6.893 6.592-.131 3.586-1.224 6.542-5.648 6.602-4.182.058-7.379-2.915-7.218-7.009.157-4.008 2.706-5.739 5.973-6.185zm3.852 6.299c-.216-2.053-1.224-3.25-3.516-3.178-2.451.077-3.081 1.56-2.921 3.641.158 2.053 1.055 3.539 3.38 3.387 2.298-.151 2.945-1.779 3.057-3.85z" fill="#0e0e0e"/><path d="m633.035 226.789c3.279-.013 6.154.975 8.448 3.404 2.092 3.171 1.363 5.63-2.014 7.19-4.085 1.888-9.793.021-11.062-3.653-1.451-4.2.84-6.121 4.628-6.941z" fill="#0e0e0e"/><path d="m580.145 618.738c-2.364 12.943-1.33 24.351 4.301 34.948 2.769 5.21 5.671 10.584 11.742 12.996 1.254.499 3.239 1.013 2.226 3.083-.791 1.615-2.581 1.549-3.994 1.122-5.085-1.532-8.386-5.583-11.077-9.607-7.09-10.602-8.972-22.556-7.287-35.103.364-2.715.778-3.279 4.089-7.439z" fill="#d2d0d0"/><path d="m630.291 595.042c-.332 3.603-2.018 5.899-5.9 5.942-4.132.047-6.696-2.479-6.41-6.422.242-3.344 1.933-5.66 5.46-5.865 3.666-.214 6.918 2.957 6.85 6.345zm-5.927 2.361c1.608-.258 2.914-.933 2.661-2.82-.274-2.046-1.945-2.457-3.65-2.535-1.63-.075-2.421.89-2.375 2.453.065 2.127 1.651 2.603 3.364 2.902z" fill="#0e0e0e"/><path d="m647.184 357.642c-2.184-.844-4.463-1.877-6.835-2.611-5.708-1.765-11.443-3.444-17.199-5.043-2.323-.646-3.334-1.506-2.324-4.165 1.469-3.871 2.573-7.89 3.683-11.886.64-2.308 1.415-3.295 4.156-2.364 7.384 2.507 14.882 4.68 22.359 6.906 2.199.655 3.53 1.342 2.466 4.127-1.657 4.335-2.909 8.824-4.33 13.25-.297.923-.351 2.082-1.976 1.786zm-14.222-16.604c.401-2.935-1.443-3.32-3.643-3.073-2.809.315-3.992 2.264-3.805 4.808.16 2.164 1.755 3.512 3.878 3.895 1.691.306 2.287-1.408 1.555-2.079-5.125-4.7.365-3.037 2.082-3.624-2.041 6.064 1.74 7.632 6.394 8.425 1.728-1.501-1.828-4.407 1.591-5.423.436 2.461-.589 5.461 2.461 6.962.983.484 2.154 1.354 3.114.08.755-1.003.099-1.638-.812-2.353-1.258-.987-1.621-2.326.504-2.689 1.184-.202 2.597-.012 2.34-1.647-.271-1.738-1.98-1.45-3.244-1.501-1.135-.046-2.277.129-3.418.206-2.097-2.954-6.397-3.902-8.997-1.987z" fill="#fdfdfd"/><path d="m754.301 550.088c-.111 2.071-.759 3.699-3.057 3.85-2.325.152-3.222-1.334-3.38-3.387-.16-2.081.47-3.563 2.921-3.641 2.292-.072 3.3 1.125 3.516 3.178z" fill="#5eaad5"/><path d="m624.364 597.403c-1.713-.3-3.299-.775-3.364-2.902-.047-1.563.745-2.528 2.375-2.453 1.705.078 3.376.489 3.65 2.535.253 1.888-1.053 2.563-2.661 2.82z" fill="#5eaad5"/><path d="m641.016 343.966c-3.419 1.016.137 3.922-1.591 5.423-4.654-.793-8.435-2.36-6.394-8.425l-.068.075c2.6-1.916 6.9-.968 8.999 1.984l.067-.061c-.675.034-1.1.316-1.061 1.063z" fill="#eb6a79"/><path d="m641.961 343.023c1.141-.077 2.283-.252 3.418-.206 1.264.051 2.973-.237 3.244 1.501.257 1.636-1.156 1.445-2.34 1.647-2.125.363-1.762 1.702-.504 2.689.91.715 1.566 1.35.812 2.353-.96 1.274-2.131.404-3.114-.08-3.05-1.501-2.025-4.501-2.461-6.962l-.048.06c.97.261 1.229-.187 1.061-1.063z" fill="#eb6a79"/><path d="m633.03 340.964c-1.717.587-7.207-1.076-2.082 3.624.731.671.136 2.385-1.555 2.079-2.123-.383-3.718-1.73-3.878-3.895-.188-2.544.996-4.492 3.805-4.808 2.199-.247 4.043.139 3.642 3.074z" fill="#eb6a79"/><path d="m642.028 342.963c.169.876-.091 1.323-1.061 1.063-.038-.747.387-1.029 1.061-1.063z" fill="#fdfdfd"/></g></svg>