<svg xmlns="http://www.w3.org/2000/svg" viewBox="0 0 200.786 219.646"><defs><style>.cls-1{fill:#ef6c7b;}.cls-2{fill:#5fadd9;}.cls-3{fill:#201e26;}.cls-4{fill:#4b4351;}.cls-5{fill:#362e3d;}.cls-6{fill:#302a38;}.cls-7{fill:#5b5560;}.cls-8{fill:#638996;}</style></defs><g id="Small_Gear" data-name="Small Gear"><path class="cls-1" d="M316.587,190.24a40.9,40.9,0,0,0-3.661-11.881L305.46,179.7a34.1,34.1,0,0,0-2.419-3.723l3.872-6.737a40.772,40.772,0,0,0-9.3-7.908l-5.545,5.162a34,34,0,0,0-4.665-2.086l-.383-7.724a41.188,41.188,0,0,0-11.894-1.517l-1.877,7.349a33.4,33.4,0,0,0-5.574.914l-4.463-6.241a41.421,41.421,0,0,0-10.616,5.269l2.405,7.23a33.5,33.5,0,0,0-4.27,4.015l-7.087-2.821a41.067,41.067,0,0,0-5.879,10.281l5.978,4.819a34.046,34.046,0,0,0-1.271,5.541l-7.44,1.449a40.829,40.829,0,0,0,.8,11.942l7.687.828a33.812,33.812,0,0,0,1.842,4.845l-5.469,5.235c.037.067.071.135.108.2a41.07,41.07,0,0,0,7.224,9.526l6.945-3.475a33.69,33.69,0,0,0,3.643,2.679l-1.772,7.367a41.242,41.242,0,0,0,11.639,4.309l3.962-6.676a33.9,33.9,0,0,0,3.891.276l2.509,7.2a40.777,40.777,0,0,0,12.318-2.558l-.275-7.737c.737-.339,1.47-.7,2.191-1.095.315-.173.619-.359.926-.54l6.048,4.736a40.794,40.794,0,0,0,9.193-8.688l-4.382-6.314a33.975,33.975,0,0,0,1.8-3.01l7.693.719a41.319,41.319,0,0,0,3.243-12.172l-7.037-2.916a33.623,33.623,0,0,0-.06-3.847Zm-30.331,24.742a21.5,21.5,0,1,1,8.462-29.2A21.5,21.5,0,0,1,286.256,214.982Z" transform="translate(-116 -29.354)"/></g><g id="Large_Gear" data-name="Large Gear"><path class="cls-2" d="M297.605,90.783a67.282,67.282,0,0,0-4.931-19.862L280.28,72.45a56.116,56.116,0,0,0-3.634-6.341l6.98-10.719a67.108,67.108,0,0,0-14.564-13.847l-9.586,7.976A55.832,55.832,0,0,0,252,45.665l.076-12.73a67.77,67.77,0,0,0-19.41-3.581L228.909,41.26a55.167,55.167,0,0,0-9.245.993L212.9,31.587a68.217,68.217,0,0,0-17.931,7.689l3.292,12.1a55.3,55.3,0,0,0-7.384,6.208L179.487,52.3a67.569,67.569,0,0,0-10.6,16.36l9.384,8.466a55.947,55.947,0,0,0-2.595,8.991l-12.362,1.7a67.274,67.274,0,0,0,.217,19.7l12.559,2.064a55.538,55.538,0,0,0,2.584,8.131l-9.467,8.1c.054.114.1.228.159.342a67.568,67.568,0,0,0,11,16.318l11.733-5.077a55.332,55.332,0,0,0,5.742,4.737l-3.586,11.946a67.941,67.941,0,0,0,18.735,8.147l7.123-10.61a55.861,55.861,0,0,0,6.37.808l3.465,12.067a67.115,67.115,0,0,0,20.48-3.079l.255-12.74c1.242-.491,2.479-1.012,3.7-1.6.533-.257,1.049-.534,1.571-.8l9.507,8.337a67.16,67.16,0,0,0,15.9-13.439L274.74,130.4a55.684,55.684,0,0,0,3.227-4.782l12.578,1.885a67.979,67.979,0,0,0,6.442-19.709l-11.3-5.436a55.581,55.581,0,0,0,.252-6.329Zm-52.114,37.893a35.389,35.389,0,1,1,16.58-47.222A35.389,35.389,0,0,1,245.491,128.676Z" transform="translate(-116 -29.354)"/></g><g id="ServerRack"><rect class="cls-3" x="12" y="72.646" width="99" height="133"/><rect class="cls-4" y="65.646" width="123" height="48" rx="13.755"/><path class="cls-5" d="M116.862,134a13.745,13.745,0,0,0,12.893,9h95.49a13.745,13.745,0,0,0,12.893-9Z" transform="translate(-116 -29.354)"/><path class="cls-6" d="M153.213,102H124.787A1.787,1.787,0,0,0,123,103.787v18.426A1.787,1.787,0,0,0,124.787,124h28.426A1.787,1.787,0,0,0,155,122.213V103.787A1.787,1.787,0,0,0,153.213,102Zm.787,6v15H124.511a.511.511,0,0,1-.511-.511V103h29.489a.511.511,0,0,1,.511.511Z" transform="translate(-116 -29.354)"/><rect class="cls-7" x="23" y="73.646" width="5" height="5"/><rect class="cls-7" x="13" y="73.646" width="5" height="5"/><rect class="cls-7" x="8" y="78.646" width="5" height="5"/><rect class="cls-7" x="23" y="83.646" width="5" height="5"/><rect class="cls-7" x="18" y="78.646" width="5" height="5"/><rect class="cls-7" x="28" y="78.646" width="5" height="5"/><rect class="cls-7" x="13" y="83.646" width="5" height="5"/><path class="cls-7" d="M124,118v4.489a.511.511,0,0,0,.511.511H129v-5Z" transform="translate(-116 -29.354)"/><rect class="cls-7" x="28" y="88.646" width="5" height="5"/><rect class="cls-7" x="33" y="83.646" width="5" height="5"/><path class="cls-7" d="M153.489,103H149v5h5v-4.489A.511.511,0,0,0,153.489,103Z" transform="translate(-116 -29.354)"/><rect class="cls-7" x="18" y="88.646" width="5" height="5"/><path class="cls-6" d="M124.511,103H124v.511A.511.511,0,0,1,124.511,103Z" transform="translate(-116 -29.354)"/><path class="cls-6" d="M129,103h-4.489a.511.511,0,0,0-.511.511V108h5Z" transform="translate(-116 -29.354)"/><rect class="cls-6" x="18" y="83.646" width="5" height="5"/><rect class="cls-6" x="23" y="78.646" width="5" height="5"/><rect class="cls-6" x="28" y="73.646" width="5" height="5"/><rect class="cls-6" x="23" y="88.646" width="5" height="5"/><path class="cls-6" d="M153.489,123H154v-.511A.511.511,0,0,1,153.489,123Z" transform="translate(-116 -29.354)"/><path class="cls-6" d="M149,123h4.489a.511.511,0,0,0,.511-.511V118h-5Z" transform="translate(-116 -29.354)"/><rect class="cls-6" x="28" y="83.646" width="5" height="5"/><rect class="cls-6" x="33" y="78.646" width="5" height="5"/><rect class="cls-6" x="13" y="78.646" width="5" height="5"/><rect class="cls-6" x="18" y="73.646" width="5" height="5"/><rect class="cls-6" x="13" y="88.646" width="5" height="5"/><rect class="cls-6" x="8" y="83.646" width="5" height="5"/><rect class="cls-3" y="99.646" width="123" height="2"/><rect class="cls-4" y="118.646" width="123" height="48" rx="13.755"/><path class="cls-5" d="M116.862,187a13.745,13.745,0,0,0,12.893,9h95.49a13.745,13.745,0,0,0,12.893-9Z" transform="translate(-116 -29.354)"/><path class="cls-6" d="M153.213,155H124.787A1.787,1.787,0,0,0,123,156.787v18.426A1.787,1.787,0,0,0,124.787,177h28.426A1.787,1.787,0,0,0,155,175.213V156.787A1.787,1.787,0,0,0,153.213,155Zm.787,6v15H124.511a.511.511,0,0,1-.511-.511V156h29.489a.511.511,0,0,1,.511.511Z" transform="translate(-116 -29.354)"/><rect class="cls-7" x="23" y="126.646" width="5" height="5"/><rect class="cls-7" x="13" y="126.646" width="5" height="5"/><rect class="cls-7" x="8" y="131.646" width="5" height="5"/><rect class="cls-7" x="23" y="136.646" width="5" height="5"/><rect class="cls-7" x="18" y="131.646" width="5" height="5"/><rect class="cls-7" x="28" y="131.646" width="5" height="5"/><rect class="cls-7" x="13" y="136.646" width="5" height="5"/><path class="cls-7" d="M124,171v4.489a.511.511,0,0,0,.511.511H129v-5Z" transform="translate(-116 -29.354)"/><rect class="cls-7" x="28" y="141.646" width="5" height="5"/><rect class="cls-7" x="33" y="136.646" width="5" height="5"/><path class="cls-7" d="M153.489,156H149v5h5v-4.489A.511.511,0,0,0,153.489,156Z" transform="translate(-116 -29.354)"/><rect class="cls-7" x="18" y="141.646" width="5" height="5"/><path class="cls-6" d="M124.511,156H124v.511A.511.511,0,0,1,124.511,156Z" transform="translate(-116 -29.354)"/><path class="cls-6" d="M129,156h-4.489a.511.511,0,0,0-.511.511V161h5Z" transform="translate(-116 -29.354)"/><rect class="cls-6" x="18" y="136.646" width="5" height="5"/><rect class="cls-6" x="23" y="131.646" width="5" height="5"/><rect class="cls-6" x="28" y="126.646" width="5" height="5"/><rect class="cls-6" x="23" y="141.646" width="5" height="5"/><path class="cls-6" d="M153.489,176H154v-.511A.511.511,0,0,1,153.489,176Z" transform="translate(-116 -29.354)"/><path class="cls-6" d="M149,176h4.489a.511.511,0,0,0,.511-.511V171h-5Z" transform="translate(-116 -29.354)"/><rect class="cls-6" x="28" y="136.646" width="5" height="5"/><rect class="cls-6" x="33" y="131.646" width="5" height="5"/><rect class="cls-6" x="13" y="131.646" width="5" height="5"/><rect class="cls-6" x="18" y="126.646" width="5" height="5"/><rect class="cls-6" x="13" y="141.646" width="5" height="5"/><rect class="cls-6" x="8" y="136.646" width="5" height="5"/><rect class="cls-3" y="152.646" width="123" height="2"/><rect class="cls-4" y="171.646" width="123" height="48" rx="13.755"/><path class="cls-5" d="M116.862,240a13.745,13.745,0,0,0,12.893,9h95.49a13.745,13.745,0,0,0,12.893-9Z" transform="translate(-116 -29.354)"/><path class="cls-6" d="M153.213,208H124.787A1.787,1.787,0,0,0,123,209.787v18.426A1.787,1.787,0,0,0,124.787,230h28.426A1.787,1.787,0,0,0,155,228.213V209.787A1.787,1.787,0,0,0,153.213,208Zm.787,6v15H124.511a.511.511,0,0,1-.511-.511V209h29.489a.511.511,0,0,1,.511.511Z" transform="translate(-116 -29.354)"/><rect class="cls-7" x="23" y="179.646" width="5" height="5"/><rect class="cls-7" x="13" y="179.646" width="5" height="5"/><rect class="cls-7" x="8" y="184.646" width="5" height="5"/><rect class="cls-7" x="23" y="189.646" width="5" height="5"/><rect class="cls-7" x="18" y="184.646" width="5" height="5"/><rect class="cls-7" x="28" y="184.646" width="5" height="5"/><rect class="cls-7" x="13" y="189.646" width="5" height="5"/><path class="cls-7" d="M124,224v4.489a.511.511,0,0,0,.511.511H129v-5Z" transform="translate(-116 -29.354)"/><rect class="cls-7" x="28" y="194.646" width="5" height="5"/><rect class="cls-7" x="33" y="189.646" width="5" height="5"/><path class="cls-7" d="M153.489,209H149v5h5v-4.489A.511.511,0,0,0,153.489,209Z" transform="translate(-116 -29.354)"/><rect class="cls-7" x="18" y="194.646" width="5" height="5"/><path class="cls-6" d="M124.511,209H124v.511A.511.511,0,0,1,124.511,209Z" transform="translate(-116 -29.354)"/><path class="cls-6" d="M129,209h-4.489a.511.511,0,0,0-.511.511V214h5Z" transform="translate(-116 -29.354)"/><rect class="cls-6" x="18" y="189.646" width="5" height="5"/><rect class="cls-6" x="23" y="184.646" width="5" height="5"/><rect class="cls-6" x="28" y="179.646" width="5" height="5"/><rect class="cls-6" x="23" y="194.646" width="5" height="5"/><path class="cls-6" d="M153.489,229H154v-.511A.511.511,0,0,1,153.489,229Z" transform="translate(-116 -29.354)"/><path class="cls-6" d="M149,229h4.489a.511.511,0,0,0,.511-.511V224h-5Z" transform="translate(-116 -29.354)"/><rect class="cls-6" x="28" y="189.646" width="5" height="5"/><rect class="cls-6" x="33" y="184.646" width="5" height="5"/><rect class="cls-6" x="13" y="184.646" width="5" height="5"/><rect class="cls-6" x="18" y="179.646" width="5" height="5"/><rect class="cls-6" x="13" y="194.646" width="5" height="5"/><rect class="cls-6" x="8" y="189.646" width="5" height="5"/><rect class="cls-3" y="205.646" width="123" height="2"/></g><g id="Rack_3_Lights" data-name="Rack 3 Lights"><circle class="cls-8" cx="113.5" cy="196.146" r="3.5"/><circle class="cls-8" cx="102.5" cy="196.146" r="3.5"/><circle class="cls-2" cx="91.5" cy="196.146" r="3.5"/></g><g id="Rack_2_Lights" data-name="Rack 2 Lights"><circle class="cls-8" cx="113.5" cy="143.146" r="3.5"/><circle class="cls-2" cx="102.5" cy="143.146" r="3.5"/><circle class="cls-8" cx="91.5" cy="143.146" r="3.5"/></g><g id="Rack_1_Lights" data-name="Rack 1 Lights"><circle class="cls-2" cx="113.5" cy="90.146" r="3.5"/><circle class="cls-8" cx="102.5" cy="90.146" r="3.5"/><circle class="cls-8" cx="91.5" cy="90.146" r="3.5"/></g></svg>