<?xml version="1.0" encoding="utf-8"?>
<!-- Generator: Adobe Illustrator 16.0.0, SVG Export Plug-In . SVG Version: 6.00 Build 0)  -->
<!DOCTYPE svg PUBLIC "-//W3C//DTD SVG 1.1//EN" "http://www.w3.org/Graphics/SVG/1.1/DTD/svg11.dtd">
<svg version="1.1" id="Layer_1" xmlns="http://www.w3.org/2000/svg" xmlns:xlink="http://www.w3.org/1999/xlink" x="0px" y="0px"
	 width="200px" height="169px" viewBox="0 0 200 169" enable-background="new 0 0 200 169" xml:space="preserve">
<g>
	<g>
		<path id="test1" fill="#60AED9" d="M100.042,22.486c30.348,0,60.693,0,91.039,0c0.147,0,0.295-0.001,0.443,0
			c0.929,0.011,0.936,0.011,0.938,0.992c0.009,4.788,0.02,9.576,0.016,14.363c-0.007,12.264-0.005,24.528-0.04,36.792
			c-0.011,3.897-0.124,7.793-0.206,11.69c-0.065,3.123-0.146,6.246-0.232,9.369c-0.063,2.351-0.136,4.7-0.212,7.052
			c-0.066,1.982-0.18,3.962-0.206,5.945c-0.072,5.258-0.156,10.518-0.152,15.777c0.005,6.623,0.109,13.244,0.135,19.867
			c0.005,1.797-0.117,3.596-0.188,5.393c-0.034,0.832-0.067,0.883-0.889,0.895c-5.59,0.088-11.181,0.246-16.77,0.207
			c-3.074-0.021-6.146-0.369-9.218-0.594c-1.901-0.137-3.804-0.285-5.7-0.488c-2.256-0.24-4.507-0.543-6.759-0.822
			c-2.508-0.311-5.019-0.604-7.521-0.941c-4.173-0.564-8.364-0.508-12.552-0.375c-2.562,0.078-5.117,0.381-7.675,0.58
			c-1.023,0.08-2.048,0.168-3.072,0.221c-1.981,0.102-3.963,0.197-5.944,0.266c-2.645,0.094-5.291,0.164-7.936,0.236
			c-2.607,0.068-5.216,0.182-7.823,0.182c-30.2,0.014-60.398,0.012-90.597,0.008c-1.583,0-1.391,0.221-1.391-1.42
			c-0.003-41.248-0.003-82.495,0-123.743c0-1.689-0.203-1.446,1.474-1.446C39.35,22.484,69.696,22.486,100.042,22.486z
			 M100.032,34.401c-26.254,0-52.509-0.001-78.764,0.003c-1.606,0-1.381-0.196-1.381,1.425c-0.004,33.288-0.003,66.576-0.003,99.863
			c0,1.494,0,1.494,1.544,1.494c21.762,0,43.525,0.012,65.287-0.01c6.401-0.008,12.802-0.096,19.203-0.178
			c2.756-0.035,5.512-0.115,8.266-0.229c2.787-0.113,5.57-0.275,8.354-0.451c3.183-0.199,6.36-0.568,9.546-0.623
			c3.894-0.068,7.792,0.1,11.688,0.191c0.768,0.018,1.532,0.143,2.295,0.242c2.068,0.271,4.133,0.576,6.204,0.836
			c2.034,0.256,4.073,0.488,6.111,0.697c2.951,0.305,5.903,0.602,8.858,0.861c1.462,0.127,2.932,0.184,4.397,0.242
			c2.24,0.086,4.48,0.16,6.721,0.213c0.878,0.023,0.88-0.01,0.894-0.92c0.002-0.146,0.002-0.295,0-0.443
			c-0.071-5.922-0.168-11.844-0.2-17.766c-0.016-2.791,0.082-5.582,0.147-8.375c0.065-2.756,0.15-5.51,0.231-8.264
			c0.067-2.276,0.146-4.553,0.215-6.828c0.072-2.461,0.158-4.92,0.208-7.381c0.089-4.411,0.209-8.823,0.222-13.235
			c0.04-13.293,0.038-26.585,0.044-39.878c0-1.688,0.248-1.484-1.435-1.484C152.467,34.4,126.249,34.401,100.032,34.401z"/>
		<path fill="#F06C7C" d="M78.876,86.549c0-7.255,0-14.51,0-21.764c0-0.185-0.004-0.369,0-0.553c0.02-0.8,0.021-0.82,0.777-0.821
			c4.934-0.006,9.869-0.006,14.805,0c0.783,0.001,0.793,0.021,0.791,0.788c-0.009,2.356-0.006,4.714-0.042,7.07
			c-0.054,3.566-0.133,7.131-0.212,10.697c-0.008,0.363-0.103,0.725-0.125,1.088c-0.006,0.118,0.092,0.242,0.143,0.363
			c0.089-0.088,0.236-0.164,0.261-0.27c0.396-1.674,1.328-3.1,2.133-4.58c2.634-4.842,5.29-9.671,7.909-14.52
			c0.271-0.5,0.59-0.649,1.129-0.648c5.561,0.016,11.121,0.009,16.683,0.012c0.253,0.001,0.505,0.048,0.759,0.073
			c-0.094,0.263-0.142,0.555-0.288,0.784c-2.08,3.249-4.172,6.49-6.262,9.73c-2.369,3.674-4.729,7.355-7.124,11.012
			c-0.465,0.712-0.488,1.25,0.016,1.983c3.225,4.695,6.399,9.424,9.589,14.143c1.83,2.709,3.656,5.42,5.49,8.127
			c0.239,0.354,0.213,0.529-0.248,0.529c-0.222,0-0.442,0-0.663,0c-5.781,0-11.563-0.012-17.346,0.018
			c-0.75,0.004-1.165-0.205-1.545-0.883c-2.258-4.041-4.571-8.051-6.876-12.064c-0.677-1.179-1.412-2.324-2.077-3.509
			c-0.448-0.796-0.816-1.637-1.23-2.452c-0.059-0.115-0.171-0.203-0.26-0.303c-0.058,0.109-0.169,0.22-0.166,0.326
			c0.037,1.873,0.099,3.746,0.135,5.62c0.079,4.081,0.148,8.163,0.215,12.243c0.016,0.998,0.002,1.002-1.012,1.004
			c-4.788,0.002-9.575,0-14.363,0.002c-1.072,0-0.996,0.041-0.996-1.039C78.876,101.354,78.876,93.951,78.876,86.549z"/>
		<path fill="#F06C7C" d="M72.699,95.356c-0.081,3.418-0.156,6.838-0.247,10.255c-0.02,0.73-0.111,1.46-0.146,2.192
			c-0.046,0.953-0.042,1.021-1.006,1.291c-1.198,0.334-2.404,0.693-3.631,0.852c-2.287,0.295-4.59,0.596-6.892,0.633
			c-4.168,0.07-8.143-0.848-11.843-2.844c-4.417-2.383-7.709-5.842-9.883-10.344c-1.238-2.561-1.926-5.274-2.181-8.131
			c-0.428-4.819,0.447-9.356,2.667-13.623c2.266-4.356,5.578-7.719,9.922-10.038c2.847-1.52,5.864-2.417,9.095-2.724
			c4.462-0.423,8.766,0.222,13.013,1.536c0.583,0.18,0.731,0.465,0.742,1.016c0.062,3.124,0.146,6.247,0.231,9.37
			c0.062,2.24,0.141,4.48,0.204,6.72c0.005,0.176-0.047,0.353-0.072,0.529c-0.155-0.08-0.325-0.141-0.465-0.242
			c-0.979-0.712-1.914-1.494-2.934-2.139c-2.055-1.299-4.278-2.023-6.759-1.981c-3.796,0.063-7.712,2.87-8.601,7.339
			c-0.875,4.399,1.993,9.233,7.18,10.38c2.982,0.658,5.767-0.012,8.354-1.511c0.978-0.566,1.83-1.347,2.74-2.028
			c0.142-0.105,0.291-0.199,0.436-0.3c0.041,0.196,0.115,0.395,0.117,0.591c0.011,1.067,0.005,2.135,0.005,3.203
			C72.73,95.357,72.714,95.356,72.699,95.356z"/>
		<path fill="#F06C7C" d="M159.352,79.399c0,0.736,0.003,1.473-0.002,2.209c-0.002,0.144-0.034,0.288-0.052,0.432
			c-0.166-0.062-0.356-0.091-0.494-0.19c-1.193-0.854-2.301-1.855-3.573-2.561c-3.369-1.862-6.864-2.365-10.385-0.379
			c-2.301,1.299-3.69,3.315-4.282,5.877c-1.029,4.457,1.837,9.464,7.112,10.612c3.025,0.659,5.839-0.016,8.449-1.554
			c1.004-0.591,1.876-1.407,2.814-2.112c0.102-0.076,0.245-0.098,0.371-0.145c0.014,0.108,0.044,0.217,0.041,0.324
			c-0.061,1.874-0.143,3.746-0.185,5.619c-0.047,2.135-0.045,4.27-0.091,6.406c-0.029,1.393-0.138,2.786-0.15,4.18
			c-0.005,0.586-0.35,0.791-0.784,0.902c-1.348,0.342-2.69,0.746-4.062,0.939c-2.14,0.297-4.297,0.557-6.453,0.621
			c-2.606,0.08-5.192-0.262-7.703-1.037c-6.452-1.988-11.207-5.999-14.201-12.041c-1.246-2.514-1.959-5.186-2.229-8.006
			c-0.64-6.697,1.126-12.681,5.295-17.892c3.054-3.819,6.994-6.446,11.733-7.835c3.139-0.918,6.304-1.175,9.567-0.916
			c2.69,0.214,5.296,0.717,7.863,1.491c0.951,0.286,0.938,0.311,0.96,1.282c0.08,3.456,0.154,6.911,0.257,10.364
			c0.032,1.136,0.139,2.27,0.211,3.405C159.371,79.397,159.361,79.398,159.352,79.399z"/>
	</g>
</g>
</svg>
