<svg enable-background="new 0 0 200 169" height="169" viewBox="0 0 200 169" width="200" xmlns="http://www.w3.org/2000/svg"><path d="m100.042 22.486h91.039c.147 0 .295-.001.443 0 .929.011.936.011.938.992.009 4.788.02 9.576.016 14.363-.007 12.264-.005 24.528-.04 36.792-.011 3.897-.124 7.793-.206 11.69-.065 3.123-.146 6.246-.232 9.369-.063 2.351-.136 4.7-.212 7.052-.066 1.982-.18 3.962-.206 5.945-.072 5.258-.156 10.518-.152 15.777.005 6.623.109 13.244.135 19.867.005 1.797-.117 3.596-.188 5.393-.034.832-.067.883-.889.895-5.59.088-11.181.246-16.77.207-3.074-.021-6.146-.369-9.218-.594-1.901-.137-3.804-.285-5.7-.488-2.256-.24-4.507-.543-6.759-.822-2.508-.311-5.019-.604-7.521-.941-4.173-.564-8.364-.508-12.552-.375-2.562.078-5.117.381-7.675.58-1.023.08-2.048.168-3.072.221-1.981.102-3.963.197-5.944.266-2.645.094-5.291.164-7.936.236-2.607.068-5.216.182-7.823.182-30.2.014-60.398.012-90.597.008-1.583 0-1.391.221-1.391-1.42-.003-41.248-.003-82.495 0-123.743 0-1.689-.203-1.446 1.474-1.446 30.346-.008 60.692-.006 91.038-.006zm-.01 11.915c-26.254 0-52.509-.001-78.764.003-1.606 0-1.381-.196-1.381 1.425-.004 33.288-.003 66.576-.003 99.863 0 1.494 0 1.494 1.544 1.494 21.762 0 43.525.012 65.287-.01 6.401-.008 12.802-.096 19.203-.178 2.756-.035 5.512-.115 8.266-.229 2.787-.113 5.57-.275 8.354-.451 3.183-.199 6.36-.568 9.546-.623 3.894-.068 7.792.1 11.688.191.768.018 1.532.143 2.295.242 2.068.271 4.133.576 6.204.836 2.034.256 4.073.488 6.111.697 2.951.305 5.903.602 8.858.861 1.462.127 2.932.184 4.397.242 2.24.086 4.48.16 6.721.213.878.023.88-.01.894-.92.002-.146.002-.295 0-.443-.071-5.922-.168-11.844-.2-17.766-.016-2.791.082-5.582.147-8.375.065-2.756.15-5.51.231-8.264.067-2.276.146-4.553.215-6.828.072-2.461.158-4.92.208-7.381.089-4.411.209-8.823.222-13.235.04-13.293.038-26.585.044-39.878 0-1.688.248-1.484-1.435-1.484-26.217-.003-52.435-.002-78.652-.002z" fill="#60aed9"/><g fill="#f06c7c"><path d="m78.876 86.549c0-7.255 0-14.51 0-21.764 0-.185-.004-.369 0-.553.02-.8.021-.82.777-.821 4.934-.006 9.869-.006 14.805 0 .783.001.793.021.791.788-.009 2.356-.006 4.714-.042 7.07-.054 3.566-.133 7.131-.212 10.697-.008.363-.103.725-.125 1.088-.006.118.092.242.143.363.089-.088.236-.164.261-.27.396-1.674 1.328-3.1 2.133-4.58 2.634-4.842 5.29-9.671 7.909-14.52.271-.5.59-.649 1.129-.648 5.561.016 11.121.009 16.683.012.253.001.505.048.759.073-.094.263-.142.555-.288.784-2.08 3.249-4.172 6.49-6.262 9.73-2.369 3.674-4.729 7.355-7.124 11.012-.465.712-.488 1.25.016 1.983 3.225 4.695 6.399 9.424 9.589 14.143 1.83 2.709 3.656 5.42 5.49 8.127.239.354.213.529-.248.529-.222 0-.442 0-.663 0-5.781 0-11.563-.012-17.346.018-.75.004-1.165-.205-1.545-.883-2.258-4.041-4.571-8.051-6.876-12.064-.677-1.179-1.412-2.324-2.077-3.509-.448-.796-.816-1.637-1.23-2.452-.059-.115-.171-.203-.26-.303-.058.109-.169.22-.166.326.037 1.873.099 3.746.135 5.62.079 4.081.148 8.163.215 12.243.016.998.002 1.002-1.012 1.004-4.788.002-9.575 0-14.363.002-1.072 0-.996.041-.996-1.039 0-7.401 0-14.804 0-22.206z"/><path d="m72.699 95.356c-.081 3.418-.156 6.838-.247 10.255-.02.73-.111 1.46-.146 2.192-.046.953-.042 1.021-1.006 1.291-1.198.334-2.404.693-3.631.852-2.287.295-4.59.596-6.892.633-4.168.07-8.143-.848-11.843-2.844-4.417-2.383-7.709-5.842-9.883-10.344-1.238-2.561-1.926-5.274-2.181-8.131-.428-4.819.447-9.356 2.667-13.623 2.266-4.356 5.578-7.719 9.922-10.038 2.847-1.52 5.864-2.417 9.095-2.724 4.462-.423 8.766.222 13.013 1.536.583.18.731.465.742 1.016.062 3.124.146 6.247.231 9.37.062 2.24.141 4.48.204 6.72.005.176-.047.353-.072.529-.155-.08-.325-.141-.465-.242-.979-.712-1.914-1.494-2.934-2.139-2.055-1.299-4.278-2.023-6.759-1.981-3.796.063-7.712 2.87-8.601 7.339-.875 4.399 1.993 9.233 7.18 10.38 2.982.658 5.767-.012 8.354-1.511.978-.566 1.83-1.347 2.74-2.028.142-.105.291-.199.436-.3.041.196.115.395.117.591.011 1.067.005 2.135.005 3.203-.015-.001-.031-.002-.046-.002z"/><path d="m159.352 79.399c0 .736.003 1.473-.002 2.209-.002.144-.034.288-.052.432-.166-.062-.356-.091-.494-.19-1.193-.854-2.301-1.855-3.573-2.561-3.369-1.862-6.864-2.365-10.385-.379-2.301 1.299-3.69 3.315-4.282 5.877-1.029 4.457 1.837 9.464 7.112 10.612 3.025.659 5.839-.016 8.449-1.554 1.004-.591 1.876-1.407 2.814-2.112.102-.076.245-.098.371-.145.014.108.044.217.041.324-.061 1.874-.143 3.746-.185 5.619-.047 2.135-.045 4.27-.091 6.406-.029 1.393-.138 2.786-.15 4.18-.005.586-.35.791-.784.902-1.348.342-2.69.746-4.062.939-2.14.297-4.297.557-6.453.621-2.606.08-5.192-.262-7.703-1.037-6.452-1.988-11.207-5.999-14.201-12.041-1.246-2.514-1.959-5.186-2.229-8.006-.64-6.697 1.126-12.681 5.295-17.892 3.054-3.819 6.994-6.446 11.733-7.835 3.139-.918 6.304-1.175 9.567-.916 2.69.214 5.296.717 7.863 1.491.951.286.938.311.96 1.282.08 3.456.154 6.911.257 10.364.032 1.136.139 2.27.211 3.405-.008.003-.018.004-.027.005z"/></g></svg>