<svg xmlns="http://www.w3.org/2000/svg" viewBox="0 0 467.52 594.72"><defs><style>.cls-1{fill:#e3d4a5;}.cls-2{fill:#f8f5e0;}.cls-3{fill:#f1e6be;}.cls-4{fill:#d1c08d;}.cls-5{fill:#e6d7a5;}.cls-6{fill:#32bfc9;}.cls-7{fill:#8feaef;opacity:0.6;}</style></defs><g id="Layer_1" data-name="Layer 1"><path class="cls-1" d="M1165.23,839.53a1.83,1.83,0,0,1,0,.47H755.76a1.47,1.47,0,0,1,0-.47h409.49Z" transform="translate(-726.48 -245.28)"/><path class="cls-2" d="M726.48,421.92l.89,0c-.13,4.06-.36,8.11-.39,12.17q-.09,14,0,28.06c0,5.18.26,10.35.4,15.53l-.9,0Z" transform="translate(-726.48 -245.28)"/><path class="cls-2" d="M935.27,245.74c0-.15,0-.3,0-.46h48.48c0,.16,0,.31,0,.47Z" transform="translate(-726.48 -245.28)"/><path class="cls-2" d="M1193.54,430.06l.46,0v48l-.46,0Z" transform="translate(-726.48 -245.28)"/><path class="cls-3" d="M1193.54,430.06v48c0,1.44,0,2.88,0,4.32-.16,9.66-.31,19.32-.52,29-.08,3.74-.28,7.48-.47,11.22q-.45,9-1,17.9c-.28,4.68-.63,9.37-1,14.05s-.58,9.21-1,13.81c-.38,4.43-.93,8.85-1.34,13.28-.25,2.62-.33,5.25-.55,7.86-.24,2.85-.57,5.69-.86,8.54-.18,1.82-.38,3.64-.54,5.46-.5,5.46-.94,10.93-1.51,16.39-.53,5.13-1.21,10.25-1.83,15.38-.18,1.47-.36,2.93-.56,4.53-2.85.18-5.38.39-7.92.49-5.18.2-10.36.33-15.54.52-3.75.13-7.49.32-11.23.47q-6.09.26-12.19.48l-12.66.48-14.11.48q-7.41.25-14.83.48c-5.9.17-11.8.3-17.7.5-2.31.07-4.61.29-6.91.45-5.35.14-10.69.3-16,.41-8.46.18-16.93.36-25.39.47-14.94.2-29.88.49-44.82.45-17.42,0-34.84.36-52.27-.31-14.12-.54-28.28.23-42.42-.48-7.26-.36-14.55-.07-21.83-.07a32.9,32.9,0,0,0-3.54-.44c-4.56-.06-9.12,0-13.67-.07-6.71-.12-13.41-.3-20.11-.48-4.86-.14-9.73-.31-14.59-.47l-14.35-.49c-4.14-.14-8.28-.32-12.42-.47-4.55-.17-9.09-.32-13.63-.5-3.5-.13-7-.27-10.51-.47-4.77-.27-9.53-.63-14.3-.88-2.31-.11-4.64,0-7-.09-2-.1-4.09-.38-6.2-.59-.24-2.33-.53-4.52-.7-6.72-.37-4.69-.67-9.37-1-14.05-.3-4.13-.64-8.25-1-12.38q-.74-9.63-1.45-19.27-.5-7-1-14.06-.5-7.62-1-15.25c-.17-2.62-.34-5.24-.47-7.87q-.51-10.62-1-21.25c-.17-3.82-.34-7.65-.48-11.47-.17-4.78-.1-9.58-.53-14.34-.76-8.46-.18-16.93-.47-25.39-.14-5.18-.36-10.35-.4-15.53q-.09-14,0-28.06c0-4.06.26-8.11.39-12.17,0-5.76,0-11.51.09-17.27.11-6.38.3-12.76.49-19.14.12-3.74.31-7.48.47-11.22s.31-7.65.49-11.47q.21-4.65.47-9.3c.31-5.73.62-11.45,1-17.17.29-4.92.62-9.85.95-14.77.31-4.52.64-9.05,1-13.57s.59-8.89,1-13.32c.39-4.59.94-9.17,1.35-13.76.25-2.78.32-5.56.55-8.34.2-2.45.54-4.9.76-7.35.12-1.35.12-2.7.2-4.06.09-1.59.28-1.76,1.8-1.94,5.28-.62,10.56-1.3,15.85-1.87,3.71-.41,7.45-.65,11.16-1s7.41-.9,11.12-1.32c1.89-.22,3.8-.38,5.7-.54,4.12-.35,8.24-.63,12.36-1,4.43-.42,8.85-.92,13.28-1.36q3.09-.3,6.18-.51c2.94-.2,5.89-.3,8.82-.53,5.23-.42,10.45-.9,15.68-1.35l.72,0c3.9-.17,7.8-.32,11.7-.52,5.8-.31,11.6-.65,17.41-1,2.94-.17,5.88-.3,8.82-.48,4.69-.28,9.37-.6,14-.9h.48q10.41-.26,20.82-.51l23.22-.49h48.5c3.84,0,7.68,0,11.52,0q9.81.18,19.62.48c4.14.12,8.28.3,12.42.47q5.85.22,11.71.49,4.65.21,9.3.47c5.73.31,11.45.62,17.17,1,4.77.29,9.53.62,14.29,1,4.53.31,9,.62,13.57,1q8.93.69,17.84,1.44c5.3.45,10.61.95,15.91,1.43,5.14.48,10.29.92,15.43,1.47s10.25,1.25,15.38,1.82c3.71.4,7.45.63,11.16,1,3.32.36,6.61.86,9.92,1.28,1,.13,2,.17,3.36.27.2,1.42.42,2.8.59,4.2.27,2.28.52,4.57.77,6.86.21,1.9.46,3.79.63,5.69.21,2.38.31,4.76.54,7.14.39,3.95.86,7.89,1.29,11.84.2,1.9.39,3.8.55,5.7.2,2.46.34,4.92.54,7.38.27,3.25.59,6.49.88,9.73.18,1.9.39,3.8.51,5.7.21,3.26.32,6.53.55,9.79s.59,6.64.86,10c.2,2.3.41,4.6.52,6.9.21,4.22.31,8.45.55,12.66.23,4,.59,7.93.89,11.9,0,.16,0,.32,0,.48l.51,16c.17,5.18.08,10.39.55,15.54C1193.84,414.58,1193.28,422.32,1193.54,430.06ZM771.63,573.14a2.77,2.77,0,0,0,.81.43c5.11.66,10.23,1.36,15.35,1.92,3.87.43,7.76.67,11.64,1,2,.17,4,.37,5.92.58,2.53.27,5,.59,7.57.82s4.93.32,7.38.55c4.58.42,9.16.95,13.74,1.36,4,.37,8.08.67,12.12,1q7.38.51,14.76,1c5.56.34,11.12.65,16.68,1,3.26.18,6.52.33,9.78.48,3.74.17,7.48.34,11.22.48,4.46.17,8.92.34,13.38.48,6.53.2,13.09-.42,19.61.48,19.9-.27,39.8.57,59.69-.44,6.45-.33,12.92.25,19.39-.45,4.26-.46,8.59-.47,12.89-.51,7-.07,14-.38,21-1,2.69-.23,5.4-.32,8.1-.49,5.24-.32,10.47-.66,15.71-1,3.5-.2,7-.33,10.5-.5l.72,0c3.16-.3,6.32-.63,9.48-.89,2.7-.22,5.41-.28,8.1-.54,4.18-.4,8.36-1,12.54-1.36,4-.39,8.08-.66,12.12-1,1.82-.15,3.63-.35,5.45-.55,3.94-.44,7.88-.88,11.82-1.36,2.74-.33,5.47-.72,8.36-1.1.36-2.3.68-4.42,1-6.53,1.24-7.67,2.55-15.34,3.72-23,.89-5.88,1.66-11.78,2.4-17.69.7-5.67,1.33-11.35,1.93-17,.53-5,1-10,1.45-14.94q.54-6,1-12.12c.36-5.23.67-10.47,1-15.72.21-3.65.4-7.31.48-11,.16-7.41-.13-14.83.42-22.26.27-3.71-.3-7.47-.38-11.21-.2-9.18-.34-18.36-.51-27.54q0-.48,0-1c-.3-4-.64-7.91-.91-11.88-.21-3.17-.32-6.36-.52-9.53-.13-2.07-.32-4.13-.53-6.18-.27-2.6-.62-5.2-.87-7.81-.22-2.29-.34-4.59-.54-6.89-.15-1.74-.34-3.48-.56-5.21-.42-3.38-.89-6.76-1.3-10.15-.38-3.15-.65-6.32-1.08-9.46-.54-3.93-1.22-7.84-1.8-11.76-.55-3.77-1-7.56-1.57-11.32s-1.06-7.23-1.87-10.78c-.38-1.65.16-3.6-1.36-4.94-.26-.16-.51-.43-.79-.46-3.77-.51-7.54-1-11.32-1.47-2.21-.26-4.44-.35-6.65-.59-3.79-.41-7.56-.93-11.34-1.32-2.45-.26-4.93-.29-7.38-.54-4.26-.42-8.51-1-12.77-1.38-3.8-.37-7.6-.66-11.4-1q-6.3-.51-12.6-1c-4.67-.33-9.35-.67-14-1-5.64-.34-11.28-.65-16.92-1-3.18-.18-6.36-.33-9.54-.48-3.73-.17-7.47-.34-11.21-.48q-6.81-.27-13.62-.48c-6.3-.2-12.62.42-18.89-.49-20.7.29-41.4-.53-62.09.44-8.13.38-16.27.34-24.41.53-5.26.12-10.52.32-15.78.48l-.48,0c-4.27.31-8.55.67-12.83.91s-8.44.34-12.66.51l-.72.06c-3.48.3-6.95.64-10.44.88-3.25.22-6.52.32-9.77.52-2.06.13-4.12.33-6.18.52-3,.28-6,.62-9,.88-2.53.22-5.08.29-7.61.54-4.27.42-8.52,1-12.78,1.37-3.87.39-7.76.67-11.63,1-1.74.15-3.48.35-5.22.54l-7.32.87c-2.74.34-5.47.71-8.2,1.06-.37,2.23-.71,4.26-1,6.28-.54,3.29-1.12,6.57-1.62,9.87-.56,3.76-1.06,7.54-1.59,11.31-.59,4.16-1.21,8.32-1.77,12.48-.42,3.07-.77,6.14-1.14,9.21-.43,3.47-.88,6.93-1.26,10.4-.23,2.13-.33,4.28-.56,6.41-.42,4-.95,8-1.35,12.06-.38,3.79-.69,7.59-1,11.39-.36,5.24-.67,10.48-1,15.72-.19,3.18-.37,6.36-.47,9.54-.2,6.29-.49,12.59-.46,18.89,0,10.86.25,21.72.45,32.57.1,5.26.31,10.52.48,15.78,0,.16,0,.32,0,.48l.93,13.31c.17,2.46.33,4.92.52,7.38.15,2,.3,4,.51,5.94.26,2.52.63,5,.87,7.56.23,2.37.28,4.76.55,7.13.4,3.55,1,7.07,1.37,10.62.53,4.49.94,9,1.52,13.48q1.1,8.38,2.38,16.73c.91,6,1.9,11.9,2.9,17.85C770.9,570.75,771.32,571.94,771.63,573.14Z" transform="translate(-726.48 -245.28)"/><path class="cls-3" d="M1103.33,708.47l76,0h3V828.41l-17,.08-2.88,0H758.53l-2.88,0h-16.5a3.86,3.86,0,0,1-.42-.41c-.05-.05-.12-.13-.12-.19q-.08-58.27-.14-116.55v-2.71c1.06,0,2-.13,2.89-.13h52.29l24,0h285.7Zm53.07,17.64c-2.77-.57-150.63-.45-152.31.09-.44,3.61-.27,25.53.23,27.25H1156.4Zm-400.06,27.2a3.47,3.47,0,0,0,.87.27l72.7,0c.56,0,1.11-.09,1.67-.14.06,0,.12-.09.18-.14l.17-.17c.47-4,.27-25.56-.25-27.2-3.22-.43-73.51-.28-75.34.2Zm377.19,58.23c.61-4.1-3.68-8.61-8.22-8.41-5.07.21-8,3.15-8.36,8.11a8.14,8.14,0,0,0,8.06,8.61C1129.74,819.94,1133.71,816.46,1133.53,811.54Zm6.22,0a8.23,8.23,0,0,0,8.33,8.34c4.53,0,8.58-3.8,8.4-8.34-.21-4.89-3.51-8.34-8.64-8.37A8.2,8.2,0,0,0,1139.75,811.5Z" transform="translate(-726.48 -245.28)"/><path class="cls-1" d="M1103.33,708.47H817.63V671.68c.31-.33.36-.4.42-.45a.48.48,0,0,1,.21-.09l57.48-.1h177l7.43,0h43c.24,3.22.08,6.31.11,9.39s0,6.23,0,9.35,0,6.24,0,9.36S1103.32,705.35,1103.33,708.47Z" transform="translate(-726.48 -245.28)"/><path class="cls-4" d="M1060.19,671l-7.43,0h-177c-1.79-3.28-3.65-6.52-5.35-9.83-2-3.93-2.74-8.28-3.71-12.52a18.84,18.84,0,0,1-.08-4.05c7.28,0,14.57-.29,21.83.07,14.14.71,28.3-.06,42.42.48,17.43.67,34.85.26,52.27.31,14.94,0,29.88-.25,44.82-.45,8.46-.11,16.93-.29,25.39-.47,5.34-.11,10.68-.27,16-.41.08,8.82-2.88,16.7-7.43,24.09C1061.36,669.19,1060.77,670.1,1060.19,671Z" transform="translate(-726.48 -245.28)"/><path class="cls-4" d="M755.65,828.49l2.88,0h403.9l2.88,0-.09,11H755.74Z" transform="translate(-726.48 -245.28)"/><path class="cls-5" d="M771.63,573.14c-.31-1.2-.73-2.39-.93-3.61-1-5.95-2-11.89-2.9-17.85q-1.27-8.35-2.38-16.73c-.58-4.48-1-9-1.52-13.48-.42-3.55-1-7.07-1.37-10.62-.27-2.37-.32-4.76-.55-7.13-.24-2.53-.61-5-.87-7.56-.21-2-.36-4-.51-5.94-.19-2.46-.35-4.92-.52-7.38l-.93-13.31c0-.16,0-.32,0-.48-.17-5.26-.38-10.52-.48-15.78-.2-10.85-.41-21.71-.45-32.57,0-6.3.26-12.6.46-18.89.1-3.18.28-6.36.47-9.54.3-5.24.61-10.48,1-15.72.27-3.8.58-7.6,1-11.39.4-4,.93-8,1.35-12.06.23-2.13.33-4.28.56-6.41.38-3.47.83-6.93,1.26-10.4.37-3.07.72-6.14,1.14-9.21.56-4.16,1.18-8.32,1.77-12.48.53-3.77,1-7.55,1.59-11.31.5-3.3,1.08-6.58,1.62-9.87.33-2,.67-4.05,1-6.28,2.73-.35,5.46-.72,8.2-1.06l7.32-.87c1.74-.19,3.48-.39,5.22-.54,3.87-.34,7.76-.62,11.63-1,4.26-.41,8.51-1,12.78-1.37,2.53-.25,5.08-.32,7.61-.54,3-.26,6-.6,9-.88,2.06-.19,4.12-.39,6.18-.52,3.25-.2,6.52-.3,9.77-.52,3.49-.24,7-.58,10.44-.88l.72-.06c4.22-.17,8.44-.27,12.66-.51s8.56-.6,12.83-.91l.48,0c5.26-.16,10.52-.36,15.78-.48,8.14-.19,16.28-.15,24.41-.53,20.69-1,41.39-.15,62.09-.44,6.27.91,12.59.29,18.89.49q6.81.21,13.62.48c3.74.14,7.48.31,11.21.48,3.18.15,6.36.3,9.54.48,5.64.31,11.28.62,16.92,1,4.68.29,9.36.63,14,1q6.3.47,12.6,1c3.8.3,7.6.59,11.4,1,4.26.42,8.51,1,12.77,1.38,2.45.25,4.93.28,7.38.54,3.78.39,7.55.91,11.34,1.32,2.21.24,4.44.33,6.65.59,3.78.44,7.55,1,11.32,1.47.28,0,.53.3.79.46q-6.65,7-13.27,14c-.82.86-1.53,1.82-2.35,2.67s-1.51,1.4-2.26,2.09c-4.45-.48-8.89-1-13.34-1.42-10.33-1-20.66-2-31-2.87q-13.24-1.11-26.52-1.9-14.12-.86-28.25-1.46-13.53-.6-27.08-.94c-8.95-.24-17.9-.46-26.85-.47-13.44,0-26.87.1-40.3.23-7.59.08-15.19.26-22.78.48q-14,.42-28,1c-7.9.33-15.81.73-23.71,1.12-2.63.13-5.26.31-7.89.51q-11.34.87-22.69,1.78c-4.54.36-9.08.69-13.61,1.11-6,.57-12.07,1.21-18.11,1.86-3,.32-6,.72-9,1.08a9.2,9.2,0,0,0-.48,1.47c-1.94,13.43-4,26.84-5.71,40.3-1.27,10.22-2.12,20.49-2.91,30.76-.67,8.68-1.13,17.38-1.43,26.09-.32,9.34-.36,18.7-.48,28,0,2.48.16,5,.23,7.42.17,6.08.23,12.15.51,18.22.45,9.58,1,19.15,1.6,28.72.25,4.06.62,8.12,1,12.17q1.07,10,2.27,20c.66,5.38,1.41,10.76,2.18,16.13.89,6.16,1.85,12.31,2.77,18.47-1.95,2.2-3.87,4.44-5.88,6.59s-4,4.11-6,6.17S773.62,571.08,771.63,573.14Z" transform="translate(-726.48 -245.28)"/><path class="cls-2" d="M1129.09,306.3c.75-.69,1.55-1.35,2.26-2.09s1.53-1.81,2.35-2.67q6.61-7,13.27-14c1.52,1.34,1,3.29,1.36,4.94.81,3.55,1.32,7.17,1.87,10.78s1,7.55,1.57,11.32c.58,3.92,1.26,7.83,1.8,11.76.43,3.14.7,6.31,1.08,9.46.41,3.39.88,6.77,1.3,10.15.22,1.73.41,3.47.56,5.21.2,2.3.32,4.6.54,6.89.25,2.61.6,5.21.87,7.81.21,2.05.4,4.11.53,6.18.2,3.17.31,6.36.52,9.53.27,4,.61,7.92.91,11.88q0,.48,0,1c.17,9.18.31,18.36.51,27.54.08,3.74.65,7.5.38,11.21-.55,7.43-.26,14.85-.42,22.26-.08,3.67-.27,7.33-.48,11-.29,5.25-.6,10.49-1,15.72q-.42,6.08-1,12.12c-.45,5-.92,10-1.45,14.94-.6,5.68-1.23,11.36-1.93,17-.74,5.91-1.51,11.81-2.4,17.69-1.17,7.68-2.48,15.35-3.72,23-.34,2.11-.66,4.23-1,6.53-2.89.38-5.62.77-8.36,1.1-3.94.48-7.88.92-11.82,1.36-1.82.2-3.63.4-5.45.55-4,.35-8.09.62-12.12,1-4.18.4-8.36,1-12.54,1.36-2.69.26-5.4.32-8.1.54-3.16.26-6.32.59-9.48.89l-.72,0c-3.5.17-7,.3-10.5.5-5.24.3-10.47.64-15.71,1-2.7.17-5.41.26-8.1.49-7,.59-14,.9-21,1-4.3,0-8.63,0-12.89.51-6.47.7-12.94.12-19.39.45-19.89,1-39.79.17-59.69.44-6.52-.9-13.08-.28-19.61-.48-4.46-.14-8.92-.31-13.38-.48-3.74-.14-7.48-.31-11.22-.48-3.26-.15-6.52-.3-9.78-.48-5.56-.31-11.12-.62-16.68-1q-7.38-.45-14.76-1c-4-.29-8.08-.59-12.12-1-4.58-.41-9.16-.94-13.74-1.36-2.45-.23-4.92-.33-7.38-.55s-5-.55-7.57-.82c-2-.21-4-.41-5.92-.58-3.88-.35-7.77-.59-11.64-1-5.12-.56-10.24-1.26-15.35-1.92a2.77,2.77,0,0,1-.81-.43q3-3.09,6-6.17c2-2.06,4.07-4.07,6-6.17s3.93-4.39,5.88-6.59c7.21.85,14.42,1.8,21.65,2.52,8.18.81,16.39,1.46,24.59,2.09,10.2.79,20.39,1.58,30.6,2.2q14.6.88,29.21,1.42c11.11.41,22.22.8,33.32.94,28.63.36,57.26.4,85.87-.72,6.55-.26,13.11-.43,19.66-.67,3.43-.13,6.87-.3,10.3-.51q14.6-.9,29.18-1.85c4.55-.3,9.09-.66,13.63-1q9.66-.84,19.32-1.78,7.88-.76,15.74-1.6c2.19-.24,4.38-.58,6.53-.86.21-1,.41-1.66.51-2.37,1.66-11.54,3.51-23.06,4.89-34.63,1.47-12.37,2.67-24.77,3.67-37.19.75-9.4,1.19-18.83,1.43-28.25.47-18.31.37-36.63-.42-54.93-.14-3.11-.28-6.23-.52-9.34-.55-7.32-1.12-14.65-1.76-22-.48-5.57-1-11.15-1.63-16.7q-1.49-12.36-3.26-24.7C1131.17,318.26,1130.08,312.29,1129.09,306.3Z" transform="translate(-726.48 -245.28)"/><path class="cls-4" d="M1156.4,726.11v27.34H1004.32c-.5-1.72-.67-23.64-.23-27.25C1005.77,725.66,1153.63,725.54,1156.4,726.11Z" transform="translate(-726.48 -245.28)"/><path class="cls-4" d="M756.34,753.31V726.17c1.83-.48,72.12-.63,75.34-.2.52,1.64.72,23.18.25,27.2l-.17.17c-.06,0-.12.13-.18.14-.56,0-1.11.14-1.67.14l-72.7,0A3.47,3.47,0,0,1,756.34,753.31Z" transform="translate(-726.48 -245.28)"/><path class="cls-4" d="M1133.53,811.54c.18,4.92-3.79,8.4-8.52,8.31a8.14,8.14,0,0,1-8.06-8.61c.32-5,3.29-7.9,8.36-8.11C1129.85,802.93,1134.14,807.44,1133.53,811.54Z" transform="translate(-726.48 -245.28)"/><path class="cls-4" d="M1139.75,811.5a8.2,8.2,0,0,1,8.09-8.37c5.13,0,8.43,3.48,8.64,8.37.18,4.54-3.87,8.36-8.4,8.34A8.23,8.23,0,0,1,1139.75,811.5Z" transform="translate(-726.48 -245.28)"/><path class="cls-6" d="M1129.09,306.3c1,6,2.08,12,2.94,18q1.79,12.33,3.26,24.7c.67,5.55,1.15,11.13,1.63,16.7.64,7.32,1.21,14.65,1.76,22,.24,3.11.38,6.23.52,9.34.79,18.3.89,36.62.42,54.93-.24,9.42-.68,18.85-1.43,28.25-1,12.42-2.2,24.82-3.67,37.19-1.38,11.57-3.23,23.09-4.89,34.63-.1.71-.3,1.4-.51,2.37-2.15.28-4.34.62-6.53.86q-7.86.84-15.74,1.6-9.66.93-19.32,1.78c-4.54.39-9.08.75-13.63,1q-14.58,1-29.18,1.85c-3.43.21-6.87.38-10.3.51-6.55.24-13.11.41-19.66.67-28.61,1.12-57.24,1.08-85.87.72-11.1-.14-22.21-.53-33.32-.94Q881,561.9,866.36,561c-10.21-.62-20.4-1.41-30.6-2.2-8.2-.63-16.41-1.28-24.59-2.09-7.23-.72-14.44-1.67-21.65-2.52-.92-6.16-1.88-12.31-2.77-18.47-.77-5.37-1.52-10.75-2.18-16.13q-1.22-10-2.27-20c-.43-4.05-.8-8.11-1-12.17-.59-9.57-1.15-19.14-1.6-28.72-.28-6.07-.34-12.14-.51-18.22-.07-2.47-.26-4.94-.23-7.42.12-9.35.16-18.71.48-28,.3-8.71.76-17.41,1.43-26.09.79-10.27,1.64-20.54,2.91-30.76,1.67-13.46,3.77-26.87,5.71-40.3a9.2,9.2,0,0,1,.48-1.47c3-.36,6-.76,9-1.08,6-.65,12.07-1.29,18.11-1.86,4.53-.42,9.07-.75,13.61-1.11q11.34-.9,22.69-1.78c2.63-.2,5.26-.38,7.89-.51,7.9-.39,15.81-.79,23.71-1.12q14-.57,28-1c7.59-.22,15.19-.4,22.78-.48,13.43-.13,26.86-.25,40.3-.23,9,0,17.9.23,26.85.47s18.06.54,27.08.94q14.13.62,28.25,1.46,13.26.81,26.52,1.9c10.35.86,20.68,1.88,31,2.87C1120.2,305.3,1124.64,305.82,1129.09,306.3Zm-225.38,2.62-.09.52c51,10.72,96.11,33.19,135.1,67.83s66.58,77,83.62,126.31a33.24,33.24,0,0,0,.62-4.53c.19-2.14.36-4.28.54-6.42.3-3.4.61-6.8.89-10.2.06-.72,0-1.44.06-2.16.29-3.24.65-6.47.89-9.72.22-2.85.37-5.72.48-8.58.19-4.86.49-9.72.47-14.58-.08-14,.4-28-.42-41.93-.31-5.25-.35-10.52-.52-15.78,0-.23,0-.47,0-.71-.3-3.32-.64-6.64-.89-10-.22-3.1-.32-6.2-.52-9.3-.12-1.9-.3-3.8-.52-5.7-.43-3.7-.94-7.39-1.35-11.1-.53-4.73-.92-9.48-1.52-14.21-.7-5.58-1.55-11.15-2.38-16.72-.27-1.86-.69-3.69-1-5.42-1.31-.28-2.31-.58-3.33-.69-4.66-.51-9.31-1-14-1.45-5.45-.51-10.91-1-16.37-1.44q-6.06-.51-12.12-1-7-.51-14-1c-5.48-.34-11-.65-16.44-1q-4.75-.27-9.53-.48c-4-.18-8-.33-11.94-.48-4.54-.18-9.08-.08-13.63-.38-7.47-.49-15-.4-22.49-.47-21.89-.22-43.79-.43-65.69.35C912.94,308.79,908.32,308.82,903.71,308.92Z" transform="translate(-726.48 -245.28)"/><rect class="cls-6" x="169.15" y="62.8" width="230.73" height="203.25" rx="21.42"/></g><g id="Layer_2" data-name="Layer 2"><path class="cls-7" d="M903.71,308.92c4.61-.1,9.23-.13,13.83-.29,21.9-.78,43.8-.57,65.69-.35,7.49.07,15,0,22.49.47,4.55.3,9.09.2,13.63.38,4,.15,8,.3,11.94.48q4.77.21,9.53.48c5.48.31,11,.62,16.44,1q7,.45,14,1,6.06.45,12.12,1c5.46.46,10.92.93,16.37,1.44,4.67.45,9.32.94,14,1.45,1,.11,2,.41,3.33.69.33,1.73.75,3.56,1,5.42.83,5.57,1.68,11.14,2.38,16.72.6,4.73,1,9.48,1.52,14.21.41,3.71.92,7.4,1.35,11.1.22,1.9.4,3.8.52,5.7.2,3.1.3,6.2.52,9.3.25,3.32.59,6.64.89,10,0,.24,0,.48,0,.71.17,5.26.21,10.53.52,15.78.82,14,.34,28,.42,41.93,0,4.86-.28,9.72-.47,14.58-.11,2.86-.26,5.73-.48,8.58-.24,3.25-.6,6.48-.89,9.72-.06.72,0,1.44-.06,2.16-.28,3.4-.59,6.8-.89,10.2-.18,2.14-.35,4.28-.54,6.42a33.24,33.24,0,0,1-.62,4.53c-17-49.33-44.57-91.63-83.62-126.31s-84.09-57.11-135.1-67.83Z" transform="translate(-726.48 -245.28)"/></g></svg>