<svg xmlns="http://www.w3.org/2000/svg" viewBox="0 0 298 203.302"><defs><style>.cls-1{fill:#e0dede;}.cls-2{fill:#383c3d;}.cls-3{fill:#616566;}.cls-4{fill:#292c2d;}.cls-5{fill:#a5a7a8;}.cls-6{fill:#474b4c;}.cls-7{fill:#ee6c7b;}.cls-8{fill:#fff;}.cls-9{fill:#62acd7;}.cls-10{fill:#fff200;}.cls-11,.cls-12{fill:#ffda08;stroke:#e1a800;stroke-miterlimit:10;}.cls-12{stroke-width:0.5px;}</style></defs><g id="bgcontainer"><rect class="cls-1" x="0.5" y="5.802" width="297" height="197" rx="7.777"/><path class="cls-2" d="M1100.723,443a7.285,7.285,0,0,1,7.277,7.277V631.723a7.285,7.285,0,0,1-7.277,7.277H819.277A7.285,7.285,0,0,1,812,631.723V450.277A7.285,7.285,0,0,1,819.277,443h281.446m0-1H819.277A8.277,8.277,0,0,0,811,450.277V631.723A8.277,8.277,0,0,0,819.277,640h281.446a8.277,8.277,0,0,0,8.277-8.277V450.277a8.277,8.277,0,0,0-8.277-8.277Z" transform="translate(-811 -436.698)"/><path class="cls-2" d="M1100.723,441H819.277A8.277,8.277,0,0,0,811,449.277V457h298v-7.723A8.277,8.277,0,0,0,1100.723,441Z" transform="translate(-811 -436.698)"/><rect class="cls-3" x="243" y="23.302" width="54" height="179" rx="7.351"/><rect class="cls-3" x="1" y="23.302" width="19" height="179" rx="7.351"/><rect class="cls-4" y="20.302" width="297" height="9"/><rect class="cls-3" x="7" y="192.302" width="279" height="10"/><rect class="cls-2" x="19" y="192.302" width="223" height="8"/><rect class="cls-2" x="976.5" y="543.5" width="163" height="8" transform="translate(-300.5 1168.802) rotate(-90)"/><rect class="cls-5" x="123" y="192.302" width="16" height="8" rx="3.5"/><rect class="cls-5" x="1050" y="537" width="16" height="8" rx="3.5" transform="translate(-294 1162.302) rotate(-90)"/><rect class="cls-6" x="251" y="61.302" width="46" height="18"/><rect class="cls-6" x="251" y="97.302" width="46" height="18"/><rect class="cls-6" x="251" y="133.302" width="46" height="18"/></g><g id="mondrian"><rect x="69" y="45.302" width="125" height="125"/><rect class="cls-7" x="112" y="45.302" width="82" height="82"/><rect class="cls-8" x="69" y="45.302" width="39" height="37"/><rect class="cls-8" x="69" y="88.302" width="39" height="39"/><rect class="cls-9" x="69" y="133.302" width="39" height="37"/><rect class="cls-8" x="112" y="133.302" width="67" height="37"/><rect class="cls-10" x="184" y="153.302" width="10" height="17"/><rect class="cls-8" x="184" y="133.302" width="10" height="16"/></g><g id="sparkles"><polygon class="cls-11" points="216.975 32.528 233.917 29.43 216.975 26.332 213.877 9.39 210.779 26.332 193.837 29.43 210.779 32.528 213.877 49.47 216.975 32.528"/><polygon class="cls-11" points="189.409 52.647 196.823 51.291 189.409 49.936 188.053 42.522 186.698 49.936 179.284 51.291 186.698 52.647 188.053 60.061 189.409 52.647"/><polygon class="cls-11" points="201.73 180.085 209.043 181.905 202.847 177.615 204.667 170.301 200.377 176.498 193.063 174.678 199.259 178.968 197.439 186.282 201.73 180.085"/><polygon class="cls-12" points="188.678 7.378 193.063 6.576 188.678 5.774 187.876 1.39 187.074 5.774 182.69 6.576 187.074 7.378 187.876 11.763 188.678 7.378"/><polygon class="cls-11" points="64.975 114.528 81.917 111.43 64.975 108.332 61.877 91.39 58.779 108.332 41.837 111.43 58.779 114.528 61.877 131.47 64.975 114.528"/><polygon class="cls-11" points="43.409 128.647 50.823 127.291 43.409 125.936 42.053 118.522 40.698 125.936 33.284 127.291 40.698 128.647 42.053 136.061 43.409 128.647"/><polygon class="cls-12" points="96.678 139.378 101.063 138.576 96.678 137.774 95.876 133.39 95.074 137.774 90.69 138.576 95.074 139.378 95.876 143.763 96.678 139.378"/></g></svg>