<svg xmlns="http://www.w3.org/2000/svg" xmlns:xlink="http://www.w3.org/1999/xlink" viewBox="0 0 408.794 199"><defs><style>.cls-1{fill:url(#linear-gradient);}.cls-2{fill:url(#linear-gradient-2);}.cls-3{fill:url(#linear-gradient-3);}.cls-4{fill:url(#linear-gradient-4);}.cls-5{fill:url(#linear-gradient-5);}.cls-6{fill:url(#linear-gradient-6);}.cls-7{fill:url(#linear-gradient-7);}.cls-8{fill:url(#linear-gradient-8);}.cls-9{fill:url(#linear-gradient-9);}.cls-10{fill:url(#linear-gradient-10);}.cls-11{fill:url(#linear-gradient-11);}.cls-12{fill:url(#linear-gradient-12);}.cls-13{fill:url(#linear-gradient-13);}.cls-14{fill:url(#linear-gradient-14);}.cls-15{fill:url(#linear-gradient-15);}.cls-16{fill:url(#linear-gradient-16);}.cls-17{fill:url(#linear-gradient-17);}.cls-18{fill:url(#linear-gradient-18);}.cls-19{fill:url(#linear-gradient-19);}.cls-20{fill:#fff;}.cls-21{fill:#5fadd9;}.cls-22{fill:#cef;}.cls-23{fill:url(#radial-gradient);}.cls-24{fill:#5e5baa;}.cls-25{fill:#c1cad3;}.cls-26{fill:url(#linear-gradient-20);}.cls-27{fill:url(#linear-gradient-21);}.cls-28{fill:url(#linear-gradient-22);}.cls-29{fill:none;}.cls-30{fill:#cd733c;}.cls-31{fill:#fcaa77;}.cls-32{fill:#fdac79;}.cls-33{fill:#f7e8d5;}.cls-34{fill:#fce6c3;}.cls-35{fill:#0b9245;}.cls-36{fill:#70da52;}</style><linearGradient id="linear-gradient" x1="18.974" y1="62.163" x2="52.794" y2="62.163" gradientUnits="userSpaceOnUse"><stop offset="0" stop-color="#0081e3"/><stop offset="1" stop-color="#29e2e2"/></linearGradient><linearGradient id="linear-gradient-2" x1="36" y1="31.459" x2="87.974" y2="31.459" xlink:href="#linear-gradient"/><linearGradient id="linear-gradient-3" x1="4.111" y1="31.041" x2="21.27" y2="31.041" xlink:href="#linear-gradient"/><linearGradient id="linear-gradient-4" x1="23.974" y1="184.163" x2="57.794" y2="184.163" xlink:href="#linear-gradient"/><linearGradient id="linear-gradient-5" x1="41" y1="158.459" x2="92.974" y2="158.459" xlink:href="#linear-gradient"/><linearGradient id="linear-gradient-6" x1="9.111" y1="158.041" x2="26.27" y2="158.041" xlink:href="#linear-gradient"/><linearGradient id="linear-gradient-7" x1="18.974" y1="123.163" x2="52.794" y2="123.163" xlink:href="#linear-gradient"/><linearGradient id="linear-gradient-8" x1="0" y1="97.459" x2="51.974" y2="97.459" xlink:href="#linear-gradient"/><linearGradient id="linear-gradient-9" x1="55.111" y1="110.041" x2="72.27" y2="110.041" xlink:href="#linear-gradient"/><linearGradient id="linear-gradient-10" x1="346.974" y1="52.163" x2="380.794" y2="52.163" xlink:href="#linear-gradient"/><linearGradient id="linear-gradient-11" x1="320" y1="21.459" x2="371.974" y2="21.459" xlink:href="#linear-gradient"/><linearGradient id="linear-gradient-12" x1="317.111" y1="21.041" x2="334.27" y2="21.041" xlink:href="#linear-gradient"/><linearGradient id="linear-gradient-13" x1="336.974" y1="174.163" x2="370.794" y2="174.163" xlink:href="#linear-gradient"/><linearGradient id="linear-gradient-14" x1="374.974" y1="115.163" x2="408.794" y2="115.163" xlink:href="#linear-gradient"/><linearGradient id="linear-gradient-15" x1="340" y1="144.459" x2="391.974" y2="144.459" xlink:href="#linear-gradient"/><linearGradient id="linear-gradient-16" x1="322.111" y1="148.041" x2="339.27" y2="148.041" xlink:href="#linear-gradient"/><linearGradient id="linear-gradient-17" x1="331.974" y1="113.163" x2="365.794" y2="113.163" xlink:href="#linear-gradient"/><linearGradient id="linear-gradient-18" x1="328" y1="87.459" x2="379.974" y2="87.459" xlink:href="#linear-gradient"/><linearGradient id="linear-gradient-19" x1="380.111" y1="70.041" x2="397.27" y2="70.041" xlink:href="#linear-gradient"/><radialGradient id="radial-gradient" cx="219.474" cy="34.5" r="10.5" gradientUnits="userSpaceOnUse"><stop offset="0" stop-color="#ffd"/><stop offset="0.265" stop-color="#ffffdb" stop-opacity="0.991"/><stop offset="0.486" stop-color="#fffdd6" stop-opacity="0.963"/><stop offset="0.692" stop-color="#fffbce" stop-opacity="0.915"/><stop offset="0.887" stop-color="#fff8c2" stop-opacity="0.849"/><stop offset="1" stop-color="#fff6b9" stop-opacity="0.8"/></radialGradient><linearGradient id="linear-gradient-20" x1="340.841" y1="101.041" x2="340.841" y2="119.041" gradientUnits="userSpaceOnUse"><stop offset="0" stop-color="#fff" stop-opacity="0.8"/><stop offset="0.223" stop-color="#fdfeff" stop-opacity="0.791"/><stop offset="0.409" stop-color="#f7faff" stop-opacity="0.762"/><stop offset="0.581" stop-color="#edf5ff" stop-opacity="0.714"/><stop offset="0.746" stop-color="#dfedff" stop-opacity="0.646"/><stop offset="0.903" stop-color="#cce2ff" stop-opacity="0.56"/><stop offset="0.993" stop-color="#c0dbff" stop-opacity="0.5"/></linearGradient><linearGradient id="linear-gradient-21" x1="163.485" y1="98" x2="163.485" y2="116" xlink:href="#linear-gradient-20"/><linearGradient id="linear-gradient-22" x1="206" y1="108" x2="206" y2="124" xlink:href="#linear-gradient-20"/></defs><g id="databitz"><rect class="cls-1" x="18.974" y="57.122" width="33.82" height="10.081" rx="5.041"/><rect class="cls-2" x="36" y="26.419" width="51.974" height="10.081" rx="5.041"/><rect class="cls-3" x="4.111" y="26" width="17.159" height="10.081" rx="5.041"/><rect class="cls-4" x="23.974" y="179.122" width="33.82" height="10.081" rx="5.041"/><rect class="cls-5" x="41" y="153.419" width="51.974" height="10.081" rx="5.041"/><rect class="cls-6" x="9.111" y="153" width="17.159" height="10.081" rx="5.041"/><rect class="cls-7" x="18.974" y="118.122" width="33.82" height="10.081" rx="5.041"/><rect class="cls-8" y="92.419" width="51.974" height="10.081" rx="5.041"/><rect class="cls-9" x="55.111" y="105" width="17.159" height="10.081" rx="5.041"/><rect class="cls-10" x="346.974" y="47.122" width="33.82" height="10.081" rx="5.041"/><rect class="cls-11" x="320" y="16.419" width="51.974" height="10.081" rx="5.041"/><rect class="cls-12" x="317.111" y="16" width="17.159" height="10.081" rx="5.041"/><rect class="cls-13" x="336.974" y="169.122" width="33.82" height="10.081" rx="5.041"/><rect class="cls-14" x="374.974" y="110.122" width="33.82" height="10.081" rx="5.041"/><rect class="cls-15" x="340" y="139.419" width="51.974" height="10.081" rx="5.041"/><rect class="cls-16" x="322.111" y="143" width="17.159" height="10.081" rx="5.041"/><rect class="cls-17" x="331.974" y="108.122" width="33.82" height="10.081" rx="5.041"/><rect class="cls-18" x="328" y="82.419" width="51.974" height="10.081" rx="5.041"/><rect class="cls-19" x="380.111" y="65" width="17.159" height="10.081" rx="5.041"/></g><g id="bgframe"><rect class="cls-20" x="62.474" y="1.5" width="297" height="197" rx="7.777"/><path class="cls-21" d="M395.723,78A7.285,7.285,0,0,1,403,85.277V266.723A7.285,7.285,0,0,1,395.723,274H114.277A7.285,7.285,0,0,1,107,266.723V85.277A7.285,7.285,0,0,1,114.277,78H395.723m0-1H114.277A8.277,8.277,0,0,0,106,85.277V266.723A8.277,8.277,0,0,0,114.277,275H395.723A8.277,8.277,0,0,0,404,266.723V85.277A8.277,8.277,0,0,0,395.723,77Z" transform="translate(-44.026 -76)"/><path class="cls-21" d="M395.723,76H114.277A8.277,8.277,0,0,0,106,84.277V92H404V84.277A8.277,8.277,0,0,0,395.723,76Z" transform="translate(-44.026 -76)"/><rect class="cls-22" x="62.974" y="16" width="296" height="57"/><circle class="cls-23" cx="219.474" cy="34.5" r="10.5"/><rect class="cls-24" x="85.974" y="89" width="250" height="21" rx="4.995"/><rect class="cls-25" x="86.974" y="142" width="37" height="2"/><rect class="cls-25" x="147.974" y="142" width="47" height="2"/><rect class="cls-25" x="198.974" y="142" width="29" height="2"/><rect class="cls-25" x="126.974" y="142" width="16" height="2"/><rect class="cls-25" x="278.974" y="142" width="53" height="2"/><rect class="cls-25" x="232.974" y="142" width="41" height="2"/><rect class="cls-25" x="339" y="232" width="37" height="2" transform="translate(670.974 390) rotate(-180)"/><rect class="cls-25" x="286" y="232" width="49" height="2" transform="translate(576.974 390) rotate(-180)"/><rect class="cls-25" x="229" y="232" width="32" height="2" transform="translate(445.974 390) rotate(-180)"/><rect class="cls-25" x="266" y="232" width="16" height="2" transform="translate(503.974 390) rotate(-180)"/><rect class="cls-25" x="131" y="232" width="53" height="2" transform="translate(270.974 390) rotate(-180)"/><rect class="cls-25" x="189" y="232" width="34" height="2" transform="translate(367.974 390) rotate(-180)"/><rect class="cls-25" x="86.974" y="169" width="37" height="2"/><rect class="cls-25" x="147.974" y="169" width="47" height="2"/><rect class="cls-25" x="198.974" y="169" width="29" height="2"/><rect class="cls-25" x="126.974" y="169" width="16" height="2"/><rect class="cls-25" x="278.974" y="169" width="53" height="2"/><rect class="cls-25" x="232.974" y="169" width="41" height="2"/><rect class="cls-25" x="339" y="259" width="37" height="2" transform="translate(670.974 444) rotate(-180)"/><rect class="cls-25" x="286" y="259" width="49" height="2" transform="translate(576.974 444) rotate(-180)"/><rect class="cls-25" x="229" y="259" width="32" height="2" transform="translate(445.974 444) rotate(-180)"/><rect class="cls-25" x="266" y="259" width="16" height="2" transform="translate(503.974 444) rotate(-180)"/><rect class="cls-25" x="131" y="259" width="43" height="2" transform="translate(260.974 444) rotate(-180)"/><rect class="cls-25" x="180" y="259" width="43" height="2" transform="translate(358.974 444) rotate(-180)"/><rect class="cls-25" x="86.974" y="123" width="245" height="8"/></g><g id="clouds_bannerbg"><path class="cls-26" d="M371.031,107.609c.006-.067.017-.133.017-.2,0-3.615-5.162-9.409-17.5-9.409-11.3,0-19.448,2.86-20.6,6.151-.235-.006-.469-.015-.707-.015-6.5,0-11.777,2.107-11.777,4.7a2.1,2.1,0,0,0,.291,1.028c-.842,0-1.546,0-1.974,0-16.157,0-24.873,2.667-27.1,6.136h98.288a2.805,2.805,0,0,0,.031-.409C390,111.689,381.886,108.427,371.031,107.609Z" transform="translate(-44.026 -76)"/><path class="cls-27" d="M194.646,112.642c0-.047.011-.094.011-.142,0-1.381-1.679-2.5-3.75-2.5-.114,0-.226,0-.337.011-.955-3.34-5.3-5.865-10.528-5.865-.28,0-.558.01-.833.024-2.481-3.671-7.38-6.17-13.022-6.17-6.741,0-12.421,3.568-14.182,8.44a13.429,13.429,0,0,0-7.942-2.294c-5.449,0-9.883,2.555-10.049,5.742-5.426,1.617-8.986,3.748-9.7,6.112h78.344C202.363,115.029,198.253,113.438,194.646,112.642Z" transform="translate(-44.026 -76)"/><path class="cls-28" d="M248.285,124c-2.08-2.893-8.584-5.389-17.652-7.014C228.824,111.874,220.283,108,210,108c-9.472,0-17.473,3.286-20.09,7.8-13.441,1.389-23.509,4.464-26.194,8.2Z" transform="translate(-44.026 -76)"/></g><g id="bannerforeground"><path class="cls-29" d="M118.28,120.348a1.833,1.833,0,0,1,1.17,1.317,1.833,1.833,0,0,0-1.17-1.317.827.827,0,0,0-.86-.124A.829.829,0,0,1,118.28,120.348Z" transform="translate(-44.026 -76)"/><path class="cls-29" d="M117.254,120.332a1.681,1.681,0,0,0-.293.324A1.681,1.681,0,0,1,117.254,120.332Z" transform="translate(-44.026 -76)"/><path class="cls-30" d="M167.954,129.643c-.106-.966-.932-1.555-1.018-2.482-1.22.271-1.753,1.064-1.9,2.738-.142,1.618-.279,3.24-.5,4.848a2.167,2.167,0,0,1-.99,1.809c-.467.2-.7-.626-1.132-.871,0,.679,0,1.358,0,2.037-.007.58-.223,1.087-.856,1.088-.591,0-.756-.561-.793-1.036a13.186,13.186,0,0,0-.422-2.1,5.746,5.746,0,0,0-2-2.913.472.472,0,0,0-.7-.052c-.947.592-1.353.321-1.475-.829a62.362,62.362,0,0,0-1.441-9.183,3.407,3.407,0,0,0-2.008-2.494,2.911,2.911,0,0,1-2.023-3.091,9.61,9.61,0,0,0-1.5-4.353c-1.522-.163-3.067-.139-3.883,1.384a3.1,3.1,0,0,1-2.817,1.719c.474,1.309.959,2.615,1.418,3.93a1.273,1.273,0,0,0,1.14.876c3.18.595,4.428,2.069,4.622,5.274.133,2.183.328,4.363.477,6.546a.865.865,0,0,0,.512.865A3.112,3.112,0,0,1,152.473,136a19.288,19.288,0,0,1,.33,4.283c-.029.468-.075.895-.639,1-.6.108-.889-.237-1.024-.758-.26-1-.53-2-.757-3.011a4.737,4.737,0,0,0-1.72-2.661c-.277-.228-.461-.368-.7.122a2.419,2.419,0,0,1-2.844,1.119,4.145,4.145,0,0,0-1.856-.336,1.039,1.039,0,0,1-1.172-.632c-.194-.521.228-.844.57-1.082,1.318-.92,2.3-2.089,2.161-3.75a36.164,36.164,0,0,0-.765-6.024c-.712-2.771-2.283-5.209-3.12-7.934-.047-.152-.1-.3-.156-.45-1.068.044-2.131.128-3.187.262a31.585,31.585,0,0,0-3.152.562,6.042,6.042,0,0,0-4.631,4.609,34.065,34.065,0,0,0-.5,4.356,11.667,11.667,0,0,1,3.348.78c1.666.656,2.191,2.123,2.345,3.715.069.717.706,1.915-.56,2.074-1.108.14-.851-1.122-1.054-1.8a3.288,3.288,0,0,0-2.062-2.248,13.684,13.684,0,0,0-4.444-1.285h0a6.419,6.419,0,0,0-2.634.917,5.25,5.25,0,0,0-1.846,2.1c-.386.766-.843,1.5-1.269,2.242,1.9-.086,2.879,1.137,3.671,2.6a10.958,10.958,0,0,0,1.538,2.27,1.75,1.75,0,0,0,1.935.553,71.7,71.7,0,0,1,7.6-1.5,4.385,4.385,0,0,1,4.358,2.735,17.528,17.528,0,0,1,1.149,3.394c.125.535.084.989-.46,1.186-.526.19-.9-.072-1.155-.576a6.01,6.01,0,0,0-2.168-2.8c-1.784-1.035-3.723-.966-5.687-.8-2.146.179-4.264.858-6.457.052A3.764,3.764,0,0,1,122.8,136.8a3.7,3.7,0,0,0-2.522-2.777,2,2,0,0,1-1.32-1.695,45.313,45.313,0,0,1-.673-7.721c.015-1.42-.519-2.842,0-4.258a.829.829,0,0,0-.86-.124.907.907,0,0,0-.166.108,1.681,1.681,0,0,0-.293.324c-.045.063-.089.13-.132.2a8.667,8.667,0,0,0-1.241,4.041c-.142,1.951-.148,3.908-.278,5.855-.315,4.74-.17,9.49-.4,14.232-.085,1.763.771,2.608,2.553,3.055a12.221,12.221,0,0,0,4.4.107c2.674-.3,5.326-.821,8-1.078,3.443-.33,6.9-.681,10.355-.685,6.9-.008,13.772-.41,20.638-1.016a70.542,70.542,0,0,0,7.774-1A114.279,114.279,0,0,0,167.954,129.643Z" transform="translate(-44.026 -76)"/><path class="cls-30" d="M126.883,126.9h0a6.419,6.419,0,0,0-2.634.917,6.419,6.419,0,0,1,2.634-.917Z" transform="translate(-44.026 -76)"/><path class="cls-30" d="M140.781,115.879c-1.068.044-2.131.128-3.187.262,1.056-.134,2.119-.218,3.187-.262Z" transform="translate(-44.026 -76)"/><path class="cls-31" d="M140.781,115.879c.052.15.109.3.156.45.837,2.725,2.408,5.163,3.12,7.934a36.164,36.164,0,0,1,.765,6.024c.139,1.661-.843,2.83-2.161,3.75-.342.238-.764.561-.57,1.082a1.039,1.039,0,0,0,1.172.632,4.145,4.145,0,0,1,1.856.336,2.419,2.419,0,0,0,2.844-1.119c.239-.49.423-.35.7-.122a4.737,4.737,0,0,1,1.72,2.661c.227,1.01.5,2.01.757,3.011.135.521.423.866,1.024.758.564-.1.61-.527.639-1a19.288,19.288,0,0,0-.33-4.283,3.112,3.112,0,0,0-1.814-2.648.865.865,0,0,1-.512-.865c-.149-2.183-.344-4.363-.477-6.546-.194-3.2-1.442-4.679-4.622-5.274a1.273,1.273,0,0,1-1.14-.876c-.459-1.315-.944-2.621-1.418-3.93l-1.709.02Z" transform="translate(-44.026 -76)"/><path class="cls-31" d="M140.781,115.879l1.709-.02-1.709.02Z" transform="translate(-44.026 -76)"/><path class="cls-31" d="M152.71,120.2a3.407,3.407,0,0,1,2.008,2.494,62.362,62.362,0,0,1,1.441,9.183c.122,1.15.528,1.421,1.475.829a.472.472,0,0,1,.7.052,5.746,5.746,0,0,1,2,2.913,13.186,13.186,0,0,1,.422,2.1c.037.475.2,1.037.793,1.036.633,0,.849-.508.856-1.088.008-.679,0-1.358,0-2.037a6.075,6.075,0,0,0-2.043-3.782,3.473,3.473,0,0,1-1.152-3.288,53.8,53.8,0,0,0,.262-6.551c-.139-2.848-.785-4.487-3.757-5.367a1.966,1.966,0,0,1-1.514-1.548c-.5-1.758-1.488-2.421-3.345-2.427-.557,0-1.115.022-1.672.034a9.61,9.61,0,0,1,1.5,4.353A2.911,2.911,0,0,0,152.71,120.2Z" transform="translate(-44.026 -76)"/><path class="cls-31" d="M118.28,120.348c-.519,1.416.015,2.838,0,4.258a45.313,45.313,0,0,0,.673,7.721,2,2,0,0,0,1.32,1.695A3.7,3.7,0,0,1,122.8,136.8a3.764,3.764,0,0,0,2.667,2.479c2.193.806,4.311.127,6.457-.052,1.964-.164,3.9-.233,5.687.8a6.01,6.01,0,0,1,2.168,2.8c.252.5.629.766,1.155.576.544-.2.585-.651.46-1.186a17.528,17.528,0,0,0-1.149-3.394,4.385,4.385,0,0,0-4.358-2.735,71.7,71.7,0,0,0-7.6,1.5,1.75,1.75,0,0,1-1.935-.553,10.958,10.958,0,0,1-1.538-2.27c-.792-1.464-1.773-2.687-3.671-2.6-.948.581-.66-.472-.689-.651-.44-2.693-.5-5.426-.8-8.133a11.389,11.389,0,0,0-.194-1.713A1.833,1.833,0,0,0,118.28,120.348Z" transform="translate(-44.026 -76)"/><path class="cls-31" d="M170.3,130.865c-.107-2.632-1.253-3.791-3.359-3.7.086.927.912,1.516,1.018,2.482a114.279,114.279,0,0,1,.676,14.726,4,4,0,0,0,2.21-1.063,1.868,1.868,0,0,0,.65-1.712A75.729,75.729,0,0,1,170.3,130.865Z" transform="translate(-44.026 -76)"/><path class="cls-31" d="M131.327,128.188a3.288,3.288,0,0,1,2.062,2.248c.2.679-.054,1.941,1.054,1.8,1.266-.159.629-1.357.56-2.074-.154-1.592-.679-3.059-2.345-3.715a11.667,11.667,0,0,0-3.348-.78c-.08.47-.321.88-.792.933a8.52,8.52,0,0,0-1.635.3A13.684,13.684,0,0,1,131.327,128.188Z" transform="translate(-44.026 -76)"/><path class="cls-31" d="M128.518,126.6a8.52,8.52,0,0,0-1.635.3h0A8.52,8.52,0,0,1,128.518,126.6Z" transform="translate(-44.026 -76)"/><path class="cls-29" d="M320.955,144.9c.012.233.023.466.035.7a.344.344,0,0,1-.19.049,4.932,4.932,0,0,1-2.012.237,4.932,4.932,0,0,0,2.012-.237.344.344,0,0,0,.19-.049h0C320.978,145.363,320.967,145.13,320.955,144.9Z" transform="translate(-44.026 -76)"/><path class="cls-29" d="M309.435,130.188a2.205,2.205,0,0,1,.874-1.061,2.205,2.205,0,0,0-.874,1.061,6.752,6.752,0,0,1-1.689,1.6A6.752,6.752,0,0,0,309.435,130.188Z" transform="translate(-44.026 -76)"/><path class="cls-29" d="M320.753,144.162a1.332,1.332,0,0,0,.077.572,1.334,1.334,0,0,1-.077-.572.529.529,0,0,1-.139-.156A.529.529,0,0,0,320.753,144.162Z" transform="translate(-44.026 -76)"/><path class="cls-29" d="M321.4,145.584a.785.785,0,0,1-.2.023A.785.785,0,0,0,321.4,145.584Z" transform="translate(-44.026 -76)"/><path class="cls-30" d="M307.781,141.487c-.658.047-1.363,0-1.372-.906a1.369,1.369,0,0,1,1.648-1.431A4.718,4.718,0,0,1,311,140.826a5.941,5.941,0,0,1,1.023,1.461c1.157,2.8,3.594,3.159,6.15,3.3.874.049,1.75.037,2.626.054a.344.344,0,0,0,.19-.049c-.012-.232-.023-.465-.035-.7a.539.539,0,0,1-.125-.163,1.332,1.332,0,0,1-.077-.572.529.529,0,0,1-.139-.156.9.9,0,0,1-.055-.567,2.433,2.433,0,0,1-.208-.681,3.279,3.279,0,0,0-2.7-3.45c-.688-.194-.707-.885-.716-1.5a21.055,21.055,0,0,0-.281-4.391c-.412-1.811-.778-2.061-2.613-2.259a11.574,11.574,0,0,1-4.609-.975,6.752,6.752,0,0,1-1.689,1.6,8.289,8.289,0,0,1-2.095.988,2.866,2.866,0,0,0-2.136,2.837c-.159,2.746-.313,5.492-.44,8.239-.089,1.935-.042,1.821,1.759,2.207,2.188.47,4.362.183,6.543.191a6.9,6.9,0,0,0-1.075-3.486A2.5,2.5,0,0,0,307.781,141.487Z" transform="translate(-44.026 -76)"/><path class="cls-32" d="M319.4,138.6a1.058,1.058,0,0,1-.833-1.225c.04-1.438.035-2.88-.02-4.317-.11-2.872-.941-3.857-3.738-4.387a9.148,9.148,0,0,0-3.221,0,3.406,3.406,0,0,0-1.276.454,2.205,2.205,0,0,0-.874,1.061,11.574,11.574,0,0,0,4.609.975c1.835.2,2.2.448,2.613,2.259a21.055,21.055,0,0,1,.281,4.391c.009.61.028,1.3.716,1.5a3.279,3.279,0,0,1,2.7,3.45,2.433,2.433,0,0,0,.208.681c.5.123.572.364.194.723a1.334,1.334,0,0,0,.077.572.539.539,0,0,0,.125.163.691.691,0,0,1,.75.426h0a9.384,9.384,0,0,1,.643-1.309,2.889,2.889,0,0,0,.252-.676,1.747,1.747,0,0,0,0-.752C322.2,140.726,321.336,139.213,319.4,138.6Z" transform="translate(-44.026 -76)"/><path class="cls-32" d="M322.6,143.338a2.889,2.889,0,0,1-.252.676A2.889,2.889,0,0,0,322.6,143.338Z" transform="translate(-44.026 -76)"/><path class="cls-32" d="M321.705,145.323h0a9.384,9.384,0,0,1,.643-1.309,9.384,9.384,0,0,0-.643,1.309Z" transform="translate(-44.026 -76)"/><path class="cls-31" d="M320.8,145.644c-.876-.017-1.752,0-2.626-.054-2.556-.144-4.993-.5-6.15-3.3A5.941,5.941,0,0,0,311,140.826a4.718,4.718,0,0,0-2.944-1.676,1.369,1.369,0,0,0-1.648,1.431c.009.909.714.953,1.372.906a2.5,2.5,0,0,1,2.521,1.277,6.9,6.9,0,0,1,1.075,3.486c2.246-.109,4.5-.17,6.736-.35.224-.018.449-.02.675-.019A4.932,4.932,0,0,0,320.8,145.644Z" transform="translate(-44.026 -76)"/><path class="cls-31" d="M321.705,145.323a.691.691,0,0,0-.75-.426c.012.233.023.466.035.7h0a1.87,1.87,0,0,0,.209.012.785.785,0,0,0,.2-.023A.481.481,0,0,0,321.705,145.323Z" transform="translate(-44.026 -76)"/><path class="cls-31" d="M320.99,145.6a1.87,1.87,0,0,0,.209.012,1.87,1.87,0,0,1-.209-.012Z" transform="translate(-44.026 -76)"/><path class="cls-31" d="M321.4,145.584a.481.481,0,0,0,.31-.261h0A.481.481,0,0,1,321.4,145.584Z" transform="translate(-44.026 -76)"/><path class="cls-31" d="M320.614,144.006a.529.529,0,0,0,.139.156c.378-.359.311-.6-.194-.723A.9.9,0,0,0,320.614,144.006Z" transform="translate(-44.026 -76)"/><path class="cls-29" d="M351.339,127.951a14.952,14.952,0,0,1,1.861-2.774A14.952,14.952,0,0,0,351.339,127.951Z" transform="translate(-44.026 -76)"/><path class="cls-29" d="M341.442,104.735a5.352,5.352,0,0,0-1.2.33,3.655,3.655,0,0,0-.809.29,3.655,3.655,0,0,1,.809-.29A5.352,5.352,0,0,1,341.442,104.735Z" transform="translate(-44.026 -76)"/><path class="cls-29" d="M338.06,106.665a2.85,2.85,0,0,1,.425-.6A2.85,2.85,0,0,0,338.06,106.665Z" transform="translate(-44.026 -76)"/><path class="cls-29" d="M353.767,122.372a1.016,1.016,0,0,1,.236.607,3.2,3.2,0,0,1-.451,1.709A3.193,3.193,0,0,0,354,122.98,1.013,1.013,0,0,0,353.767,122.372Z" transform="translate(-44.026 -76)"/><path class="cls-29" d="M348.47,132.66a.96.96,0,0,1-.623-.327c.682-.52,1.617-.613,2.195-1.305h0c-.578.692-1.513.785-2.195,1.3-.742.29-1.494.556-2.223.874.729-.318,1.481-.584,2.223-.873A.96.96,0,0,0,348.47,132.66Z" transform="translate(-44.026 -76)"/><path class="cls-29" d="M348.47,132.66c.229.038.472.034.7.079C348.942,132.694,348.7,132.7,348.47,132.66Z" transform="translate(-44.026 -76)"/><path class="cls-29" d="M364.585,148.077c-.022,0-.044,0-.067,0C364.541,148.081,364.563,148.076,364.585,148.077Z" transform="translate(-44.026 -76)"/><path class="cls-30" d="M368.649,137.033a3.094,3.094,0,0,0-2.287-1.144,1.768,1.768,0,0,1-1.663-2.061,4.016,4.016,0,0,0-1.732-3.141c-2.183-1.844-2.173-1.8-1.207-4.368a13.97,13.97,0,0,0,1.073-2.881c.1-.67.76-.751,1.329-.767,1.086-.03,1.992-.112,2.329-1.5.2-.828,1.146-.4,1.465-.023a1.553,1.553,0,0,0,1.825.409c1.41-.326,2.907-.342,4.318-1.154a38.665,38.665,0,0,0-5.5-3.108c-5.828-3.057-11.659-6.121-17.954-8.156q-4.374-1.415-8.744-2.849c-.686-.224-1.383-.443-1.664-1.222a3.655,3.655,0,0,0-.809.29,3.236,3.236,0,0,0-.945.708,2.85,2.85,0,0,0-.425.6,2.376,2.376,0,0,0,.628,3.011c2.147,1.85,2.77,4.027,3.13,6.632.268,1.941,1.176,3.849,3.354,4.442a27.988,27.988,0,0,0,7.064,1.16c-.256-1.068.123-1.529,1.151-1.383.313.045.617.155.93.2.792.1,1.31,0,1.4-1.046.112-1.281.825-1.5,1.8-.588a5.942,5.942,0,0,1,1.673,2.427c.53,1.6-.177,2.423-1.866,2.358A16.793,16.793,0,0,1,354,122.98a3.193,3.193,0,0,1-.451,1.708,3.55,3.55,0,0,1-.352.489,14.952,14.952,0,0,0-1.861,2.774,21.211,21.211,0,0,0-1.3,3.077h0a1.054,1.054,0,0,0,.472.35,3.059,3.059,0,0,0,.573.142c3.841.679,4.721,2.1,4.979,5.51.191,2.525.119,2.531,2.561,3.307,2.174.691,3.551,2.36,4.827,4.083a9.079,9.079,0,0,1,2.028,3.6h0a26.51,26.51,0,0,0,3.953.493,12.422,12.422,0,0,1,1.312.206c-.094-2.31-.105-4.627-.31-6.927A10.156,10.156,0,0,0,368.649,137.033Z" transform="translate(-44.026 -76)"/><path class="cls-30" d="M351.339,127.951a21.327,21.327,0,0,0-1.3,3.077h0A21.211,21.211,0,0,1,351.339,127.951Z" transform="translate(-44.026 -76)"/><path class="cls-30" d="M365.482,148.022h0a26.51,26.51,0,0,0,3.953.493,26.51,26.51,0,0,1-3.953-.493Z" transform="translate(-44.026 -76)"/><path class="cls-30" d="M357.3,143.405c-1.669-.871-3.145-1.711-3.777-3.567a1.862,1.862,0,0,0-2.19-1.388c-1.072.1-2.157.042-3.237.047-.434,0-.834-.115-.858-.625-.021-.459.349-.545.727-.627a36.859,36.859,0,0,0,4.078-.646c1.065-.357,1.545-1.008.876-2.008-.88-1.318-2.338-1.576-3.75-1.852-.231-.045-.474-.041-.7-.079a.96.96,0,0,1-.623-.327c-.742.289-1.494.555-2.223.873a6.887,6.887,0,0,0-4.342,4.469c-.464,1.687-.774,3.424-1.341,5.074-.453,1.321-.139,3.127-2.075,3.671-.461.13-.262.689-.242,1.076.027.517.4.364.7.369,2.947.043,5.9.189,8.842.11,4.824-.128,9.646-.286,14.471-.1C361.349,145.281,359.157,144.372,357.3,143.405Z" transform="translate(-44.026 -76)"/><path class="cls-32" d="M375.3,115.736c-.382-.211-.79-.377-1.188-.558-2.909-1.321-6.044-2-9-3.2a168.531,168.531,0,0,0-20.084-6.907,8.778,8.778,0,0,0-3.59-.336,5.352,5.352,0,0,0-1.2.33c.281.779.978,1,1.664,1.222q4.371,1.429,8.744,2.849c6.3,2.035,12.126,5.1,17.954,8.156a38.665,38.665,0,0,1,5.5,3.108c-1.411.812-2.908.828-4.318,1.154a1.553,1.553,0,0,1-1.825-.409c-.319-.381-1.264-.8-1.465.023-.337,1.391-1.243,1.473-2.329,1.5-.569.016-1.231.1-1.329.767a13.97,13.97,0,0,1-1.073,2.881c-.966,2.572-.976,2.524,1.207,4.368a4.016,4.016,0,0,1,1.732,3.141,1.768,1.768,0,0,0,1.663,2.061,3.094,3.094,0,0,1,2.287,1.144,10.156,10.156,0,0,1,1.788,4.761c.2,2.3.216,4.617.31,6.927,1.719.411,2.518-.1,2.337-1.549q-.461-3.666-1-7.323c-.356-2.378-1.348-4.342-3.738-5.293a2.3,2.3,0,0,1-1.439-2.145,2.833,2.833,0,0,0-2.041-2.661c-.638-.211-1.229-.563-1.856-.816-.357-.144-.567-.323-.348-.706.884-1.538,1.285-3.509,3.525-3.828a3.018,3.018,0,0,0,1.305-.576,4.622,4.622,0,0,1,2.542-.814,17.389,17.389,0,0,0,4.482-.633,4.133,4.133,0,0,0,2.883-3.231C377.7,117.461,376.643,116.476,375.3,115.736Z" transform="translate(-44.026 -76)"/><path class="cls-31" d="M363.454,144.42c-1.276-1.723-2.653-3.392-4.827-4.083-2.442-.776-2.37-.782-2.561-3.307-.258-3.412-1.138-4.831-4.979-5.51a3.059,3.059,0,0,1-.573-.142,1.054,1.054,0,0,1-.472-.35h0c-.578.692-1.513.785-2.195,1.305a.96.96,0,0,0,.623.327c.229.038.472.034.7.079,1.412.276,2.87.534,3.75,1.852.669,1,.189,1.651-.876,2.008a36.859,36.859,0,0,1-4.078.646c-.378.082-.748.168-.727.627.024.51.424.627.858.625,1.08-.005,2.165.051,3.237-.047a1.862,1.862,0,0,1,2.19,1.388c.632,1.856,2.108,2.7,3.777,3.567,1.853.967,4.045,1.876,4.337,4.471.321,0,.641.021.96.05.639.057,1.277.145,1.917.155.023,0,.045,0,.067,0a5.888,5.888,0,0,0,.9-.055A9.079,9.079,0,0,0,363.454,144.42Z" transform="translate(-44.026 -76)"/><path class="cls-31" d="M364.518,148.081c-.64-.01-1.278-.1-1.917-.155C363.24,147.983,363.878,148.071,364.518,148.081Z" transform="translate(-44.026 -76)"/><path class="cls-31" d="M364.585,148.077a5.888,5.888,0,0,0,.9-.055h0A5.888,5.888,0,0,1,364.585,148.077Z" transform="translate(-44.026 -76)"/><path class="cls-31" d="M350.514,131.378a1.054,1.054,0,0,1-.472-.35h0A1.054,1.054,0,0,0,350.514,131.378Z" transform="translate(-44.026 -76)"/><path class="cls-31" d="M354,122.98a16.793,16.793,0,0,0,3.319.894c1.689.065,2.4-.758,1.866-2.358a5.942,5.942,0,0,0-1.673-2.427c-.971-.915-1.684-.693-1.8.588-.092,1.044-.61,1.148-1.4,1.046-.313-.041-.617-.151-.93-.2-1.028-.146-1.407.315-1.151,1.383a2.066,2.066,0,0,0,.529.123,1.557,1.557,0,0,1,1,.339A1.013,1.013,0,0,1,354,122.98Z" transform="translate(-44.026 -76)"/><path class="cls-31" d="M352.765,122.033a1.562,1.562,0,0,1,1,.339A1.557,1.557,0,0,0,352.765,122.033Z" transform="translate(-44.026 -76)"/><path class="cls-33" d="M375,146c-1.336-.16-49.061,2.963-50,2-1.161-1.191-16.856-2.343-17-4-.261-2.99-14.042.508-17,0s-7,.881-10,1c-6.052.241-13.181,1.67-18-2-1.9-1.448-23.77.139-26,1-1.191.46-15.479-8.819-30-1-13,7-35.356-4.717-54.2,1.218a25.571,25.571,0,0,1-9.814,1.011c-10.245-.852-28.2.306-34.99,3.771H402C403.365,146.53,377.8,146.336,375,146Z" transform="translate(-44.026 -76)"/><path class="cls-34" d="M375,145.625a32.964,32.964,0,0,0-4.761.194c-3.531.184-7.062.384-10.593.578-8.345.46-16.692.931-25.044,1.243-2.683.1-5.381.231-8.067.157-1.678-.046-2.873-.746-4.745-1.086-3.979-.724-8.127-1-12.016-2.146a2.867,2.867,0,0,1-1.412-.632c-.264-.335-.215-.69-.656-.984-1.187-.79-3.127-.578-4.456-.5-2.342.135-4.668.486-6.992.793a24.157,24.157,0,0,1-5.158.4c-3.328-.283-6.393.722-9.685.963a97.264,97.264,0,0,1-10.107.484,17.754,17.754,0,0,1-4.943-.767,36.98,36.98,0,0,1-3.46-1.79,9.983,9.983,0,0,0-3.488-.453,118.059,118.059,0,0,0-13.1.427c-2.014.148-4.028.321-6.033.56-1.085.13-2.246.5-3.322.553-1.014.049-2.328-.772-3.253-1.133a47.584,47.584,0,0,0-6.993-2.19,28.811,28.811,0,0,0-19.413,2.124c-5.287,2.682-10.977,2.773-16.78,2.246-6.543-.6-13.012-1.831-19.566-2.332a61.692,61.692,0,0,0-10.1-.039,67.173,67.173,0,0,0-9.753,2.006c-3.647.867-7.2.547-10.89.383-2.924-.13-5.855-.12-8.78-.018a94.529,94.529,0,0,0-17.527,2,26.958,26.958,0,0,0-6.1,2.018.378.378,0,0,0,.189.7H390.066c3.81,0,7.624.044,11.434,0,.167,0,.333,0,.5,0a.369.369,0,0,0,.324-.186c.957-2.019-5.865-2.344-6.734-2.432-5.146-.526-10.327-.693-15.493-.887-1.693-.064-3.412-.055-5.1-.245-.479-.054-.475.7,0,.75,2.455.277,4.969.237,7.435.334,3.849.151,7.7.319,11.541.647,1.63.14,3.265.3,4.877.576a15.423,15.423,0,0,1,1.716.373c.327.1.72.38,1.034.437.526.1.378-.074-.1-.117-1.447-.13-2.968,0-4.419,0H113.172a39.019,39.019,0,0,0-4.6,0,4.729,4.729,0,0,1-.571,0l.189.7c4.7-2.342,10.439-2.915,15.588-3.414a112.656,112.656,0,0,1,17.864-.4,31.262,31.262,0,0,0,10.733-.767,45.737,45.737,0,0,1,10.312-1.823c6.842-.342,13.656.686,20.416,1.606,5.7.775,11.577,1.654,17.325.881a22.326,22.326,0,0,0,7.257-2.339,26.215,26.215,0,0,1,11.341-2.829c5.442-.11,10.608,1.424,15.611,3.416a5.087,5.087,0,0,0,2.6.664c1.251-.2,2.485-.443,3.75-.583,4.392-.487,8.817-.769,13.234-.9,1.952-.056,3.912-.09,5.863.02a13.047,13.047,0,0,1,1.924.2,6.257,6.257,0,0,1,1.895.994,17.109,17.109,0,0,0,8.789,1.8,86.345,86.345,0,0,0,9.686-.6c1.574-.2,3.122-.551,4.691-.776a23.941,23.941,0,0,1,4.51-.05,33.069,33.069,0,0,0,5.6-.557,67.52,67.52,0,0,1,6.773-.7,10.527,10.527,0,0,1,2.477.119c.835.176.871.368,1.259.967.538.832,1.817,1.038,2.71,1.255,2,.484,4.044.785,6.075,1.1s4.049.6,6.053,1a23.115,23.115,0,0,1,2.488.8c1.543.488,3.645.145,5.224.11,14.465-.326,28.893-1.53,43.346-2.12a10.451,10.451,0,0,1,1.415-.031C375.48,146.421,375.477,145.671,375,145.625Z" transform="translate(-44.026 -76)"/><path class="cls-29" d="M244.317,114.453a.989.989,0,0,0-.257.27A.989.989,0,0,1,244.317,114.453Z" transform="translate(-44.026 -76)"/><path class="cls-29" d="M222.652,123.3a1.824,1.824,0,0,1,.388-.259A1.787,1.787,0,0,0,222.652,123.3Z" transform="translate(-44.026 -76)"/><path class="cls-29" d="M237.576,133.951q-.054,1.112-.1,2.224Q237.52,135.062,237.576,133.951Z" transform="translate(-44.026 -76)"/><path class="cls-29" d="M229.971,111.92a6.84,6.84,0,0,1,.5-.934A6.84,6.84,0,0,0,229.971,111.92Z" transform="translate(-44.026 -76)"/><path class="cls-29" d="M236.064,109.092a3.57,3.57,0,0,0-4.108.253A3.572,3.572,0,0,1,236.064,109.092Z" transform="translate(-44.026 -76)"/><path class="cls-29" d="M237.141,110.022a3.638,3.638,0,0,0-1.077-.93A3.638,3.638,0,0,1,237.141,110.022Z" transform="translate(-44.026 -76)"/><path class="cls-29" d="M237.862,125.561h0a15.254,15.254,0,0,0,3.675-.033A15.3,15.3,0,0,1,237.862,125.561Z" transform="translate(-44.026 -76)"/><path class="cls-29" d="M243.812,115.317c-.033.13-.064.271-.092.433-.083.38-.171.759-.242,1.141.071-.382.159-.761.242-1.141C243.748,115.588,243.779,115.447,243.812,115.317Z" transform="translate(-44.026 -76)"/><path class="cls-35" d="M243.72,115.75c-.083.38-.171.759-.242,1.141a8.144,8.144,0,0,0-.142,1.157c.011.165.029.33.032.5.065,3.088-.4,2.868-3.376,3.441a12.67,12.67,0,0,1-3.047-.171c-.655-.04-.912-.39-.909-1.023.007-1.273-.006-2.546-.021-3.82a25.471,25.471,0,0,0-.3-3.792,3.141,3.141,0,0,0-3.116-2.946c-.5-.051-.548-.5-.864-.684a5.809,5.809,0,0,0-1.272,1.438,6.84,6.84,0,0,0-.5.934,9.363,9.363,0,0,0-.4,1.1c-.13.441-.233.894-.323,1.352-.72,3.7-.667,7.474-1.021,11.21-.2,2.119.307,1.8-2.037,2.063-.338.039-.787.248-1-.27-.191-.008-.373.019-.385-.285-.107-2.538-.265-2.73-2.588-3.258a6.357,6.357,0,0,0-.931,2.2c-.091.386-.159.779-.217,1.173s-.107.793-.16,1.189a3.612,3.612,0,0,0,4.05,4.132,18.975,18.975,0,0,1,1.906.056c.559.025.779.264.724.878a66.7,66.7,0,0,0-.223,10.28c.1,1.543.331,1.913,1.868,1.85a48.329,48.329,0,0,0,5.469-.357,2.561,2.561,0,0,0,.176-1.054c-.018-3.708.366-7.392.639-11.084.13-1.761.077-3.538.363-5.286a2.7,2.7,0,0,1,1.984-2.247,15.3,15.3,0,0,0,3.675-.033c.276-.037.551-.081.825-.135a13.413,13.413,0,0,0,1.471-.38c2.068-1.908,2.46-4.472,2.652-7.064A2.064,2.064,0,0,0,243.72,115.75Z" transform="translate(-44.026 -76)"/><path class="cls-35" d="M221.066,127.2c.058-.394.126-.787.217-1.173C221.192,126.417,221.124,126.809,221.066,127.2Z" transform="translate(-44.026 -76)"/><path class="cls-35" d="M222.214,123.828a6.357,6.357,0,0,0-.931,2.2,6.357,6.357,0,0,1,.931-2.2Z" transform="translate(-44.026 -76)"/><path class="cls-35" d="M242.362,125.393c-.274.054-.549.1-.825.135C241.813,125.491,242.088,125.447,242.362,125.393Z" transform="translate(-44.026 -76)"/><path class="cls-35" d="M231.738,109.548h0a5.809,5.809,0,0,0-1.272,1.438A5.809,5.809,0,0,1,231.738,109.548Z" transform="translate(-44.026 -76)"/><path class="cls-35" d="M229.57,113.016a9.363,9.363,0,0,1,.4-1.1A9.363,9.363,0,0,0,229.57,113.016Z" transform="translate(-44.026 -76)"/><path class="cls-36" d="M231.738,109.548c.316.186.365.633.864.684a3.141,3.141,0,0,1,3.116,2.946,25.471,25.471,0,0,1,.3,3.792c.015,1.274.028,2.547.021,3.82,0,.633.254.983.909,1.023a12.67,12.67,0,0,0,3.047.171c2.973-.573,3.441-.353,3.376-3.441,0-.165-.021-.33-.032-.5-.115.367-.219.739-.348,1.1a1.66,1.66,0,0,1-.936,1.108,6.426,6.426,0,0,1-3.013.393c-.565-.075-.969-.341-.882-1.051.08-.657.054-1.326.088-1.989a24.4,24.4,0,0,0-.489-6.255,3.242,3.242,0,0,0-.615-1.333,3.638,3.638,0,0,0-1.077-.93,3.572,3.572,0,0,0-4.108.253,2.773,2.773,0,0,0-.218.2Z" transform="translate(-44.026 -76)"/><path class="cls-36" d="M231.738,109.548a2.773,2.773,0,0,1,.218-.2,2.773,2.773,0,0,0-.218.2Z" transform="translate(-44.026 -76)"/><path class="cls-36" d="M235.878,127.808c-.286,1.748-.233,3.525-.363,5.286-.273,3.692-.657,7.376-.639,11.084a2.561,2.561,0,0,1-.176,1.054c2.263-.506,2.615-.838,2.609-2.687q0-1.062.018-2.124c.027-1.416.081-2.832.144-4.246q.049-1.113.1-2.224c.136-2.8.275-5.591.286-8.39h0A2.7,2.7,0,0,0,235.878,127.808Z" transform="translate(-44.026 -76)"/><path class="cls-36" d="M237.576,133.951c.136-2.8.275-5.591.286-8.39h0C237.851,128.36,237.712,131.155,237.576,133.951Z" transform="translate(-44.026 -76)"/><path class="cls-36" d="M237.471,136.175c-.063,1.414-.117,2.83-.144,4.246C237.354,139.005,237.408,137.589,237.471,136.175Z" transform="translate(-44.026 -76)"/><path class="cls-36" d="M247.5,115.23a2.044,2.044,0,0,0-2.39-1.03,1.824,1.824,0,0,0-.792.253.989.989,0,0,0-.257.27,1.882,1.882,0,0,0-.248.594c-.033.13-.064.271-.092.433a2.064,2.064,0,0,1,2.765,2.2c-.192,2.592-.584,5.156-2.652,7.064a3.914,3.914,0,0,0,3.5-2.743,13.954,13.954,0,0,0,.666-5.127A4.7,4.7,0,0,0,247.5,115.23Z" transform="translate(-44.026 -76)"/><path class="cls-36" d="M243.812,115.317a1.882,1.882,0,0,1,.248-.594A1.882,1.882,0,0,0,243.812,115.317Z" transform="translate(-44.026 -76)"/><path class="cls-36" d="M222.214,123.828c2.323.528,2.481.72,2.588,3.258.012.3.194.277.385.285a15.255,15.255,0,0,0,.531-2.574,1.654,1.654,0,0,0-1.281-1.856,2.156,2.156,0,0,0-.658-.095,1.706,1.706,0,0,0-.739.191,1.824,1.824,0,0,0-.388.259,2.389,2.389,0,0,0-.438.532Z" transform="translate(-44.026 -76)"/><path class="cls-36" d="M222.214,123.828a2.389,2.389,0,0,1,.438-.532,2.389,2.389,0,0,0-.438.532Z" transform="translate(-44.026 -76)"/><path class="cls-36" d="M223.04,123.037a1.706,1.706,0,0,1,.739-.191A1.706,1.706,0,0,0,223.04,123.037Z" transform="translate(-44.026 -76)"/></g></svg>