<svg id="Layer_1" data-name="Layer 1" xmlns="http://www.w3.org/2000/svg" viewBox="0 0 221.52 221.52"><defs><style>.cls-1{fill:#e7d8a5;}.cls-1,.cls-2,.cls-3,.cls-4,.cls-5{isolation:isolate;}.cls-2{fill:#f9f6e1;}.cls-3{fill:#f1e5bf;}.cls-4{fill:#5c605f;}.cls-5{fill:#464948;}</style></defs><rect class="cls-1" width="221.52" height="221.52" rx="29.75"/><path class="cls-2" d="M849.08,456.27h221.29a29.75,29.75,0,0,0-29.64-27.22h-162A29.73,29.73,0,0,0,849.08,456.27Z" transform="translate(-848.96 -429.05)"/><path class="cls-3" d="M860.51,628.67h205.6a4.29,4.29,0,0,0,4.28-4.29V464.53a4.29,4.29,0,0,0-7.41-2.93L857.39,621.46A4.28,4.28,0,0,0,860.51,628.67Z" transform="translate(-848.96 -429.05)"/><path class="cls-4" d="M940.18,541.85l42.31-32a3.27,3.27,0,0,1,5.24,2.6v.65l-38,28.77a3.26,3.26,0,0,0,0,5.21l38,28.76v.65a3.27,3.27,0,0,1-5.24,2.61l-42.31-32A3.26,3.26,0,0,1,940.18,541.85Z" transform="translate(-848.96 -429.05)"/><path class="cls-5" d="M949.71,541.85l38-28.77v62.74l-38-28.76A3.26,3.26,0,0,1,949.71,541.85Z" transform="translate(-848.96 -429.05)"/></svg>