<svg width="222" height="222" viewBox="0 0 222 222" fill="none" xmlns="http://www.w3.org/2000/svg">
<path d="M185.603 9H36.3971C21.2661 9 9 21.2661 9 36.3971V185.603C9 200.734 21.2661 213 36.3971 213H185.603C200.734 213 213 200.734 213 185.603V36.3971C213 21.2661 200.734 9 185.603 9Z" fill="#CDBE8B"/>
<path d="M9 34H213C212.416 27.1807 209.284 20.8282 204.224 16.1989C199.165 11.5695 192.545 9.00052 185.676 9.00001H36.3333C29.4609 8.99399 22.8371 11.5605 17.7745 16.1909C12.7119 20.8213 9.58021 27.1776 9 34V34Z" fill="#E9E5C9"/>
<path d="M19.9372 193H209.063C210.108 192.998 211.109 192.581 211.847 191.84C212.586 191.1 213 190.097 213 189.052V41.935C212.997 41.1455 212.758 40.3749 212.313 39.7228C211.869 39.0707 211.239 38.5669 210.505 38.2766C209.771 37.9863 208.967 37.9228 208.197 38.0942C207.427 38.2657 206.725 38.6642 206.184 39.2384L17.0672 186.364C16.5413 186.925 16.1907 187.627 16.0586 188.384C15.9266 189.141 16.0187 189.92 16.3238 190.625C16.6289 191.331 17.1335 191.931 17.7756 192.353C18.4176 192.775 19.169 193 19.9372 193Z" fill="#DECE9D"/>
<path d="M91.1277 113.756L127.085 86.5609C127.497 86.25 127.987 86.0599 128.501 86.012C129.015 85.9641 129.532 86.0602 129.994 86.2896C130.456 86.519 130.846 86.8726 131.118 87.3108C131.391 87.749 131.536 88.2544 131.538 88.7705V89.3229L99.2437 113.773C98.9006 114.031 98.6222 114.366 98.4304 114.75C98.2387 115.134 98.1389 115.558 98.1389 115.987C98.1389 116.416 98.2387 116.84 98.4304 117.224C98.6222 117.608 98.9006 117.943 99.2437 118.201L131.538 142.642V143.195C131.538 143.712 131.394 144.218 131.122 144.658C130.85 145.097 130.461 145.452 129.998 145.682C129.535 145.913 129.018 146.01 128.503 145.962C127.988 145.914 127.497 145.724 127.085 145.413L91.1277 118.218C90.778 117.96 90.4938 117.624 90.2979 117.237C90.1021 116.849 90 116.421 90 115.987C90 115.553 90.1021 115.125 90.2979 114.737C90.4938 114.35 90.778 114.014 91.1277 113.756Z" fill="#5C605F"/>
<path d="M99.2267 113.756L131.521 89.3059V142.625L99.2267 118.184C98.8836 117.926 98.6052 117.591 98.4135 117.207C98.2217 116.823 98.1219 116.399 98.1219 115.97C98.1219 115.541 98.2217 115.117 98.4135 114.733C98.6052 114.349 98.8836 114.014 99.2267 113.756V113.756Z" fill="#464948"/>
</svg>
