<svg xmlns="http://www.w3.org/2000/svg" viewBox="0 0 336.38 225.96"><defs><style>.cls-1{fill:#fff;}.cls-2{fill:#ed6c7b;}.cls-3{fill:#c1cad3;}.cls-4{fill:#fdfdfe;}.cls-5{fill:#aea269;}.cls-6{opacity:0.5;}.cls-7{fill:#d7f4ff;}.cls-8{opacity:0.49;}.cls-9{fill:#dacb82;}.cls-10{fill:#aea26a;}.cls-11{fill:#62acd7;}.cls-12{fill:#dbd4bd;}.cls-13{fill:#dad5c1;}.cls-14{fill:#dbd4be;}.cls-15{fill:#9b978a;}.cls-16{fill:#9b978b;}.cls-17{fill:#9f9b8f;}.cls-18{fill:#62add8;}.cls-19{fill:#f8f5eb;}</style></defs><g id="frame"><rect class="cls-1" x="0.5" y="1.95" width="297" height="197" rx="7.78"/><path class="cls-2" d="M1080.9,428.5a7.29,7.29,0,0,1,7.28,7.28V617.23a7.28,7.28,0,0,1-7.28,7.27H799.46a7.29,7.29,0,0,1-7.28-7.27V435.78a7.29,7.29,0,0,1,7.28-7.28H1080.9m0-1H799.46a8.28,8.28,0,0,0-8.28,8.28V617.23a8.28,8.28,0,0,0,8.28,8.27H1080.9a8.27,8.27,0,0,0,8.28-8.27V435.78a8.28,8.28,0,0,0-8.28-8.28Z" transform="translate(-791.18 -426.05)"/><rect class="cls-3" x="21" y="48.45" width="112" height="117"/><rect class="cls-3" x="142" y="48.45" width="139" height="33"/><rect class="cls-3" x="142" y="91.45" width="139" height="33"/><rect class="cls-3" x="141" y="134.45" width="139" height="33"/><path class="cls-2" d="M1080.9,426.5H799.46a8.28,8.28,0,0,0-8.28,8.28v7.72h298v-7.72A8.28,8.28,0,0,0,1080.9,426.5Z" transform="translate(-791.18 -426.05)"/><path class="cls-4" d="M1076.42,649.5l5.6-.93v.93Z" transform="translate(-791.18 -426.05)"/><path class="cls-4" d="M1118.64,624.27l1.09-1.43Z" transform="translate(-791.18 -426.05)"/><path class="cls-5" d="M1082.47,542.27c-.16-.3-.32-.59-.47-.89C1082.15,541.68,1082.31,542,1082.47,542.27Z" transform="translate(-791.18 -426.05)"/></g><g id="shine"><g class="cls-6"><polygon class="cls-7" points="4.75 199.44 43.49 199.87 130.25 0.47 91.51 0.04 4.75 199.44"/></g><g class="cls-8"><polygon class="cls-7" points="64.75 199.44 84.71 199.35 162.92 0 142.97 0.09 64.75 199.44"/></g></g><g id="hand"><path class="cls-9" d="M1004.57,563.73c.79,4.69,3.44,8.38,6.53,11.75,2.06,2.26,4.41,4.25,6.63,6.35-.77,1.11-1.33,2.49-2.34,3.27a13.54,13.54,0,0,1-8.3,2.45c-1.07,0-2.14.13-3.21.2l-.07,1,18.91,3.42.48,0c.65,4.53,3.77,7.37,6.94,10.18l2.71,2.42a18.29,18.29,0,0,1-14.47,2.17c-9.25-2.2-17.16-6.48-23.13-14.07a27.62,27.62,0,0,0-11.58-8.63,1.73,1.73,0,0,0-.25-.39c-8.44-7.13-14-15.3-12.47-27.27,1.38-10.84,5.41-19.41,14.77-25.74,8.09-5.46,16.41-8,26-6.28,1.43.26,2.9.29,4.35.42a14.06,14.06,0,0,0-2.89-4.24c-1.17-1.17-2.53-2.16-4.08-3.46,2.14-1.83,3.56-3.44,5.32-4.47,7.23-4.23,13.91-5.67,20.62,1.79,3.41,3.8,7.73,3.73,12.31.51,3.9-2.75,7.85-5.45,11.78-8.17,8.21.22,16.18,1.56,22,7.88,5.69,6.12,9.83,13.26,9.08,22-.25,3-1.76,5.8-2.7,8.7l-5.11-3.3-.47-.89v0c-4.68-8.08-10.72-14.49-20.2-16.83-5.88-1.45-11.65-1.69-16.42,2.64-2.57,2.33-5.22,2.25-8.18,1.8-.61-.09-1.22-.18-1.84-.22-5.59-.39-10,2.35-14.12,5.57-2.83,2.21-5.51,4.59-9.49,4.25a5.58,5.58,0,0,0-2.21.55c-7.3,2.73-10.62,12.65-6.27,19.93Z" transform="translate(-791.18 -426.05)"/><path class="cls-2" d="M1122,596.85c-4.15,6.24-8.14,12.6-12.48,18.7-6.06,8.52-14.81,13.43-24.31,17.12-5.18,2-10.46,3.86-16.19,3.47l-3.84-17c3.42-.57,6.9-.89,10.24-1.76,8.56-2.23,15-8,21.3-13.73,6.79-6.18,11.21-14,14.77-22.35Q1116.72,589.07,1122,596.85Z" transform="translate(-791.18 -426.05)"/><path class="cls-10" d="M1059.15,506.94c-3.93,2.72-7.88,5.42-11.78,8.17-4.58,3.22-8.9,3.29-12.31-.51-6.71-7.46-13.39-6-20.62-1.79-1.76,1-3.18,2.64-5.32,4.47,1.55,1.3,2.91,2.29,4.08,3.46a14.06,14.06,0,0,1,2.89,4.24c-1.45-.13-2.92-.16-4.35-.42-9.61-1.74-17.93.82-26,6.28-9.36,6.33-13.39,14.9-14.77,25.74-1.54,12,4,20.14,12.47,27.27a1.73,1.73,0,0,1,.25.39c-6.3-1.45-12.58-2.85-16.52-8.81a25.74,25.74,0,0,1-4.29-12.84c-.76-12.14,2-23.21,10.09-32.65a23.32,23.32,0,0,1,14.82-8,23.89,23.89,0,0,0,14.93-8.17c4.41-4.94,9.65-8.56,16.38-9.33a35.77,35.77,0,0,1,7.36.37,13.26,13.26,0,0,1,3.35.93c6.85,2.71,13.71,4.08,21.06,1.7C1053.41,506.62,1056.37,507.08,1059.15,506.94Z" transform="translate(-791.18 -426.05)"/><path class="cls-11" d="M1111.47,581.3c-3.56,8.35-8,16.17-14.77,22.35-6.31,5.76-12.74,11.5-21.3,13.73-3.34.87-6.82,1.19-10.24,1.76q-2.19-6.27-4.37-12.52a24.79,24.79,0,0,0,3.22.09c2.61-.26,5.2-.65,7.8-1,6.4-2.06,11.23-6.37,15.57-11.23a40.9,40.9,0,0,0,9.68-18.16c.3-1.34.36-2.74.53-4.12l.27-8Z" transform="translate(-791.18 -426.05)"/><path class="cls-12" d="M1097.86,564.2l-.27,8c-.38-.81-.79-1.61-1.12-2.44-1.77-4.44-3.16-9.08-5.41-13.25-1.19-2.2-3.8-3.68-5.91-5.3-1.46-1.11-2.58-.18-3.6,1.75-.8-2-1.46-3.46-2-5-3.61-9.76-11.1-14.73-20.85-16.83a25.22,25.22,0,0,0-5.76-.45c-1,0-2.55.27-3,1-1.16,1.87-2.91,2.22-4.72,2.67l-1-.9a23,23,0,0,1,2.75-3,14,14,0,0,1,9.46-2.51,27.1,27.1,0,0,1,20.34,10.12c1.34,1.61,2.58,3.66,5.23,3.32v0c.15.3.31.59.47.89l5.11,3.3c1,1.3,2.06,2.59,3.08,3.89A35,35,0,0,1,1097.86,564.2Z" transform="translate(-791.18 -426.05)"/><path class="cls-13" d="M1071.81,605.73c-2.6.33-5.19.72-7.8,1a24.79,24.79,0,0,1-3.22-.09l-4.41-.94-3.87-3.17Z" transform="translate(-791.18 -426.05)"/><path class="cls-12" d="M1004.57,563.73l-1.29-4.64,0-2.27c.74-1.46,1.56-2.89,2.22-4.39,2.25-5.12,8.42-8.21,13-6.17a28.49,28.49,0,0,1,6.45,4.06c2.87,2.36,5.44,5.08,8.21,7.56a5.53,5.53,0,0,0,2,.7c3.38,2.07,5.16,5.14,5.83,9.81-2.59-2.17-4.66-4-6.81-5.67-4.06-3.21-8.09-6.45-12.29-9.45a17.25,17.25,0,0,0-5.47-2.42c-3.56-1-6.87,1.36-8.23,5.36-.83,2.43-1.83,4.79-2.8,7.17C1005.28,563.57,1004.84,563.62,1004.57,563.73Z" transform="translate(-791.18 -426.05)"/><path class="cls-12" d="M1053,545.93q.77,3.33,1.54,6.66l-.47.27c-2-2.3-4-4.53-5.89-6.91a22.29,22.29,0,0,0-13.62-8.52,9.67,9.67,0,0,0-10.32,5.18,7.25,7.25,0,0,1-1.47,1.57l-2.74-1.43a12.19,12.19,0,0,1,1-2.51c2.53-3.88,6.29-5.91,10.72-6.86,8.07.86,14.64,4.26,19.15,11.25C1051.28,545.26,1052.28,545.5,1053,545.93Z" transform="translate(-791.18 -426.05)"/><path class="cls-14" d="M1023.2,592.17l-.48,0q.51-2.55,1-5.1a12.37,12.37,0,0,0,2.23,2.43c3.42,2.17,6.93,4.22,10.45,6.23a8.77,8.77,0,0,0,3,1c.47.08,1-.52,1.55-.81a1.86,1.86,0,0,1,.47,0c2.5.54,4.42,2.08,4,3.46-.64,2.29-2.52,2.63-4.62,2.59-7-.15-12.06-3.8-16.52-8.7C1024,592.89,1023.57,592.54,1023.2,592.17Z" transform="translate(-791.18 -426.05)"/><path class="cls-15" d="M1020,542.75l2.74,1.43c1.11,1.38,2.18,2.78,3.33,4.11,3,3.45,6,6.86,9,10.29a5.53,5.53,0,0,1-2-.7c-2.77-2.48-5.34-5.2-8.21-7.56a28.49,28.49,0,0,0-6.45-4.06c-4.53-2-10.7,1-13,6.17-.66,1.5-1.48,2.93-2.22,4.39l.39-3a12.41,12.41,0,0,1,10.9-11.09A41.12,41.12,0,0,1,1020,542.75Z" transform="translate(-791.18 -426.05)"/><path class="cls-10" d="M1023.75,587.05q-.53,2.55-1,5.1l-18.91-3.42.07-1c1.07-.07,2.14-.18,3.21-.2a13.54,13.54,0,0,0,8.3-2.45c1-.78,1.57-2.16,2.34-3.27l6,4.64C1023.76,586.66,1023.75,586.85,1023.75,587.05Z" transform="translate(-791.18 -426.05)"/><path class="cls-16" d="M1053,545.93c-.73-.43-1.73-.67-2.14-1.3-4.51-7-11.08-10.39-19.15-11.25,4.18-1.47,8.35-1,12.51.07l1,.9c3.54,2.34,5.62,5.87,7.6,9.46A5.39,5.39,0,0,1,1053,545.93Z" transform="translate(-791.18 -426.05)"/><path class="cls-17" d="M1023.75,587.05c0-.2,0-.39,0-.58,3.12,1.63,6.22,3.32,9.37,4.89,1.59.79,3.35,1.22,4.89,2.07a18.64,18.64,0,0,1,2.93,2.51c-.53.29-1.09.89-1.56.81a8.77,8.77,0,0,1-3-1c-3.52-2-7-4.06-10.45-6.23A12.37,12.37,0,0,1,1023.75,587.05Z" transform="translate(-791.18 -426.05)"/><path class="cls-5" d="M1044.23,533.45c-4.16-1.08-8.33-1.54-12.51-.07-4.43,1-8.19,3-10.72,6.86a12.19,12.19,0,0,0-1,2.51,41.12,41.12,0,0,0-5.44,0,12.41,12.41,0,0,0-10.9,11.09l-.39,3,0,2.27c-4.35-7.28-1-17.2,6.27-19.93a5.58,5.58,0,0,1,2.21-.55c4,.34,6.66-2,9.49-4.25,4.14-3.22,8.53-6,14.12-5.57.62,0,1.23.13,1.84.22,3,.45,5.61.53,8.18-1.8,4.77-4.33,10.54-4.09,16.42-2.64,9.48,2.34,15.52,8.75,20.2,16.83-2.65.34-3.89-1.71-5.23-3.32A27.1,27.1,0,0,0,1056.44,528a14,14,0,0,0-9.46,2.51A23,23,0,0,0,1044.23,533.45Z" transform="translate(-791.18 -426.05)"/><path class="cls-18" d="M1127.51,606.62a3.22,3.22,0,0,0-.25-1.92c-1.6-2.71-3.5-5.25-5.28-7.85-4.15,6.24-8.14,12.6-12.48,18.7-6.06,8.52-14.81,13.43-24.31,17.12-5.18,2-10.46,3.86-16.19,3.47.48,3.27.86,6.56,1.48,9.8a5.92,5.92,0,0,0,1.62,2.3,11,11,0,0,0,1.53,1.26h.3c6.41,4.07,21.36,3.54,33.32-4.2C1120.59,636.68,1128.26,612.81,1127.51,606.62Z" transform="translate(-791.18 -426.05)"/><path class="cls-19" d="M1096.47,569.78c-.6-1.49-1.15-3-1.71-4.53a41.83,41.83,0,0,0-2.88-7.1c-.26-.55-.54-1.09-.82-1.62a6.76,6.76,0,0,0-.46-.72c-1.77-3-3.77-5.31-5.42-5.31s-2.36.24-2.7,1.09a7.28,7.28,0,0,0-.93,1.39c-.8-2-1.46-3.46-2-5-3.61-9.76-11.1-14.73-20.85-16.83a25.22,25.22,0,0,0-5.76-.45c-1,0-2.55.27-3,1-1.16,1.87-2.91,2.22-4.72,2.67,3.54,2.34,5.62,5.87,7.6,9.46a5.39,5.39,0,0,1,.19,2.12q.77,3.33,1.54,6.66l-.47.27c-2-2.3-4-4.53-5.89-6.91a22.29,22.29,0,0,0-13.62-8.52,9.67,9.67,0,0,0-10.32,5.18,7.25,7.25,0,0,1-1.47,1.57c1.11,1.38,2.18,2.78,3.33,4.11,3,3.45,6,6.86,9,10.29,3.38,2.07,5.16,5.14,5.83,9.81-2.59-2.17-4.66-4-6.81-5.67-4.06-3.21-8.09-6.45-12.29-9.45a17.25,17.25,0,0,0-5.47-2.42c-3.56-1-6.87,1.36-8.23,5.36-.83,2.43-1.83,4.79-2.8,7.17-.08.19-.52.24-.79.35.79,4.69,3.44,8.38,6.53,11.75,2.06,2.26,4.41,4.25,6.63,6.35l6,4.64c3.12,1.63,6.22,3.32,9.37,4.89,1.59.79,3.35,1.22,4.89,2.07a18.64,18.64,0,0,1,2.93,2.51,1.77,1.77,0,0,1,.46,0c2.5.54,4.42,2.08,4,3.46-.64,2.29-2.52,2.63-4.62,2.59-7-.15-12.06-3.8-16.52-8.7-.35-.39-.74-.74-1.11-1.11.65,4.53,3.77,7.37,6.94,10.18l2.71,2.42c2,1,3.93,2.13,6,3.07,5.22,2.44,10.49,3,15.68-.07a9.57,9.57,0,0,0,1.9-2.09l-3.87-3.17,19.3,3.22c6.4-2.06,11.23-6.37,15.57-11.23a40.9,40.9,0,0,0,9.68-18.16c.3-1.34.36-2.74.53-4.12C1097.21,571.41,1096.8,570.61,1096.47,569.78Z" transform="translate(-791.18 -426.05)"/></g></svg>