<svg width="222" height="222" viewBox="0 0 222 222" fill="none" xmlns="http://www.w3.org/2000/svg">
<path d="M185.603 9H36.3971C21.2661 9 9 21.2661 9 36.3971V185.603C9 200.734 21.2661 213 36.3971 213H185.603C200.734 213 213 200.734 213 185.603V36.3971C213 21.2661 200.734 9 185.603 9Z" fill="#CDBE8B"/>
<path d="M9 34H213C212.416 27.1807 209.284 20.8282 204.224 16.1989C199.165 11.5695 192.545 9.00052 185.676 9.00001H36.3333C29.4609 8.99399 22.8371 11.5605 17.7745 16.1909C12.7119 20.8213 9.58021 27.1776 9 34V34Z" fill="#E9E5C9"/>
<path d="M19.9372 193H209.063C210.108 192.998 211.109 192.581 211.847 191.84C212.586 191.1 213 190.097 213 189.052V41.935C212.997 41.1455 212.758 40.3749 212.313 39.7228C211.869 39.0707 211.239 38.5669 210.505 38.2766C209.771 37.9863 208.967 37.9228 208.197 38.0942C207.427 38.2657 206.725 38.6642 206.184 39.2384L17.0672 186.364C16.5413 186.925 16.1907 187.627 16.0586 188.384C15.9266 189.141 16.0187 189.92 16.3238 190.625C16.6289 191.331 17.1335 191.931 17.7756 192.353C18.4176 192.775 19.169 193 19.9372 193Z" fill="#DECE9D"/>
<path d="M134.872 109.041L98.9153 81.8457C98.5033 81.5348 98.013 81.3447 97.4991 81.2968C96.9852 81.2489 96.4682 81.345 96.0058 81.5744C95.5435 81.8038 95.1542 82.1574 94.8815 82.5955C94.6089 83.0337 94.4636 83.5392 94.4621 84.0553V84.6077L126.756 109.058C127.099 109.316 127.378 109.65 127.57 110.035C127.761 110.419 127.861 110.842 127.861 111.272C127.861 111.701 127.761 112.125 127.57 112.509C127.378 112.893 127.099 113.227 126.756 113.486L94.4621 137.927V138.48C94.4621 138.996 94.6062 139.503 94.8782 139.942C95.1503 140.382 95.5394 140.737 96.0021 140.967C96.4647 141.198 96.9823 141.294 97.497 141.247C98.0116 141.199 98.5028 141.009 98.9153 140.698L134.872 113.503C135.222 113.245 135.506 112.909 135.702 112.521C135.898 112.134 136 111.706 136 111.272C136 110.837 135.898 110.409 135.702 110.022C135.506 109.634 135.222 109.298 134.872 109.041Z" fill="#5C605F"/>
<path d="M126.773 109.041L94.4791 84.5907V137.91L126.773 113.469C127.116 113.21 127.395 112.876 127.587 112.492C127.778 112.108 127.878 111.684 127.878 111.255C127.878 110.825 127.778 110.402 127.587 110.018C127.395 109.633 127.116 109.299 126.773 109.041V109.041Z" fill="#464948"/>
</svg>
