<svg viewBox="0 0 320 160" xmlns="http://www.w3.org/2000/svg"><rect fill="#ed1846" height="149.5256" rx="10" width="310" x="5" y="5"/><path d="m113.8305 72.78v-.1573c0-5.67-1.7334-9.7643-5.0394-13.0721-3.8582-3.8582-10.0788-6.2993-19.8431-6.2993h-26.93v55.1181h18.426v-15.7474h3.9369l10.3933 15.748h21.0238l-12.8344-18.7392c6.6924-3.2292 10.8669-8.8199 10.8669-16.8508zm-18.3469 1.3383c0 3.3864-2.6772 5.3539-7.0873 5.3539h-7.9523v-10.7883h8.0326c4.2514 0 7.007 1.7334 7.007 5.2771zm30.07 34.2511h18.4243v-55.1182h-18.4238zm59.2852-56.2994c-17.0071 0-30.1578 12.7558-30.1578 28.7407v.1573c0 15.9841 12.9933 28.5827 30.0005 28.5828 17.0089 0 30.1578-12.7559 30.1578-28.74v-.1573c.0001-15.9851-12.9916-28.5835-30.0005-28.5835zm11.4191 28.898c0 6.4575-4.41 12.2832-11.419 12.2827-7.0856 0-11.5746-5.9057-11.5746-12.44v-.1573c0-6.4565 4.41-12.284 11.4173-12.284 7.0873 0 11.5763 5.9061 11.5763 12.4413zm23.8464-27.7167v15.5916h16.2208v39.5264h18.4242v-39.5264h16.2207v-15.5917z" fill="#fff"/></svg>