<svg xmlns="http://www.w3.org/2000/svg" viewBox="0 0 83.31 19.48"><defs><style>.cls-1,.cls-2{fill:#0093e7;stroke:#45d4ff;stroke-width:0.25px;}.cls-1{stroke-miterlimit:10;}.cls-10,.cls-2,.cls-3,.cls-4,.cls-5,.cls-6,.cls-7,.cls-8,.cls-9{stroke-linecap:round;stroke-linejoin:round;}.cls-3,.cls-4,.cls-5{fill:#e55555;stroke:#ffb6a2;}.cls-3{stroke-width:0.14px;}.cls-4{stroke-width:0.18px;}.cls-5{stroke-width:0.12px;}.cls-6{stroke:#000;stroke-width:0.19px;}.cls-10,.cls-7,.cls-8,.cls-9{fill:#9adae5;stroke:#cfe5ff;}.cls-7{stroke-width:0.17px;}.cls-8{stroke-width:0.16px;}.cls-9{stroke-width:0.14px;}.cls-10{stroke-width:0.14px;}</style></defs><title>Asset 2</title><g id="Layer_2" data-name="Layer 2"><g id="Layer_1-2" data-name="Layer 1"><path class="cls-1" d="M.65,13.44a7.13,7.13,0,0,0,3.59,1c2.05,0,3.24-1.08,3.24-2.64S6.65,9.53,4.56,8.73C2,7.83.47,6.52.47,4.33c0-2.41,2-4.21,5-4.21A7.06,7.06,0,0,1,8.91.88L8.36,2.52a6.17,6.17,0,0,0-2.95-.74C3.3,1.78,2.49,3.05,2.49,4.1c0,1.45.94,2.16,3.08,3,2.62,1,4,2.28,4,4.56S7.76,16.11,4.1,16.11a8,8,0,0,1-3.95-1Z"/><path class="cls-1" d="M20.27,8.61h-6V14.2H21v1.68H12.24V.38h8.37V2.06H14.24V7h6Z"/><path class="cls-1" d="M31.56,8.61h-6V14.2h6.71v1.68H23.54V.38h8.37V2.06H25.54V7h6Z"/><path class="cls-1" d="M34.19,14.68a1.36,1.36,0,0,1,1.38-1.45,1.34,1.34,0,0,1,1.35,1.45,1.37,1.37,0,1,1-2.73,0Z"/><path class="cls-1" d="M45,15.88V11.81h-7V10.47L44.74.93h2.19v9.29H49v1.59H46.93v4.07Zm0-5.66v-5c0-.78,0-1.56.07-2.35H45c-.46.88-.83,1.52-1.24,2.21l-3.66,5.08v.05Z"/><path class="cls-1" d="M62.08,15.37a9.86,9.86,0,0,1-4.09.74c-4.37,0-7.66-2.76-7.66-7.84A7.72,7.72,0,0,1,58.42.12,8.34,8.34,0,0,1,62.1.81l-.48,1.64a7.26,7.26,0,0,0-3.13-.65c-3.63,0-6,2.33-6,6.4,0,3.79,2.18,6.23,5.95,6.23a8.06,8.06,0,0,0,3.27-.65Z"/><rect class="cls-2" x="62.63" y="12.42" width="1.12" height="2.88" rx="0.28" ry="0.28"/><rect class="cls-2" x="64.26" y="10.71" width="1.12" height="4.65" rx="0.21" ry="0.21"/><rect class="cls-2" x="79" y="11.59" width="1.12" height="4.54" rx="0.21" ry="0.21"/><rect class="cls-2" x="80.51" y="13.22" width="1.12" height="2.16" rx="0.21" ry="0.21"/><rect class="cls-2" x="82.07" y="13.86" width="1.12" height="1.64" rx="0.21" ry="0.21"/><rect class="cls-3" x="65.89" y="12.48" width="1.12" height="4.52" rx="0.21" ry="0.21"/><rect class="cls-4" x="70.95" y="10.71" width="1.12" height="7.91" rx="0.21" ry="0.21"/><rect class="cls-5" x="75.65" y="12.48" width="1.12" height="3.32" rx="0.21" ry="0.21"/><rect class="cls-6" x="69.27" y="8.14" width="1.12" height="8.62" rx="0.21" ry="0.21"/><rect class="cls-7" x="67.58" y="12.66" width="1.12" height="6.73" rx="0.21" ry="0.21"/><rect class="cls-8" x="72.63" y="9.09" width="1.12" height="6.28" rx="0.21" ry="0.21"/><rect class="cls-9" x="74.14" y="12.67" width="1.12" height="4.51" rx="0.21" ry="0.21"/><rect class="cls-10" x="77.09" y="13.4" width="1.46" height="3.36" rx="0.21" ry="0.21"/></g></g></svg>