<svg height="200pt" viewBox="0 0 200 200" width="200pt" xmlns="http://www.w3.org/2000/svg" xmlns:xlink="http://www.w3.org/1999/xlink"><symbol id="a" overflow="visible"><path d="m2.644531-1.980469v-2.535156l-1.792969 2.535156zm.011719 1.980469v-1.367188h-2.453125v-.6875l2.5625-3.554687h.59375v3.628906h.824219v.613281h-.824219v1.367188zm0 0"/></symbol><symbol id="b" overflow="visible"><path d="m2.175781-3.25c.308594 0 .550781-.085938.726563-.257812.175781-.175782.261718-.382813.261718-.621094 0-.207032-.082031-.398438-.25-.574219-.167968-.175781-.421874-.261719-.761718-.261719s-.582032.085938-.734375.261719c-.152344.175781-.226563.378906-.226563.613281 0 .261719.097656.46875.292969.617188.195313.148437.425781.222656.691406.222656zm.042969 2.769531c.324219 0 .59375-.089843.8125-.261719.214844-.175781.320312-.441406.320312-.789062 0-.363281-.109374-.636719-.332031-.824219-.222656-.1875-.503906-.28125-.851562-.28125-.335938 0-.609375.097657-.824219.285157-.210938.191406-.316406.457031-.316406.796874 0 .292969.097656.542969.292968.757813.191407.210937.492188.316406.898438.316406zm-1-2.5c-.195312-.082031-.347656-.179687-.457031-.292969-.207031-.207031-.308594-.480468-.308594-.8125 0-.417968.152344-.773437.453125-1.074218.300781-.300782.730469-.449219 1.285156-.449219.535156 0 .957032.140625 1.261719.421875.304687.285156.457031.613281.457031.992188 0 .347656-.089844.632812-.265625.847656-.097656.121094-.253906.242187-.460937.359375.230468.105469.414062.230469.546875.367187.246093.261719.371093.597656.371093 1.015625 0 .492188-.164062.910157-.496093 1.253907-.332031.3398432-.796875.511718-1.402344.511718-.542969 0-1.003906-.1484372-1.382813-.441406-.375-.296875-.5625-.726562-.5625-1.289062 0-.332032.082032-.617188.242188-.859376.160156-.238281.402344-.421874.71875-.550781zm0 0"/></symbol><symbol id="c" overflow="visible"><path d="m.765625-3.960938v-.539062c.507813-.050781.863281-.132812 1.0625-.25.199219-.113281.351563-.386719.449219-.820312h.554687v5.570312h-.75v-3.960938zm0 0"/></symbol><symbol id="d" overflow="visible"><path d="m.25 0c.027344-.480469.125-.902344.296875-1.257812.175781-.355469.511719-.679688 1.015625-.972657l.75-.433593c.335938-.195313.570312-.363282.707031-.5.214844-.214844.320313-.464844.320313-.742188 0-.324219-.097656-.585938-.292969-.773438-.195313-.191406-.457031-.289062-.78125-.289062-.480469 0-.816406.183594-1 .546875-.097656.195313-.152344.464844-.164063.8125h-.714843c.007812-.488281.097656-.882813.269531-1.191406.304688-.542969.84375-.8125 1.613281-.8125.640625 0 1.109375.171875 1.402344.519531.296875.347656.445313.730469.445313 1.15625 0 .449219-.15625.832031-.472657 1.148438-.183593.183593-.507812.410156-.980469.671874l-.535156.296876c-.253906.140624-.457031.273437-.601562.402343-.261719.226563-.425782.476563-.492188.753907h3.054688v.664062zm0 0"/></symbol><symbol id="e" overflow="visible"><path d="m2.078125.152344c-.660156 0-1.140625-.183594-1.4375-.542969-.300781-.363281-.449219-.808594-.449219-1.328125h.734375c.03125.363281.097657.625.203125.789062.183594.292969.511719.441407.988282.441407.371093 0 .667968-.097657.890624-.296875.222657-.199219.335938-.453125.335938-.765625 0-.386719-.117188-.65625-.351562-.808594-.238282-.152344-.566407-.230469-.984376-.230469-.046874 0-.09375 0-.140624.003906-.050782 0-.097657 0-.148438.003907v-.621094c.074219.007813.132812.011719.183594.015625.050781.003906.101562.003906.160156.003906.261719 0 .480469-.042968.648438-.125.296874-.144531.445312-.40625.445312-.78125 0-.277344-.097656-.492187-.296875-.644531s-.429687-.226563-.691406-.226563c-.46875 0-.792969.15625-.972657.46875-.097656.171876-.15625.417969-.167968.734376h-.695313c0-.417969.082031-.769532.25-1.0625.285157-.519532.789063-.78125 1.511719-.78125.570312 0 1.011719.125 1.324219.382812.3125.253906.46875.621094.46875 1.101562 0 .34375-.09375.621094-.277344.835938-.113281.132812-.261719.238281-.445313.3125.292969.082031.523438.234375.6875.46875.167969.230469.25.511719.25.84375 0 .535156-.175781.96875-.527343 1.304688-.351563.335937-.851563.503906-1.496094.503906zm0 0"/></symbol><symbol id="f" overflow="visible"><path d="m.988281-1.425781c.046875.402343.234375.679687.558594.832031.167969.078125.359375.117188.578125.117188.417969 0 .726562-.132813.925781-.398438s.300781-.558594.300781-.882812c0-.390626-.117187-.691407-.359374-.90625-.238282-.214844-.523438-.320313-.855469-.320313-.242188 0-.449219.046875-.621094.140625-.175781.09375-.324219.222656-.445313.390625l-.609374-.035156.425781-3.011719h2.90625v.679688h-2.378907l-.238281 1.554687c.128907-.097656.253907-.171875.371094-.222656.207031-.085938.449219-.128907.722656-.128907.511719 0 .949219.164063 1.304688.496094.355469.332032.535156.75.535156 1.257813 0 .527343-.164063.996093-.492187 1.398437-.324219.402344-.847657.605469-1.5625.605469-.457032 0-.859376-.1289062-1.210938-.382813-.347656-.257812-.542969-.652343-.585938-1.183593zm0 0"/></symbol><symbol id="g" overflow="visible"><path d="m2.339844-5.617188c.625 0 1.058594.164063 1.308594.484376.246093.324218.367187.660156.367187 1.003906h-.695313c-.042968-.222656-.109374-.394532-.199218-.519532-.167969-.234374-.425782-.351562-.769532-.351562-.394531 0-.707031.179688-.9375.546875-.230468.363281-.359374.882813-.386718 1.558594.160156-.238281.363281-.414063.609375-.53125.222656-.105469.472656-.15625.75-.15625.46875 0 .878906.148437 1.226562.449219.347657.300781.523438.746093.523438 1.339843 0 .507813-.164063.957031-.496094 1.347657-.332031.3945308-.800781.589843-1.414063.589843-.523437 0-.976562-.1992185-1.355468-.597656-.378906-.394531-.570313-1.0625-.570313-2.003906 0-.695313.085938-1.285157.253907-1.769531.324218-.925782.921874-1.390626 1.785156-1.390626zm-.050782 5.136719c.371094 0 .648438-.125.828126-.371093.183593-.25.277343-.542969.277343-.882813 0-.285156-.082031-.558594-.246093-.820313-.164063-.257812-.460938-.386718-.894532-.386718-.300781 0-.566406.101562-.792968.300781-.230469.199219-.34375.503906-.34375.90625 0 .355469.101562.652344.3125.890625.207031.242188.492187.363281.859374.363281zm0 0"/></symbol><symbol id="h" overflow="visible"><path d="m4.183594-5.5v.613281c-.179688.175781-.417969.476563-.714844.910157-.300781.433593-.5625.898437-.792969 1.398437-.226562.488281-.398437.929687-.515625 1.332031-.074218.257813-.171875.671875-.292968 1.246094h-.777344c.175781-1.066406.566406-2.128906 1.171875-3.1875.355469-.621094.730469-1.15625 1.125-1.605469h-3.09375v-.707031zm0 0"/></symbol><symbol id="i" overflow="visible"><path d="m1.0625-1.351562c.019531.386718.171875.65625.449219.804687.144531.078125.304687.117187.484375.117187.335937 0 .621094-.140624.859375-.421874.238281-.277344.40625-.847657.503906-1.703126-.15625.246094-.351563.421876-.578125.523438-.230469.097656-.480469.148438-.746094.148438-.539062 0-.964844-.167969-1.277344-.503907-.316406-.335937-.472656-.769531-.472656-1.296875 0-.507812.15625-.953125.464844-1.339844.308594-.386718.765625-.578124 1.371094-.578124.816406 0 1.378906.367187 1.6875 1.101562.171875.402344.257812.910156.257812 1.515625 0 .683594-.101562 1.292969-.308594 1.820313-.339843.878906-.917968 1.320312-1.734374 1.320312-.546876 0-.960938-.1445312-1.246094-.429688-.285156-.285156-.425782-.644531-.425782-1.078124zm1.066406-1.148438c.277344 0 .535156-.09375.761719-.273438.230469-.183593.347656-.507812.347656-.964843 0-.410157-.105469-.71875-.308593-.917969-.207032-.203125-.472657-.304688-.792969-.304688-.34375 0-.617188.117188-.816407.34375-.203124.230469-.304687.539063-.304687.925782 0 .363281.089844.652344.265625.871094.175781.214843.460938.320312.847656.320312zm0 0"/></symbol><symbol id="j" overflow="visible"><path d="m2.164062-5.59375c.722657 0 1.246094.296875 1.570313.894531.25.460938.375 1.09375.375 1.894531 0 .761719-.113281 1.390626-.339844 1.886719-.328125.714844-.863281 1.070313-1.609375 1.070313-.671875 0-1.171875-.292969-1.5-.875-.273437-.488282-.410156-1.140625-.410156-1.960938 0-.636718.082031-1.179687.246094-1.636718.308594-.847657.863281-1.273438 1.667968-1.273438zm-.007812 5.105469c.363281 0 .65625-.160157.871094-.484375.214844-.324219.324218-.925782.324218-1.804688 0-.636718-.078124-1.160156-.234374-1.566406-.15625-.410156-.460938-.617188-.910157-.617188-.414062 0-.714843.195313-.910156.585938-.191406.386719-.285156.960938-.285156 1.71875 0 .570312.0625 1.027344.183593 1.375.1875.527344.507813.792969.960938.792969zm0 0"/></symbol><g><use x="12" xlink:href="#a" y="100"/><use x="16.449219" xlink:href="#b" y="100"/></g><use x="12.753906" xlink:href="#c" y="88.515625"/><path d="m20.683594 89.558594 10.035156-29.558594" fill="none" stroke="#3e00ff" stroke-miterlimit="10" stroke-opacity=".4" stroke-width=".75"/><use x="15" xlink:href="#d" y="77.222656"/><path d="m22.726562 79.292969 37.273438-48.574219" fill="none" stroke="#4800ff" stroke-miterlimit="10" stroke-opacity=".4" stroke-width=".75"/><use x="18.699219" xlink:href="#e" y="66.324219"/><path d="m26.089844 69.386719 73.910156-49.386719" fill="none" stroke="#5300ff" stroke-miterlimit="10" stroke-opacity=".4" stroke-width=".75"/><use x="23.789062" xlink:href="#a" y="56"/><path d="m30.71875 60 109.28125-29.28125" fill="none" stroke="#5e00ff" stroke-miterlimit="10" stroke-opacity=".4" stroke-width=".75"/><use x="30.183594" xlink:href="#f" y="46.429688"/><path d="m36.53125 51.300781 132.75 8.699219" fill="none" stroke="#6800ff" stroke-miterlimit="10" stroke-opacity=".4" stroke-width=".75"/><use x="37.773438" xlink:href="#g" y="37.773438"/><path d="m43.429688 43.429688 136.570312 56.570312" fill="none" stroke="#7300ff" stroke-miterlimit="10" stroke-opacity=".4" stroke-width=".75"/><use x="46.429688" xlink:href="#h" y="30.183594"/><path d="m51.300781 36.53125 117.980469 103.46875" fill="none" stroke="#7d00ff" stroke-miterlimit="10" stroke-opacity=".4" stroke-width=".75"/><use x="56" xlink:href="#b" y="23.789062"/><path d="m60 30.71875 80 138.5625" fill="none" stroke="#80f" stroke-miterlimit="10" stroke-opacity=".4" stroke-width=".75"/><use x="66.324219" xlink:href="#i" y="18.699219"/><path d="m69.386719 26.089844 30.613281 153.910156" fill="none" stroke="#9300ff" stroke-miterlimit="10" stroke-opacity=".4" stroke-width=".75"/><g><use x="77.222656" xlink:href="#c" y="15"/><use x="81.671875" xlink:href="#j" y="15"/></g><path d="m79.292969 22.726562-19.292969 146.554688" fill="none" stroke="#9d00ff" stroke-miterlimit="10" stroke-opacity=".4" stroke-width=".75"/><g><use x="88.515625" xlink:href="#c" y="12.753906"/><use x="92.964844" xlink:href="#c" y="12.753906"/></g><path d="m89.558594 20.683594-58.839844 119.316406" fill="none" stroke="#a800ff" stroke-miterlimit="10" stroke-opacity=".4" stroke-width=".75"/><g><use x="100" xlink:href="#c" y="12"/><use x="104.449219" xlink:href="#d" y="12"/></g><path d="m100 20-80 80" fill="none" stroke="#b300ff" stroke-miterlimit="10" stroke-opacity=".4" stroke-width=".75"/><g><use x="111.484375" xlink:href="#c" y="12.753906"/><use x="115.933594" xlink:href="#e" y="12.753906"/></g><path d="m110.441406 20.683594-79.722656 39.316406" fill="none" stroke="#bd00ff" stroke-miterlimit="10" stroke-opacity=".4" stroke-width=".75"/><g><use x="122.777344" xlink:href="#c" y="15"/><use x="127.226562" xlink:href="#a" y="15"/></g><path d="m120.707031 22.726562-60.707031 7.992188" fill="none" stroke="#c800ff" stroke-miterlimit="10" stroke-opacity=".4" stroke-width=".75"/><g><use x="133.675781" xlink:href="#c" y="18.699219"/><use x="138.125" xlink:href="#f" y="18.699219"/></g><path d="m130.613281 26.089844-30.613281-6.089844" fill="none" stroke="#d200ff" stroke-miterlimit="10" stroke-opacity=".4" stroke-width=".75"/><g><use x="144" xlink:href="#c" y="23.789062"/><use x="148.449219" xlink:href="#g" y="23.789062"/></g><g><use x="153.570312" xlink:href="#c" y="30.183594"/><use x="158.019531" xlink:href="#h" y="30.183594"/></g><path d="m148.699219 36.53125 20.582031 23.46875" fill="none" stroke="#e800ff" stroke-miterlimit="10" stroke-opacity=".4" stroke-width=".75"/><g><use x="162.226562" xlink:href="#c" y="37.773438"/><use x="166.675781" xlink:href="#b" y="37.773438"/></g><path d="m156.570312 43.429688 23.429688 56.570312" fill="none" stroke="#f200ff" stroke-miterlimit="10" stroke-opacity=".4" stroke-width=".75"/><g><use x="169.816406" xlink:href="#c" y="46.429688"/><use x="174.265625" xlink:href="#i" y="46.429688"/></g><path d="m163.46875 51.300781 5.8125 88.699219" fill="none" stroke="#fd00ff" stroke-miterlimit="10" stroke-opacity=".4" stroke-width=".75"/><g><use x="176.210938" xlink:href="#d" y="56"/><use x="180.660156" xlink:href="#j" y="56"/></g><path d="m169.28125 60-29.28125 109.28125" fill="none" stroke="#ff00f7" stroke-miterlimit="10" stroke-opacity=".4" stroke-width=".75"/><g><use x="181.300781" xlink:href="#d" y="66.324219"/><use x="185.75" xlink:href="#c" y="66.324219"/></g><path d="m173.910156 69.386719-73.910156 110.613281" fill="none" stroke="#ff00ec" stroke-miterlimit="10" stroke-opacity=".4" stroke-width=".75"/><g><use x="185" xlink:href="#d" y="77.222656"/><use x="189.449219" xlink:href="#d" y="77.222656"/></g><path d="m177.273438 79.292969-117.273438 89.988281" fill="none" stroke="#ff00e1" stroke-miterlimit="10" stroke-opacity=".4" stroke-width=".75"/><g><use x="187.246094" xlink:href="#d" y="88.515625"/><use x="191.695312" xlink:href="#e" y="88.515625"/></g><path d="m179.316406 89.558594-148.597656 50.441406" fill="none" stroke="#ff00d7" stroke-miterlimit="10" stroke-opacity=".4" stroke-width=".75"/><g><use x="188" xlink:href="#d" y="100"/><use x="192.449219" xlink:href="#a" y="100"/></g><path d="m180 100h-160" fill="none" stroke="#f0c" stroke-miterlimit="10" stroke-opacity=".4" stroke-width=".75"/><g><use x="187.246094" xlink:href="#d" y="111.484375"/><use x="191.695312" xlink:href="#f" y="111.484375"/></g><path d="m179.316406 110.441406-148.597656-50.441406" fill="none" stroke="#ff00c1" stroke-miterlimit="10" stroke-opacity=".4" stroke-width=".75"/><g><use x="185" xlink:href="#d" y="122.777344"/><use x="189.449219" xlink:href="#g" y="122.777344"/></g><path d="m177.273438 120.707031-117.273438-89.988281" fill="none" stroke="#ff00b7" stroke-miterlimit="10" stroke-opacity=".4" stroke-width=".75"/><g><use x="181.300781" xlink:href="#d" y="133.675781"/><use x="185.75" xlink:href="#h" y="133.675781"/></g><path d="m173.910156 130.613281-73.910156-110.613281" fill="none" stroke="#ff00ac" stroke-miterlimit="10" stroke-opacity=".4" stroke-width=".75"/><g><use x="176.210938" xlink:href="#d" y="144"/><use x="180.660156" xlink:href="#b" y="144"/></g><path d="m169.28125 140-29.28125-109.28125" fill="none" stroke="#ff00a1" stroke-miterlimit="10" stroke-opacity=".4" stroke-width=".75"/><g><use x="169.816406" xlink:href="#d" y="153.570312"/><use x="174.265625" xlink:href="#i" y="153.570312"/></g><path d="m163.46875 148.699219 5.8125-88.699219" fill="none" stroke="#ff0097" stroke-miterlimit="10" stroke-opacity=".4" stroke-width=".75"/><g><use x="162.226562" xlink:href="#e" y="162.226562"/><use x="166.675781" xlink:href="#j" y="162.226562"/></g><path d="m156.570312 156.570312 23.429688-56.570312" fill="none" stroke="#ff008c" stroke-miterlimit="10" stroke-opacity=".4" stroke-width=".75"/><g><use x="153.570312" xlink:href="#e" y="169.816406"/><use x="158.019531" xlink:href="#c" y="169.816406"/></g><path d="m148.699219 163.46875 20.582031-23.46875" fill="none" stroke="#ff0082" stroke-miterlimit="10" stroke-opacity=".4" stroke-width=".75"/><g><use x="144" xlink:href="#e" y="176.210938"/><use x="148.449219" xlink:href="#d" y="176.210938"/></g><g><use x="133.675781" xlink:href="#e" y="181.300781"/><use x="138.125" xlink:href="#e" y="181.300781"/></g><path d="m130.613281 173.910156-30.613281 6.089844" fill="none" stroke="#ff006c" stroke-miterlimit="10" stroke-opacity=".4" stroke-width=".75"/><g><use x="122.777344" xlink:href="#e" y="185"/><use x="127.226562" xlink:href="#a" y="185"/></g><path d="m120.707031 177.273438-60.707031-7.992188" fill="none" stroke="#ff0062" stroke-miterlimit="10" stroke-opacity=".4" stroke-width=".75"/><g><use x="111.484375" xlink:href="#e" y="187.246094"/><use x="115.933594" xlink:href="#f" y="187.246094"/></g><path d="m110.441406 179.316406-79.722656-39.316406" fill="none" stroke="#ff0057" stroke-miterlimit="10" stroke-opacity=".4" stroke-width=".75"/><g><use x="100" xlink:href="#e" y="188"/><use x="104.449219" xlink:href="#g" y="188"/></g><path d="m100 180-80-80" fill="none" stroke="#ff004d" stroke-miterlimit="10" stroke-opacity=".4" stroke-width=".75"/><g><use x="88.515625" xlink:href="#e" y="187.246094"/><use x="92.964844" xlink:href="#h" y="187.246094"/></g><path d="m89.558594 179.316406-58.839844-119.316406" fill="none" stroke="#ff0042" stroke-miterlimit="10" stroke-opacity=".4" stroke-width=".75"/><g><use x="77.222656" xlink:href="#e" y="185"/><use x="81.671875" xlink:href="#b" y="185"/></g><path d="m79.292969 177.273438-19.292969-146.554688" fill="none" stroke="#ff0037" stroke-miterlimit="10" stroke-opacity=".4" stroke-width=".75"/><g><use x="66.324219" xlink:href="#e" y="181.300781"/><use x="70.773438" xlink:href="#i" y="181.300781"/></g><path d="m69.386719 173.910156 30.613281-153.910156" fill="none" stroke="#ff002d" stroke-miterlimit="10" stroke-opacity=".4" stroke-width=".75"/><g><use x="56" xlink:href="#a" y="176.210938"/><use x="60.449219" xlink:href="#j" y="176.210938"/></g><path d="m60 169.28125 80-138.5625" fill="none" stroke="#f02" stroke-miterlimit="10" stroke-opacity=".4" stroke-width=".75"/><g><use x="46.429688" xlink:href="#a" y="169.816406"/><use x="50.878906" xlink:href="#c" y="169.816406"/></g><path d="m51.300781 163.46875 117.980469-103.46875" fill="none" stroke="#ff0017" stroke-miterlimit="10" stroke-opacity=".4" stroke-width=".75"/><g><use x="37.773438" xlink:href="#a" y="162.226562"/><use x="42.222656" xlink:href="#d" y="162.226562"/></g><path d="m43.429688 156.570312 136.570312-56.570312" fill="none" stroke="#ff000d" stroke-miterlimit="10" stroke-opacity=".4" stroke-width=".75"/><g><use x="30.183594" xlink:href="#a" y="153.570312"/><use x="34.632812" xlink:href="#e" y="153.570312"/></g><path d="m36.53125 148.699219 132.75-8.699219" fill="none" stroke="#ff0002" stroke-miterlimit="10" stroke-opacity=".4" stroke-width=".75"/><g><use x="23.789062" xlink:href="#a" y="144"/><use x="28.238281" xlink:href="#a" y="144"/></g><path d="m30.71875 140 109.28125 29.28125" fill="none" stroke="#ff0800" stroke-miterlimit="10" stroke-opacity=".4" stroke-width=".75"/><g><use x="18.699219" xlink:href="#a" y="133.675781"/><use x="23.148438" xlink:href="#f" y="133.675781"/></g><path d="m26.089844 130.613281 73.910156 49.386719" fill="none" stroke="#ff1300" stroke-miterlimit="10" stroke-opacity=".4" stroke-width=".75"/><g><use x="15" xlink:href="#a" y="122.777344"/><use x="19.449219" xlink:href="#g" y="122.777344"/></g><path d="m22.726562 120.707031 37.273438 48.574219" fill="none" stroke="#ff1e00" stroke-miterlimit="10" stroke-opacity=".4" stroke-width=".75"/><g><use x="12.753906" xlink:href="#a" y="111.484375"/><use x="17.203125" xlink:href="#h" y="111.484375"/></g><path d="m20.683594 110.441406 10.035156 29.558594" fill="none" stroke="#ff2800" stroke-miterlimit="10" stroke-opacity=".4" stroke-width=".75"/></svg>