<svg height="200pt" viewBox="0 0 200 200" width="200pt" xmlns="http://www.w3.org/2000/svg"><g fill="none" stroke-miterlimit="10" stroke-opacity=".4" stroke-width=".75"><path d="m.0234375 97.90625 183.2695315-53.246094" stroke="#3500ff"/><path d="m.0859375 95.8125 61.1640625 96.375" stroke="#3600ff"/><path d="m.199219 93.722656 81.0625-91.953125" stroke="#3800ff"/><path d="m.351562 91.632812 169.613282 79.816407" stroke="#3a00ff"/><path d="m.546875 89.546875 1.636719-10.339844" stroke="#3b00ff"/><path d="m.789062 87.464844 192.1875-24.277344" stroke="#3d00ff"/><path d="m1.074219 85.390625 41.855469 96.722656" stroke="#3f00ff"/><path d="m1.402344 83.324219 100.691406-83.3007815" stroke="#4100ff"/><path d="m1.769531 81.261719 151.8125 103.171875" stroke="#4200ff"/><path d="m2.183594 79.207031 6.460937-19.878906" stroke="#40f"/><path d="m2.640625 77.164062 195.957031 6.160157" stroke="#4600ff"/><path d="m3.140625 75.132812 23.960937 93.320313" stroke="#4700ff"/><path d="m3.683594 73.109375 119.152344-70.46875" stroke="#4900ff"/><path d="m4.269531 71.097656 130.585938 122.628906" stroke="#4b00ff"/><path d="m4.894531 69.097656 14.203125-27.875" stroke="#4d00ff"/><path d="m5.5625 67.113281 194.351562 37.074219" stroke="#4e00ff"/><path d="m6.273438 65.144531 8.191406 86.65625" stroke="#5000ff"/><path d="m7.023438 63.1875 135.554687-53.671875" stroke="#5200ff"/><path d="m7.8125 61.25 106.796875 137.675781" stroke="#5300ff"/><path d="m8.644531 59.328125 24.441407-33.644531" stroke="#50f"/><path d="m9.515625 57.421875 187.34375 67.445313" stroke="#5700ff"/><path d="m10.429688 55.535156-4.867188 77.351563" stroke="#5800ff"/><path d="m11.378906 53.671875 149.082032-33.324219" stroke="#5a00ff"/><path d="m12.371094 51.824219 81.351562 147.976562" stroke="#5c00ff"/><path d="m13.398438 50 36.601562-36.601562" stroke="#5e00ff"/><path d="m14.464844 48.199219 175.105468 96.265625" stroke="#5f00ff"/><path d="m15.566406 46.417969-14.777344 66.117187" stroke="#6100ff"/><path d="m16.707031 44.660156 158.992188-10.003906" stroke="#6300ff"/><path d="m17.886719 42.929688 55.222656 153.386718" stroke="#6400ff"/><path d="m19.097656 41.222656 50-36.328125" stroke="#60f"/><path d="m20.347656 39.539062 158.023438 122.574219" stroke="#6800ff"/><path d="m21.628906 37.886719-21.277344 53.746093" stroke="#6900ff"/><path d="m22.949219 36.257812 164.679687 15.566407" stroke="#6b00ff"/><path d="m24.300781 34.65625 29.371094 153.964844" stroke="#6d00ff"/><path d="m25.683594 33.085938 63.863281-32.539063" stroke="#6e00ff"/><path d="m27.101562 31.546875 136.640626 145.503906" stroke="#7000ff"/><path d="m28.550781 30.035156-24.28125 41.0625" stroke="#7200ff"/><path d="m30.035156 28.550781 165.695313 42.546875" stroke="#7400ff"/><path d="m31.546875 27.101562 4.710937 149.949219" stroke="#7500ff"/><path d="m33.085938 25.683594 77.367187-25.136719" stroke="#70f"/><path d="m34.65625 24.300781 111.671875 164.320313" stroke="#7900ff"/><path d="m36.257812 22.949219-23.886718 28.875" stroke="#7a00ff"/><path d="m37.886719 21.628906 161.761719 70.003906" stroke="#7c00ff"/><path d="m39.539062 20.347656-17.910156 141.765625" stroke="#7e00ff"/><path d="m41.222656 19.097656 89.679688-14.203125" stroke="#7f00ff"/><path d="m42.929688 17.886719 83.960937 178.429687" stroke="#8100ff"/><path d="m44.660156 16.707031-20.359375 17.949219" stroke="#8300ff"/><path d="m46.417969 15.566406 152.792969 96.96875" stroke="#8500ff"/><path d="m48.199219 14.464844-37.769531 130" stroke="#8600ff"/><path d="m50 13.398438h100" stroke="#80f"/><path d="m51.824219 12.371094 54.453125 187.429687" stroke="#8a00ff"/><path d="m53.671875 11.378906-14.132813 8.96875" stroke="#8b00ff"/><path d="m55.535156 10.429688 138.902344 122.457031" stroke="#8d00ff"/><path d="m57.421875 9.515625-54.28125 115.351563" stroke="#8f00ff"/><path d="m59.328125 8.644531 107.585937 17.039063" stroke="#9100ff"/><path d="m61.25 7.8125 24.140625 191.113281" stroke="#9200ff"/><path d="m63.1875 7.023438-5.765625 2.492187" stroke="#9400ff"/><path d="m65.144531 6.273438 120.390625 145.527343" stroke="#9600ff"/><path d="m67.113281 5.5625-67.0273435 98.625" stroke="#9700ff"/><path d="m69.097656 4.894531 111.804688 36.328125" stroke="#90f"/><path d="m71.097656 4.269531-5.953125 189.457031" stroke="#9b00ff"/><path d="m73.109375 3.683594 4.054687-1.042969" stroke="#9c00ff"/><path d="m75.132812 3.140625 97.765626 165.3125" stroke="#9e00ff"/><path d="m77.164062 2.640625-75.761718 80.683594" stroke="#a000ff"/><path d="m79.207031 2.183594 112.148438 57.144531" stroke="#a100ff"/><path d="m81.261719 1.769531-34.84375 182.664063" stroke="#a300ff"/><path d="m83.324219 1.402344 14.582031-1.3789065" stroke="#a500ff"/><path d="m85.390625 1.074219 71.679687 181.039062" stroke="#a700ff"/><path d="m87.464844.789062-80.441406 62.398438" stroke="#a800ff"/><path d="m89.546875.546875 108.269531 78.660156" stroke="#a0f"/><path d="m91.632812.351562-61.597656 171.097657" stroke="#ac00ff"/><path d="m93.722656.199219 25.015625 1.570312" stroke="#ad00ff"/><path d="m95.8125.0859375 42.9375 192.1015625" stroke="#af00ff"/><path d="m97.90625.0234375-81.199219 44.6367185" stroke="#b100ff"/><path d="m100 0 100 100" stroke="#b300ff"/><path d="m102.09375.0234375-85.386719 155.3164065" stroke="#b400ff"/><path d="m104.1875.0859375 34.5625 7.7265625" stroke="#b600ff"/><path d="m106.277344.199219 12.460937 198.03125" stroke="#b800ff"/><path d="m108.367188.351562-78.332032 28.199219" stroke="#b900ff"/><path d="m110.453125.546875 87.363281 120.246094" stroke="#b0f"/><path d="m112.535156.789062-105.511718 136.023438" stroke="#bd00ff"/><path d="m114.609375 1.074219 42.460937 16.8125" stroke="#be00ff"/><path d="m116.675781 1.402344-18.769531 198.574218" stroke="#c000ff"/><path d="m118.738281 1.769531-72.320312 13.796875" stroke="#c200ff"/><path d="m120.792969 2.183594 70.5625 138.488281" stroke="#c400ff"/><path d="m122.835938 2.640625-121.433594 114.035156" stroke="#c500ff"/><path d="m124.867188 3.140625 48.03125 28.40625" stroke="#c700ff"/><path d="m126.890625 3.683594-49.726563 193.675781" stroke="#c900ff"/><path d="m128.902344 4.269531-63.757813 2.003907" stroke="#ca00ff"/><path d="m130.902344 4.894531 50 153.882813" stroke="#c0f"/><path d="m132.886719 5.5625-132.8007815 90.25" stroke="#ce00ff"/><path d="m134.855469 6.273438 50.679687 41.925781" stroke="#cf00ff"/><path d="m136.8125 7.023438-79.390625 183.460937" stroke="#d100ff"/><path d="m138.75 7.8125-53.359375-6.738281" stroke="#d300ff"/><path d="m140.671875 8.644531 26.242187 165.671875" stroke="#d400ff"/><path d="m142.578125 9.515625-139.4375 65.617187" stroke="#d600ff"/><path d="m144.464844 10.429688 49.972656 56.683593" stroke="#d800ff"/><path d="m146.328125 11.378906-106.789063 168.273438" stroke="#da00ff"/><path d="m148.175781 12.371094-41.898437-12.171875" stroke="#db00ff"/><path d="m150 13.398438v173.203124" stroke="#d0f"/><path d="m151.800781 14.464844-141.371093 41.070312" stroke="#df00ff"/><path d="m153.582031 15.566406 45.628907 71.898438" stroke="#e000ff"/><path d="m155.339844 16.707031-131.039063 148.636719" stroke="#e200ff"/><path d="m157.070312 17.886719-30.179687-14.203125" stroke="#e400ff"/><path d="m158.777344 19.097656-27.875 176.007813" stroke="#e500ff"/><path d="m160.460938 20.347656-138.832032 17.539063" stroke="#e700ff"/><path d="m162.113281 21.628906 37.535157 86.738282" stroke="#e900ff"/><path d="m163.742188 22.949219-151.371094 125.226562" stroke="#eb00ff"/><path d="m165.34375 24.300781-19.015625-12.921875" stroke="#ec00ff"/><path d="m166.914062 25.683594-56.460937 173.769531" stroke="#e0f"/><path d="m168.453125 27.101562-132.195313-4.152343" stroke="#f000ff"/><path d="m169.964844 28.550781 25.765625 100.351563" stroke="#f100ff"/><path d="m171.449219 30.035156-167.179688 98.867188" stroke="#f300ff"/><path d="m172.898438 31.546875-9.15625-8.597656" stroke="#f500ff"/><path d="m174.316406 33.085938-84.769531 166.367187" stroke="#f700ff"/><path d="m175.699219 34.65625-122.027344-23.277344" stroke="#f800ff"/><path d="m177.050781 36.257812 10.578125 111.917969" stroke="#fa00ff"/><path d="m178.371094 37.886719-178.019532 70.480469" stroke="#fc00ff"/><path d="m179.652344 39.539062-1.28125-1.652343" stroke="#fd00ff"/><path d="m180.902344 41.222656-111.804688 153.882813" stroke="#f0f"/><path d="m182.113281 42.929688-109.003906-39.246094" stroke="#ff00fd"/><path d="m183.292969 44.660156-7.59375 120.683594" stroke="#ff00fc"/><path d="m184.433594 46.417969-183.644532 41.046875" stroke="#ff00fa"/><path d="m185.535156 48.199219 4.035156 7.335937" stroke="#ff00f8"/><path d="m186.601562 50-136.601562 136.601562" stroke="#ff00f7"/><path d="m187.628906 51.824219-93.90625-51.625" stroke="#ff00f5"/><path d="m188.621094 53.671875-28.160156 125.980469" stroke="#ff00f3"/><path d="m189.570312 55.535156-184.007812 11.578125" stroke="#ff00f1"/><path d="m190.484375 57.421875 6.375 17.710937" stroke="#ff00f0"/><path d="m191.355469 59.328125-158.269531 114.988281" stroke="#f0e"/><path d="m192.1875 61.25-77.578125-60.175781" stroke="#ff00ec"/><path d="m192.976562 63.1875-50.398437 127.296875" stroke="#ff00eb"/><path d="m193.726562 65.144531-179.261718-16.945312" stroke="#ff00e9"/><path d="m194.4375 67.113281 5.476562 28.699219" stroke="#ff00e7"/><path d="m195.105469 69.097656-176.007813 89.679688" stroke="#ff00e5"/><path d="m195.730469 71.097656-60.875-64.824218" stroke="#ff00e4"/><path d="m196.316406 73.109375-73.480468 124.25" stroke="#ff00e2"/><path d="m196.859375 75.132812-169.757813-43.585937" stroke="#ff00e0"/><path d="m197.359375 77.164062 1.238281 39.511719" stroke="#ff00df"/><path d="m197.816406 79.207031-189.171875 61.464844" stroke="#f0d"/><path d="m198.230469 81.261719-44.648438-65.695313" stroke="#ff00db"/><path d="m198.597656 83.324219-96.503906 116.652343" stroke="#ff00da"/><path d="m198.925781 85.390625-155.996093-67.503906" stroke="#ff00d8"/><path d="m199.210938 87.464844-6.234376 49.347656" stroke="#ff00d6"/><path d="m199.453125 89.546875-197.269531 31.246094" stroke="#ff00d4"/><path d="m199.648438 91.632812-29.683594-63.082031" stroke="#ff00d3"/><path d="m199.800781 93.722656-118.539062 104.507813" stroke="#ff00d1"/><path d="m199.914062 95.8125-138.664062-88" stroke="#ff00cf"/><path d="m199.976562 97.90625-16.683593 57.433594" stroke="#ff00ce"/><path d="m200 100h-200" stroke="#f0c"/><path d="m199.976562 102.09375-16.683593-57.433594" stroke="#ff00ca"/><path d="m199.914062 104.1875-138.664062 88" stroke="#ff00c9"/><path d="m199.800781 106.277344-118.539062-104.507813" stroke="#ff00c7"/><path d="m199.648438 108.367188-29.683594 63.082031" stroke="#ff00c5"/><path d="m199.453125 110.453125-197.269531-31.246094" stroke="#ff00c4"/><path d="m199.210938 112.535156-6.234376-49.347656" stroke="#ff00c2"/><path d="m198.925781 114.609375-155.996093 67.503906" stroke="#ff00c0"/><path d="m198.597656 116.675781-96.503906-116.6523435" stroke="#ff00be"/><path d="m198.230469 118.738281-44.648438 65.695313" stroke="#ff00bd"/><path d="m197.816406 120.792969-189.171875-61.464844" stroke="#f0b"/><path d="m197.359375 122.835938 1.238281-39.511719" stroke="#ff00b9"/><path d="m196.859375 124.867188-169.757813 43.585937" stroke="#ff00b8"/><path d="m196.316406 126.890625-73.480468-124.25" stroke="#ff00b6"/><path d="m195.730469 128.902344-60.875 64.824218" stroke="#ff00b4"/><path d="m195.105469 130.902344-176.007813-89.679688" stroke="#ff00b3"/><path d="m194.4375 132.886719 5.476562-28.699219" stroke="#ff00b1"/><path d="m193.726562 134.855469-179.261718 16.945312" stroke="#ff00af"/><path d="m192.976562 136.8125-50.398437-127.296875" stroke="#ff00ad"/><path d="m192.1875 138.75-77.578125 60.175781" stroke="#ff00ac"/><path d="m191.355469 140.671875-158.269531-114.988281" stroke="#f0a"/><path d="m190.484375 142.578125 6.375-17.710937" stroke="#ff00a8"/><path d="m189.570312 144.464844-184.007812-11.578125" stroke="#ff00a7"/><path d="m188.621094 146.328125-28.160156-125.980469" stroke="#ff00a5"/><path d="m187.628906 148.175781-93.90625 51.625" stroke="#ff00a3"/><path d="m186.601562 150-136.601562-136.601562" stroke="#ff00a1"/><path d="m185.535156 151.800781 4.035156-7.335937" stroke="#ff00a0"/><path d="m184.433594 153.582031-183.644532-41.046875" stroke="#ff009e"/><path d="m183.292969 155.339844-7.59375-120.683594" stroke="#ff009c"/><path d="m182.113281 157.070312-109.003906 39.246094" stroke="#ff009b"/><path d="m180.902344 158.777344-111.804688-153.882813" stroke="#f09"/><path d="m179.652344 160.460938-1.28125 1.652343" stroke="#ff0097"/><path d="m178.371094 162.113281-178.019532-70.480469" stroke="#ff0096"/><path d="m177.050781 163.742188 10.578125-111.917969" stroke="#ff0094"/><path d="m175.699219 165.34375-122.027344 23.277344" stroke="#ff0092"/><path d="m174.316406 166.914062-84.769531-166.367187" stroke="#ff0091"/><path d="m172.898438 168.453125-9.15625 8.597656" stroke="#ff008f"/><path d="m171.449219 169.964844-167.179688-98.867188" stroke="#ff008d"/><path d="m169.964844 171.449219 25.765625-100.351563" stroke="#ff008b"/><path d="m168.453125 172.898438-132.195313 4.152343" stroke="#ff008a"/><path d="m166.914062 174.316406-56.460937-173.769531" stroke="#f08"/><path d="m165.34375 175.699219-19.015625 12.921875" stroke="#ff0086"/><path d="m163.742188 177.050781-151.371094-125.226562" stroke="#ff0085"/><path d="m162.113281 178.371094 37.535157-86.738282" stroke="#ff0083"/><path d="m160.460938 179.652344-138.832032-17.539063" stroke="#ff0081"/><path d="m158.777344 180.902344-27.875-176.007813" stroke="#ff007f"/><path d="m157.070312 182.113281-30.179687 14.203125" stroke="#ff007e"/><path d="m155.339844 183.292969-131.039063-148.636719" stroke="#ff007c"/><path d="m153.582031 184.433594 45.628907-71.898438" stroke="#ff007a"/><path d="m151.800781 185.535156-141.371093-41.070312" stroke="#ff0079"/><path d="m150 186.601562v-173.203124" stroke="#f07"/><path d="m148.175781 187.628906-41.898437 12.171875" stroke="#ff0075"/><path d="m146.328125 188.621094-106.789063-168.273438" stroke="#ff0074"/><path d="m144.464844 189.570312 49.972656-56.683593" stroke="#ff0072"/><path d="m142.578125 190.484375-139.4375-65.617187" stroke="#ff0070"/><path d="m140.671875 191.355469 26.242187-165.671875" stroke="#ff006e"/><path d="m138.75 192.1875-53.359375 6.738281" stroke="#ff006d"/><path d="m136.8125 192.976562-79.390625-183.460937" stroke="#ff006b"/><path d="m134.855469 193.726562 50.679687-41.925781" stroke="#ff0069"/><path d="m132.886719 194.4375-132.8007815-90.25" stroke="#ff0068"/><path d="m130.902344 195.105469 50-153.882813" stroke="#f06"/><path d="m128.902344 195.730469-63.757813-2.003907" stroke="#ff0064"/><path d="m126.890625 196.316406-49.726563-193.675781" stroke="#ff0063"/><path d="m124.867188 196.859375 48.03125-28.40625" stroke="#ff0061"/><path d="m122.835938 197.359375-121.433594-114.035156" stroke="#ff005f"/><path d="m120.792969 197.816406 70.5625-138.488281" stroke="#ff005e"/><path d="m118.738281 198.230469-72.320312-13.796875" stroke="#ff005c"/><path d="m116.675781 198.597656-18.769531-198.5742185" stroke="#ff005a"/><path d="m114.609375 198.925781 42.460937-16.8125" stroke="#ff0058"/><path d="m112.535156 199.210938-105.511718-136.023438" stroke="#ff0057"/><path d="m110.453125 199.453125 87.363281-120.246094" stroke="#f05"/><path d="m108.367188 199.648438-78.332032-28.199219" stroke="#ff0053"/><path d="m106.277344 199.800781 12.460937-198.03125" stroke="#ff0052"/><path d="m104.1875 199.914062 34.5625-7.726562" stroke="#ff0050"/><path d="m102.09375 199.976562-85.386719-155.316406" stroke="#ff004e"/><path d="m100 200 100-100" stroke="#ff004d"/><path d="m97.90625 199.976562-81.199219-44.636718" stroke="#ff004b"/><path d="m95.8125 199.914062 42.9375-192.101562" stroke="#ff0049"/><path d="m93.722656 199.800781 25.015625-1.570312" stroke="#ff0047"/><path d="m91.632812 199.648438-61.597656-171.097657" stroke="#ff0046"/><path d="m89.546875 199.453125 108.269531-78.660156" stroke="#f04"/><path d="m87.464844 199.210938-80.441406-62.398438" stroke="#ff0042"/><path d="m85.390625 198.925781 71.679687-181.039062" stroke="#ff0041"/><path d="m83.324219 198.597656 14.582031 1.378906" stroke="#ff003f"/><path d="m81.261719 198.230469-34.84375-182.664063" stroke="#ff003d"/><path d="m79.207031 197.816406 112.148438-57.144531" stroke="#ff003b"/><path d="m77.164062 197.359375-75.761718-80.683594" stroke="#ff003a"/><path d="m75.132812 196.859375 97.765626-165.3125" stroke="#ff0038"/><path d="m73.109375 196.316406 4.054687 1.042969" stroke="#ff0036"/><path d="m71.097656 195.730469-5.953125-189.457031" stroke="#ff0035"/><path d="m69.097656 195.105469 111.804688-36.328125" stroke="#f03"/><path d="m67.113281 194.4375-67.0273435-98.625" stroke="#ff0031"/><path d="m65.144531 193.726562 120.390625-145.527343" stroke="#ff0030"/><path d="m63.1875 192.976562-5.765625-2.492187" stroke="#ff002e"/><path d="m61.25 192.1875 24.140625-191.113281" stroke="#ff002c"/><path d="m59.328125 191.355469 107.585937-17.039063" stroke="#ff002b"/><path d="m57.421875 190.484375-54.28125-115.351563" stroke="#ff0029"/><path d="m55.535156 189.570312 138.902344-122.457031" stroke="#ff0027"/><path d="m53.671875 188.621094-14.132813-8.96875" stroke="#ff0025"/><path d="m51.824219 187.628906 54.453125-187.429687" stroke="#ff0024"/><path d="m50 186.601562h100" stroke="#f02"/><path d="m48.199219 185.535156-37.769531-130" stroke="#ff0020"/><path d="m46.417969 184.433594 152.792969-96.96875" stroke="#ff001f"/><path d="m44.660156 183.292969-20.359375-17.949219" stroke="#ff001d"/><path d="m42.929688 182.113281 83.960937-178.429687" stroke="#ff001b"/><path d="m41.222656 180.902344 89.679688 14.203125" stroke="#ff001a"/><path d="m39.539062 179.652344-17.910156-141.765625" stroke="#ff0018"/><path d="m37.886719 178.371094 161.761719-70.003906" stroke="#ff0016"/><path d="m36.257812 177.050781-23.886718-28.875" stroke="#ff0014"/><path d="m34.65625 175.699219 111.671875-164.320313" stroke="#ff0013"/><path d="m33.085938 174.316406 77.367187 25.136719" stroke="#f01"/><path d="m31.546875 172.898438 4.710937-149.949219" stroke="#ff000f"/><path d="m30.035156 171.449219 165.695313-42.546875" stroke="#ff000e"/><path d="m28.550781 169.964844-24.28125-41.0625" stroke="#ff000c"/><path d="m27.101562 168.453125 136.640626-145.503906" stroke="#ff000a"/><path d="m25.683594 166.914062 63.863281 32.539063" stroke="#ff0008"/><path d="m24.300781 165.34375 29.371094-153.964844" stroke="#ff0007"/><path d="m22.949219 163.742188 164.679687-15.566407" stroke="#ff0005"/><path d="m21.628906 162.113281-21.277344-53.746093" stroke="#ff0003"/><path d="m20.347656 160.460938 158.023438-122.574219" stroke="#ff0002"/><path d="m19.097656 158.777344 50 36.328125" stroke="#f00"/><path d="m17.886719 157.070312 55.222656-153.386718" stroke="#ff0200"/><path d="m16.707031 155.339844 158.992188 10.003906" stroke="#ff0300"/><path d="m15.566406 153.582031-14.777344-66.117187" stroke="#ff0500"/><path d="m14.464844 151.800781 175.105468-96.265625" stroke="#ff0700"/><path d="m13.398438 150 36.601562 36.601562" stroke="#ff0800"/><path d="m12.371094 148.175781 81.351562-147.976562" stroke="#ff0a00"/><path d="m11.378906 146.328125 149.082032 33.324219" stroke="#ff0c00"/><path d="m10.429688 144.464844-4.867188-77.351563" stroke="#ff0e00"/><path d="m9.515625 142.578125 187.34375-67.445313" stroke="#ff0f00"/><path d="m8.644531 140.671875 24.441407 33.644531" stroke="#f10"/><path d="m7.8125 138.75 106.796875-137.675781" stroke="#ff1300"/><path d="m7.023438 136.8125 135.554687 53.671875" stroke="#ff1400"/><path d="m6.273438 134.855469 8.191406-86.65625" stroke="#ff1600"/><path d="m5.5625 132.886719 194.351562-37.074219" stroke="#ff1800"/><path d="m4.894531 130.902344 14.203125 27.875" stroke="#ff1a00"/><path d="m4.269531 128.902344 130.585938-122.628906" stroke="#ff1b00"/><path d="m3.683594 126.890625 119.152344 70.46875" stroke="#ff1d00"/><path d="m3.140625 124.867188 23.960937-93.320313" stroke="#ff1f00"/><path d="m2.640625 122.835938 195.957031-6.160157" stroke="#ff2000"/><path d="m2.183594 120.792969 6.460937 19.878906" stroke="#f20"/><path d="m1.769531 118.738281 151.8125-103.171875" stroke="#ff2400"/><path d="m1.402344 116.675781 100.691406 83.300781" stroke="#ff2500"/><path d="m1.074219 114.609375 41.855469-96.722656" stroke="#ff2700"/><path d="m.789062 112.535156 192.1875 24.277344" stroke="#ff2900"/><path d="m.546875 110.453125 1.636719 10.339844" stroke="#ff2b00"/><path d="m.351562 108.367188 169.613282-79.816407" stroke="#ff2c00"/><path d="m.199219 106.277344 81.0625 91.953125" stroke="#ff2e00"/><path d="m.0859375 104.1875 61.1640625-96.375" stroke="#ff3000"/><path d="m.0234375 102.09375 183.2695315 53.246094" stroke="#ff3100"/></g></svg>