<svg height="200pt" viewBox="0 0 200 200" width="200pt" xmlns="http://www.w3.org/2000/svg" xmlns:xlink="http://www.w3.org/1999/xlink"><symbol id="a" overflow="visible"><path d="m.957031-4.953125v-.671875c.636719-.0625 1.078125-.164062 1.328125-.308594.25-.144531.4375-.488281.5625-1.027344h.691406v6.960938h-.9375v-4.953125zm0 0"/></symbol><symbol id="b" overflow="visible"><path d="m.3125 0c.03125-.601562.15625-1.125.375-1.570312.214844-.445313.636719-.851563 1.265625-1.21875l.9375-.539063c.421875-.246094.714844-.453125.882813-.625.265624-.273437.402343-.582031.402343-.929687 0-.40625-.121093-.730469-.367187-.96875-.246094-.238282-.570313-.359376-.976563-.359376-.601562 0-1.019531.226563-1.25.683594-.125.246094-.191406.582032-.207031 1.015625h-.890625c.007813-.609375.121094-1.105469.335937-1.488281.382813-.679688 1.054688-1.015625 2.015626-1.015625.800781 0 1.386718.214844 1.757812.648437.367188.433594.554688.914063.554688 1.445313 0 .558594-.199219 1.039063-.59375 1.4375-.226563.230469-.636719.507813-1.226563.835937l-.667969.375c-.316406.175782-.570312.339844-.75.5-.324218.285157-.53125.597657-.617187.945313h3.820312v.828125zm0 0"/></symbol><symbol id="c" overflow="visible"><path d="m2.597656.191406c-.828125 0-1.425781-.2265622-1.800781-.683594-.371094-.453124-.558594-1.003906-.558594-1.65625h.917969c.039062.453126.125.78125.253906.984376.230469.367187.640625.554687 1.238282.554687.460937 0 .832031-.125 1.109374-.371094.28125-.246093.421876-.566406.421876-.957031 0-.484375-.148438-.820312-.441407-1.011719-.292969-.191406-.703125-.289062-1.230469-.289062-.058593 0-.117187 0-.175781.003906-.058593 0-.121093.003906-.183593.007813v-.777344c.089843.011718.167968.015625.230468.019531s.128906.003906.199219.003906c.328125 0 .597656-.050781.8125-.15625.371094-.183593.554687-.507812.554687-.976562 0-.347657-.125-.617188-.371093-.804688-.246094-.1875-.535157-.285156-.863281-.285156-.585938 0-.992188.195313-1.21875.585937-.121094.214844-.191407.523438-.207032.921876h-.871094c0-.523438.105469-.964844.3125-1.328126.359376-.652343.988282-.976562 1.890626-.976562.710937 0 1.265624.15625 1.65625.472656.390624.316406.585937.777344.585937 1.378906 0 .429688-.117187.78125-.347656 1.046876-.144531.164062-.328125.296874-.558594.390624.367187.101563.65625.296876.863281.582032.207032.289062.308594.640625.308594 1.058594 0 .667968-.21875 1.210937-.65625 1.632812-.441406.4179688-1.0625.628906-1.871094.628906zm0 0"/></symbol><symbol id="d" overflow="visible"><path d="m3.304688-2.476562v-3.167969l-2.242188 3.167969zm.015624 2.476562v-1.710938h-3.066406v-.859374l3.203125-4.441407h.742188v4.535157h1.03125v.765624h-1.03125v1.710938zm0 0"/></symbol><symbol id="e" overflow="visible"><path d="m1.234375-1.78125c.058594.5.292969.847656.699219 1.039062.207031.097657.449218.148438.722656.148438.519531 0 .90625-.167969 1.15625-.5s.375-.699219.375-1.101562c0-.488282-.148438-.867188-.445312-1.132813-.296876-.269531-.65625-.402344-1.070313-.402344-.304687 0-.5625.058594-.78125.175781-.214844.117188-.398437.28125-.554687.488282l-.757813-.042969.53125-3.765625h3.632813v.851562h-2.976563l-.296875 1.941407c.164062-.125.320312-.214844.464844-.277344.261718-.109375.5625-.164063.902344-.164063.640624 0 1.1875.207032 1.632812.621094.445312.414063.667969.9375.667969 1.574219 0 .660156-.203125 1.242187-.613281 1.746094-.40625.503906-1.058594.757812-1.953126.757812-.570312 0-1.074218-.160156-1.511718-.480469-.4375-.320312-.683594-.8125-.738282-1.476562zm0 0"/></symbol><symbol id="f" overflow="visible"><path d="m2.925781-7.023438c.78125 0 1.324219.203126 1.632813.609376s.460937.824218.460937 1.253906h-.871093c-.050782-.277344-.132813-.496094-.246094-.652344-.210938-.292969-.535156-.4375-.964844-.4375-.492188 0-.878906.226562-1.171875.679688-.289063.453124-.449219 1.105468-.480469 1.953124.199219-.296874.453125-.519531.761719-.664062.28125-.132812.589844-.195312.9375-.195312.585937 0 1.097656.1875 1.53125.5625.4375.375.65625.929687.65625 1.671874 0 .636719-.207031 1.199219-.621094 1.6875-.414062.492188-1.003906.734376-1.769531.734376-.652344 0-1.21875-.2460942-1.691406-.742188-.476563-.496094-.714844-1.332031-.714844-2.507812 0-.871094.105469-1.609376.320312-2.210938.40625-1.160156 1.148438-1.742188 2.230469-1.742188zm-.066406 6.421876c.464844 0 .808594-.15625 1.039063-.464844.230468-.3125.34375-.679688.34375-1.101563 0-.359375-.101563-.699219-.304688-1.023437-.207031-.324219-.578125-.484375-1.121094-.484375-.378906 0-.707031.125-.992187.375-.285157.25-.425781.628906-.425781 1.132812 0 .441407.128906.816407.386718 1.117188.257813.300781.617188.449219 1.074219.449219zm0 0"/></symbol><symbol id="g" overflow="visible"><path d="m5.230469-6.875v.765625c-.226563.21875-.523438.597656-.898438 1.140625-.371093.539062-.699219 1.121094-.988281 1.746094-.28125.609375-.496094 1.164062-.644531 1.664062-.09375.324219-.214844.84375-.363281 1.558594h-.972657c.222657-1.335938.707031-2.664062 1.464844-3.984375.445313-.773437.914063-1.445313 1.40625-2.007813h-3.867187v-.882812zm0 0"/></symbol><symbol id="h" overflow="visible"><path d="m2.71875-4.0625c.386719 0 .691406-.109375.910156-.324219.21875-.214843.324219-.476562.324219-.773437 0-.261719-.101563-.5-.3125-.71875-.207031-.21875-.523437-.328125-.949219-.328125-.425781 0-.730468.109375-.917968.328125s-.285157.472656-.285157.765625c0 .328125.121094.585937.367188.773437.246093.183594.53125.277344.863281.277344zm.054688 3.460938c.40625 0 .746093-.109376 1.011718-.328126.269532-.21875.402344-.546874.402344-.984374 0-.453126-.136719-.796876-.414062-1.03125-.277344-.234376-.628907-.351563-1.0625-.351563-.421876 0-.761719.121094-1.027344.359375s-.398438.570312-.398438.992188c0 .367187.121094.679687.363282.945312.242187.265625.617187.398438 1.125.398438zm-1.25-3.125c-.242188-.101563-.433594-.226563-.570313-.367188-.257813-.257812-.386719-.597656-.386719-1.015625 0-.519531.1875-.964844.566406-1.339844.378907-.375.914063-.5625 1.605469-.5625.671875 0 1.199219.175781 1.578125.53125.378906.351563.570313.765625.570313 1.238281 0 .433594-.109375.789063-.332031 1.058594-.125.152344-.316407.300782-.574219.449219.289062.132813.515625.285156.683593.457031.308594.324219.460938.75.460938 1.269532 0 .617187-.203125 1.136718-.617188 1.566406-.414062.425781-1 .640625-1.753906.640625-.679687 0-1.253906-.183594-1.726562-.554688-.46875-.367187-.707032-.902343-.707032-1.605469 0-.414062.101563-.773437.304688-1.074218.203125-.300782.5-.53125.898438-.691406zm0 0"/></symbol><symbol id="i" overflow="visible"><path d="m1.328125-1.6875c.027344.484375.214844.820312.5625 1.003906.179687.097656.378906.144532.605469.144532.417968 0 .777344-.171876 1.074218-.523438.296876-.351562.503907-1.058594.628907-2.132812-.195313.3125-.4375.527343-.726563.652343-.285156.125-.597656.191407-.929687.191407-.671875 0-1.207031-.210938-1.597657-.632813-.390624-.417969-.589843-.960937-.589843-1.621094 0-.632812.195312-1.191406.582031-1.675781.386719-.480469.957031-.71875 1.714844-.71875 1.019531 0 1.722656.457031 2.109375 1.375.214843.503906.320312 1.136719.320312 1.894531 0 .855469-.128906 1.613281-.386719 2.277344-.425781 1.097656-1.148437 1.648437-2.164062 1.648437-.683594 0-1.203125-.179687-1.558594-.539062-.355468-.355469-.535156-.804688-.535156-1.34375zm1.332031-1.4375c.347656 0 .667969-.113281.957032-.34375.289062-.230469.429687-.632812.429687-1.203125 0-.515625-.128906-.898437-.386719-1.152344-.257812-.25-.589844-.378906-.988281-.378906-.429687 0-.773437.144531-1.023437.433594-.253907.289062-.378907.671875-.378907 1.15625 0 .457031.109375.816406.332031 1.085937.222657.269532.574219.402344 1.058594.402344zm0 0"/></symbol><symbol id="j" overflow="visible"><path d="m2.703125-6.992188c.90625 0 1.5625.371094 1.964844 1.117188.3125.578125.46875 1.367188.46875 2.367188 0 .953124-.140625 1.738281-.425781 2.359374-.410157.890626-1.078126 1.339844-2.011719 1.339844-.839844 0-1.464844-.367187-1.875-1.09375-.339844-.609375-.511719-1.425781-.511719-2.453125 0-.792969.101562-1.476562.308594-2.042969.382812-1.0625 1.078125-1.59375 2.082031-1.59375zm-.007813 6.382813c.457032 0 .820313-.203125 1.089844-.605469.269532-.402344.402344-1.15625.402344-2.257812 0-.792969-.09375-1.445313-.289062-1.960938-.195313-.511718-.578126-.769531-1.140626-.769531-.515624 0-.894531.246094-1.132812.730469-.242188.488281-.359375 1.207031-.359375 2.152344 0 .710937.074219 1.285156.226563 1.71875.234374.660156.636718.992187 1.203124.992187zm0 0"/></symbol><g><use x="12" xlink:href="#a" y="100"/><use x="17.561523" xlink:href="#b" y="100"/></g><use x="23.789062" xlink:href="#a" y="56"/><path d="m30.71875 60 29.28125-29.28125" fill="none" stroke="#5e00ff" stroke-miterlimit="10" stroke-opacity=".4" stroke-width=".75"/><use x="56" xlink:href="#b" y="23.789062"/><path d="m60 30.71875h80" fill="none" stroke="#80f" stroke-miterlimit="10" stroke-opacity=".4" stroke-width=".75"/><use x="100" xlink:href="#c" y="12"/><path d="m100 20 80 80" fill="none" stroke="#b300ff" stroke-miterlimit="10" stroke-opacity=".4" stroke-width=".75"/><use x="144" xlink:href="#d" y="23.789062"/><path d="m140 30.71875v138.5625" fill="none" stroke="#d0f" stroke-miterlimit="10" stroke-opacity=".4" stroke-width=".75"/><use x="176.210938" xlink:href="#e" y="56"/><path d="m169.28125 60-109.28125 109.28125" fill="none" stroke="#ff00f7" stroke-miterlimit="10" stroke-opacity=".4" stroke-width=".75"/><use x="188" xlink:href="#f" y="100"/><path d="m180 100h-160" fill="none" stroke="#f0c" stroke-miterlimit="10" stroke-opacity=".4" stroke-width=".75"/><use x="176.210938" xlink:href="#g" y="144"/><path d="m169.28125 140-109.28125-109.28125" fill="none" stroke="#ff00a1" stroke-miterlimit="10" stroke-opacity=".4" stroke-width=".75"/><use x="144" xlink:href="#h" y="176.210938"/><path d="m140 169.28125v-138.5625" fill="none" stroke="#f07" stroke-miterlimit="10" stroke-opacity=".4" stroke-width=".75"/><use x="100" xlink:href="#i" y="188"/><path d="m100 180 80-80" fill="none" stroke="#ff004d" stroke-miterlimit="10" stroke-opacity=".4" stroke-width=".75"/><g><use x="56" xlink:href="#a" y="176.210938"/><use x="61.561523" xlink:href="#j" y="176.210938"/></g><path d="m60 169.28125h80" fill="none" stroke="#f02" stroke-miterlimit="10" stroke-opacity=".4" stroke-width=".75"/><g><use x="23.789062" xlink:href="#a" y="144"/><use x="29.350586" xlink:href="#a" y="144"/></g><path d="m30.71875 140 29.28125 29.28125" fill="none" stroke="#ff0800" stroke-miterlimit="10" stroke-opacity=".4" stroke-width=".75"/></svg>